G04 Layer: BottomLayer*
G04 EasyEDA v6.5.22, 2022-12-23 01:18:02*
G04 f2f130ce3e2f400aa02b458887310340,9c64b28349a745268246d024528a85f0,10*
G04 Gerber Generator version 0.2*
G04 Scale: 100 percent, Rotated: No, Reflected: No *
G04 Dimensions in millimeters *
G04 leading zeros omitted , absolute positions ,4 integer and 5 decimal *
%FSLAX45Y45*%
%MOMM*%

%AMMACRO1*21,1,$1,$2,0,0,$3*%
%ADD10C,0.8000*%
%ADD11C,0.5000*%
%ADD12MACRO1,0.54X0.5656X90.0000*%
%ADD13O,0.9999979999999999X1.6999966*%
%ADD14O,0.9999979999999999X2.0999958*%
%ADD15R,0.5660X0.5400*%
%ADD16C,1.1000*%
%ADD17C,0.3500*%
%ADD18C,0.0010*%

%LPD*%
G36*
X1373276Y13195807D02*
G01*
X1369212Y13196671D01*
X1365808Y13199110D01*
X1363675Y13202716D01*
X1363167Y13206831D01*
X1363421Y13209727D01*
X1363421Y13278866D01*
X1362506Y13288924D01*
X1360017Y13298271D01*
X1355953Y13307060D01*
X1350416Y13314934D01*
X1343558Y13321792D01*
X1335633Y13327329D01*
X1326896Y13331444D01*
X1317548Y13333933D01*
X1307896Y13334796D01*
X1298244Y13333933D01*
X1288948Y13331444D01*
X1280160Y13327329D01*
X1273810Y13322858D01*
X1269746Y13321182D01*
X1265326Y13321385D01*
X1261414Y13323417D01*
X1258773Y13326922D01*
X1257808Y13331190D01*
X1257808Y13883132D01*
X1258570Y13887043D01*
X1260805Y13890294D01*
X1264056Y13892530D01*
X1267968Y13893292D01*
X1866341Y13893292D01*
X1870202Y13892530D01*
X1873504Y13890345D01*
X1875739Y13887094D01*
X1876501Y13883233D01*
X1875789Y13879372D01*
X1873656Y13876070D01*
X1870456Y13873835D01*
X1863496Y13870787D01*
X1855165Y13865301D01*
X1847799Y13858544D01*
X1841652Y13850670D01*
X1836928Y13841882D01*
X1833676Y13832433D01*
X1832051Y13822578D01*
X1832051Y13812621D01*
X1833676Y13802766D01*
X1836928Y13793317D01*
X1841652Y13784529D01*
X1847799Y13776655D01*
X1855165Y13769898D01*
X1857197Y13768527D01*
X1859635Y13766292D01*
X1861261Y13763345D01*
X1861769Y13760043D01*
X1861769Y13681201D01*
X1861007Y13677290D01*
X1858772Y13673988D01*
X1855470Y13671804D01*
X1851558Y13671042D01*
X1588262Y13672616D01*
X1579422Y13671854D01*
X1571345Y13669619D01*
X1563776Y13665911D01*
X1557070Y13660882D01*
X1551381Y13654735D01*
X1546910Y13647623D01*
X1543862Y13639800D01*
X1542237Y13631570D01*
X1542186Y13623188D01*
X1543710Y13614907D01*
X1546656Y13607084D01*
X1551076Y13599922D01*
X1556664Y13593673D01*
X1563319Y13588593D01*
X1570837Y13584783D01*
X1578864Y13582446D01*
X1587703Y13581583D01*
X1891182Y13579805D01*
X1900021Y13580567D01*
X1908098Y13582802D01*
X1915617Y13586510D01*
X1922322Y13591489D01*
X1928012Y13597686D01*
X1932482Y13604798D01*
X1935581Y13612571D01*
X1937156Y13620851D01*
X1937207Y13629233D01*
X1935734Y13637463D01*
X1932736Y13645337D01*
X1928368Y13652500D01*
X1925421Y13655751D01*
X1923491Y13658900D01*
X1922830Y13662558D01*
X1922830Y13760043D01*
X1923338Y13763345D01*
X1924964Y13766292D01*
X1927402Y13768527D01*
X1929434Y13769898D01*
X1936800Y13776655D01*
X1942947Y13784529D01*
X1947672Y13793317D01*
X1950923Y13802766D01*
X1952548Y13812621D01*
X1952548Y13822578D01*
X1950923Y13832433D01*
X1947672Y13841882D01*
X1942947Y13850670D01*
X1936800Y13858544D01*
X1929434Y13865301D01*
X1921103Y13870787D01*
X1914143Y13873835D01*
X1910943Y13876070D01*
X1908810Y13879372D01*
X1908048Y13883233D01*
X1908860Y13887094D01*
X1911096Y13890345D01*
X1914347Y13892530D01*
X1918207Y13893292D01*
X2211832Y13893292D01*
X2215743Y13892530D01*
X2218994Y13890294D01*
X2221230Y13887043D01*
X2221992Y13883132D01*
X2221992Y13327989D01*
X2221026Y13323671D01*
X2218385Y13320217D01*
X2214473Y13318185D01*
X2210054Y13317982D01*
X2205990Y13319658D01*
X2198878Y13324636D01*
X2190140Y13328700D01*
X2180793Y13331240D01*
X2171141Y13332053D01*
X2161540Y13331240D01*
X2152192Y13328700D01*
X2143404Y13324636D01*
X2135479Y13319099D01*
X2128672Y13312241D01*
X2123135Y13304316D01*
X2119020Y13295579D01*
X2116531Y13286232D01*
X2115667Y13276122D01*
X2115667Y13206831D01*
X2115159Y13202716D01*
X2113026Y13199110D01*
X2109622Y13196671D01*
X2105558Y13195807D01*
G37*

%LPC*%
G36*
X1374698Y13759688D02*
G01*
X1429664Y13759688D01*
X1432153Y13760094D01*
X1434846Y13762024D01*
X1435608Y13763548D01*
X1435963Y13765987D01*
X1435963Y13818412D01*
X1435608Y13820851D01*
X1433626Y13823543D01*
X1432153Y13824305D01*
X1429664Y13824712D01*
X1374698Y13824712D01*
X1372209Y13824305D01*
X1369517Y13822375D01*
X1368755Y13820851D01*
X1368399Y13818412D01*
X1368399Y13765987D01*
X1368755Y13763548D01*
X1370736Y13760856D01*
X1372209Y13760094D01*
G37*
G36*
X2037435Y13759688D02*
G01*
X2092401Y13759688D01*
X2094890Y13760094D01*
X2097582Y13762024D01*
X2098344Y13763548D01*
X2098700Y13765987D01*
X2098700Y13818412D01*
X2098344Y13820851D01*
X2096363Y13823543D01*
X2094890Y13824305D01*
X2092401Y13824712D01*
X2037435Y13824712D01*
X2034946Y13824305D01*
X2032254Y13822375D01*
X2031492Y13820851D01*
X2031136Y13818412D01*
X2031136Y13765987D01*
X2031492Y13763548D01*
X2033473Y13760856D01*
X2034946Y13760094D01*
G37*

%LPD*%
G36*
X1270000Y13855700D02*
G01*
X1270000Y13741400D01*
X1358900Y13741400D01*
X1358900Y13855700D01*
G37*
G36*
X2108200Y13855700D02*
G01*
X2108200Y13690600D01*
X2082800Y13652500D01*
X2095500Y13462000D01*
X2222500Y13449300D01*
X2222500Y13855700D01*
G37*
D10*
X1587500Y13627100D02*
G01*
X1891906Y13625296D01*
D11*
X1891908Y13628903D02*
G01*
X1892300Y13629294D01*
X1892300Y13817600D01*
D12*
G01*
X1315617Y13792200D03*
G01*
X1402182Y13792200D03*
G01*
X2064917Y13792200D03*
G01*
X2151482Y13792200D03*
D13*
G01*
X2171166Y13241578D03*
G01*
X1307922Y13244296D03*
D14*
G01*
X2171877Y13588898D03*
G01*
X1307922Y13588898D03*
D15*
G01*
X1315618Y13792200D03*
D12*
G01*
X2151482Y13792200D03*
D16*
G01*
X1892300Y13817600D03*
G01*
X1574800Y13817600D03*
D17*
G01*
X1891919Y13625296D03*
G01*
X1587500Y13627100D03*
D18*
G01*
X1399997Y13792200D03*
G01*
X2064918Y13792200D03*
D17*
G01*
X1399997Y13792200D03*
G01*
X2064918Y13792200D03*
M02*
