G04 Layer: BottomLayer*
G04 EasyEDA v6.5.22, 2022-12-23 15:57:53*
G04 3b31b9f30aa24955be28999649fc5154,9c64b28349a745268246d024528a85f0,10*
G04 Gerber Generator version 0.2*
G04 Scale: 100 percent, Rotated: No, Reflected: No *
G04 Dimensions in millimeters *
G04 leading zeros omitted , absolute positions ,4 integer and 5 decimal *
%FSLAX45Y45*%
%MOMM*%

%AMMACRO1*21,1,$1,$2,0,0,$3*%
%ADD10C,0.5000*%
%ADD11C,0.8000*%
%ADD12MACRO1,0.54X0.5656X90.0000*%
%ADD13O,0.9999979999999999X1.6999966*%
%ADD14O,0.9999979999999999X2.0999958*%
%ADD15R,0.5660X0.5400*%
%ADD16C,1.1000*%
%ADD17C,0.3500*%
%ADD18C,0.0010*%

%LPD*%
G36*
X1373581Y13208507D02*
G01*
X1369669Y13209269D01*
X1366367Y13211505D01*
X1364183Y13214756D01*
X1363421Y13218668D01*
X1363421Y13278866D01*
X1362506Y13288924D01*
X1360017Y13298271D01*
X1355953Y13307060D01*
X1350416Y13314934D01*
X1343558Y13321792D01*
X1335633Y13327329D01*
X1326896Y13331444D01*
X1317548Y13333933D01*
X1307896Y13334796D01*
X1298244Y13333933D01*
X1288948Y13331444D01*
X1280160Y13327329D01*
X1273810Y13322858D01*
X1269746Y13321182D01*
X1265326Y13321385D01*
X1261414Y13323417D01*
X1258773Y13326922D01*
X1257808Y13331190D01*
X1257808Y13870432D01*
X1258570Y13874343D01*
X1260805Y13877594D01*
X1264056Y13879830D01*
X1267968Y13880592D01*
X1845716Y13880592D01*
X1849628Y13879779D01*
X1852980Y13877493D01*
X1855165Y13874140D01*
X1855876Y13870127D01*
X1854962Y13866215D01*
X1852574Y13862964D01*
X1847799Y13858544D01*
X1841652Y13850670D01*
X1836928Y13841882D01*
X1833676Y13832433D01*
X1832051Y13822578D01*
X1832051Y13812621D01*
X1833676Y13802766D01*
X1836928Y13793317D01*
X1841652Y13784529D01*
X1847799Y13776655D01*
X1855165Y13769898D01*
X1857197Y13768527D01*
X1859635Y13766292D01*
X1861261Y13763345D01*
X1861769Y13760043D01*
X1861769Y13681201D01*
X1861007Y13677290D01*
X1858772Y13673988D01*
X1855470Y13671804D01*
X1851558Y13671042D01*
X1588262Y13672616D01*
X1579422Y13671854D01*
X1571345Y13669619D01*
X1563776Y13665911D01*
X1557070Y13660882D01*
X1551381Y13654735D01*
X1546910Y13647623D01*
X1543862Y13639800D01*
X1542237Y13631570D01*
X1542186Y13623188D01*
X1543710Y13614907D01*
X1546656Y13607084D01*
X1551076Y13599922D01*
X1556664Y13593673D01*
X1563319Y13588593D01*
X1570837Y13584783D01*
X1578864Y13582446D01*
X1587703Y13581583D01*
X1891182Y13579805D01*
X1900021Y13580567D01*
X1908098Y13582802D01*
X1915617Y13586510D01*
X1922322Y13591489D01*
X1928012Y13597686D01*
X1932482Y13604798D01*
X1935581Y13612571D01*
X1937156Y13620851D01*
X1937207Y13629233D01*
X1935734Y13637463D01*
X1932736Y13645337D01*
X1928368Y13652500D01*
X1925421Y13655751D01*
X1923491Y13658900D01*
X1922830Y13662558D01*
X1922830Y13760043D01*
X1923338Y13763345D01*
X1924964Y13766292D01*
X1927402Y13768527D01*
X1929434Y13769898D01*
X1936800Y13776655D01*
X1942947Y13784529D01*
X1947672Y13793317D01*
X1950923Y13802766D01*
X1952548Y13812621D01*
X1952548Y13822578D01*
X1950923Y13832433D01*
X1947672Y13841882D01*
X1942947Y13850670D01*
X1936800Y13858544D01*
X1932025Y13862964D01*
X1929638Y13866215D01*
X1928723Y13870127D01*
X1929434Y13874140D01*
X1931619Y13877493D01*
X1934921Y13879779D01*
X1938883Y13880592D01*
X2211832Y13880592D01*
X2215743Y13879830D01*
X2218994Y13877594D01*
X2221230Y13874343D01*
X2221992Y13870432D01*
X2221992Y13327989D01*
X2221026Y13323671D01*
X2218385Y13320217D01*
X2214473Y13318185D01*
X2210054Y13317982D01*
X2205990Y13319658D01*
X2198878Y13324636D01*
X2190140Y13328700D01*
X2180793Y13331240D01*
X2171141Y13332053D01*
X2161540Y13331240D01*
X2152192Y13328700D01*
X2143404Y13324636D01*
X2135479Y13319099D01*
X2128672Y13312241D01*
X2123135Y13304316D01*
X2119020Y13295579D01*
X2116531Y13286232D01*
X2115667Y13276122D01*
X2115667Y13218668D01*
X2114854Y13214756D01*
X2112670Y13211505D01*
X2109368Y13209269D01*
X2105507Y13208507D01*
G37*

%LPC*%
G36*
X1372819Y13759688D02*
G01*
X1427784Y13759688D01*
X1430223Y13760094D01*
X1432915Y13762024D01*
X1433728Y13763548D01*
X1434084Y13765987D01*
X1434084Y13818412D01*
X1433728Y13820851D01*
X1431747Y13823543D01*
X1430223Y13824305D01*
X1427784Y13824712D01*
X1372819Y13824712D01*
X1370330Y13824305D01*
X1367637Y13822375D01*
X1366875Y13820851D01*
X1366520Y13818412D01*
X1366520Y13765987D01*
X1366875Y13763548D01*
X1368856Y13760856D01*
X1370330Y13760094D01*
G37*
G36*
X2050135Y13759688D02*
G01*
X2105101Y13759688D01*
X2107590Y13760094D01*
X2110282Y13762024D01*
X2111044Y13763548D01*
X2111400Y13765987D01*
X2111400Y13818412D01*
X2111044Y13820851D01*
X2109063Y13823543D01*
X2107590Y13824305D01*
X2105101Y13824712D01*
X2050135Y13824712D01*
X2047646Y13824305D01*
X2044954Y13822375D01*
X2044192Y13820851D01*
X2043836Y13818412D01*
X2043836Y13765987D01*
X2044192Y13763548D01*
X2046173Y13760856D01*
X2047646Y13760094D01*
G37*

%LPD*%
G36*
X2120900Y13855700D02*
G01*
X2120900Y13766800D01*
X2108200Y13690600D01*
X2082800Y13652500D01*
X2108200Y13550900D01*
X2108200Y13474700D01*
X2222500Y13474700D01*
X2222500Y13855700D01*
G37*
G36*
X1270000Y13855700D02*
G01*
X1270000Y13741400D01*
X1358900Y13741400D01*
X1358900Y13855700D01*
G37*
D10*
X1891908Y13628903D02*
G01*
X1892300Y13629294D01*
X1892300Y13817600D01*
D11*
X1587500Y13627100D02*
G01*
X1891906Y13625296D01*
D12*
G01*
X1313734Y13792200D03*
G01*
X1400300Y13792200D03*
G01*
X2077617Y13792200D03*
G01*
X2164182Y13792200D03*
D13*
G01*
X2171166Y13241578D03*
G01*
X1307922Y13244296D03*
D14*
G01*
X2171877Y13588898D03*
G01*
X1307922Y13588898D03*
D15*
G01*
X1315618Y13792200D03*
D12*
G01*
X2164182Y13792200D03*
D16*
G01*
X1892300Y13817600D03*
G01*
X1574800Y13817600D03*
D17*
G01*
X1891919Y13625296D03*
G01*
X1587500Y13627100D03*
D18*
G01*
X1399997Y13792200D03*
G01*
X2064918Y13792200D03*
D17*
G01*
X1399997Y13792200D03*
G01*
X2079040Y13792200D03*
M02*
