G04 Layer: TopLayer*
G04 EasyEDA v6.5.22, 2022-12-23 15:57:53*
G04 3b31b9f30aa24955be28999649fc5154,9c64b28349a745268246d024528a85f0,10*
G04 Gerber Generator version 0.2*
G04 Scale: 100 percent, Rotated: No, Reflected: No *
G04 Dimensions in millimeters *
G04 leading zeros omitted , absolute positions ,4 integer and 5 decimal *
%FSLAX45Y45*%
%MOMM*%

%AMMACRO1*21,1,$1,$2,0,0,$3*%
%ADD10C,0.1270*%
%ADD11R,0.9000X1.2000*%
%ADD12R,0.8000X1.2000*%
%ADD13R,0.7000X1.2000*%
%ADD14R,0.5660X0.5400*%
%ADD15MACRO1,0.54X0.5656X90.0000*%
%ADD16O,0.9999979999999999X1.6999966*%
%ADD17O,0.9999979999999999X2.0999958*%
%ADD18C,1.1000*%
%ADD19C,0.3500*%
%ADD20C,0.0010*%

%LPD*%
G36*
X1267968Y13474700D02*
G01*
X1264056Y13475462D01*
X1260805Y13477697D01*
X1258570Y13480948D01*
X1257808Y13484860D01*
X1257808Y13832840D01*
X1258570Y13836751D01*
X1260805Y13840002D01*
X1264056Y13842238D01*
X1267968Y13843000D01*
X1338478Y13843000D01*
X1342288Y13842288D01*
X1345539Y13840206D01*
X1347724Y13837056D01*
X1348638Y13833297D01*
X1348079Y13829487D01*
X1346504Y13824966D01*
X1345793Y13818616D01*
X1345793Y13765784D01*
X1346504Y13759434D01*
X1348435Y13753998D01*
X1351483Y13749070D01*
X1355902Y13744651D01*
X1358138Y13741349D01*
X1358900Y13737488D01*
X1358900Y13691616D01*
X1359916Y13690600D01*
X1365351Y13689838D01*
X1368602Y13687602D01*
X1370838Y13684351D01*
X1371600Y13680440D01*
X1371600Y13484860D01*
X1370838Y13480948D01*
X1368602Y13477697D01*
X1365351Y13475462D01*
X1361440Y13474700D01*
G37*

%LPD*%
G36*
X2118360Y13474700D02*
G01*
X2114448Y13475462D01*
X2111197Y13477697D01*
X2108962Y13480948D01*
X2108200Y13484860D01*
X2108200Y13575284D01*
X2107184Y13576300D01*
X2060143Y13576300D01*
X2056536Y13576960D01*
X2053386Y13578890D01*
X2051100Y13581786D01*
X2050034Y13585342D01*
X2039620Y13679322D01*
X2040026Y13683538D01*
X2042109Y13687196D01*
X2045563Y13689736D01*
X2049678Y13690600D01*
X2119884Y13690600D01*
X2120900Y13691616D01*
X2120900Y13739672D01*
X2121662Y13743584D01*
X2123897Y13746835D01*
X2126081Y13749070D01*
X2129180Y13753998D01*
X2131110Y13759434D01*
X2131822Y13765784D01*
X2131822Y13818616D01*
X2131110Y13824966D01*
X2129536Y13829487D01*
X2128926Y13833297D01*
X2129840Y13837056D01*
X2132076Y13840206D01*
X2135327Y13842288D01*
X2139086Y13843000D01*
X2211832Y13843000D01*
X2215743Y13842238D01*
X2218994Y13840002D01*
X2221230Y13836751D01*
X2221992Y13832840D01*
X2221992Y13484860D01*
X2221230Y13480948D01*
X2218994Y13477697D01*
X2215743Y13475462D01*
X2211832Y13474700D01*
G37*

%LPD*%
G36*
X2120900Y13843000D02*
G01*
X2120900Y13690600D01*
X2032000Y13690600D01*
X2032000Y13576300D01*
X2108200Y13576300D01*
X2108200Y13474700D01*
X2222500Y13474700D01*
X2222500Y13843000D01*
G37*
G36*
X1257300Y13843000D02*
G01*
X1257300Y13474700D01*
X1371600Y13474700D01*
X1371600Y13576300D01*
X1422400Y13576300D01*
X1422400Y13690600D01*
X1358900Y13690600D01*
X1358900Y13843000D01*
G37*
D10*
X1789887Y13628903D02*
G01*
X1789887Y13728700D01*
X2015540Y13728700D01*
X2079040Y13792200D01*
X1400050Y13792200D02*
G01*
X1463550Y13728700D01*
X1689887Y13728700D01*
X1689887Y13628903D01*
D11*
G01*
X1464894Y13628903D03*
D12*
G01*
X1587906Y13628903D03*
D13*
G01*
X1689887Y13628903D03*
G01*
X1789887Y13628903D03*
D12*
G01*
X1891893Y13628903D03*
D11*
G01*
X2014905Y13628903D03*
D14*
G01*
X1399997Y13792200D03*
D15*
G01*
X2077617Y13792200D03*
D16*
G01*
X2171166Y13241578D03*
G01*
X1307922Y13244296D03*
D17*
G01*
X2171877Y13588898D03*
G01*
X1307922Y13588898D03*
D14*
G01*
X1315618Y13792200D03*
D15*
G01*
X2164182Y13792200D03*
D18*
G01*
X1892300Y13817600D03*
G01*
X1574800Y13817600D03*
D19*
G01*
X1891919Y13625296D03*
G01*
X1587500Y13627100D03*
D20*
G01*
X1399997Y13792200D03*
G01*
X2064918Y13792200D03*
D19*
G01*
X1399997Y13792200D03*
G01*
X2079040Y13792200D03*
M02*
