G04 Layer: TopLayer*
G04 EasyEDA v6.5.22, 2022-12-23 01:18:02*
G04 f2f130ce3e2f400aa02b458887310340,9c64b28349a745268246d024528a85f0,10*
G04 Gerber Generator version 0.2*
G04 Scale: 100 percent, Rotated: No, Reflected: No *
G04 Dimensions in millimeters *
G04 leading zeros omitted , absolute positions ,4 integer and 5 decimal *
%FSLAX45Y45*%
%MOMM*%

%AMMACRO1*21,1,$1,$2,0,0,$3*%
%ADD10C,0.1270*%
%ADD11R,0.9000X1.2000*%
%ADD12R,0.8000X1.2000*%
%ADD13R,0.7000X1.2000*%
%ADD14R,0.5660X0.5400*%
%ADD15MACRO1,0.54X0.5656X90.0000*%
%ADD16O,0.9999979999999999X1.6999966*%
%ADD17O,0.9999979999999999X2.0999958*%
%ADD18C,1.1000*%
%ADD19C,0.3500*%
%ADD20C,0.0010*%

%LPD*%
G36*
X1267968Y13449300D02*
G01*
X1264056Y13450062D01*
X1260805Y13452297D01*
X1258570Y13455548D01*
X1257808Y13459460D01*
X1257808Y13832840D01*
X1258570Y13836751D01*
X1260805Y13840002D01*
X1264056Y13842238D01*
X1267968Y13843000D01*
X1338478Y13843000D01*
X1342288Y13842288D01*
X1345539Y13840206D01*
X1347724Y13837056D01*
X1348638Y13833297D01*
X1348079Y13829487D01*
X1346504Y13824966D01*
X1345793Y13818616D01*
X1345793Y13765784D01*
X1346504Y13759434D01*
X1348435Y13753998D01*
X1351483Y13749070D01*
X1355902Y13744651D01*
X1358138Y13741349D01*
X1358900Y13737488D01*
X1358950Y13690346D01*
X1383131Y13460526D01*
X1382674Y13456310D01*
X1380540Y13452652D01*
X1377137Y13450163D01*
X1373022Y13449300D01*
G37*

%LPD*%
G36*
X2086610Y13449300D02*
G01*
X2082698Y13450062D01*
X2079447Y13452297D01*
X2077212Y13455548D01*
X2076450Y13459460D01*
X2076450Y13575284D01*
X2075434Y13576300D01*
X2060143Y13576300D01*
X2056536Y13576960D01*
X2053386Y13578890D01*
X2051100Y13581786D01*
X2050034Y13585342D01*
X2039620Y13679322D01*
X2040026Y13683538D01*
X2042109Y13687196D01*
X2045563Y13689736D01*
X2049678Y13690600D01*
X2113534Y13690600D01*
X2114550Y13691616D01*
X2114550Y13716203D01*
X2113229Y13745362D01*
X2113534Y13748410D01*
X2114753Y13751255D01*
X2116480Y13753998D01*
X2118410Y13759434D01*
X2119122Y13765784D01*
X2119122Y13818616D01*
X2118410Y13824966D01*
X2116480Y13830401D01*
X2113381Y13835329D01*
X2111705Y13837005D01*
X2109622Y13840104D01*
X2108708Y13845082D01*
X2109317Y13849096D01*
X2111502Y13852550D01*
X2114854Y13854887D01*
X2118817Y13855700D01*
X2211832Y13855700D01*
X2215743Y13854938D01*
X2218994Y13852702D01*
X2221230Y13849451D01*
X2221992Y13845540D01*
X2221992Y13459460D01*
X2221230Y13455548D01*
X2218994Y13452297D01*
X2215743Y13450062D01*
X2211832Y13449300D01*
G37*

%LPD*%
G36*
X1257300Y13843000D02*
G01*
X1257300Y13449300D01*
X1409700Y13449300D01*
X1409700Y13576300D01*
X1422400Y13576300D01*
X1422400Y13690600D01*
X1358900Y13690600D01*
X1358900Y13843000D01*
G37*
G36*
X2108200Y13855700D02*
G01*
X2108200Y13690600D01*
X2032000Y13690600D01*
X2032000Y13576300D01*
X2070100Y13576300D01*
X2070100Y13449300D01*
X2222500Y13449300D01*
X2222500Y13855700D01*
G37*
D10*
X1400047Y13792200D02*
G01*
X1463547Y13728700D01*
X1689862Y13728700D01*
X1689862Y13628878D01*
X1789937Y13641578D02*
G01*
X1789937Y13728700D01*
X1988820Y13728700D01*
X2065020Y13804900D01*
D11*
G01*
X1464894Y13628903D03*
D12*
G01*
X1587906Y13628903D03*
D13*
G01*
X1689887Y13628903D03*
G01*
X1789887Y13628903D03*
D12*
G01*
X1891893Y13628903D03*
D11*
G01*
X2014905Y13628903D03*
D14*
G01*
X1399997Y13792200D03*
D15*
G01*
X2064917Y13792200D03*
D16*
G01*
X2171166Y13241578D03*
G01*
X1307922Y13244296D03*
D17*
G01*
X2171877Y13588898D03*
G01*
X1307922Y13588898D03*
D14*
G01*
X1315618Y13792200D03*
D15*
G01*
X2151482Y13792200D03*
D18*
G01*
X1892300Y13817600D03*
G01*
X1574800Y13817600D03*
D19*
G01*
X1891919Y13625296D03*
G01*
X1587500Y13627100D03*
D20*
G01*
X1399997Y13792200D03*
G01*
X2064918Y13792200D03*
D19*
G01*
X1399997Y13792200D03*
G01*
X2064918Y13792200D03*
M02*
