G04 Layer: BottomSilkscreenLayer*
G04 EasyEDA v6.5.22, 2023-01-18 16:46:21*
G04 95a01da8446a4b23a0b3c7059fdc42c5,9c64b28349a745268246d024528a85f0,10*
G04 Gerber Generator version 0.2*
G04 Scale: 100 percent, Rotated: No, Reflected: No *
G04 Dimensions in millimeters *
G04 leading zeros omitted , absolute positions ,4 integer and 5 decimal *
%FSLAX45Y45*%
%MOMM*%

%ADD10C,0.0500*%
%ADD11C,0.0520*%
%ADD12C,0.0550*%

%LPD*%
D10*
X1654705Y13825380D02*
G01*
X1650159Y13827653D01*
X1645615Y13832199D01*
X1643341Y13836743D01*
X1643341Y13845834D01*
X1645615Y13850381D01*
X1650159Y13854925D01*
X1654705Y13857198D01*
X1661523Y13859471D01*
X1672887Y13859471D01*
X1679704Y13857198D01*
X1684251Y13854925D01*
X1688797Y13850381D01*
X1691068Y13845834D01*
X1691068Y13836743D01*
X1688797Y13832199D01*
X1684251Y13827653D01*
X1679704Y13825380D01*
X1672887Y13825380D01*
X1672887Y13836743D02*
G01*
X1672887Y13825380D01*
X1643341Y13810381D02*
G01*
X1691068Y13810381D01*
X1643341Y13810381D02*
G01*
X1691068Y13778562D01*
X1643341Y13778562D02*
G01*
X1691068Y13778562D01*
X1643341Y13763564D02*
G01*
X1691068Y13763564D01*
X1643341Y13763564D02*
G01*
X1643341Y13747653D01*
X1645615Y13740836D01*
X1650159Y13736289D01*
X1654705Y13734018D01*
X1661523Y13731745D01*
X1672887Y13731745D01*
X1679704Y13734018D01*
X1684251Y13736289D01*
X1688797Y13740836D01*
X1691068Y13747653D01*
X1691068Y13763564D01*
X1818149Y13805844D02*
G01*
X1818149Y13783119D01*
X1797695Y13780846D01*
X1799968Y13783119D01*
X1802241Y13789936D01*
X1802241Y13796754D01*
X1799968Y13803574D01*
X1795421Y13808118D01*
X1788604Y13810391D01*
X1784057Y13810391D01*
X1777240Y13808118D01*
X1772696Y13803574D01*
X1770423Y13796754D01*
X1770423Y13789936D01*
X1772696Y13783119D01*
X1774967Y13780846D01*
X1779513Y13778572D01*
X1818149Y13825390D02*
G01*
X1770423Y13843571D01*
X1818149Y13861755D02*
G01*
X1770423Y13843571D01*
X1464416Y13748626D02*
G01*
X1482597Y13700899D01*
X1464416Y13748626D02*
G01*
X1446235Y13700899D01*
X1475780Y13716807D02*
G01*
X1453052Y13716807D01*
X1431234Y13748626D02*
G01*
X1431234Y13700899D01*
X1409415Y13748626D02*
G01*
X1409415Y13709990D01*
X1407144Y13703170D01*
X1402598Y13700899D01*
X1398051Y13700899D01*
X1416235Y13732718D02*
G01*
X1400324Y13732718D01*
X1348051Y13748626D02*
G01*
X1348051Y13700899D01*
X1348051Y13748626D02*
G01*
X1327599Y13748626D01*
X1320779Y13746353D01*
X1318506Y13744079D01*
X1316235Y13739535D01*
X1316235Y13734989D01*
X1318506Y13730444D01*
X1320779Y13728171D01*
X1327599Y13725898D01*
X1348051Y13725898D01*
X1332143Y13725898D02*
G01*
X1316235Y13700899D01*
X1301234Y13739535D02*
G01*
X1296690Y13741808D01*
X1289870Y13748626D01*
X1289870Y13700899D01*
X2186414Y13748626D02*
G01*
X2204595Y13700899D01*
X2186414Y13748626D02*
G01*
X2168232Y13700899D01*
X2197778Y13716807D02*
G01*
X2175050Y13716807D01*
X2153231Y13748626D02*
G01*
X2153231Y13700899D01*
X2131413Y13748626D02*
G01*
X2131413Y13709990D01*
X2129142Y13703171D01*
X2124595Y13700899D01*
X2120049Y13700899D01*
X2138232Y13732718D02*
G01*
X2122322Y13732718D01*
X2070049Y13748626D02*
G01*
X2070049Y13700899D01*
X2070049Y13748626D02*
G01*
X2049595Y13748626D01*
X2042777Y13746353D01*
X2040503Y13744079D01*
X2038233Y13739535D01*
X2038233Y13734989D01*
X2040503Y13730444D01*
X2042777Y13728171D01*
X2049595Y13725898D01*
X2070049Y13725898D01*
X2054141Y13725898D02*
G01*
X2038233Y13700899D01*
X2020958Y13737262D02*
G01*
X2020958Y13739535D01*
X2018687Y13744079D01*
X2016414Y13746353D01*
X2011867Y13748626D01*
X2002777Y13748626D01*
X1998233Y13746353D01*
X1995959Y13744079D01*
X1993686Y13739535D01*
X1993686Y13734989D01*
X1995959Y13730444D01*
X2000504Y13723625D01*
X2023231Y13700899D01*
X1991413Y13700899D01*
D11*
X2134196Y13416648D02*
G01*
X2134196Y13367011D01*
X2134196Y13390646D02*
G01*
X2127105Y13397737D01*
X2122378Y13400102D01*
X2115286Y13400102D01*
X2110559Y13397737D01*
X2108196Y13390646D01*
X2108196Y13367011D01*
X2085505Y13416648D02*
G01*
X2085505Y13376465D01*
X2083142Y13369374D01*
X2078415Y13367011D01*
X2073689Y13367011D01*
X2092596Y13400102D02*
G01*
X2076051Y13400102D01*
X2050997Y13416648D02*
G01*
X2050997Y13376465D01*
X2048634Y13369374D01*
X2043904Y13367011D01*
X2039178Y13367011D01*
X2058088Y13400102D02*
G01*
X2041542Y13400102D01*
X2023579Y13400102D02*
G01*
X2023579Y13350466D01*
X2023579Y13393011D02*
G01*
X2018850Y13397737D01*
X2014123Y13400102D01*
X2007034Y13400102D01*
X2002307Y13397737D01*
X1997577Y13393011D01*
X1995215Y13385919D01*
X1995215Y13381192D01*
X1997577Y13374100D01*
X2002307Y13369374D01*
X2007034Y13367011D01*
X2014123Y13367011D01*
X2018850Y13369374D01*
X2023579Y13374100D01*
X1953615Y13393011D02*
G01*
X1955980Y13397737D01*
X1963069Y13400102D01*
X1970161Y13400102D01*
X1977252Y13397737D01*
X1979615Y13393011D01*
X1977252Y13388284D01*
X1972523Y13385919D01*
X1960707Y13383557D01*
X1955980Y13381192D01*
X1953615Y13376465D01*
X1953615Y13374100D01*
X1955980Y13369374D01*
X1963069Y13367011D01*
X1970161Y13367011D01*
X1977252Y13369374D01*
X1979615Y13374100D01*
X1935652Y13395374D02*
G01*
X1938014Y13393011D01*
X1935652Y13390646D01*
X1933287Y13393011D01*
X1935652Y13395374D01*
X1935652Y13378827D02*
G01*
X1938014Y13376465D01*
X1935652Y13374100D01*
X1933287Y13376465D01*
X1935652Y13378827D01*
X1875142Y13426102D02*
G01*
X1917687Y13350466D01*
X1816997Y13426102D02*
G01*
X1859544Y13350466D01*
X1801398Y13400102D02*
G01*
X1801398Y13350466D01*
X1801398Y13393011D02*
G01*
X1796671Y13397737D01*
X1791942Y13400102D01*
X1784852Y13400102D01*
X1780125Y13397737D01*
X1775396Y13393011D01*
X1773034Y13385919D01*
X1773034Y13381192D01*
X1775396Y13374100D01*
X1780125Y13369374D01*
X1784852Y13367011D01*
X1791942Y13367011D01*
X1796671Y13369374D01*
X1801398Y13374100D01*
X1757433Y13416648D02*
G01*
X1757433Y13367011D01*
X1757433Y13393011D02*
G01*
X1752706Y13397737D01*
X1747979Y13400102D01*
X1740888Y13400102D01*
X1736161Y13397737D01*
X1731434Y13393011D01*
X1729069Y13385919D01*
X1729069Y13381192D01*
X1731434Y13374100D01*
X1736161Y13369374D01*
X1740888Y13367011D01*
X1747979Y13367011D01*
X1752706Y13369374D01*
X1757433Y13374100D01*
X1685107Y13400102D02*
G01*
X1685107Y13367011D01*
X1685107Y13393011D02*
G01*
X1689834Y13397737D01*
X1694561Y13400102D01*
X1701652Y13400102D01*
X1706379Y13397737D01*
X1711106Y13393011D01*
X1713471Y13385919D01*
X1713471Y13381192D01*
X1711106Y13374100D01*
X1706379Y13369374D01*
X1701652Y13367011D01*
X1694561Y13367011D01*
X1689834Y13369374D01*
X1685107Y13374100D01*
X1669506Y13400102D02*
G01*
X1669506Y13367011D01*
X1669506Y13390646D02*
G01*
X1662414Y13397737D01*
X1657687Y13400102D01*
X1650597Y13400102D01*
X1645871Y13397737D01*
X1643506Y13390646D01*
X1643506Y13367011D01*
X1618452Y13416648D02*
G01*
X1616087Y13414283D01*
X1613725Y13416648D01*
X1616087Y13419010D01*
X1618452Y13416648D01*
X1616087Y13400102D02*
G01*
X1616087Y13359919D01*
X1618452Y13352828D01*
X1623179Y13350466D01*
X1627906Y13350466D01*
X1598124Y13416648D02*
G01*
X1595762Y13414283D01*
X1593397Y13416648D01*
X1595762Y13419010D01*
X1598124Y13416648D01*
X1595762Y13400102D02*
G01*
X1595762Y13367011D01*
X1577797Y13400102D02*
G01*
X1577797Y13367011D01*
X1577797Y13390646D02*
G01*
X1570708Y13397737D01*
X1565981Y13400102D01*
X1558889Y13400102D01*
X1554162Y13397737D01*
X1551797Y13390646D01*
X1551797Y13367011D01*
X1533834Y13378827D02*
G01*
X1536197Y13376465D01*
X1533834Y13374100D01*
X1531470Y13376465D01*
X1533834Y13378827D01*
X1489870Y13393011D02*
G01*
X1492234Y13397737D01*
X1499326Y13400102D01*
X1506415Y13400102D01*
X1513507Y13397737D01*
X1515871Y13393011D01*
X1513507Y13388284D01*
X1508780Y13385919D01*
X1496961Y13383557D01*
X1492234Y13381192D01*
X1489870Y13376465D01*
X1489870Y13374100D01*
X1492234Y13369374D01*
X1499326Y13367011D01*
X1506415Y13367011D01*
X1513507Y13369374D01*
X1515871Y13374100D01*
X1474271Y13400102D02*
G01*
X1474271Y13350466D01*
X1474271Y13393011D02*
G01*
X1469544Y13397737D01*
X1464815Y13400102D01*
X1457726Y13400102D01*
X1452999Y13397737D01*
X1448269Y13393011D01*
X1445907Y13385919D01*
X1445907Y13381192D01*
X1448269Y13374100D01*
X1452999Y13369374D01*
X1457726Y13367011D01*
X1464815Y13367011D01*
X1469544Y13369374D01*
X1474271Y13374100D01*
X1401942Y13400102D02*
G01*
X1401942Y13367011D01*
X1401942Y13393011D02*
G01*
X1406672Y13397737D01*
X1411399Y13400102D01*
X1418488Y13400102D01*
X1423215Y13397737D01*
X1427944Y13393011D01*
X1430307Y13385919D01*
X1430307Y13381192D01*
X1427944Y13374100D01*
X1423215Y13369374D01*
X1418488Y13367011D01*
X1411399Y13367011D01*
X1406672Y13369374D01*
X1401942Y13374100D01*
X1357980Y13393011D02*
G01*
X1362707Y13397737D01*
X1367434Y13400102D01*
X1374526Y13400102D01*
X1379253Y13397737D01*
X1383979Y13393011D01*
X1386344Y13385919D01*
X1386344Y13381192D01*
X1383979Y13374100D01*
X1379253Y13369374D01*
X1374526Y13367011D01*
X1367434Y13367011D01*
X1362707Y13369374D01*
X1357980Y13374100D01*
X1342379Y13385919D02*
G01*
X1314015Y13385919D01*
X1314015Y13390646D01*
X1316380Y13395374D01*
X1318745Y13397737D01*
X1323472Y13400102D01*
X1330561Y13400102D01*
X1335288Y13397737D01*
X1340017Y13393011D01*
X1342379Y13385919D01*
X1342379Y13381192D01*
X1340017Y13374100D01*
X1335288Y13369374D01*
X1330561Y13367011D01*
X1323472Y13367011D01*
X1318745Y13369374D01*
X1314015Y13374100D01*
D12*
X1932995Y13532820D02*
G01*
X1932995Y13475545D01*
X1932995Y13532820D02*
G01*
X1908449Y13532820D01*
X1900267Y13530092D01*
X1897542Y13527364D01*
X1894814Y13521910D01*
X1894814Y13516455D01*
X1897542Y13511001D01*
X1900267Y13508273D01*
X1908449Y13505545D01*
X1932995Y13505545D02*
G01*
X1908449Y13505545D01*
X1900267Y13502820D01*
X1897542Y13500092D01*
X1894814Y13494638D01*
X1894814Y13486455D01*
X1897542Y13481001D01*
X1900267Y13478273D01*
X1908449Y13475545D01*
X1932995Y13475545D01*
X1874085Y13513729D02*
G01*
X1857722Y13475545D01*
X1841360Y13513729D02*
G01*
X1857722Y13475545D01*
X1863178Y13464639D01*
X1868632Y13459183D01*
X1874085Y13456455D01*
X1876813Y13456455D01*
X1820631Y13508273D02*
G01*
X1823359Y13505545D01*
X1820631Y13502820D01*
X1817905Y13505545D01*
X1820631Y13508273D01*
X1820631Y13489183D02*
G01*
X1823359Y13486455D01*
X1820631Y13483729D01*
X1817905Y13486455D01*
X1820631Y13489183D01*
X1757906Y13513729D02*
G01*
X1757906Y13456455D01*
X1757906Y13505545D02*
G01*
X1752450Y13511001D01*
X1746996Y13513729D01*
X1738815Y13513729D01*
X1733359Y13511001D01*
X1727906Y13505545D01*
X1725178Y13497364D01*
X1725178Y13491911D01*
X1727906Y13483729D01*
X1733359Y13478273D01*
X1738815Y13475545D01*
X1746996Y13475545D01*
X1752450Y13478273D01*
X1757906Y13483729D01*
X1707177Y13532820D02*
G01*
X1707177Y13475545D01*
X1707177Y13505545D02*
G01*
X1701723Y13511001D01*
X1696267Y13513729D01*
X1688086Y13513729D01*
X1682633Y13511001D01*
X1677177Y13505545D01*
X1674451Y13497364D01*
X1674451Y13491911D01*
X1677177Y13483729D01*
X1682633Y13478273D01*
X1688086Y13475545D01*
X1696267Y13475545D01*
X1701723Y13478273D01*
X1707177Y13483729D01*
X1623722Y13513729D02*
G01*
X1623722Y13475545D01*
X1623722Y13505545D02*
G01*
X1629178Y13511001D01*
X1634632Y13513729D01*
X1642813Y13513729D01*
X1648269Y13511001D01*
X1653722Y13505545D01*
X1656450Y13497364D01*
X1656450Y13491911D01*
X1653722Y13483729D01*
X1648269Y13478273D01*
X1642813Y13475545D01*
X1634632Y13475545D01*
X1629178Y13478273D01*
X1623722Y13483729D01*
X1605724Y13513729D02*
G01*
X1605724Y13475545D01*
X1605724Y13502820D02*
G01*
X1597543Y13511001D01*
X1592087Y13513729D01*
X1583905Y13513729D01*
X1578449Y13511001D01*
X1575724Y13502820D01*
X1575724Y13475545D01*
X1546814Y13532820D02*
G01*
X1544086Y13530092D01*
X1541360Y13532820D01*
X1544086Y13535545D01*
X1546814Y13532820D01*
X1544086Y13513729D02*
G01*
X1544086Y13467364D01*
X1546814Y13459183D01*
X1552270Y13456455D01*
X1557723Y13456455D01*
M02*
