G04 Layer: TopPasteMaskLayer*
G04 EasyEDA v6.5.22, 2022-12-23 15:57:53*
G04 3b31b9f30aa24955be28999649fc5154,9c64b28349a745268246d024528a85f0,10*
G04 Gerber Generator version 0.2*
G04 Scale: 100 percent, Rotated: No, Reflected: No *
G04 Dimensions in millimeters *
G04 leading zeros omitted , absolute positions ,4 integer and 5 decimal *
%FSLAX45Y45*%
%MOMM*%

%ADD10C,0.0001*%

%LPD*%
G36*
X1306677Y13693901D02*
G01*
X1301699Y13693495D01*
X1296771Y13692632D01*
X1291996Y13691311D01*
X1287322Y13689482D01*
X1282903Y13687196D01*
X1278737Y13684504D01*
X1274826Y13681405D01*
X1271270Y13677900D01*
X1268069Y13674090D01*
X1265224Y13669975D01*
X1262837Y13665606D01*
X1260906Y13660983D01*
X1259433Y13656259D01*
X1258468Y13651331D01*
X1257960Y13646404D01*
X1257909Y13533882D01*
X1258163Y13528903D01*
X1258925Y13523976D01*
X1260144Y13519150D01*
X1261821Y13514476D01*
X1264005Y13510006D01*
X1266596Y13505738D01*
X1269593Y13501776D01*
X1272997Y13498118D01*
X1276756Y13494816D01*
X1280769Y13491921D01*
X1285087Y13489381D01*
X1289659Y13487349D01*
X1294384Y13485774D01*
X1299210Y13484656D01*
X1304188Y13484047D01*
X1309166Y13483894D01*
X1314145Y13484301D01*
X1319022Y13485164D01*
X1323848Y13486485D01*
X1328470Y13488314D01*
X1332890Y13490600D01*
X1337106Y13493292D01*
X1341018Y13496391D01*
X1344574Y13499896D01*
X1347774Y13503706D01*
X1350568Y13507821D01*
X1352956Y13512190D01*
X1354886Y13516813D01*
X1356360Y13521537D01*
X1357325Y13526465D01*
X1357833Y13531392D01*
X1357884Y13643914D01*
X1357680Y13648893D01*
X1356918Y13653820D01*
X1355699Y13658646D01*
X1353972Y13663320D01*
X1351838Y13667790D01*
X1349248Y13672057D01*
X1346200Y13676020D01*
X1342847Y13679678D01*
X1339088Y13682980D01*
X1335024Y13685926D01*
X1330706Y13688415D01*
X1326184Y13690447D01*
X1321460Y13692022D01*
X1316583Y13693140D01*
X1311656Y13693749D01*
G37*
G36*
X1307592Y13333323D02*
G01*
X1302613Y13332968D01*
X1297736Y13332104D01*
X1292910Y13330732D01*
X1288288Y13328954D01*
X1283868Y13326668D01*
X1279652Y13323976D01*
X1275740Y13320826D01*
X1272184Y13317372D01*
X1268984Y13313562D01*
X1266190Y13309447D01*
X1263802Y13305028D01*
X1261872Y13300456D01*
X1260398Y13295680D01*
X1259433Y13290804D01*
X1258925Y13285825D01*
X1258874Y13203377D01*
X1259078Y13198398D01*
X1259840Y13193471D01*
X1261059Y13188594D01*
X1262786Y13183920D01*
X1264920Y13179450D01*
X1267510Y13175183D01*
X1270558Y13171220D01*
X1273962Y13167563D01*
X1277670Y13164261D01*
X1281734Y13161365D01*
X1286052Y13158876D01*
X1290574Y13156793D01*
X1295298Y13155218D01*
X1300175Y13154101D01*
X1305102Y13153491D01*
X1310081Y13153390D01*
X1315059Y13153745D01*
X1319987Y13154609D01*
X1324762Y13155980D01*
X1329436Y13157758D01*
X1333855Y13160044D01*
X1338021Y13162737D01*
X1341932Y13165886D01*
X1345488Y13169341D01*
X1348689Y13173151D01*
X1351534Y13177266D01*
X1353921Y13181685D01*
X1355852Y13186257D01*
X1357325Y13191032D01*
X1358290Y13195909D01*
X1358798Y13200888D01*
X1358849Y13283336D01*
X1358595Y13288314D01*
X1357833Y13293242D01*
X1356614Y13298068D01*
X1354937Y13302792D01*
X1352753Y13307263D01*
X1350162Y13311530D01*
X1347165Y13315492D01*
X1343761Y13319150D01*
X1340002Y13322452D01*
X1335989Y13325348D01*
X1331671Y13327837D01*
X1327099Y13329919D01*
X1322374Y13331494D01*
X1317548Y13332612D01*
X1312570Y13333222D01*
G37*
G36*
X2170633Y13693901D02*
G01*
X2165654Y13693495D01*
X2160778Y13692632D01*
X2155952Y13691311D01*
X2151329Y13689482D01*
X2146909Y13687196D01*
X2142693Y13684504D01*
X2138781Y13681405D01*
X2135225Y13677900D01*
X2132025Y13674090D01*
X2129231Y13669975D01*
X2126843Y13665606D01*
X2124913Y13660983D01*
X2123440Y13656259D01*
X2122424Y13651331D01*
X2121966Y13646404D01*
X2121865Y13533882D01*
X2122119Y13528903D01*
X2122881Y13523976D01*
X2124100Y13519150D01*
X2125827Y13514476D01*
X2127961Y13510006D01*
X2130602Y13505738D01*
X2133600Y13501776D01*
X2136952Y13498118D01*
X2140712Y13494816D01*
X2144776Y13491921D01*
X2149094Y13489381D01*
X2153615Y13487349D01*
X2158339Y13485774D01*
X2163216Y13484656D01*
X2168144Y13484047D01*
X2173122Y13483894D01*
X2178100Y13484301D01*
X2183028Y13485164D01*
X2187803Y13486485D01*
X2192477Y13488314D01*
X2196896Y13490600D01*
X2201062Y13493292D01*
X2204974Y13496391D01*
X2208530Y13499896D01*
X2211730Y13503706D01*
X2214575Y13507821D01*
X2216962Y13512190D01*
X2218893Y13516813D01*
X2220366Y13521537D01*
X2221331Y13526465D01*
X2221839Y13531392D01*
X2221890Y13643914D01*
X2221636Y13648893D01*
X2220874Y13653820D01*
X2219655Y13658646D01*
X2217978Y13663320D01*
X2215794Y13667790D01*
X2213203Y13672057D01*
X2210206Y13676020D01*
X2206802Y13679678D01*
X2203043Y13682980D01*
X2199030Y13685926D01*
X2194712Y13688415D01*
X2190140Y13690447D01*
X2185416Y13692022D01*
X2180590Y13693140D01*
X2175611Y13693749D01*
G37*
G36*
X2173020Y13330529D02*
G01*
X2168042Y13330123D01*
X2163114Y13329259D01*
X2158339Y13327938D01*
X2153666Y13326110D01*
X2149246Y13323824D01*
X2145080Y13321131D01*
X2141169Y13318032D01*
X2137613Y13314527D01*
X2134362Y13310717D01*
X2131568Y13306602D01*
X2129180Y13302234D01*
X2127250Y13297611D01*
X2125776Y13292886D01*
X2124811Y13287959D01*
X2124303Y13283031D01*
X2124252Y13200532D01*
X2124506Y13195554D01*
X2125218Y13190626D01*
X2126488Y13185800D01*
X2128164Y13181126D01*
X2130348Y13176605D01*
X2132939Y13172389D01*
X2135936Y13168376D01*
X2139340Y13164718D01*
X2143048Y13161416D01*
X2147112Y13158520D01*
X2151430Y13156031D01*
X2156002Y13153999D01*
X2160727Y13152424D01*
X2165553Y13151307D01*
X2170531Y13150646D01*
X2175510Y13150545D01*
X2180488Y13150900D01*
X2185365Y13151764D01*
X2190191Y13153136D01*
X2194814Y13154964D01*
X2199233Y13157250D01*
X2203450Y13159943D01*
X2207310Y13163042D01*
X2210917Y13166547D01*
X2214118Y13170357D01*
X2216912Y13174472D01*
X2219299Y13178840D01*
X2221230Y13183412D01*
X2222703Y13188188D01*
X2223668Y13193064D01*
X2224176Y13198043D01*
X2224227Y13280542D01*
X2223973Y13285520D01*
X2223262Y13290448D01*
X2222042Y13295274D01*
X2220315Y13299948D01*
X2218182Y13304469D01*
X2215540Y13308685D01*
X2212543Y13312648D01*
X2209139Y13316305D01*
X2205431Y13319607D01*
X2201367Y13322554D01*
X2197049Y13325043D01*
X2192528Y13327075D01*
X2187803Y13328650D01*
X2182926Y13329767D01*
X2177999Y13330377D01*
G37*
G36*
X1419910Y13688872D02*
G01*
X1419910Y13568883D01*
X1509877Y13568883D01*
X1509877Y13688872D01*
G37*
G36*
X1547876Y13688872D02*
G01*
X1547876Y13568883D01*
X1627886Y13568883D01*
X1627886Y13688872D01*
G37*
G36*
X1654911Y13688872D02*
G01*
X1654911Y13568883D01*
X1724914Y13568883D01*
X1724914Y13688872D01*
G37*
G36*
X1754886Y13688872D02*
G01*
X1754886Y13568883D01*
X1824888Y13568883D01*
X1824888Y13688872D01*
G37*
G36*
X1851914Y13688872D02*
G01*
X1851914Y13568883D01*
X1931924Y13568883D01*
X1931924Y13688872D01*
G37*
G36*
X1969922Y13688923D02*
G01*
X1969922Y13568883D01*
X2059889Y13568883D01*
X2059889Y13688923D01*
G37*
G36*
X1376375Y13819225D02*
G01*
X1372412Y13815212D01*
X1372412Y13769187D01*
X1376375Y13765174D01*
X1426464Y13765174D01*
X1430477Y13769187D01*
X1430477Y13815212D01*
X1426464Y13819225D01*
G37*
G36*
X1291336Y13819225D02*
G01*
X1287322Y13815212D01*
X1287322Y13769187D01*
X1291336Y13765174D01*
X1341424Y13765174D01*
X1345387Y13769187D01*
X1345387Y13815212D01*
X1341424Y13819225D01*
G37*
G36*
X2138426Y13819225D02*
G01*
X2134412Y13815212D01*
X2134412Y13769187D01*
X2138426Y13765174D01*
X2188464Y13765174D01*
X2192477Y13769187D01*
X2192477Y13815212D01*
X2188464Y13819225D01*
G37*
G36*
X2053336Y13819225D02*
G01*
X2049322Y13815212D01*
X2049322Y13769187D01*
X2053336Y13765174D01*
X2103374Y13765174D01*
X2107387Y13769187D01*
X2107387Y13815212D01*
X2103374Y13819225D01*
G37*
M02*
