M48
METRIC,LZ,000.000
;FILE_FORMAT=3:3
;TYPE=PLATED
;Layer: PTH_Through
;EasyEDA v6.5.22, 2023-02-06 16:08:57
;8d2e17b319e74456838dc2870d65e194,9c64b28349a745268246d024528a85f0,10
;Gerber Generator version 0.2
;Holesize 1 = 0.600 mm
T01C0.600
%
G05
G90
T01
X007225Y001239G85X007225Y000939
X001725Y001239G85X001725Y000939
X004985Y001264G85X004985Y000914
X000185Y001407G85X000185Y000207
X008825Y001407G85X008825Y000207
X006005Y001239G85X006005Y000939
X003985Y001264G85X003985Y000914
X002945Y001239G85X002945Y000939
X007225Y-003216G85X007225Y-003516
X001725Y-003216G85X001725Y-003516
X004985Y-003191G85X004985Y-003541
X000185Y-003049G85X000185Y-004248
X008825Y-003049G85X008825Y-004248
X006005Y-003216G85X006005Y-003516
X003985Y-003191G85X003985Y-003541
X002945Y-003216G85X002945Y-003516
X007225Y005700G85X007225Y005400
X001725Y005700G85X001725Y005400
X004985Y005725G85X004985Y005375
X000185Y005867G85X000185Y004667
X008825Y005867G85X008825Y004667
X006005Y005700G85X006005Y005400
X003985Y005725G85X003985Y005375
X002945Y005700G85X002945Y005400
M30
