G04 Layer: TopSilkscreenLayer*
G04 EasyEDA v6.5.22, 2023-02-06 16:08:57*
G04 8d2e17b319e74456838dc2870d65e194,9c64b28349a745268246d024528a85f0,10*
G04 Gerber Generator version 0.2*
G04 Scale: 100 percent, Rotated: No, Reflected: No *
G04 Dimensions in millimeters *
G04 leading zeros omitted , absolute positions ,4 integer and 5 decimal *
%FSLAX45Y45*%
%MOMM*%

%ADD10C,0.1000*%
%ADD11C,0.0800*%

%LPD*%
D10*
X1002164Y348531D02*
G01*
X958476Y348531D01*
X950094Y351325D01*
X947554Y353865D01*
X944760Y359453D01*
X944760Y364787D01*
X947554Y370375D01*
X950094Y373169D01*
X958476Y375709D01*
X963810Y375709D01*
X1002164Y330497D02*
G01*
X944760Y330497D01*
X944760Y330497D02*
G01*
X944760Y297731D01*
X988448Y238803D02*
G01*
X993782Y241597D01*
X999370Y247185D01*
X1002164Y252519D01*
X1002164Y263441D01*
X999370Y268775D01*
X993782Y274363D01*
X988448Y277157D01*
X980320Y279697D01*
X966604Y279697D01*
X958476Y277157D01*
X952888Y274363D01*
X947554Y268775D01*
X944760Y263441D01*
X944760Y252519D01*
X947554Y247185D01*
X952888Y241597D01*
X958476Y238803D01*
X1002164Y193591D02*
G01*
X958476Y193591D01*
X950094Y196385D01*
X947554Y199179D01*
X944760Y204513D01*
X944760Y210101D01*
X947554Y215435D01*
X950094Y218229D01*
X958476Y221023D01*
X963810Y221023D01*
X1002164Y175557D02*
G01*
X944760Y175557D01*
X944760Y175557D02*
G01*
X944760Y142791D01*
X988448Y84117D02*
G01*
X993782Y86657D01*
X999370Y92245D01*
X1002164Y97579D01*
X1002164Y108501D01*
X999370Y114089D01*
X993782Y119423D01*
X988448Y122217D01*
X980320Y125011D01*
X966604Y125011D01*
X958476Y122217D01*
X952888Y119423D01*
X947554Y114089D01*
X944760Y108501D01*
X944760Y97579D01*
X947554Y92245D01*
X952888Y86657D01*
X958476Y84117D01*
X1002164Y38651D02*
G01*
X958476Y38651D01*
X950094Y41445D01*
X947554Y44239D01*
X944760Y49573D01*
X944760Y55161D01*
X947554Y60495D01*
X950094Y63289D01*
X958476Y66083D01*
X963810Y66083D01*
X1002164Y20617D02*
G01*
X944760Y20617D01*
X944760Y20617D02*
G01*
X944760Y-11894D01*
X988448Y-70822D02*
G01*
X993782Y-68282D01*
X999370Y-62694D01*
X1002164Y-57360D01*
X1002164Y-46438D01*
X999370Y-40850D01*
X993782Y-35516D01*
X988448Y-32722D01*
X980320Y-29928D01*
X966604Y-29928D01*
X958476Y-32722D01*
X952888Y-35516D01*
X947554Y-40850D01*
X944760Y-46438D01*
X944760Y-57360D01*
X947554Y-62694D01*
X952888Y-68282D01*
X958476Y-70822D01*
X1002164Y-116288D02*
G01*
X958476Y-116288D01*
X950094Y-113494D01*
X947554Y-110700D01*
X944760Y-105366D01*
X944760Y-99778D01*
X947554Y-94444D01*
X950094Y-91650D01*
X958476Y-88856D01*
X963810Y-88856D01*
X1002164Y-134068D02*
G01*
X944760Y-134068D01*
X944760Y-134068D02*
G01*
X944760Y-166834D01*
X988448Y-225762D02*
G01*
X993782Y-223222D01*
X999370Y-217634D01*
X1002164Y-212300D01*
X1002164Y-201378D01*
X999370Y-195790D01*
X993782Y-190456D01*
X988448Y-187662D01*
X980320Y-184868D01*
X966604Y-184868D01*
X958476Y-187662D01*
X952888Y-190456D01*
X947554Y-195790D01*
X944760Y-201378D01*
X944760Y-212300D01*
X947554Y-217634D01*
X952888Y-223222D01*
X958476Y-225762D01*
D11*
X215102Y488477D02*
G01*
X215102Y431327D01*
X215102Y488477D02*
G01*
X239486Y488477D01*
X247614Y485683D01*
X250408Y483143D01*
X253202Y477555D01*
X253202Y472221D01*
X250408Y466633D01*
X247614Y463839D01*
X239486Y461299D01*
X215102Y461299D02*
G01*
X239486Y461299D01*
X247614Y458505D01*
X250408Y455711D01*
X253202Y450377D01*
X253202Y442249D01*
X250408Y436661D01*
X247614Y433867D01*
X239486Y431327D01*
X215102Y431327D01*
X274030Y469427D02*
G01*
X290286Y431327D01*
X306542Y469427D02*
G01*
X290286Y431327D01*
X284698Y420405D01*
X279364Y414817D01*
X274030Y412023D01*
X271236Y412023D01*
X366740Y469427D02*
G01*
X366740Y412023D01*
X366740Y461299D02*
G01*
X372074Y466633D01*
X377662Y469427D01*
X385790Y469427D01*
X391124Y466633D01*
X396712Y461299D01*
X399252Y452917D01*
X399252Y447583D01*
X396712Y439455D01*
X391124Y433867D01*
X385790Y431327D01*
X377662Y431327D01*
X372074Y433867D01*
X366740Y439455D01*
X417286Y488477D02*
G01*
X417286Y431327D01*
X417286Y461299D02*
G01*
X422874Y466633D01*
X428208Y469427D01*
X436336Y469427D01*
X441924Y466633D01*
X447258Y461299D01*
X450052Y452917D01*
X450052Y447583D01*
X447258Y439455D01*
X441924Y433867D01*
X436336Y431327D01*
X428208Y431327D01*
X422874Y433867D01*
X417286Y439455D01*
X500852Y469427D02*
G01*
X500852Y431327D01*
X500852Y461299D02*
G01*
X495264Y466633D01*
X489930Y469427D01*
X481802Y469427D01*
X476214Y466633D01*
X470880Y461299D01*
X468086Y452917D01*
X468086Y447583D01*
X470880Y439455D01*
X476214Y433867D01*
X481802Y431327D01*
X489930Y431327D01*
X495264Y433867D01*
X500852Y439455D01*
X518886Y469427D02*
G01*
X518886Y431327D01*
X518886Y458505D02*
G01*
X527014Y466633D01*
X532348Y469427D01*
X540730Y469427D01*
X546064Y466633D01*
X548858Y458505D01*
X548858Y431327D01*
X577814Y488477D02*
G01*
X580354Y485683D01*
X583148Y488477D01*
X580354Y491271D01*
X577814Y488477D01*
X580354Y469427D02*
G01*
X580354Y422945D01*
X577814Y414817D01*
X572226Y412023D01*
X566892Y412023D01*
X680473Y657862D02*
G01*
X721367Y657862D01*
X736353Y685294D02*
G01*
X736353Y637542D01*
X736353Y685294D02*
G01*
X756927Y685294D01*
X763531Y683008D01*
X765817Y680722D01*
X768103Y676150D01*
X768103Y671578D01*
X765817Y667006D01*
X763531Y664720D01*
X756927Y662434D01*
X736353Y662434D01*
X752355Y662434D02*
G01*
X768103Y637542D01*
X785375Y673864D02*
G01*
X785375Y676150D01*
X787661Y680722D01*
X789947Y683008D01*
X794519Y685294D01*
X803663Y685294D01*
X808235Y683008D01*
X810521Y680722D01*
X812807Y676150D01*
X812807Y671578D01*
X810521Y667006D01*
X805949Y660148D01*
X783089Y637542D01*
X815093Y637542D01*
X98044Y685525D02*
G01*
X98044Y638027D01*
X98044Y685525D02*
G01*
X118618Y685525D01*
X125476Y683493D01*
X127762Y681207D01*
X129794Y676635D01*
X129794Y672063D01*
X127762Y667491D01*
X125476Y665205D01*
X118618Y662919D01*
X98044Y662919D01*
X114045Y662919D02*
G01*
X129794Y638027D01*
X145034Y676635D02*
G01*
X149352Y678921D01*
X156210Y685525D01*
X156210Y638027D01*
X171195Y658347D02*
G01*
X212089Y658347D01*
X98044Y239501D02*
G01*
X98044Y191749D01*
X98044Y239501D02*
G01*
X118618Y239501D01*
X125476Y237215D01*
X127762Y235183D01*
X129794Y230611D01*
X129794Y226039D01*
X127762Y221467D01*
X125476Y219181D01*
X118618Y216895D01*
X98044Y216895D01*
X114045Y216895D02*
G01*
X129794Y191749D01*
X145034Y230611D02*
G01*
X149352Y232897D01*
X156210Y239501D01*
X156210Y191749D01*
X171195Y212323D02*
G01*
X212089Y212323D01*
X680473Y211838D02*
G01*
X721367Y211838D01*
X736353Y239270D02*
G01*
X736353Y191518D01*
X736353Y239270D02*
G01*
X756927Y239270D01*
X763785Y236984D01*
X766071Y234698D01*
X768103Y230126D01*
X768103Y225554D01*
X766071Y220982D01*
X763785Y218696D01*
X756927Y216410D01*
X736353Y216410D01*
X752355Y216410D02*
G01*
X768103Y191518D01*
X785375Y227840D02*
G01*
X785375Y230126D01*
X787661Y234698D01*
X789947Y236984D01*
X794519Y239270D01*
X803663Y239270D01*
X808235Y236984D01*
X810521Y234698D01*
X812807Y230126D01*
X812807Y225554D01*
X810521Y220982D01*
X805949Y214124D01*
X783343Y191518D01*
X815093Y191518D01*
X215102Y42453D02*
G01*
X215102Y-14950D01*
X215102Y42453D02*
G01*
X239486Y42453D01*
X247614Y39659D01*
X250408Y36865D01*
X253202Y31531D01*
X253202Y26197D01*
X250408Y20609D01*
X247614Y17815D01*
X239486Y15275D01*
X215102Y15275D02*
G01*
X239486Y15275D01*
X247614Y12481D01*
X250408Y9687D01*
X253202Y4353D01*
X253202Y-4028D01*
X250408Y-9362D01*
X247614Y-12156D01*
X239486Y-14950D01*
X215102Y-14950D01*
X274030Y23403D02*
G01*
X290286Y-14950D01*
X306542Y23403D02*
G01*
X290286Y-14950D01*
X284698Y-25618D01*
X279364Y-31206D01*
X274030Y-34000D01*
X271236Y-34000D01*
X366740Y23403D02*
G01*
X366740Y-34000D01*
X366740Y15275D02*
G01*
X372074Y20609D01*
X377662Y23403D01*
X385790Y23403D01*
X391124Y20609D01*
X396712Y15275D01*
X399252Y6893D01*
X399252Y1559D01*
X396712Y-6568D01*
X391124Y-12156D01*
X385790Y-14950D01*
X377662Y-14950D01*
X372074Y-12156D01*
X366740Y-6568D01*
X417286Y42453D02*
G01*
X417286Y-14950D01*
X417286Y15275D02*
G01*
X422874Y20609D01*
X428208Y23403D01*
X436336Y23403D01*
X441924Y20609D01*
X447258Y15275D01*
X450052Y6893D01*
X450052Y1559D01*
X447258Y-6568D01*
X441924Y-12156D01*
X436336Y-14950D01*
X428208Y-14950D01*
X422874Y-12156D01*
X417286Y-6568D01*
X500852Y23403D02*
G01*
X500852Y-14950D01*
X500852Y15275D02*
G01*
X495264Y20609D01*
X489930Y23403D01*
X481802Y23403D01*
X476214Y20609D01*
X470880Y15275D01*
X468086Y6893D01*
X468086Y1559D01*
X470880Y-6568D01*
X476214Y-12156D01*
X481802Y-14950D01*
X489930Y-14950D01*
X495264Y-12156D01*
X500852Y-6568D01*
X518886Y23403D02*
G01*
X518886Y-14950D01*
X518886Y12481D02*
G01*
X527014Y20609D01*
X532348Y23403D01*
X540730Y23403D01*
X546064Y20609D01*
X548858Y12481D01*
X548858Y-14950D01*
X577814Y42453D02*
G01*
X580354Y39659D01*
X583148Y42453D01*
X580354Y45247D01*
X577814Y42453D01*
X580354Y23403D02*
G01*
X580354Y-23078D01*
X577814Y-31206D01*
X572226Y-34000D01*
X566892Y-34000D01*
X98044Y-206014D02*
G01*
X98044Y-253512D01*
X98044Y-206014D02*
G01*
X118618Y-206014D01*
X125476Y-208046D01*
X127762Y-210332D01*
X129794Y-214904D01*
X129794Y-219476D01*
X127762Y-224048D01*
X125476Y-226334D01*
X118618Y-228620D01*
X98044Y-228620D01*
X114045Y-228620D02*
G01*
X129794Y-253512D01*
X145034Y-214904D02*
G01*
X149352Y-212618D01*
X156210Y-206014D01*
X156210Y-253512D01*
X171195Y-233192D02*
G01*
X212089Y-233192D01*
X680473Y-233677D02*
G01*
X721367Y-233677D01*
X736353Y-206245D02*
G01*
X736353Y-253997D01*
X736353Y-206245D02*
G01*
X756927Y-206245D01*
X763785Y-208531D01*
X766071Y-210817D01*
X768103Y-215389D01*
X768103Y-219961D01*
X766071Y-224533D01*
X763785Y-226819D01*
X756927Y-229105D01*
X736353Y-229105D01*
X752355Y-229105D02*
G01*
X768103Y-253997D01*
X785375Y-217675D02*
G01*
X785375Y-215389D01*
X787661Y-210817D01*
X789947Y-208531D01*
X794519Y-206245D01*
X803663Y-206245D01*
X808235Y-208531D01*
X810521Y-210817D01*
X812807Y-215389D01*
X812807Y-219961D01*
X810521Y-224533D01*
X805949Y-231391D01*
X783343Y-253997D01*
X815093Y-253997D01*
X215102Y-403062D02*
G01*
X215102Y-460466D01*
X215102Y-403062D02*
G01*
X239486Y-403062D01*
X247868Y-405856D01*
X250408Y-408650D01*
X253202Y-413984D01*
X253202Y-419318D01*
X250408Y-424906D01*
X247868Y-427700D01*
X239486Y-430240D01*
X215102Y-430240D02*
G01*
X239486Y-430240D01*
X247868Y-433034D01*
X250408Y-435828D01*
X253202Y-441162D01*
X253202Y-449544D01*
X250408Y-454878D01*
X247868Y-457672D01*
X239486Y-460466D01*
X215102Y-460466D01*
X274030Y-422112D02*
G01*
X290286Y-460466D01*
X306542Y-422112D02*
G01*
X290286Y-460466D01*
X284952Y-471134D01*
X279364Y-476722D01*
X274030Y-479516D01*
X271236Y-479516D01*
X366740Y-422112D02*
G01*
X366740Y-479516D01*
X366740Y-430240D02*
G01*
X372074Y-424906D01*
X377662Y-422112D01*
X385790Y-422112D01*
X391124Y-424906D01*
X396712Y-430240D01*
X399506Y-438622D01*
X399506Y-443956D01*
X396712Y-452084D01*
X391124Y-457672D01*
X385790Y-460466D01*
X377662Y-460466D01*
X372074Y-457672D01*
X366740Y-452084D01*
X417286Y-403062D02*
G01*
X417286Y-460466D01*
X417286Y-430240D02*
G01*
X422874Y-424906D01*
X428208Y-422112D01*
X436590Y-422112D01*
X441924Y-424906D01*
X447512Y-430240D01*
X450052Y-438622D01*
X450052Y-443956D01*
X447512Y-452084D01*
X441924Y-457672D01*
X436590Y-460466D01*
X428208Y-460466D01*
X422874Y-457672D01*
X417286Y-452084D01*
X500852Y-422112D02*
G01*
X500852Y-460466D01*
X500852Y-430240D02*
G01*
X495264Y-424906D01*
X489930Y-422112D01*
X481802Y-422112D01*
X476214Y-424906D01*
X470880Y-430240D01*
X468086Y-438622D01*
X468086Y-443956D01*
X470880Y-452084D01*
X476214Y-457672D01*
X481802Y-460466D01*
X489930Y-460466D01*
X495264Y-457672D01*
X500852Y-452084D01*
X518886Y-422112D02*
G01*
X518886Y-460466D01*
X518886Y-433034D02*
G01*
X527014Y-424906D01*
X532602Y-422112D01*
X540730Y-422112D01*
X546064Y-424906D01*
X548858Y-433034D01*
X548858Y-460466D01*
X577814Y-403062D02*
G01*
X580354Y-405856D01*
X583148Y-403062D01*
X580354Y-400268D01*
X577814Y-403062D01*
X580354Y-422112D02*
G01*
X580354Y-468594D01*
X577814Y-476722D01*
X572226Y-479516D01*
X566892Y-479516D01*
M02*
