G04 Layer: BottomLayer*
G04 EasyEDA v6.5.22, 2023-01-18 16:46:21*
G04 95a01da8446a4b23a0b3c7059fdc42c5,9c64b28349a745268246d024528a85f0,10*
G04 Gerber Generator version 0.2*
G04 Scale: 100 percent, Rotated: No, Reflected: No *
G04 Dimensions in millimeters *
G04 leading zeros omitted , absolute positions ,4 integer and 5 decimal *
%FSLAX45Y45*%
%MOMM*%

%AMMACRO1*21,1,$1,$2,0,0,$3*%
%ADD10C,0.8000*%
%ADD11C,0.5000*%
%ADD12MACRO1,0.54X0.5656X90.0000*%
%ADD13O,0.9999979999999999X1.6999966*%
%ADD14O,0.9999979999999999X2.0999958*%
%ADD15R,0.5660X0.5400*%
%ADD16C,1.1000*%
%ADD17C,0.3500*%
%ADD18C,0.0010*%

%LPD*%
G36*
X1267968Y13208507D02*
G01*
X1264056Y13209269D01*
X1260805Y13211505D01*
X1258570Y13214756D01*
X1257808Y13218668D01*
X1257808Y13870432D01*
X1258570Y13874343D01*
X1260805Y13877594D01*
X1264056Y13879830D01*
X1267968Y13880592D01*
X1838452Y13880592D01*
X1842312Y13879830D01*
X1845614Y13877645D01*
X1847799Y13874394D01*
X1848612Y13870584D01*
X1847900Y13866723D01*
X1845767Y13863370D01*
X1841550Y13859001D01*
X1835607Y13850366D01*
X1831086Y13840815D01*
X1828139Y13830706D01*
X1826869Y13820241D01*
X1827275Y13809726D01*
X1829409Y13799362D01*
X1833118Y13789507D01*
X1838401Y13780414D01*
X1845056Y13772235D01*
X1853387Y13764869D01*
X1855876Y13761466D01*
X1856790Y13757300D01*
X1856790Y13686231D01*
X1856028Y13682319D01*
X1853793Y13679017D01*
X1850491Y13676833D01*
X1846580Y13676071D01*
X1588262Y13677595D01*
X1579016Y13676884D01*
X1570532Y13674648D01*
X1562506Y13670940D01*
X1555292Y13665962D01*
X1549044Y13659764D01*
X1543913Y13652601D01*
X1540154Y13644626D01*
X1537868Y13636142D01*
X1537004Y13627404D01*
X1537716Y13618616D01*
X1539951Y13610132D01*
X1543659Y13602106D01*
X1548638Y13594892D01*
X1554835Y13588644D01*
X1561998Y13583513D01*
X1569974Y13579754D01*
X1578457Y13577417D01*
X1587652Y13576604D01*
X1891182Y13574776D01*
X1900377Y13575538D01*
X1908911Y13577773D01*
X1916887Y13581430D01*
X1924100Y13586460D01*
X1930400Y13592606D01*
X1935480Y13599820D01*
X1939239Y13607745D01*
X1941575Y13616228D01*
X1942388Y13625017D01*
X1941677Y13633754D01*
X1939442Y13642289D01*
X1935784Y13650264D01*
X1928571Y13660831D01*
X1927809Y13664692D01*
X1927809Y13757300D01*
X1928723Y13761466D01*
X1931263Y13764920D01*
X1939543Y13772235D01*
X1946198Y13780414D01*
X1951482Y13789507D01*
X1955190Y13799362D01*
X1957324Y13809726D01*
X1957730Y13820241D01*
X1956460Y13830706D01*
X1953514Y13840815D01*
X1948992Y13850366D01*
X1942998Y13859001D01*
X1938832Y13863370D01*
X1936699Y13866723D01*
X1935988Y13870584D01*
X1936800Y13874394D01*
X1938985Y13877645D01*
X1942287Y13879830D01*
X1946148Y13880592D01*
X2211832Y13880592D01*
X2215743Y13879830D01*
X2218994Y13877594D01*
X2221230Y13874343D01*
X2221992Y13870432D01*
X2221992Y13218668D01*
X2221230Y13214756D01*
X2218994Y13211505D01*
X2215743Y13209269D01*
X2211832Y13208507D01*
G37*

%LPC*%
G36*
X1372666Y13754658D02*
G01*
X1427937Y13754658D01*
X1431290Y13755116D01*
X1433779Y13756182D01*
X1435963Y13757808D01*
X1437589Y13759992D01*
X1438656Y13762482D01*
X1439113Y13765885D01*
X1439113Y13818514D01*
X1438656Y13821918D01*
X1437589Y13824407D01*
X1435963Y13826591D01*
X1433779Y13828217D01*
X1431290Y13829284D01*
X1427937Y13829690D01*
X1372666Y13829690D01*
X1369314Y13829284D01*
X1366824Y13828217D01*
X1364640Y13826591D01*
X1362964Y13824407D01*
X1361948Y13821918D01*
X1361490Y13818514D01*
X1361490Y13765885D01*
X1361948Y13762482D01*
X1362964Y13759992D01*
X1364640Y13757808D01*
X1366824Y13756182D01*
X1369314Y13755116D01*
G37*
G36*
X2049983Y13754658D02*
G01*
X2105253Y13754658D01*
X2108606Y13755116D01*
X2111095Y13756182D01*
X2113280Y13757808D01*
X2114956Y13759992D01*
X2115972Y13762482D01*
X2116429Y13765885D01*
X2116429Y13818514D01*
X2115972Y13821918D01*
X2114956Y13824407D01*
X2113280Y13826591D01*
X2111095Y13828217D01*
X2108606Y13829284D01*
X2105253Y13829690D01*
X2049983Y13829690D01*
X2046630Y13829284D01*
X2044141Y13828217D01*
X2041956Y13826591D01*
X2040280Y13824407D01*
X2039264Y13821918D01*
X2038807Y13818514D01*
X2038807Y13765885D01*
X2039264Y13762482D01*
X2040280Y13759992D01*
X2041956Y13757808D01*
X2044141Y13756182D01*
X2046630Y13755116D01*
G37*

%LPD*%
G36*
X2120900Y13855700D02*
G01*
X2120900Y13766800D01*
X2108200Y13690600D01*
X2082800Y13652500D01*
X2108200Y13550900D01*
X2108200Y13474700D01*
X2222500Y13474700D01*
X2222500Y13855700D01*
G37*
G36*
X1270000Y13855700D02*
G01*
X1270000Y13741400D01*
X1358900Y13741400D01*
X1358900Y13855700D01*
G37*
D10*
X1587500Y13627100D02*
G01*
X1891906Y13625296D01*
D11*
X1891908Y13628903D02*
G01*
X1892300Y13629294D01*
X1892300Y13817600D01*
D12*
G01*
X1313734Y13792200D03*
G01*
X1400300Y13792200D03*
G01*
X2077617Y13792200D03*
G01*
X2164182Y13792200D03*
D13*
G01*
X2171166Y13241578D03*
G01*
X1307922Y13244296D03*
D14*
G01*
X2171877Y13588898D03*
G01*
X1307922Y13588898D03*
D15*
G01*
X1315618Y13792200D03*
D12*
G01*
X2164182Y13792200D03*
D16*
G01*
X1892300Y13817600D03*
G01*
X1574800Y13817600D03*
D17*
G01*
X1891919Y13625296D03*
G01*
X1587500Y13627100D03*
D18*
G01*
X1399997Y13792200D03*
G01*
X2064918Y13792200D03*
D17*
G01*
X1399997Y13792200D03*
G01*
X2079040Y13792200D03*
M02*
