G04 Layer: TopSilkscreenLayer*
G04 EasyEDA v6.5.22, 2023-01-18 16:46:21*
G04 95a01da8446a4b23a0b3c7059fdc42c5,9c64b28349a745268246d024528a85f0,10*
G04 Gerber Generator version 0.2*
G04 Scale: 100 percent, Rotated: No, Reflected: No *
G04 Dimensions in millimeters *
G04 leading zeros omitted , absolute positions ,4 integer and 5 decimal *
%FSLAX45Y45*%
%MOMM*%

%ADD10C,0.0500*%

%LPD*%
D10*
X1473713Y13516836D02*
G01*
X1478285Y13519122D01*
X1482857Y13523694D01*
X1485143Y13528266D01*
X1485143Y13537156D01*
X1482857Y13541728D01*
X1478285Y13546300D01*
X1473713Y13548586D01*
X1466855Y13550872D01*
X1455425Y13550872D01*
X1448567Y13548586D01*
X1444249Y13546300D01*
X1439677Y13541728D01*
X1437391Y13537156D01*
X1437391Y13528266D01*
X1439677Y13523694D01*
X1444249Y13519122D01*
X1448567Y13516836D01*
X1455425Y13516836D01*
X1455425Y13528266D02*
G01*
X1455425Y13516836D01*
X1485143Y13501850D02*
G01*
X1437391Y13501850D01*
X1485143Y13501850D02*
G01*
X1437391Y13469846D01*
X1485143Y13469846D02*
G01*
X1437391Y13469846D01*
X1485143Y13454860D02*
G01*
X1437391Y13454860D01*
X1485143Y13454860D02*
G01*
X1485143Y13439112D01*
X1482857Y13432254D01*
X1478285Y13427682D01*
X1473713Y13425396D01*
X1466855Y13423110D01*
X1455425Y13423110D01*
X1448567Y13425396D01*
X1444249Y13427682D01*
X1439677Y13432254D01*
X1437391Y13439112D01*
X1437391Y13454860D01*
X1610243Y13523694D02*
G01*
X1610243Y13546300D01*
X1589669Y13548586D01*
X1591955Y13546300D01*
X1594241Y13539442D01*
X1594241Y13532584D01*
X1591955Y13525980D01*
X1587383Y13521408D01*
X1580525Y13519122D01*
X1575953Y13519122D01*
X1569349Y13521408D01*
X1564777Y13525980D01*
X1562491Y13532584D01*
X1562491Y13539442D01*
X1564777Y13546300D01*
X1567063Y13548586D01*
X1571635Y13550872D01*
X1610243Y13504136D02*
G01*
X1562491Y13485848D01*
X1610243Y13467814D02*
G01*
X1562491Y13485848D01*
X1701413Y13522535D02*
G01*
X1705985Y13524821D01*
X1710557Y13529393D01*
X1712843Y13533965D01*
X1712843Y13542855D01*
X1710557Y13547427D01*
X1705985Y13551999D01*
X1701413Y13554285D01*
X1694555Y13556571D01*
X1683125Y13556571D01*
X1676267Y13554285D01*
X1671949Y13551999D01*
X1667377Y13547427D01*
X1665091Y13542855D01*
X1665091Y13533965D01*
X1667377Y13529393D01*
X1671949Y13524821D01*
X1676267Y13522535D01*
X1701413Y13473513D02*
G01*
X1705985Y13475545D01*
X1710557Y13480117D01*
X1712843Y13484689D01*
X1712843Y13493833D01*
X1710557Y13498405D01*
X1705985Y13502977D01*
X1701413Y13505263D01*
X1694555Y13507549D01*
X1683125Y13507549D01*
X1676267Y13505263D01*
X1671949Y13502977D01*
X1667377Y13498405D01*
X1665091Y13493833D01*
X1665091Y13484689D01*
X1667377Y13480117D01*
X1671949Y13475545D01*
X1676267Y13473513D01*
X1703699Y13458273D02*
G01*
X1705985Y13453955D01*
X1712843Y13447097D01*
X1665091Y13447097D01*
X1802112Y13526236D02*
G01*
X1806684Y13528522D01*
X1811256Y13533094D01*
X1813542Y13537666D01*
X1813542Y13546556D01*
X1811256Y13551128D01*
X1806684Y13555700D01*
X1802112Y13557986D01*
X1795254Y13560272D01*
X1783824Y13560272D01*
X1776966Y13557986D01*
X1772648Y13555700D01*
X1768076Y13551128D01*
X1765790Y13546556D01*
X1765790Y13537666D01*
X1768076Y13533094D01*
X1772648Y13528522D01*
X1776966Y13526236D01*
X1802112Y13477214D02*
G01*
X1806684Y13479246D01*
X1811256Y13483818D01*
X1813542Y13488390D01*
X1813542Y13497534D01*
X1811256Y13502106D01*
X1806684Y13506678D01*
X1802112Y13508964D01*
X1795254Y13511250D01*
X1783824Y13511250D01*
X1776966Y13508964D01*
X1772648Y13506678D01*
X1768076Y13502106D01*
X1765790Y13497534D01*
X1765790Y13488390D01*
X1768076Y13483818D01*
X1772648Y13479246D01*
X1776966Y13477214D01*
X1802112Y13459942D02*
G01*
X1804398Y13459942D01*
X1808970Y13457656D01*
X1811256Y13455370D01*
X1813542Y13450798D01*
X1813542Y13441654D01*
X1811256Y13437082D01*
X1808970Y13434796D01*
X1804398Y13432510D01*
X1799826Y13432510D01*
X1795254Y13434796D01*
X1788396Y13439368D01*
X1765790Y13461974D01*
X1765790Y13430224D01*
X1918843Y13523694D02*
G01*
X1918843Y13546300D01*
X1898269Y13548586D01*
X1900554Y13546300D01*
X1902840Y13539442D01*
X1902840Y13532584D01*
X1900554Y13525980D01*
X1895982Y13521408D01*
X1889125Y13519122D01*
X1884553Y13519122D01*
X1877948Y13521408D01*
X1873377Y13525980D01*
X1871090Y13532584D01*
X1871090Y13539442D01*
X1873377Y13546300D01*
X1875662Y13548586D01*
X1880235Y13550872D01*
X1918843Y13504136D02*
G01*
X1871090Y13485848D01*
X1918843Y13467814D02*
G01*
X1871090Y13485848D01*
X2033015Y13516863D02*
G01*
X2037588Y13519150D01*
X2042159Y13523721D01*
X2044445Y13528294D01*
X2044445Y13537184D01*
X2042159Y13541755D01*
X2037588Y13546328D01*
X2033015Y13548613D01*
X2026158Y13550900D01*
X2014727Y13550900D01*
X2007870Y13548613D01*
X2003552Y13546328D01*
X1998979Y13541755D01*
X1996693Y13537184D01*
X1996693Y13528294D01*
X1998979Y13523721D01*
X2003552Y13519150D01*
X2007870Y13516863D01*
X2014727Y13516863D01*
X2014727Y13528294D02*
G01*
X2014727Y13516863D01*
X2044445Y13501878D02*
G01*
X1996693Y13501878D01*
X2044445Y13501878D02*
G01*
X1996693Y13469874D01*
X2044445Y13469874D02*
G01*
X1996693Y13469874D01*
X2044445Y13454887D02*
G01*
X1996693Y13454887D01*
X2044445Y13454887D02*
G01*
X2044445Y13439139D01*
X2042159Y13432281D01*
X2037588Y13427710D01*
X2033015Y13425424D01*
X2026158Y13423137D01*
X2014727Y13423137D01*
X2007870Y13425424D01*
X2003552Y13427710D01*
X1998979Y13432281D01*
X1996693Y13439139D01*
X1996693Y13454887D01*
X1818241Y13830894D02*
G01*
X1818241Y13853500D01*
X1797667Y13855786D01*
X1799953Y13853500D01*
X1802239Y13846642D01*
X1802239Y13839784D01*
X1799953Y13833180D01*
X1795381Y13828608D01*
X1788523Y13826322D01*
X1783951Y13826322D01*
X1777347Y13828608D01*
X1772775Y13833180D01*
X1770489Y13839784D01*
X1770489Y13846642D01*
X1772775Y13853500D01*
X1775061Y13855786D01*
X1779633Y13858072D01*
X1818241Y13811336D02*
G01*
X1770489Y13793048D01*
X1818241Y13775014D02*
G01*
X1770489Y13793048D01*
X1680126Y13825928D02*
G01*
X1684698Y13828214D01*
X1689270Y13832786D01*
X1691556Y13837358D01*
X1691556Y13846248D01*
X1689270Y13850820D01*
X1684698Y13855392D01*
X1680126Y13857678D01*
X1673268Y13859964D01*
X1662092Y13859964D01*
X1655234Y13857678D01*
X1650662Y13855392D01*
X1646090Y13850820D01*
X1643804Y13846248D01*
X1643804Y13837358D01*
X1646090Y13832786D01*
X1650662Y13828214D01*
X1655234Y13825928D01*
X1662092Y13825928D01*
X1662092Y13837358D02*
G01*
X1662092Y13825928D01*
X1691556Y13810942D02*
G01*
X1643804Y13810942D01*
X1691556Y13810942D02*
G01*
X1643804Y13778938D01*
X1691556Y13778938D02*
G01*
X1643804Y13778938D01*
X1691556Y13763952D02*
G01*
X1643804Y13763952D01*
X1691556Y13763952D02*
G01*
X1691556Y13748204D01*
X1689270Y13741346D01*
X1684698Y13736774D01*
X1680126Y13734488D01*
X1673268Y13732202D01*
X1662092Y13732202D01*
X1655234Y13734488D01*
X1650662Y13736774D01*
X1646090Y13741346D01*
X1643804Y13748204D01*
X1643804Y13763952D01*
X1327927Y13753343D02*
G01*
X1305067Y13753343D01*
X1302781Y13732769D01*
X1305067Y13735055D01*
X1311925Y13737341D01*
X1318783Y13737341D01*
X1325641Y13735055D01*
X1330213Y13730483D01*
X1332499Y13723879D01*
X1332499Y13719307D01*
X1330213Y13712449D01*
X1325641Y13707877D01*
X1318783Y13705591D01*
X1311925Y13705591D01*
X1305067Y13707877D01*
X1302781Y13710163D01*
X1300495Y13714735D01*
X1349771Y13717021D02*
G01*
X1347485Y13714735D01*
X1349771Y13712449D01*
X1352057Y13714735D01*
X1349771Y13717021D01*
X1367043Y13744199D02*
G01*
X1371615Y13746485D01*
X1378219Y13753343D01*
X1378219Y13705591D01*
X1393205Y13753343D02*
G01*
X1393205Y13705591D01*
X1416065Y13737341D02*
G01*
X1393205Y13714735D01*
X1402349Y13723879D02*
G01*
X1418351Y13705591D01*
X1468389Y13753343D02*
G01*
X1468389Y13705591D01*
X1468389Y13753343D02*
G01*
X1488709Y13753343D01*
X1495567Y13751057D01*
X1497853Y13748771D01*
X1500139Y13744199D01*
X1500139Y13739627D01*
X1497853Y13735055D01*
X1495567Y13732769D01*
X1488709Y13730483D01*
X1468389Y13730483D01*
X1484137Y13730483D02*
G01*
X1500139Y13705591D01*
X1515125Y13744199D02*
G01*
X1519697Y13746485D01*
X1526555Y13753343D01*
X1526555Y13705591D01*
X1969526Y13754242D02*
G01*
X1946666Y13754242D01*
X1944380Y13733668D01*
X1946666Y13735954D01*
X1953524Y13738240D01*
X1960382Y13738240D01*
X1967240Y13735954D01*
X1971812Y13731382D01*
X1974098Y13724778D01*
X1974098Y13720206D01*
X1971812Y13713348D01*
X1967240Y13708776D01*
X1960382Y13706490D01*
X1953524Y13706490D01*
X1946666Y13708776D01*
X1944380Y13711062D01*
X1942094Y13715634D01*
X1991370Y13717920D02*
G01*
X1989084Y13715634D01*
X1991370Y13713348D01*
X1993656Y13715634D01*
X1991370Y13717920D01*
X2008642Y13745098D02*
G01*
X2013214Y13747384D01*
X2019818Y13754242D01*
X2019818Y13706490D01*
X2034804Y13754242D02*
G01*
X2034804Y13706490D01*
X2057664Y13738240D02*
G01*
X2034804Y13715634D01*
X2043948Y13724778D02*
G01*
X2059950Y13706490D01*
X2109988Y13754242D02*
G01*
X2109988Y13706490D01*
X2109988Y13754242D02*
G01*
X2130308Y13754242D01*
X2137166Y13751956D01*
X2139452Y13749670D01*
X2141738Y13745098D01*
X2141738Y13740526D01*
X2139452Y13735954D01*
X2137166Y13733668D01*
X2130308Y13731382D01*
X2109988Y13731382D01*
X2125736Y13731382D02*
G01*
X2141738Y13706490D01*
X2159010Y13742812D02*
G01*
X2159010Y13745098D01*
X2161296Y13749670D01*
X2163582Y13751956D01*
X2168154Y13754242D01*
X2177298Y13754242D01*
X2181616Y13751956D01*
X2183902Y13749670D01*
X2186188Y13745098D01*
X2186188Y13740526D01*
X2183902Y13735954D01*
X2179584Y13729350D01*
X2156724Y13706490D01*
X2188474Y13706490D01*
M02*
