M48
METRIC,LZ,000.000
;FILE_FORMAT=3:3
;TYPE=PLATED
;Layer: PTH_Through
;EasyEDA v6.5.22, 2022-12-26 17:46:56
;054495fe3ecf40f9b916fb1bc62bcec1,9c64b28349a745268246d024528a85f0,10
;Gerber Generator version 0.2
;Holesize 1 = 0.600 mm
T01C0.600
;Holesize 2 = 0.701 mm
T02C0.701
%
G05
G90
T01
X000580Y001347G85X000580Y000147
X009220Y001347G85X009220Y000147
X000580Y004797G85X000580Y003597
X009220Y004797G85X009220Y003597
X000580Y-002103G85X000580Y-003303
X009220Y-002103G85X009220Y-003303
T02
X007620Y001130G85X007620Y000930
X002120Y001130G85X002120Y000930
X005380Y001130G85X005380Y000930
X006400Y001130G85X006400Y000930
X004380Y001130G85X004380Y000930
X003340Y001130G85X003340Y000930
X007620Y004580G85X007620Y004380
X002120Y004580G85X002120Y004380
X005380Y004580G85X005380Y004380
X006400Y004580G85X006400Y004380
X004380Y004580G85X004380Y004380
X003340Y004580G85X003340Y004380
X007620Y-002320G85X007620Y-002520
X002120Y-002320G85X002120Y-002520
X005380Y-002320G85X005380Y-002520
X006400Y-002320G85X006400Y-002520
X004380Y-002320G85X004380Y-002520
X003340Y-002320G85X003340Y-002520
M30
