M48
METRIC,LZ,000.000
;FILE_FORMAT=3:3
;TYPE=PLATED
;Layer: PTH_Through
;EasyEDA v6.5.22, 2022-12-27 15:54:52
;581f4e56cbf948ffa598ce4b045c5e28,9c64b28349a745268246d024528a85f0,10
;Gerber Generator version 0.2
;Holesize 1 = 0.600 mm
T01C0.600
%
G05
G90
T01
X007230Y001205G85X007230Y000905
X001730Y001205G85X001730Y000905
X004990Y001205G85X004990Y000905
X000190Y001372G85X000190Y000172
X008830Y001372G85X008830Y000172
X006010Y001205G85X006010Y000905
X003990Y001205G85X003990Y000905
X002950Y001205G85X002950Y000905
X007230Y-003090G85X007230Y-003390
X001730Y-003090G85X001730Y-003390
X004990Y-003090G85X004990Y-003390
X000190Y-002923G85X000190Y-004123
X008830Y-002923G85X008830Y-004123
X006010Y-003090G85X006010Y-003390
X003990Y-003090G85X003990Y-003390
X002950Y-003090G85X002950Y-003390
X007225Y005530G85X007225Y005230
X001725Y005530G85X001725Y005230
X004985Y005530G85X004985Y005230
X000185Y005697G85X000185Y004497
X008825Y005697G85X008825Y004497
X006005Y005530G85X006005Y005230
X003985Y005530G85X003985Y005230
X002945Y005530G85X002945Y005230
M30
