M48
METRIC,LZ,000.000
;FILE_FORMAT=3:3
;TYPE=PLATED
;Layer: PTH_Through
;EasyEDA v6.5.22, 2022-12-30 12:31:34
;8208ea2c859e44049a4325ea99c283b7,9c64b28349a745268246d024528a85f0,10
;Gerber Generator version 0.2
;Holesize 1 = 0.600 mm
T01C0.600
%
G05
G90
T01
X007225Y001360G85X007225Y001060
X001725Y001360G85X001725Y001060
X004985Y001385G85X004985Y001035
X000185Y001527G85X000185Y000327
X008825Y001527G85X008825Y000327
X006005Y001360G85X006005Y001060
X003985Y001385G85X003985Y001035
X002945Y001360G85X002945Y001060
X007225Y-002810G85X007225Y-003110
X001725Y-002810G85X001725Y-003110
X004985Y-002785G85X004985Y-003135
X000185Y-002643G85X000185Y-003843
X008825Y-002643G85X008825Y-003843
X006005Y-002810G85X006005Y-003110
X003985Y-002785G85X003985Y-003135
X002945Y-002810G85X002945Y-003110
X007225Y005530G85X007225Y005230
X001725Y005530G85X001725Y005230
X004985Y005555G85X004985Y005205
X000185Y005697G85X000185Y004497
X008825Y005697G85X008825Y004497
X006005Y005530G85X006005Y005230
X003985Y005555G85X003985Y005205
X002945Y005530G85X002945Y005230
M30
