G04 Layer: BottomSolderMaskLayer*
G04 EasyEDA v6.5.22, 2022-12-30 12:31:34*
G04 8208ea2c859e44049a4325ea99c283b7,9c64b28349a745268246d024528a85f0,10*
G04 Gerber Generator version 0.2*
G04 Scale: 100 percent, Rotated: No, Reflected: No *
G04 Dimensions in millimeters *
G04 leading zeros omitted , absolute positions ,4 integer and 5 decimal *
%FSLAX45Y45*%
%MOMM*%

%AMMACRO1*1,1,$1,$2,$3*1,1,$1,$4,$5*1,1,$1,0-$2,0-$3*1,1,$1,0-$4,0-$5*20,1,$1,$2,$3,$4,$5,0*20,1,$1,$4,$5,0-$2,0-$3,0*20,1,$1,0-$2,0-$3,0-$4,0-$5,0*20,1,$1,0-$4,0-$5,$2,$3,0*4,1,4,$2,$3,$4,$5,0-$2,0-$3,0-$4,0-$5,$2,$3,0*%
%ADD10MACRO1,0.1016X-0.6X0.375X0.6X0.375*%
%ADD11MACRO1,0.1016X-0.5999X0.375X0.5999X0.375*%
%ADD12MACRO1,0.1016X0.2828X-0.27X0.2828X0.27*%
%ADD13MACRO1,0.1016X-0.2828X-0.27X-0.2828X0.27*%
%ADD14MACRO1,0.1016X-0.2827X-0.27X-0.2827X0.27*%
%ADD15O,0.8300212X1.1800078*%
%ADD16O,0.9500362X1.2000230000000003*%
%ADD17O,0.7800086X1.1800078*%
%ADD18O,1.1000232X2.3000208000000004*%
%ADD19O,0.8500364X1.2000230000000003*%

%LPD*%
D10*
G01*
X172506Y428503D03*
G01*
X639991Y426989D03*
D11*
G01*
X640006Y9992D03*
D10*
G01*
X172529Y11506D03*
G01*
X639997Y-407005D03*
G01*
X172516Y-405486D03*
D12*
G01*
X249749Y228011D03*
D13*
G01*
X336309Y228011D03*
D12*
G01*
X554725Y227994D03*
D14*
G01*
X641285Y227994D03*
D12*
G01*
X249736Y-188982D03*
D13*
G01*
X336297Y-188982D03*
D12*
G01*
X554713Y-189000D03*
D13*
G01*
X641277Y-189000D03*
D12*
G01*
X554702Y644993D03*
D13*
G01*
X641271Y644993D03*
D12*
G01*
X249726Y645011D03*
D13*
G01*
X336287Y645011D03*
D15*
G01*
X722502Y121005D03*
D16*
G01*
X172516Y121005D03*
D17*
G01*
X498551Y121005D03*
D18*
G01*
X18542Y92760D03*
G01*
X882497Y92760D03*
D19*
G01*
X600506Y121005D03*
D17*
G01*
X398526Y121005D03*
D15*
G01*
X294538Y121005D03*
G01*
X722502Y-295986D03*
D16*
G01*
X172491Y-295986D03*
D17*
G01*
X498525Y-295986D03*
D18*
G01*
X18542Y-324256D03*
G01*
X882497Y-324256D03*
D19*
G01*
X600481Y-295986D03*
D17*
G01*
X398526Y-295986D03*
D15*
G01*
X294512Y-295986D03*
G01*
X722502Y537997D03*
D16*
G01*
X172491Y537997D03*
D17*
G01*
X498525Y537997D03*
D18*
G01*
X18516Y509752D03*
G01*
X882497Y509752D03*
D19*
G01*
X600481Y537997D03*
D17*
G01*
X398500Y537997D03*
D15*
G01*
X294512Y537997D03*
M02*
