G04 Layer: TopLayer*
G04 EasyEDA v6.5.22, 2023-01-17 18:22:32*
G04 9ba01a3dcee843c484719c7dbc03d3de,9c64b28349a745268246d024528a85f0,10*
G04 Gerber Generator version 0.2*
G04 Scale: 100 percent, Rotated: No, Reflected: No *
G04 Dimensions in millimeters *
G04 leading zeros omitted , absolute positions ,4 integer and 5 decimal *
%FSLAX45Y45*%
%MOMM*%

%AMMACRO1*21,1,$1,$2,0,0,$3*%
%ADD10C,0.3000*%
%ADD11MACRO1,0.5402X0.5655X90.0000*%
%ADD12MACRO1,0.5402X0.5657X90.0000*%
%ADD13MACRO1,0.54X0.5655X90.0000*%
%ADD14MACRO1,0.54X0.5656X90.0000*%
%ADD15MACRO1,0.5402X0.5656X90.0000*%
%ADD16MACRO1,0.54X0.5654X90.0000*%
%ADD17MACRO1,0.54X0.5657X90.0000*%
%ADD18O,0.7500112X1.0999978000000001*%
%ADD19O,0.850011X1.0999978000000001*%
%ADD20O,0.6999986X1.0999978000000001*%
%ADD21O,0.9999979999999999X2.1999956000000003*%
%ADD22C,0.6000*%
%ADD23C,0.0192*%

%LPD*%
G36*
X361391Y582980D02*
G01*
X357073Y583946D01*
X353568Y586689D01*
X347268Y601014D01*
X341833Y609295D01*
X335127Y616610D01*
X327304Y622655D01*
X318617Y627380D01*
X312369Y629513D01*
X308762Y631647D01*
X306374Y635050D01*
X305511Y639165D01*
X305511Y684834D01*
X306273Y688746D01*
X308457Y692048D01*
X311759Y694232D01*
X315671Y694994D01*
X426821Y694994D01*
X430733Y694232D01*
X434035Y692048D01*
X436219Y688746D01*
X436981Y684834D01*
X436981Y593140D01*
X436219Y589280D01*
X434035Y585978D01*
X430733Y583793D01*
X426821Y582980D01*
G37*

%LPD*%
G36*
X470154Y582980D02*
G01*
X466242Y583793D01*
X462991Y585978D01*
X460756Y589280D01*
X459993Y593140D01*
X459993Y684834D01*
X460756Y688746D01*
X462991Y692048D01*
X466242Y694232D01*
X470154Y694994D01*
X577850Y694994D01*
X581710Y694232D01*
X585012Y692048D01*
X587197Y688746D01*
X588010Y684834D01*
X588010Y638606D01*
X587146Y634542D01*
X584708Y631139D01*
X581152Y629005D01*
X576427Y627380D01*
X567690Y622655D01*
X559917Y616610D01*
X553161Y609295D01*
X547776Y601014D01*
X541477Y586689D01*
X537972Y583946D01*
X533603Y582980D01*
G37*

%LPD*%
G36*
X685647Y496976D02*
G01*
X681736Y497738D01*
X678484Y499973D01*
X676249Y503275D01*
X675487Y507136D01*
X675487Y582980D01*
X667410Y582980D01*
X663092Y583946D01*
X659536Y586689D01*
X653237Y601014D01*
X647852Y609295D01*
X641146Y616610D01*
X633323Y622655D01*
X624586Y627380D01*
X617372Y629869D01*
X613765Y632002D01*
X611327Y635406D01*
X610514Y639470D01*
X610514Y684834D01*
X611276Y688746D01*
X613460Y692048D01*
X616762Y694232D01*
X620674Y694994D01*
X770331Y694994D01*
X774242Y694232D01*
X777494Y692048D01*
X779729Y688746D01*
X780491Y684834D01*
X780491Y614476D01*
X849376Y614476D01*
X853236Y613714D01*
X856538Y611530D01*
X858774Y608228D01*
X859536Y604316D01*
X859536Y507136D01*
X858774Y503275D01*
X856538Y499973D01*
X853236Y497789D01*
X849376Y496976D01*
G37*

%LPD*%
G36*
X113436Y402894D02*
G01*
X102158Y403707D01*
X92354Y405841D01*
X82854Y409244D01*
X73964Y413867D01*
X65735Y419709D01*
X58419Y426618D01*
X52069Y434441D01*
X46888Y443026D01*
X42875Y452272D01*
X39979Y462280D01*
X37439Y468274D01*
X33629Y473303D01*
X27635Y478332D01*
X24993Y481787D01*
X24028Y486054D01*
X23063Y590651D01*
X23571Y593852D01*
X25095Y596747D01*
X27432Y599033D01*
X32512Y602589D01*
X36677Y607314D01*
X37896Y609396D01*
X40436Y615391D01*
X41402Y620928D01*
X42265Y633272D01*
X44500Y643432D01*
X48158Y653186D01*
X53136Y662381D01*
X59334Y670712D01*
X66700Y678129D01*
X74980Y684479D01*
X84074Y689559D01*
X93827Y693267D01*
X101346Y695096D01*
X103733Y695401D01*
X272846Y695045D01*
X276758Y694232D01*
X280009Y692048D01*
X282244Y688746D01*
X283006Y684885D01*
X283006Y638962D01*
X282143Y634898D01*
X279704Y631494D01*
X276148Y629361D01*
X270408Y627380D01*
X261721Y622655D01*
X253898Y616610D01*
X247192Y609295D01*
X241757Y601014D01*
X237794Y591972D01*
X235356Y582371D01*
X234492Y572058D01*
X234492Y537921D01*
X235356Y527608D01*
X237693Y518414D01*
X237998Y515924D01*
X237998Y413054D01*
X237236Y409194D01*
X235000Y405892D01*
X231698Y403656D01*
X227838Y402894D01*
G37*

%LPD*%
G36*
X470154Y136956D02*
G01*
X466293Y137718D01*
X462991Y139903D01*
X460756Y143205D01*
X459993Y147116D01*
X459993Y238810D01*
X460756Y242671D01*
X462991Y245973D01*
X466293Y248158D01*
X470154Y248970D01*
X577850Y248970D01*
X581710Y248158D01*
X585012Y245973D01*
X587248Y242671D01*
X588010Y238810D01*
X588010Y192582D01*
X587146Y188468D01*
X584708Y185115D01*
X581152Y182981D01*
X576427Y181356D01*
X567740Y176631D01*
X559917Y170535D01*
X553212Y163271D01*
X547776Y154990D01*
X541477Y140665D01*
X537972Y137922D01*
X533603Y136956D01*
G37*

%LPD*%
G36*
X361391Y136956D02*
G01*
X357073Y137922D01*
X353568Y140665D01*
X347268Y154990D01*
X341833Y163271D01*
X335127Y170535D01*
X327304Y176631D01*
X318617Y181356D01*
X312369Y183489D01*
X308762Y185623D01*
X306374Y189026D01*
X305511Y193090D01*
X305511Y238810D01*
X306273Y242671D01*
X308508Y245973D01*
X311759Y248158D01*
X315671Y248970D01*
X426872Y248970D01*
X430733Y248158D01*
X434035Y245973D01*
X436219Y242671D01*
X437032Y238810D01*
X437032Y147116D01*
X436219Y143205D01*
X434035Y139903D01*
X430733Y137718D01*
X426872Y136956D01*
G37*

%LPD*%
G36*
X685647Y50952D02*
G01*
X681786Y51714D01*
X678484Y53898D01*
X676249Y57200D01*
X675487Y61112D01*
X675487Y136956D01*
X667410Y136956D01*
X663092Y137922D01*
X659587Y140665D01*
X653288Y154990D01*
X647852Y163271D01*
X641146Y170535D01*
X633323Y176631D01*
X624636Y181356D01*
X617372Y183845D01*
X613765Y185978D01*
X611378Y189382D01*
X610514Y193446D01*
X610514Y238810D01*
X611276Y242671D01*
X613460Y245973D01*
X616762Y248158D01*
X620674Y248970D01*
X770331Y248970D01*
X774242Y248158D01*
X777544Y245973D01*
X779729Y242671D01*
X780491Y238810D01*
X780491Y168452D01*
X849376Y168452D01*
X853287Y167690D01*
X856589Y165455D01*
X858774Y162153D01*
X859536Y158292D01*
X859536Y61112D01*
X858774Y57200D01*
X856589Y53949D01*
X853287Y51714D01*
X849376Y50952D01*
G37*

%LPD*%
G36*
X113487Y-43129D02*
G01*
X102209Y-42316D01*
X92354Y-40233D01*
X82905Y-36830D01*
X73964Y-32156D01*
X65786Y-26314D01*
X58419Y-19456D01*
X52120Y-11633D01*
X46888Y-2997D01*
X42875Y6197D01*
X39979Y16256D01*
X37439Y22250D01*
X33578Y27330D01*
X31495Y29159D01*
X28905Y32562D01*
X27940Y36779D01*
X26974Y147320D01*
X27482Y150520D01*
X29006Y153416D01*
X32512Y156565D01*
X36677Y161290D01*
X37947Y163372D01*
X40436Y169316D01*
X41402Y174904D01*
X42316Y187198D01*
X44551Y197408D01*
X48158Y207162D01*
X53136Y216306D01*
X59385Y224688D01*
X66700Y232105D01*
X74980Y238404D01*
X84074Y243484D01*
X93827Y247243D01*
X101346Y249021D01*
X103733Y249326D01*
X272846Y248970D01*
X276758Y248208D01*
X280060Y245973D01*
X282244Y242722D01*
X283006Y238810D01*
X283006Y192938D01*
X282143Y188823D01*
X279704Y185420D01*
X276148Y183286D01*
X270408Y181356D01*
X261721Y176631D01*
X253898Y170535D01*
X247192Y163271D01*
X241757Y154990D01*
X237794Y145897D01*
X235356Y136296D01*
X234492Y125983D01*
X234492Y91846D01*
X235356Y81534D01*
X237693Y72339D01*
X237998Y69850D01*
X237998Y-32969D01*
X237236Y-36880D01*
X235051Y-40182D01*
X231749Y-42367D01*
X227838Y-43129D01*
G37*

%LPD*%
G36*
X470154Y-308559D02*
G01*
X466293Y-307797D01*
X462991Y-305562D01*
X460806Y-302260D01*
X459993Y-298399D01*
X459993Y-206705D01*
X460806Y-202844D01*
X462991Y-199542D01*
X466293Y-197307D01*
X470154Y-196545D01*
X577850Y-196545D01*
X581761Y-197307D01*
X585012Y-199542D01*
X587248Y-202844D01*
X588010Y-206705D01*
X588010Y-252933D01*
X587146Y-256997D01*
X584708Y-260400D01*
X581152Y-262534D01*
X576427Y-264160D01*
X567740Y-268884D01*
X559917Y-274980D01*
X553212Y-282244D01*
X547776Y-290525D01*
X541477Y-304850D01*
X537972Y-307594D01*
X533654Y-308559D01*
G37*

%LPD*%
G36*
X361391Y-308559D02*
G01*
X357073Y-307594D01*
X353568Y-304850D01*
X347268Y-290525D01*
X341833Y-282244D01*
X335127Y-274980D01*
X327304Y-268884D01*
X318617Y-264160D01*
X312369Y-262026D01*
X308813Y-259892D01*
X306374Y-256489D01*
X305511Y-252425D01*
X305511Y-206705D01*
X306273Y-202844D01*
X308508Y-199542D01*
X311810Y-197307D01*
X315671Y-196545D01*
X426872Y-196545D01*
X430733Y-197307D01*
X434035Y-199542D01*
X436219Y-202844D01*
X437032Y-206705D01*
X437032Y-298399D01*
X436219Y-302260D01*
X434035Y-305562D01*
X430733Y-307797D01*
X426872Y-308559D01*
G37*

%LPD*%
G36*
X685647Y-394563D02*
G01*
X681786Y-393801D01*
X678484Y-391566D01*
X676249Y-388315D01*
X675487Y-384403D01*
X675487Y-308559D01*
X667410Y-308559D01*
X663092Y-307594D01*
X659587Y-304850D01*
X653288Y-290525D01*
X647852Y-282244D01*
X641146Y-274980D01*
X633323Y-268884D01*
X624636Y-264160D01*
X617372Y-261670D01*
X613816Y-259537D01*
X611378Y-256133D01*
X610514Y-252069D01*
X610514Y-206705D01*
X611276Y-202844D01*
X613511Y-199542D01*
X616762Y-197307D01*
X620674Y-196545D01*
X770331Y-196545D01*
X774242Y-197307D01*
X777494Y-199542D01*
X779729Y-202844D01*
X780491Y-206705D01*
X780491Y-277063D01*
X849376Y-277063D01*
X853287Y-277825D01*
X856589Y-280009D01*
X858774Y-283311D01*
X859536Y-287223D01*
X859536Y-384403D01*
X858774Y-388264D01*
X856589Y-391566D01*
X853287Y-393801D01*
X849376Y-394563D01*
G37*

%LPD*%
G36*
X112877Y-488594D02*
G01*
X102209Y-487832D01*
X92354Y-485749D01*
X82905Y-482346D01*
X73964Y-477672D01*
X65786Y-471830D01*
X58419Y-464972D01*
X52120Y-457149D01*
X46888Y-448513D01*
X42875Y-439267D01*
X39979Y-429259D01*
X37439Y-423265D01*
X33985Y-418642D01*
X32461Y-415798D01*
X31902Y-412597D01*
X30886Y-294741D01*
X31495Y-291134D01*
X33375Y-287985D01*
X36677Y-284226D01*
X37947Y-282143D01*
X40436Y-276199D01*
X41402Y-270611D01*
X42316Y-258317D01*
X44551Y-248107D01*
X48158Y-238353D01*
X53136Y-229209D01*
X59385Y-220827D01*
X66700Y-213410D01*
X74980Y-207111D01*
X84124Y-202031D01*
X93827Y-198272D01*
X101346Y-196443D01*
X103733Y-196189D01*
X272846Y-196545D01*
X276758Y-197307D01*
X280060Y-199491D01*
X282244Y-202793D01*
X283006Y-206705D01*
X283006Y-252577D01*
X282143Y-256692D01*
X279755Y-260045D01*
X276148Y-262178D01*
X270408Y-264160D01*
X261721Y-268884D01*
X253898Y-274980D01*
X247192Y-282244D01*
X241757Y-290525D01*
X237794Y-299618D01*
X235356Y-309219D01*
X234492Y-319481D01*
X234492Y-353669D01*
X235356Y-363931D01*
X237693Y-373176D01*
X237998Y-375666D01*
X237998Y-478434D01*
X237236Y-482295D01*
X235051Y-485597D01*
X231749Y-487832D01*
X227838Y-488594D01*
G37*

%LPD*%
D10*
X294477Y-336550D02*
G01*
X295013Y-448061D01*
X600008Y-448061D01*
X598510Y-336550D01*
X640008Y-447558D02*
G01*
X596506Y-448061D01*
X294474Y108955D02*
G01*
X295008Y-2555D01*
X600003Y-2555D01*
X598502Y108955D01*
X639998Y-2052D02*
G01*
X596503Y-2555D01*
X294462Y555005D02*
G01*
X294995Y443496D01*
X599993Y443496D01*
X598492Y555005D01*
X639991Y443999D02*
G01*
X596491Y443496D01*
D11*
G01*
X336289Y215950D03*
D12*
G01*
X249730Y215950D03*
D13*
G01*
X641294Y215929D03*
D14*
G01*
X554737Y215929D03*
D15*
G01*
X336293Y-229552D03*
D12*
G01*
X249732Y-229552D03*
D16*
G01*
X641303Y-229576D03*
D17*
G01*
X554744Y-229576D03*
D16*
G01*
X641285Y661978D03*
D17*
G01*
X554727Y661978D03*
D11*
G01*
X336276Y662000D03*
D12*
G01*
X249717Y662000D03*
D18*
G01*
X722510Y108948D03*
D19*
G01*
X172499Y108948D03*
D20*
G01*
X498533Y108948D03*
D21*
G01*
X18524Y80703D03*
G01*
X882505Y80703D03*
D18*
G01*
X600489Y108948D03*
D20*
G01*
X398508Y108948D03*
D18*
G01*
X294520Y108948D03*
G01*
X722508Y-336555D03*
D19*
G01*
X172501Y-336555D03*
D20*
G01*
X498538Y-336555D03*
D21*
G01*
X18526Y-364802D03*
G01*
X882502Y-364802D03*
D18*
G01*
X600494Y-336555D03*
D20*
G01*
X398510Y-336555D03*
D18*
G01*
X294523Y-336555D03*
G01*
X722497Y554997D03*
D19*
G01*
X172486Y554997D03*
D20*
G01*
X498520Y554997D03*
D21*
G01*
X18511Y526752D03*
G01*
X882492Y526752D03*
D18*
G01*
X600476Y554997D03*
D20*
G01*
X398495Y554997D03*
D18*
G01*
X294507Y554997D03*
D22*
G01*
X172486Y445498D03*
G01*
X639998Y443999D03*
G01*
X640006Y-2049D03*
G01*
X172493Y-551D03*
G01*
X640006Y-447547D03*
G01*
X172493Y-446049D03*
M02*
