G04 Layer: TopLayer*
G04 EasyEDA v6.5.22, 2022-12-26 17:46:56*
G04 054495fe3ecf40f9b916fb1bc62bcec1,9c64b28349a745268246d024528a85f0,10*
G04 Gerber Generator version 0.2*
G04 Scale: 100 percent, Rotated: No, Reflected: No *
G04 Dimensions in millimeters *
G04 leading zeros omitted , absolute positions ,4 integer and 5 decimal *
%FSLAX45Y45*%
%MOMM*%

%AMMACRO1*21,1,$1,$2,0,0,$3*%
%ADD10C,0.3000*%
%ADD11C,0.8000*%
%ADD12MACRO1,0.54X0.5657X90.0000*%
%ADD13MACRO1,0.54X0.5656X90.0000*%
%ADD14MACRO1,0.54X0.5654X90.0000*%
%ADD15MACRO1,0.5401X0.5656X90.0000*%
%ADD16MACRO1,0.5401X0.5657X90.0000*%
%ADD17MACRO1,0.54X0.5655X90.0000*%
%ADD18O,0.850011X1.0999978000000001*%
%ADD19O,0.9999979999999999X2.1999956000000003*%
%ADD20C,0.6000*%
%ADD21C,0.0124*%

%LPD*%
G36*
X395224Y464972D02*
G01*
X390956Y465937D01*
X387451Y468630D01*
X385419Y472541D01*
X383794Y478586D01*
X379882Y486968D01*
X374599Y494538D01*
X368046Y501091D01*
X360476Y506374D01*
X352145Y510285D01*
X347522Y511505D01*
X343662Y513537D01*
X340969Y516991D01*
X340004Y521309D01*
X340004Y578916D01*
X340766Y582828D01*
X343001Y586079D01*
X346303Y588314D01*
X350164Y589076D01*
X467359Y589076D01*
X471220Y588314D01*
X474522Y586079D01*
X476707Y582828D01*
X477520Y578916D01*
X477520Y480161D01*
X476707Y476250D01*
X474522Y472948D01*
X471220Y470763D01*
X467359Y470001D01*
X418693Y470001D01*
X416458Y469442D01*
X409651Y466090D01*
X405130Y464972D01*
G37*

%LPD*%
G36*
X507695Y447497D02*
G01*
X503783Y448259D01*
X500481Y450494D01*
X498297Y453745D01*
X497535Y457657D01*
X497535Y578916D01*
X498297Y582828D01*
X500481Y586079D01*
X503783Y588314D01*
X507695Y589076D01*
X624840Y589076D01*
X628700Y588314D01*
X632002Y586079D01*
X634238Y582828D01*
X635000Y578916D01*
X635000Y521563D01*
X634034Y517296D01*
X631342Y513791D01*
X627481Y511759D01*
X621893Y510285D01*
X613511Y506374D01*
X605942Y501091D01*
X599440Y494538D01*
X594156Y486968D01*
X590245Y478586D01*
X587857Y469696D01*
X586994Y460044D01*
X586994Y457657D01*
X586232Y453745D01*
X583996Y450494D01*
X580745Y448259D01*
X576834Y447497D01*
G37*

%LPD*%
G36*
X725170Y387502D02*
G01*
X721258Y388264D01*
X717956Y390448D01*
X715772Y393750D01*
X715010Y397662D01*
X715010Y447852D01*
X713282Y447497D01*
X703173Y447497D01*
X699312Y448259D01*
X696010Y450494D01*
X693826Y453745D01*
X693013Y457657D01*
X693013Y460044D01*
X692200Y469696D01*
X689813Y478586D01*
X685901Y486968D01*
X680618Y494538D01*
X674065Y501091D01*
X666496Y506374D01*
X658114Y510285D01*
X653034Y511657D01*
X649122Y513638D01*
X646430Y517143D01*
X645515Y521462D01*
X645515Y578916D01*
X646277Y582828D01*
X648462Y586079D01*
X651764Y588314D01*
X655675Y589076D01*
X809853Y589076D01*
X813714Y588314D01*
X817016Y586079D01*
X819251Y582828D01*
X820013Y578916D01*
X820013Y507492D01*
X891692Y507492D01*
X895553Y506730D01*
X898855Y504494D01*
X901090Y501192D01*
X901852Y497332D01*
X901649Y397611D01*
X900887Y393750D01*
X898652Y390448D01*
X895400Y388264D01*
X891489Y387502D01*
X762762Y387502D01*
X752703Y387959D01*
X748792Y387502D01*
G37*

%LPD*%
G36*
X153568Y295910D02*
G01*
X141884Y296722D01*
X132232Y298704D01*
X122935Y302006D01*
X114198Y306476D01*
X106070Y312064D01*
X98806Y318668D01*
X92456Y326237D01*
X87172Y334518D01*
X83007Y343458D01*
X80111Y352907D01*
X78486Y362610D01*
X78130Y371551D01*
X78384Y513689D01*
X79400Y526237D01*
X81737Y536549D01*
X85547Y546404D01*
X90678Y555599D01*
X97078Y563981D01*
X104597Y571347D01*
X113131Y577596D01*
X122428Y582574D01*
X132384Y586181D01*
X142697Y588314D01*
X153771Y589076D01*
X315722Y589076D01*
X319582Y588314D01*
X322834Y586181D01*
X325069Y582980D01*
X325882Y579170D01*
X327253Y521360D01*
X326339Y516940D01*
X323697Y513384D01*
X319735Y511301D01*
X315874Y510285D01*
X307543Y506374D01*
X299974Y501091D01*
X293420Y494538D01*
X289509Y489407D01*
X287629Y488086D01*
X278384Y483006D01*
X277520Y481787D01*
X277520Y306070D01*
X276707Y302158D01*
X274523Y298856D01*
X271221Y296672D01*
X267360Y295910D01*
G37*

%LPD*%
G36*
X395224Y119989D02*
G01*
X390956Y120954D01*
X387451Y123647D01*
X385419Y127508D01*
X383794Y133604D01*
X379882Y141986D01*
X374599Y149555D01*
X368046Y156057D01*
X360476Y161391D01*
X352145Y165252D01*
X347522Y166522D01*
X343611Y168554D01*
X340969Y172008D01*
X340004Y176326D01*
X340004Y233934D01*
X340766Y237794D01*
X342950Y241096D01*
X346252Y243332D01*
X350164Y244094D01*
X467359Y244094D01*
X471220Y243332D01*
X474522Y241096D01*
X476707Y237794D01*
X477520Y233934D01*
X477520Y135178D01*
X476707Y131267D01*
X474522Y127965D01*
X471220Y125780D01*
X467359Y125018D01*
X418693Y125018D01*
X416458Y124460D01*
X409651Y121056D01*
X407416Y120294D01*
X405079Y119989D01*
G37*

%LPD*%
G36*
X507644Y102514D02*
G01*
X503783Y103276D01*
X500481Y105460D01*
X498297Y108762D01*
X497484Y112674D01*
X497484Y233934D01*
X498297Y237794D01*
X500481Y241096D01*
X503783Y243332D01*
X507644Y244094D01*
X624789Y244094D01*
X628700Y243332D01*
X632002Y241096D01*
X634187Y237794D01*
X634949Y233934D01*
X634949Y176580D01*
X634034Y172262D01*
X631342Y168808D01*
X627430Y166776D01*
X621893Y165252D01*
X613511Y161391D01*
X605942Y156057D01*
X599440Y149555D01*
X594106Y141986D01*
X590245Y133604D01*
X587857Y124663D01*
X586994Y115062D01*
X586994Y112674D01*
X586232Y108762D01*
X583996Y105460D01*
X580694Y103276D01*
X576834Y102514D01*
G37*

%LPD*%
G36*
X725119Y42519D02*
G01*
X721258Y43281D01*
X717956Y45466D01*
X715721Y48768D01*
X714959Y52679D01*
X714959Y102870D01*
X713282Y102514D01*
X703173Y102514D01*
X699312Y103276D01*
X696010Y105460D01*
X693775Y108762D01*
X693013Y112674D01*
X693013Y115062D01*
X692200Y124663D01*
X689813Y133604D01*
X685901Y141986D01*
X680567Y149555D01*
X674065Y156057D01*
X666496Y161391D01*
X658114Y165252D01*
X653034Y166624D01*
X649122Y168656D01*
X646430Y172161D01*
X645464Y176428D01*
X645464Y233934D01*
X646277Y237794D01*
X648462Y241096D01*
X651764Y243332D01*
X655624Y244094D01*
X809802Y244094D01*
X813714Y243332D01*
X816965Y241096D01*
X819200Y237794D01*
X819962Y233934D01*
X819962Y162509D01*
X891641Y162509D01*
X895553Y161747D01*
X898855Y159512D01*
X901039Y156210D01*
X901801Y152349D01*
X901649Y52628D01*
X900836Y48768D01*
X898652Y45466D01*
X895350Y43281D01*
X891489Y42519D01*
X763168Y42519D01*
X752652Y42976D01*
X748487Y42519D01*
G37*

%LPD*%
G36*
X153619Y-49123D02*
G01*
X141884Y-48310D01*
X132232Y-46278D01*
X122935Y-43027D01*
X114198Y-38557D01*
X106070Y-32918D01*
X98806Y-26314D01*
X92456Y-18796D01*
X87172Y-10464D01*
X83007Y-1524D01*
X80111Y7873D01*
X78486Y17627D01*
X78079Y26619D01*
X78384Y168656D01*
X79400Y181203D01*
X81737Y191516D01*
X85496Y201371D01*
X90678Y210616D01*
X97078Y218998D01*
X104597Y226364D01*
X113131Y232613D01*
X122428Y237591D01*
X132384Y241198D01*
X142697Y243332D01*
X153771Y244094D01*
X315722Y244094D01*
X319582Y243332D01*
X322834Y241198D01*
X325069Y237998D01*
X325882Y234137D01*
X327253Y176326D01*
X326339Y171958D01*
X323697Y168351D01*
X319735Y166319D01*
X315874Y165252D01*
X307543Y161391D01*
X299974Y156057D01*
X293420Y149555D01*
X289509Y144424D01*
X287629Y143052D01*
X278384Y137972D01*
X277520Y136804D01*
X277520Y-38963D01*
X276707Y-42824D01*
X274523Y-46126D01*
X271221Y-48310D01*
X267360Y-49123D01*
G37*

%LPD*%
G36*
X395224Y-224993D02*
G01*
X390956Y-224028D01*
X387451Y-221386D01*
X385419Y-217474D01*
X383794Y-211378D01*
X379882Y-202996D01*
X374599Y-195478D01*
X368046Y-188925D01*
X360476Y-183642D01*
X352145Y-179730D01*
X347522Y-178511D01*
X343611Y-176479D01*
X340969Y-172974D01*
X340004Y-168706D01*
X340004Y-111099D01*
X340766Y-107187D01*
X343001Y-103885D01*
X346252Y-101701D01*
X350164Y-100939D01*
X467359Y-100939D01*
X471220Y-101701D01*
X474522Y-103885D01*
X476707Y-107187D01*
X477520Y-111099D01*
X477520Y-209854D01*
X476707Y-213715D01*
X474522Y-217017D01*
X471220Y-219252D01*
X467359Y-220014D01*
X418693Y-220014D01*
X416458Y-220522D01*
X409651Y-223926D01*
X407416Y-224739D01*
X405079Y-224993D01*
G37*

%LPD*%
G36*
X507644Y-242519D02*
G01*
X503783Y-241706D01*
X500481Y-239521D01*
X498297Y-236220D01*
X497484Y-232359D01*
X497484Y-111099D01*
X498297Y-107187D01*
X500481Y-103885D01*
X503783Y-101701D01*
X507644Y-100939D01*
X624840Y-100939D01*
X628700Y-101701D01*
X632002Y-103885D01*
X634187Y-107187D01*
X635000Y-111099D01*
X635000Y-168402D01*
X634034Y-172720D01*
X631342Y-176225D01*
X627430Y-178257D01*
X621893Y-179730D01*
X613511Y-183642D01*
X605942Y-188925D01*
X599440Y-195478D01*
X594106Y-202996D01*
X590245Y-211378D01*
X587857Y-220319D01*
X586994Y-229971D01*
X586994Y-232359D01*
X586232Y-236220D01*
X583996Y-239521D01*
X580694Y-241706D01*
X576834Y-242519D01*
G37*

%LPD*%
G36*
X725170Y-302514D02*
G01*
X721258Y-301701D01*
X717956Y-299516D01*
X715772Y-296214D01*
X715010Y-292354D01*
X715010Y-242163D01*
X713282Y-242519D01*
X703173Y-242519D01*
X699312Y-241706D01*
X696010Y-239521D01*
X693775Y-236220D01*
X693013Y-232359D01*
X693013Y-229971D01*
X692200Y-220319D01*
X689813Y-211378D01*
X685901Y-202996D01*
X680567Y-195478D01*
X674065Y-188925D01*
X666496Y-183642D01*
X658114Y-179730D01*
X653034Y-178358D01*
X649122Y-176326D01*
X646430Y-172821D01*
X645515Y-168554D01*
X645515Y-111099D01*
X646277Y-107187D01*
X648462Y-103885D01*
X651764Y-101701D01*
X655675Y-100939D01*
X809853Y-100939D01*
X813714Y-101701D01*
X817016Y-103885D01*
X819251Y-107187D01*
X820013Y-111099D01*
X820013Y-182524D01*
X891692Y-182524D01*
X895553Y-183286D01*
X898855Y-185470D01*
X901090Y-188772D01*
X901852Y-192684D01*
X901649Y-292354D01*
X900887Y-296265D01*
X898652Y-299516D01*
X895400Y-301752D01*
X891489Y-302514D01*
X762355Y-302514D01*
X752754Y-302056D01*
X748944Y-302514D01*
G37*

%LPD*%
G36*
X153568Y-394106D02*
G01*
X141884Y-393293D01*
X132232Y-391261D01*
X122935Y-388010D01*
X114198Y-383540D01*
X106070Y-377952D01*
X98806Y-371297D01*
X92456Y-363778D01*
X87172Y-355447D01*
X83007Y-346506D01*
X80111Y-337108D01*
X78486Y-327406D01*
X78079Y-318465D01*
X78384Y-176326D01*
X79400Y-163779D01*
X81737Y-153466D01*
X85496Y-143611D01*
X90678Y-134416D01*
X97078Y-126034D01*
X104597Y-118618D01*
X113131Y-112369D01*
X122428Y-107391D01*
X132384Y-103835D01*
X142697Y-101701D01*
X153771Y-100939D01*
X315722Y-100939D01*
X319582Y-101650D01*
X322834Y-103835D01*
X325069Y-107035D01*
X325882Y-110845D01*
X327253Y-168656D01*
X326339Y-173024D01*
X323646Y-176631D01*
X319684Y-178714D01*
X315874Y-179730D01*
X307543Y-183642D01*
X299974Y-188925D01*
X293420Y-195478D01*
X289509Y-200609D01*
X287629Y-201930D01*
X278384Y-207010D01*
X277520Y-208229D01*
X277520Y-383946D01*
X276707Y-387807D01*
X274523Y-391109D01*
X271221Y-393293D01*
X267360Y-394106D01*
G37*

%LPD*%
D10*
X332519Y447484D02*
G01*
X420004Y327505D01*
X637517Y327479D01*
X637758Y439981D01*
X755091Y327418D02*
G01*
X637517Y327479D01*
X332513Y102471D02*
G01*
X419999Y-17503D01*
X637504Y-17533D01*
X637753Y94988D01*
X755055Y-17602D02*
G01*
X637504Y-17533D01*
X332513Y-242511D02*
G01*
X419999Y-362496D01*
X637512Y-362516D01*
X637753Y-250014D01*
X755091Y-362590D02*
G01*
X637512Y-362516D01*
D11*
G01*
X209999Y-349999D03*
G01*
X754999Y-352498D03*
G01*
X754966Y-7500D03*
G01*
X209999Y-4998D03*
G01*
X754997Y337497D03*
G01*
X209999Y339999D03*
D12*
G01*
X375780Y207504D03*
D13*
G01*
X289213Y207504D03*
D14*
G01*
X680766Y209998D03*
D13*
G01*
X594212Y209998D03*
D15*
G01*
X375785Y552496D03*
D16*
G01*
X289220Y552496D03*
D17*
G01*
X680784Y554995D03*
D13*
G01*
X594224Y554995D03*
G01*
X680782Y-135001D03*
G01*
X594216Y-135001D03*
G01*
X375781Y-137500D03*
G01*
X289215Y-137500D03*
D18*
G01*
X761979Y103002D03*
G01*
X211998Y103002D03*
G01*
X538007Y103002D03*
D19*
G01*
X57995Y74752D03*
G01*
X921974Y74752D03*
D18*
G01*
X640006Y103002D03*
G01*
X438007Y103002D03*
G01*
X333992Y103002D03*
G01*
X762010Y447995D03*
G01*
X211998Y447995D03*
G01*
X538012Y447995D03*
D19*
G01*
X58000Y419750D03*
G01*
X922004Y419750D03*
D18*
G01*
X640013Y447995D03*
G01*
X438012Y447995D03*
G01*
X334002Y447995D03*
G01*
X762010Y-242001D03*
G01*
X211998Y-242001D03*
G01*
X538007Y-242001D03*
D19*
G01*
X57998Y-270245D03*
G01*
X922004Y-270245D03*
D18*
G01*
X640013Y-242001D03*
G01*
X438007Y-242001D03*
G01*
X333994Y-242001D03*
D20*
G01*
X209999Y-349999D03*
G01*
X754999Y-352498D03*
G01*
X754931Y-7447D03*
G01*
X209930Y-4947D03*
G01*
X754976Y337515D03*
G01*
X209976Y340014D03*
M02*
