G04 Layer: TopSilkscreenLayer*
G04 EasyEDA v6.5.22, 2023-01-17 18:22:32*
G04 d43e268b2071430ba4a1aa179fc42828,9c64b28349a745268246d024528a85f0,10*
G04 Gerber Generator version 0.2*
G04 Scale: 100 percent, Rotated: No, Reflected: No *
G04 Dimensions in millimeters *
G04 leading zeros omitted , absolute positions ,4 integer and 5 decimal *
%FSLAX45Y45*%
%MOMM*%

%ADD10C,0.1000*%
%ADD11C,0.0500*%
%ADD12C,0.0300*%
%ADD13C,0.0400*%

%LPD*%
D10*
X1002164Y348531D02*
G01*
X958476Y348531D01*
X950094Y351325D01*
X947554Y353865D01*
X944760Y359453D01*
X944760Y364787D01*
X947554Y370375D01*
X950094Y373169D01*
X958476Y375709D01*
X963810Y375709D01*
X1002164Y330497D02*
G01*
X944760Y330497D01*
X944760Y330497D02*
G01*
X944760Y297731D01*
X988448Y238803D02*
G01*
X993782Y241597D01*
X999370Y247185D01*
X1002164Y252519D01*
X1002164Y263441D01*
X999370Y268775D01*
X993782Y274363D01*
X988448Y277157D01*
X980320Y279697D01*
X966604Y279697D01*
X958476Y277157D01*
X952888Y274363D01*
X947554Y268775D01*
X944760Y263441D01*
X944760Y252519D01*
X947554Y247185D01*
X952888Y241597D01*
X958476Y238803D01*
X1002164Y193591D02*
G01*
X958476Y193591D01*
X950094Y196385D01*
X947554Y199179D01*
X944760Y204513D01*
X944760Y210101D01*
X947554Y215435D01*
X950094Y218229D01*
X958476Y221023D01*
X963810Y221023D01*
X1002164Y175557D02*
G01*
X944760Y175557D01*
X944760Y175557D02*
G01*
X944760Y142791D01*
X988448Y84117D02*
G01*
X993782Y86657D01*
X999370Y92245D01*
X1002164Y97579D01*
X1002164Y108501D01*
X999370Y114089D01*
X993782Y119423D01*
X988448Y122217D01*
X980320Y125011D01*
X966604Y125011D01*
X958476Y122217D01*
X952888Y119423D01*
X947554Y114089D01*
X944760Y108501D01*
X944760Y97579D01*
X947554Y92245D01*
X952888Y86657D01*
X958476Y84117D01*
X1002164Y38651D02*
G01*
X958476Y38651D01*
X950094Y41445D01*
X947554Y44239D01*
X944760Y49573D01*
X944760Y55161D01*
X947554Y60495D01*
X950094Y63289D01*
X958476Y66083D01*
X963810Y66083D01*
X1002164Y20617D02*
G01*
X944760Y20617D01*
X944760Y20617D02*
G01*
X944760Y-11894D01*
X988448Y-70822D02*
G01*
X993782Y-68282D01*
X999370Y-62694D01*
X1002164Y-57360D01*
X1002164Y-46438D01*
X999370Y-40850D01*
X993782Y-35516D01*
X988448Y-32722D01*
X980320Y-29928D01*
X966604Y-29928D01*
X958476Y-32722D01*
X952888Y-35516D01*
X947554Y-40850D01*
X944760Y-46438D01*
X944760Y-57360D01*
X947554Y-62694D01*
X952888Y-68282D01*
X958476Y-70822D01*
X1002164Y-116288D02*
G01*
X958476Y-116288D01*
X950094Y-113494D01*
X947554Y-110700D01*
X944760Y-105366D01*
X944760Y-99778D01*
X947554Y-94444D01*
X950094Y-91650D01*
X958476Y-88856D01*
X963810Y-88856D01*
X1002164Y-134068D02*
G01*
X944760Y-134068D01*
X944760Y-134068D02*
G01*
X944760Y-166834D01*
X988448Y-225762D02*
G01*
X993782Y-223222D01*
X999370Y-217634D01*
X1002164Y-212300D01*
X1002164Y-201378D01*
X999370Y-195790D01*
X993782Y-190456D01*
X988448Y-187662D01*
X980320Y-184868D01*
X966604Y-184868D01*
X958476Y-187662D01*
X952888Y-190456D01*
X947554Y-195790D01*
X944760Y-201378D01*
X944760Y-212300D01*
X947554Y-217634D01*
X952888Y-223222D01*
X958476Y-225762D01*
D11*
X286966Y455460D02*
G01*
X286966Y407708D01*
X286966Y455460D02*
G01*
X307540Y455460D01*
X314398Y453174D01*
X316684Y450888D01*
X318970Y446316D01*
X318970Y441744D01*
X316684Y437426D01*
X314398Y435140D01*
X307540Y432854D01*
X286966Y432854D02*
G01*
X307540Y432854D01*
X314398Y430568D01*
X316684Y428282D01*
X318970Y423710D01*
X318970Y416852D01*
X316684Y412280D01*
X314398Y409994D01*
X307540Y407708D01*
X286966Y407708D01*
X336242Y439712D02*
G01*
X349704Y407708D01*
X363420Y439712D02*
G01*
X349704Y407708D01*
X345386Y398564D01*
X340814Y394246D01*
X336242Y391960D01*
X333956Y391960D01*
X413458Y439712D02*
G01*
X413458Y391960D01*
X413458Y432854D02*
G01*
X418030Y437426D01*
X422602Y439712D01*
X429460Y439712D01*
X434032Y437426D01*
X438350Y432854D01*
X440636Y425996D01*
X440636Y421424D01*
X438350Y414566D01*
X434032Y409994D01*
X429460Y407708D01*
X422602Y407708D01*
X418030Y409994D01*
X413458Y414566D01*
X455622Y455460D02*
G01*
X455622Y407708D01*
X455622Y432854D02*
G01*
X460194Y437426D01*
X464766Y439712D01*
X471624Y439712D01*
X476196Y437426D01*
X480768Y432854D01*
X483054Y425996D01*
X483054Y421424D01*
X480768Y414566D01*
X476196Y409994D01*
X471624Y407708D01*
X464766Y407708D01*
X460194Y409994D01*
X455622Y414566D01*
X525218Y439712D02*
G01*
X525218Y407708D01*
X525218Y432854D02*
G01*
X520646Y437426D01*
X516074Y439712D01*
X509470Y439712D01*
X504898Y437426D01*
X500326Y432854D01*
X498040Y425996D01*
X498040Y421424D01*
X500326Y414566D01*
X504898Y409994D01*
X509470Y407708D01*
X516074Y407708D01*
X520646Y409994D01*
X525218Y414566D01*
X540204Y439712D02*
G01*
X540204Y407708D01*
X540204Y430568D02*
G01*
X547062Y437426D01*
X551634Y439712D01*
X558492Y439712D01*
X563064Y437426D01*
X565350Y430568D01*
X565350Y407708D01*
X589480Y455460D02*
G01*
X591512Y453174D01*
X593798Y455460D01*
X591512Y457746D01*
X589480Y455460D01*
X591512Y439712D02*
G01*
X591512Y400850D01*
X589480Y394246D01*
X584908Y391960D01*
X580336Y391960D01*
D12*
X216753Y494789D02*
G01*
X216753Y470913D01*
X216753Y482343D02*
G01*
X220309Y485645D01*
X222595Y486661D01*
X225897Y486661D01*
X228183Y485645D01*
X229199Y482343D01*
X229199Y470913D01*
X240121Y494789D02*
G01*
X240121Y475485D01*
X241391Y471929D01*
X243677Y470913D01*
X245963Y470913D01*
X236819Y486661D02*
G01*
X244693Y486661D01*
X256885Y494789D02*
G01*
X256885Y475485D01*
X257901Y471929D01*
X260187Y470913D01*
X262473Y470913D01*
X253329Y486661D02*
G01*
X261457Y486661D01*
X270093Y486661D02*
G01*
X270093Y462785D01*
X270093Y483359D02*
G01*
X272379Y485645D01*
X274411Y486661D01*
X277967Y486661D01*
X280253Y485645D01*
X282539Y483359D01*
X283555Y480057D01*
X283555Y477771D01*
X282539Y474215D01*
X280253Y471929D01*
X277967Y470913D01*
X274411Y470913D01*
X272379Y471929D01*
X270093Y474215D01*
X303621Y483359D02*
G01*
X302605Y485645D01*
X299049Y486661D01*
X295747Y486661D01*
X292191Y485645D01*
X291175Y483359D01*
X292191Y481073D01*
X294477Y480057D01*
X300319Y478787D01*
X302605Y477771D01*
X303621Y475485D01*
X303621Y474215D01*
X302605Y471929D01*
X299049Y470913D01*
X295747Y470913D01*
X292191Y471929D01*
X291175Y474215D01*
X312257Y484375D02*
G01*
X311241Y483359D01*
X312257Y482343D01*
X313273Y483359D01*
X312257Y484375D01*
X312257Y476501D02*
G01*
X311241Y475485D01*
X312257Y474215D01*
X313273Y475485D01*
X312257Y476501D01*
X341467Y499361D02*
G01*
X320893Y462785D01*
X369407Y499361D02*
G01*
X348833Y462785D01*
X376773Y486661D02*
G01*
X376773Y462785D01*
X376773Y483359D02*
G01*
X379059Y485645D01*
X381345Y486661D01*
X384647Y486661D01*
X386933Y485645D01*
X389219Y483359D01*
X390489Y480057D01*
X390489Y477771D01*
X389219Y474215D01*
X386933Y471929D01*
X384647Y470913D01*
X381345Y470913D01*
X379059Y471929D01*
X376773Y474215D01*
X397855Y494789D02*
G01*
X397855Y470913D01*
X397855Y483359D02*
G01*
X400141Y485645D01*
X402427Y486661D01*
X405983Y486661D01*
X408269Y485645D01*
X410555Y483359D01*
X411571Y480057D01*
X411571Y477771D01*
X410555Y474215D01*
X408269Y471929D01*
X405983Y470913D01*
X402427Y470913D01*
X400141Y471929D01*
X397855Y474215D01*
X432653Y486661D02*
G01*
X432653Y470913D01*
X432653Y483359D02*
G01*
X430367Y485645D01*
X428081Y486661D01*
X424779Y486661D01*
X422493Y485645D01*
X420207Y483359D01*
X419191Y480057D01*
X419191Y477771D01*
X420207Y474215D01*
X422493Y471929D01*
X424779Y470913D01*
X428081Y470913D01*
X430367Y471929D01*
X432653Y474215D01*
X440273Y486661D02*
G01*
X440273Y470913D01*
X440273Y482343D02*
G01*
X443575Y485645D01*
X445861Y486661D01*
X449417Y486661D01*
X451449Y485645D01*
X452719Y482343D01*
X452719Y470913D01*
X464657Y494789D02*
G01*
X465927Y493519D01*
X466943Y494789D01*
X465927Y495805D01*
X464657Y494789D01*
X465927Y486661D02*
G01*
X465927Y467357D01*
X464657Y464055D01*
X462371Y462785D01*
X460085Y462785D01*
X474563Y494789D02*
G01*
X475579Y493519D01*
X476849Y494789D01*
X475579Y495805D01*
X474563Y494789D01*
X475579Y486661D02*
G01*
X475579Y470913D01*
X484215Y486661D02*
G01*
X484215Y470913D01*
X484215Y482343D02*
G01*
X487771Y485645D01*
X490057Y486661D01*
X493359Y486661D01*
X495645Y485645D01*
X496915Y482343D01*
X496915Y470913D01*
X505551Y476501D02*
G01*
X504281Y475485D01*
X505551Y474215D01*
X506567Y475485D01*
X505551Y476501D01*
X526633Y483359D02*
G01*
X525363Y485645D01*
X522061Y486661D01*
X518505Y486661D01*
X515203Y485645D01*
X514187Y483359D01*
X515203Y481073D01*
X517489Y480057D01*
X523077Y478787D01*
X525363Y477771D01*
X526633Y475485D01*
X526633Y474215D01*
X525363Y471929D01*
X522061Y470913D01*
X518505Y470913D01*
X515203Y471929D01*
X514187Y474215D01*
X533999Y486661D02*
G01*
X533999Y462785D01*
X533999Y483359D02*
G01*
X536285Y485645D01*
X538571Y486661D01*
X542127Y486661D01*
X544413Y485645D01*
X546445Y483359D01*
X547715Y480057D01*
X547715Y477771D01*
X546445Y474215D01*
X544413Y471929D01*
X542127Y470913D01*
X538571Y470913D01*
X536285Y471929D01*
X533999Y474215D01*
X568797Y486661D02*
G01*
X568797Y470913D01*
X568797Y483359D02*
G01*
X566511Y485645D01*
X564225Y486661D01*
X560923Y486661D01*
X558637Y485645D01*
X556351Y483359D01*
X555081Y480057D01*
X555081Y477771D01*
X556351Y474215D01*
X558637Y471929D01*
X560923Y470913D01*
X564225Y470913D01*
X566511Y471929D01*
X568797Y474215D01*
X589879Y483359D02*
G01*
X587593Y485645D01*
X585561Y486661D01*
X582005Y486661D01*
X579719Y485645D01*
X577433Y483359D01*
X576417Y480057D01*
X576417Y477771D01*
X577433Y474215D01*
X579719Y471929D01*
X582005Y470913D01*
X585561Y470913D01*
X587593Y471929D01*
X589879Y474215D01*
X597499Y480057D02*
G01*
X611215Y480057D01*
X611215Y482343D01*
X609945Y484375D01*
X608929Y485645D01*
X606643Y486661D01*
X603087Y486661D01*
X600801Y485645D01*
X598515Y483359D01*
X597499Y480057D01*
X597499Y477771D01*
X598515Y474215D01*
X600801Y471929D01*
X603087Y470913D01*
X606643Y470913D01*
X608929Y471929D01*
X611215Y474215D01*
D13*
X695561Y680270D02*
G01*
X681926Y680270D01*
X680562Y667999D01*
X681926Y669361D01*
X686015Y670725D01*
X690107Y670725D01*
X694197Y669361D01*
X696925Y666635D01*
X698289Y662543D01*
X698289Y659815D01*
X696925Y655726D01*
X694197Y652998D01*
X690107Y651634D01*
X686015Y651634D01*
X681926Y652998D01*
X680562Y654362D01*
X679198Y657090D01*
X708652Y658454D02*
G01*
X707288Y657090D01*
X708652Y655726D01*
X710016Y657090D01*
X708652Y658454D01*
X719015Y674817D02*
G01*
X721743Y676181D01*
X725835Y680270D01*
X725835Y651634D01*
X734834Y680270D02*
G01*
X734834Y651634D01*
X753925Y680270D02*
G01*
X734834Y661179D01*
X741652Y667999D02*
G01*
X753925Y651634D01*
X783925Y680270D02*
G01*
X783925Y651634D01*
X783925Y680270D02*
G01*
X796198Y680270D01*
X800287Y678908D01*
X801651Y677545D01*
X803015Y674817D01*
X803015Y672089D01*
X801651Y669361D01*
X800287Y667999D01*
X796198Y666635D01*
X783925Y666635D01*
X793470Y666635D02*
G01*
X803015Y651634D01*
X813379Y673453D02*
G01*
X813379Y674817D01*
X814743Y677545D01*
X816107Y678908D01*
X818835Y680270D01*
X824288Y680270D01*
X827016Y678908D01*
X828380Y677545D01*
X829744Y674817D01*
X829744Y672089D01*
X828380Y669361D01*
X825652Y665271D01*
X812017Y651634D01*
X831108Y651634D01*
X86461Y680770D02*
G01*
X72826Y680770D01*
X71462Y668500D01*
X72826Y669861D01*
X76916Y671225D01*
X81008Y671225D01*
X85097Y669861D01*
X87825Y667136D01*
X89189Y663044D01*
X89189Y660316D01*
X87825Y656226D01*
X85097Y653498D01*
X81008Y652134D01*
X76916Y652134D01*
X72826Y653498D01*
X71462Y654862D01*
X70098Y657590D01*
X99552Y658954D02*
G01*
X98188Y657590D01*
X99552Y656226D01*
X100916Y657590D01*
X99552Y658954D01*
X109915Y675317D02*
G01*
X112643Y676681D01*
X116735Y680770D01*
X116735Y652134D01*
X125735Y680770D02*
G01*
X125735Y652134D01*
X144825Y680770D02*
G01*
X125735Y661680D01*
X132552Y668500D02*
G01*
X144825Y652134D01*
X174825Y680770D02*
G01*
X174825Y652134D01*
X174825Y680770D02*
G01*
X187098Y680770D01*
X191188Y679409D01*
X192552Y678045D01*
X193916Y675317D01*
X193916Y672589D01*
X192552Y669861D01*
X191188Y668500D01*
X187098Y667136D01*
X174825Y667136D01*
X184370Y667136D02*
G01*
X193916Y652134D01*
X202918Y675317D02*
G01*
X205643Y676681D01*
X209735Y680770D01*
X209735Y652134D01*
X86474Y234721D02*
G01*
X72839Y234721D01*
X71475Y222450D01*
X72839Y223812D01*
X76928Y225176D01*
X81020Y225176D01*
X85110Y223812D01*
X87838Y221086D01*
X89202Y216994D01*
X89202Y214266D01*
X87838Y210177D01*
X85110Y207449D01*
X81020Y206085D01*
X76928Y206085D01*
X72839Y207449D01*
X71475Y208813D01*
X70111Y211541D01*
X99565Y212905D02*
G01*
X98201Y211541D01*
X99565Y210177D01*
X100929Y211541D01*
X99565Y212905D01*
X109928Y229268D02*
G01*
X112656Y230631D01*
X116748Y234721D01*
X116748Y206085D01*
X125747Y234721D02*
G01*
X125747Y206085D01*
X144838Y234721D02*
G01*
X125747Y215630D01*
X132565Y222450D02*
G01*
X144838Y206085D01*
X174838Y234721D02*
G01*
X174838Y206085D01*
X174838Y234721D02*
G01*
X187111Y234721D01*
X191201Y233359D01*
X192565Y231995D01*
X193929Y229268D01*
X193929Y226540D01*
X192565Y223812D01*
X191201Y222450D01*
X187111Y221086D01*
X174838Y221086D01*
X184383Y221086D02*
G01*
X193929Y206085D01*
X202930Y229268D02*
G01*
X205656Y230631D01*
X209748Y234721D01*
X209748Y206085D01*
X695573Y234221D02*
G01*
X681936Y234221D01*
X680575Y221950D01*
X681936Y223311D01*
X686026Y224675D01*
X690118Y224675D01*
X694207Y223311D01*
X696935Y220586D01*
X698301Y216494D01*
X698301Y213766D01*
X696935Y209677D01*
X694207Y206949D01*
X690118Y205585D01*
X686026Y205585D01*
X681936Y206949D01*
X680575Y208313D01*
X679208Y211040D01*
X708662Y212404D02*
G01*
X707301Y211040D01*
X708662Y209677D01*
X710023Y211040D01*
X708662Y212404D01*
X719023Y228767D02*
G01*
X721753Y230131D01*
X725848Y234221D01*
X725848Y205585D01*
X734847Y234221D02*
G01*
X734847Y205585D01*
X753935Y234221D02*
G01*
X734847Y215130D01*
X741659Y221950D02*
G01*
X753935Y205585D01*
X783935Y234221D02*
G01*
X783935Y205585D01*
X783935Y234221D02*
G01*
X796206Y234221D01*
X800300Y232859D01*
X801662Y231495D01*
X803023Y228767D01*
X803023Y226039D01*
X801662Y223311D01*
X800300Y221950D01*
X796206Y220586D01*
X783935Y220586D01*
X793483Y220586D02*
G01*
X803023Y205585D01*
X813389Y227403D02*
G01*
X813389Y228767D01*
X814753Y231495D01*
X816119Y232859D01*
X818847Y234221D01*
X824298Y234221D01*
X827026Y232859D01*
X828390Y231495D01*
X829757Y228767D01*
X829757Y226039D01*
X828390Y223311D01*
X825660Y219222D01*
X812030Y205585D01*
X831118Y205585D01*
D12*
X216753Y48765D02*
G01*
X216753Y24889D01*
X216753Y36065D02*
G01*
X220309Y39621D01*
X222595Y40637D01*
X225897Y40637D01*
X228183Y39621D01*
X229199Y36065D01*
X229199Y24889D01*
X240121Y48765D02*
G01*
X240121Y29461D01*
X241391Y25905D01*
X243677Y24889D01*
X245963Y24889D01*
X236819Y40637D02*
G01*
X244693Y40637D01*
X256885Y48765D02*
G01*
X256885Y29461D01*
X257901Y25905D01*
X260187Y24889D01*
X262473Y24889D01*
X253329Y40637D02*
G01*
X261457Y40637D01*
X270093Y40637D02*
G01*
X270093Y16761D01*
X270093Y37335D02*
G01*
X272379Y39621D01*
X274665Y40637D01*
X277967Y40637D01*
X280253Y39621D01*
X282539Y37335D01*
X283555Y33779D01*
X283555Y31747D01*
X282539Y28191D01*
X280253Y25905D01*
X277967Y24889D01*
X274665Y24889D01*
X272379Y25905D01*
X270093Y28191D01*
X303621Y37335D02*
G01*
X302605Y39621D01*
X299049Y40637D01*
X295747Y40637D01*
X292191Y39621D01*
X291175Y37335D01*
X292191Y35049D01*
X294477Y33779D01*
X300319Y32763D01*
X302605Y31747D01*
X303621Y29461D01*
X303621Y28191D01*
X302605Y25905D01*
X299049Y24889D01*
X295747Y24889D01*
X292191Y25905D01*
X291175Y28191D01*
X312257Y38351D02*
G01*
X311241Y37335D01*
X312257Y36065D01*
X313527Y37335D01*
X312257Y38351D01*
X312257Y30477D02*
G01*
X311241Y29461D01*
X312257Y28191D01*
X313527Y29461D01*
X312257Y30477D01*
X341467Y53337D02*
G01*
X320893Y16761D01*
X369407Y53337D02*
G01*
X348833Y16761D01*
X376773Y40637D02*
G01*
X376773Y16761D01*
X376773Y37335D02*
G01*
X379059Y39621D01*
X381345Y40637D01*
X384647Y40637D01*
X386933Y39621D01*
X389219Y37335D01*
X390489Y33779D01*
X390489Y31747D01*
X389219Y28191D01*
X386933Y25905D01*
X384647Y24889D01*
X381345Y24889D01*
X379059Y25905D01*
X376773Y28191D01*
X397855Y48765D02*
G01*
X397855Y24889D01*
X397855Y37335D02*
G01*
X400141Y39621D01*
X402427Y40637D01*
X405983Y40637D01*
X408269Y39621D01*
X410555Y37335D01*
X411571Y33779D01*
X411571Y31747D01*
X410555Y28191D01*
X408269Y25905D01*
X405983Y24889D01*
X402427Y24889D01*
X400141Y25905D01*
X397855Y28191D01*
X432653Y40637D02*
G01*
X432653Y24889D01*
X432653Y37335D02*
G01*
X430367Y39621D01*
X428081Y40637D01*
X424779Y40637D01*
X422493Y39621D01*
X420207Y37335D01*
X419191Y33779D01*
X419191Y31747D01*
X420207Y28191D01*
X422493Y25905D01*
X424779Y24889D01*
X428081Y24889D01*
X430367Y25905D01*
X432653Y28191D01*
X440273Y40637D02*
G01*
X440273Y24889D01*
X440273Y36065D02*
G01*
X443575Y39621D01*
X445861Y40637D01*
X449417Y40637D01*
X451703Y39621D01*
X452719Y36065D01*
X452719Y24889D01*
X464657Y48765D02*
G01*
X465927Y47495D01*
X466943Y48765D01*
X465927Y49781D01*
X464657Y48765D01*
X465927Y40637D02*
G01*
X465927Y21333D01*
X464657Y18031D01*
X462371Y16761D01*
X460339Y16761D01*
X474563Y48765D02*
G01*
X475579Y47495D01*
X476849Y48765D01*
X475579Y49781D01*
X474563Y48765D01*
X475579Y40637D02*
G01*
X475579Y24889D01*
X484215Y40637D02*
G01*
X484215Y24889D01*
X484215Y36065D02*
G01*
X487771Y39621D01*
X490057Y40637D01*
X493359Y40637D01*
X495645Y39621D01*
X496915Y36065D01*
X496915Y24889D01*
X505551Y30477D02*
G01*
X504281Y29461D01*
X505551Y28191D01*
X506567Y29461D01*
X505551Y30477D01*
X526633Y37335D02*
G01*
X525363Y39621D01*
X522061Y40637D01*
X518505Y40637D01*
X515203Y39621D01*
X514187Y37335D01*
X515203Y35049D01*
X517489Y33779D01*
X523077Y32763D01*
X525363Y31747D01*
X526633Y29461D01*
X526633Y28191D01*
X525363Y25905D01*
X522061Y24889D01*
X518505Y24889D01*
X515203Y25905D01*
X514187Y28191D01*
X533999Y40637D02*
G01*
X533999Y16761D01*
X533999Y37335D02*
G01*
X536285Y39621D01*
X538571Y40637D01*
X542127Y40637D01*
X544413Y39621D01*
X546699Y37335D01*
X547715Y33779D01*
X547715Y31747D01*
X546699Y28191D01*
X544413Y25905D01*
X542127Y24889D01*
X538571Y24889D01*
X536285Y25905D01*
X533999Y28191D01*
X568797Y40637D02*
G01*
X568797Y24889D01*
X568797Y37335D02*
G01*
X566511Y39621D01*
X564225Y40637D01*
X560923Y40637D01*
X558637Y39621D01*
X556351Y37335D01*
X555335Y33779D01*
X555335Y31747D01*
X556351Y28191D01*
X558637Y25905D01*
X560923Y24889D01*
X564225Y24889D01*
X566511Y25905D01*
X568797Y28191D01*
X589879Y37335D02*
G01*
X587593Y39621D01*
X585561Y40637D01*
X582005Y40637D01*
X579719Y39621D01*
X577433Y37335D01*
X576417Y33779D01*
X576417Y31747D01*
X577433Y28191D01*
X579719Y25905D01*
X582005Y24889D01*
X585561Y24889D01*
X587593Y25905D01*
X589879Y28191D01*
X597499Y33779D02*
G01*
X611215Y33779D01*
X611215Y36065D01*
X609945Y38351D01*
X608929Y39621D01*
X606643Y40637D01*
X603087Y40637D01*
X600801Y39621D01*
X598515Y37335D01*
X597499Y33779D01*
X597499Y31747D01*
X598515Y28191D01*
X600801Y25905D01*
X603087Y24889D01*
X606643Y24889D01*
X608929Y25905D01*
X611215Y28191D01*
D11*
X287220Y9436D02*
G01*
X287220Y-38315D01*
X287220Y9436D02*
G01*
X307540Y9436D01*
X314398Y7150D01*
X316684Y4864D01*
X318970Y292D01*
X318970Y-4279D01*
X316684Y-8851D01*
X314398Y-10883D01*
X307540Y-13169D01*
X287220Y-13169D02*
G01*
X307540Y-13169D01*
X314398Y-15455D01*
X316684Y-17741D01*
X318970Y-22313D01*
X318970Y-29171D01*
X316684Y-33743D01*
X314398Y-36029D01*
X307540Y-38315D01*
X287220Y-38315D01*
X336242Y-6565D02*
G01*
X349704Y-38315D01*
X363420Y-6565D02*
G01*
X349704Y-38315D01*
X345386Y-47459D01*
X340814Y-52031D01*
X336242Y-54063D01*
X333956Y-54063D01*
X413458Y-6565D02*
G01*
X413458Y-54063D01*
X413458Y-13169D02*
G01*
X418030Y-8851D01*
X422602Y-6565D01*
X429460Y-6565D01*
X434032Y-8851D01*
X438350Y-13169D01*
X440636Y-20027D01*
X440636Y-24599D01*
X438350Y-31457D01*
X434032Y-36029D01*
X429460Y-38315D01*
X422602Y-38315D01*
X418030Y-36029D01*
X413458Y-31457D01*
X455622Y9436D02*
G01*
X455622Y-38315D01*
X455622Y-13169D02*
G01*
X460194Y-8851D01*
X464766Y-6565D01*
X471624Y-6565D01*
X476196Y-8851D01*
X480768Y-13169D01*
X483054Y-20027D01*
X483054Y-24599D01*
X480768Y-31457D01*
X476196Y-36029D01*
X471624Y-38315D01*
X464766Y-38315D01*
X460194Y-36029D01*
X455622Y-31457D01*
X525218Y-6565D02*
G01*
X525218Y-38315D01*
X525218Y-13169D02*
G01*
X520646Y-8851D01*
X516074Y-6565D01*
X509470Y-6565D01*
X504898Y-8851D01*
X500326Y-13169D01*
X498040Y-20027D01*
X498040Y-24599D01*
X500326Y-31457D01*
X504898Y-36029D01*
X509470Y-38315D01*
X516074Y-38315D01*
X520646Y-36029D01*
X525218Y-31457D01*
X540204Y-6565D02*
G01*
X540204Y-38315D01*
X540204Y-15455D02*
G01*
X547062Y-8851D01*
X551634Y-6565D01*
X558492Y-6565D01*
X563064Y-8851D01*
X565350Y-15455D01*
X565350Y-38315D01*
X589480Y9436D02*
G01*
X591766Y7150D01*
X593798Y9436D01*
X591766Y11722D01*
X589480Y9436D01*
X591766Y-6565D02*
G01*
X591766Y-45173D01*
X589480Y-52031D01*
X584908Y-54063D01*
X580336Y-54063D01*
D13*
X86479Y-210781D02*
G01*
X72844Y-210781D01*
X71478Y-223055D01*
X72844Y-221693D01*
X76931Y-220329D01*
X81026Y-220329D01*
X85115Y-221693D01*
X87840Y-224419D01*
X89204Y-228508D01*
X89204Y-231236D01*
X87840Y-235325D01*
X85115Y-238056D01*
X81026Y-239420D01*
X76931Y-239420D01*
X72844Y-238056D01*
X71478Y-236689D01*
X70114Y-233961D01*
X99568Y-232600D02*
G01*
X98204Y-233961D01*
X99568Y-235325D01*
X100934Y-233961D01*
X99568Y-232600D01*
X109933Y-216235D02*
G01*
X112661Y-214871D01*
X116751Y-210781D01*
X116751Y-239420D01*
X125750Y-210781D02*
G01*
X125750Y-239420D01*
X144840Y-210781D02*
G01*
X125750Y-229872D01*
X132570Y-223055D02*
G01*
X144840Y-239420D01*
X174843Y-210781D02*
G01*
X174843Y-239420D01*
X174843Y-210781D02*
G01*
X187116Y-210781D01*
X191203Y-212145D01*
X192570Y-213507D01*
X193934Y-216235D01*
X193934Y-218965D01*
X192570Y-221693D01*
X191203Y-223055D01*
X187116Y-224419D01*
X174843Y-224419D01*
X184386Y-224419D02*
G01*
X193934Y-239420D01*
X202933Y-216235D02*
G01*
X205663Y-214871D01*
X209750Y-210781D01*
X209750Y-239420D01*
X695571Y-211284D02*
G01*
X681936Y-211284D01*
X680572Y-223555D01*
X681936Y-222191D01*
X686023Y-220827D01*
X690112Y-220827D01*
X694202Y-222191D01*
X696930Y-224917D01*
X698301Y-229008D01*
X698301Y-231739D01*
X696930Y-235828D01*
X694202Y-238556D01*
X690112Y-239918D01*
X686023Y-239918D01*
X681936Y-238556D01*
X680572Y-237192D01*
X679213Y-234464D01*
X708659Y-233098D02*
G01*
X707301Y-234464D01*
X708659Y-235828D01*
X710018Y-234464D01*
X708659Y-233098D01*
X719030Y-216738D02*
G01*
X721748Y-215374D01*
X725838Y-211284D01*
X725838Y-239918D01*
X734837Y-211284D02*
G01*
X734837Y-239918D01*
X753932Y-211284D02*
G01*
X734837Y-230375D01*
X741654Y-223555D02*
G01*
X753932Y-239918D01*
X783935Y-211284D02*
G01*
X783935Y-239918D01*
X783935Y-211284D02*
G01*
X796201Y-211284D01*
X800290Y-212643D01*
X801659Y-214007D01*
X803031Y-216738D01*
X803031Y-219463D01*
X801659Y-222191D01*
X800290Y-223555D01*
X796201Y-224917D01*
X783935Y-224917D01*
X793483Y-224917D02*
G01*
X803031Y-239918D01*
X813389Y-218102D02*
G01*
X813389Y-216738D01*
X814748Y-214007D01*
X816119Y-212643D01*
X818837Y-211284D01*
X824296Y-211284D01*
X827026Y-212643D01*
X828385Y-214007D01*
X829754Y-216738D01*
X829754Y-219463D01*
X828385Y-222191D01*
X825654Y-226280D01*
X812030Y-239918D01*
X831113Y-239918D01*
D12*
X216753Y-396750D02*
G01*
X216753Y-420626D01*
X216753Y-409450D02*
G01*
X220309Y-405894D01*
X222595Y-404878D01*
X225897Y-404878D01*
X228183Y-405894D01*
X229199Y-409450D01*
X229199Y-420626D01*
X240121Y-396750D02*
G01*
X240121Y-416054D01*
X241391Y-419610D01*
X243677Y-420626D01*
X245963Y-420626D01*
X236819Y-404878D02*
G01*
X244693Y-404878D01*
X256885Y-396750D02*
G01*
X256885Y-416054D01*
X257901Y-419610D01*
X260187Y-420626D01*
X262473Y-420626D01*
X253329Y-404878D02*
G01*
X261457Y-404878D01*
X270093Y-404878D02*
G01*
X270093Y-428754D01*
X270093Y-408180D02*
G01*
X272379Y-405894D01*
X274665Y-404878D01*
X277967Y-404878D01*
X280253Y-405894D01*
X282539Y-408180D01*
X283555Y-411482D01*
X283555Y-413768D01*
X282539Y-417324D01*
X280253Y-419610D01*
X277967Y-420626D01*
X274665Y-420626D01*
X272379Y-419610D01*
X270093Y-417324D01*
X303621Y-408180D02*
G01*
X302605Y-405894D01*
X299049Y-404878D01*
X295747Y-404878D01*
X292191Y-405894D01*
X291175Y-408180D01*
X292191Y-410466D01*
X294477Y-411482D01*
X300319Y-412752D01*
X302605Y-413768D01*
X303621Y-416054D01*
X303621Y-417324D01*
X302605Y-419610D01*
X299049Y-420626D01*
X295747Y-420626D01*
X292191Y-419610D01*
X291175Y-417324D01*
X312257Y-407164D02*
G01*
X311241Y-408180D01*
X312257Y-409450D01*
X313527Y-408180D01*
X312257Y-407164D01*
X312257Y-415038D02*
G01*
X311241Y-416054D01*
X312257Y-417324D01*
X313527Y-416054D01*
X312257Y-415038D01*
X341467Y-392178D02*
G01*
X320893Y-428754D01*
X369407Y-392178D02*
G01*
X348833Y-428754D01*
X376773Y-404878D02*
G01*
X376773Y-428754D01*
X376773Y-408180D02*
G01*
X379059Y-405894D01*
X381345Y-404878D01*
X384647Y-404878D01*
X386933Y-405894D01*
X389219Y-408180D01*
X390489Y-411482D01*
X390489Y-413768D01*
X389219Y-417324D01*
X386933Y-419610D01*
X384647Y-420626D01*
X381345Y-420626D01*
X379059Y-419610D01*
X376773Y-417324D01*
X397855Y-396750D02*
G01*
X397855Y-420626D01*
X397855Y-408180D02*
G01*
X400141Y-405894D01*
X402427Y-404878D01*
X405983Y-404878D01*
X408269Y-405894D01*
X410555Y-408180D01*
X411571Y-411482D01*
X411571Y-413768D01*
X410555Y-417324D01*
X408269Y-419610D01*
X405983Y-420626D01*
X402427Y-420626D01*
X400141Y-419610D01*
X397855Y-417324D01*
X432653Y-404878D02*
G01*
X432653Y-420626D01*
X432653Y-408180D02*
G01*
X430367Y-405894D01*
X428081Y-404878D01*
X424779Y-404878D01*
X422493Y-405894D01*
X420207Y-408180D01*
X419191Y-411482D01*
X419191Y-413768D01*
X420207Y-417324D01*
X422493Y-419610D01*
X424779Y-420626D01*
X428081Y-420626D01*
X430367Y-419610D01*
X432653Y-417324D01*
X440273Y-404878D02*
G01*
X440273Y-420626D01*
X440273Y-409450D02*
G01*
X443575Y-405894D01*
X445861Y-404878D01*
X449417Y-404878D01*
X451703Y-405894D01*
X452719Y-409450D01*
X452719Y-420626D01*
X464657Y-396750D02*
G01*
X465927Y-398020D01*
X466943Y-396750D01*
X465927Y-395734D01*
X464657Y-396750D01*
X465927Y-404878D02*
G01*
X465927Y-424182D01*
X464657Y-427484D01*
X462625Y-428754D01*
X460339Y-428754D01*
X474563Y-396750D02*
G01*
X475579Y-398020D01*
X476849Y-396750D01*
X475579Y-395734D01*
X474563Y-396750D01*
X475579Y-404878D02*
G01*
X475579Y-420626D01*
X484215Y-404878D02*
G01*
X484215Y-420626D01*
X484215Y-409450D02*
G01*
X487771Y-405894D01*
X490057Y-404878D01*
X493359Y-404878D01*
X495645Y-405894D01*
X496915Y-409450D01*
X496915Y-420626D01*
X505551Y-415038D02*
G01*
X504281Y-416054D01*
X505551Y-417324D01*
X506567Y-416054D01*
X505551Y-415038D01*
X526633Y-408180D02*
G01*
X525363Y-405894D01*
X522061Y-404878D01*
X518759Y-404878D01*
X515203Y-405894D01*
X514187Y-408180D01*
X515203Y-410466D01*
X517489Y-411482D01*
X523077Y-412752D01*
X525363Y-413768D01*
X526633Y-416054D01*
X526633Y-417324D01*
X525363Y-419610D01*
X522061Y-420626D01*
X518759Y-420626D01*
X515203Y-419610D01*
X514187Y-417324D01*
X533999Y-404878D02*
G01*
X533999Y-428754D01*
X533999Y-408180D02*
G01*
X536285Y-405894D01*
X538571Y-404878D01*
X542127Y-404878D01*
X544413Y-405894D01*
X546699Y-408180D01*
X547715Y-411482D01*
X547715Y-413768D01*
X546699Y-417324D01*
X544413Y-419610D01*
X542127Y-420626D01*
X538571Y-420626D01*
X536285Y-419610D01*
X533999Y-417324D01*
X568797Y-404878D02*
G01*
X568797Y-420626D01*
X568797Y-408180D02*
G01*
X566511Y-405894D01*
X564225Y-404878D01*
X560923Y-404878D01*
X558637Y-405894D01*
X556351Y-408180D01*
X555335Y-411482D01*
X555335Y-413768D01*
X556351Y-417324D01*
X558637Y-419610D01*
X560923Y-420626D01*
X564225Y-420626D01*
X566511Y-419610D01*
X568797Y-417324D01*
X589879Y-408180D02*
G01*
X587847Y-405894D01*
X585561Y-404878D01*
X582005Y-404878D01*
X579719Y-405894D01*
X577433Y-408180D01*
X576417Y-411482D01*
X576417Y-413768D01*
X577433Y-417324D01*
X579719Y-419610D01*
X582005Y-420626D01*
X585561Y-420626D01*
X587847Y-419610D01*
X589879Y-417324D01*
X597499Y-411482D02*
G01*
X611215Y-411482D01*
X611215Y-409450D01*
X609945Y-407164D01*
X608929Y-405894D01*
X606643Y-404878D01*
X603087Y-404878D01*
X600801Y-405894D01*
X598515Y-408180D01*
X597499Y-411482D01*
X597499Y-413768D01*
X598515Y-417324D01*
X600801Y-419610D01*
X603087Y-420626D01*
X606643Y-420626D01*
X608929Y-419610D01*
X611215Y-417324D01*
D11*
X287220Y-436079D02*
G01*
X287220Y-483831D01*
X287220Y-436079D02*
G01*
X307540Y-436079D01*
X314398Y-438365D01*
X316684Y-440651D01*
X318970Y-445223D01*
X318970Y-449795D01*
X316684Y-454113D01*
X314398Y-456399D01*
X307540Y-458685D01*
X287220Y-458685D02*
G01*
X307540Y-458685D01*
X314398Y-460971D01*
X316684Y-463257D01*
X318970Y-467829D01*
X318970Y-474687D01*
X316684Y-479259D01*
X314398Y-481545D01*
X307540Y-483831D01*
X287220Y-483831D01*
X336242Y-452081D02*
G01*
X349958Y-483831D01*
X363420Y-452081D02*
G01*
X349958Y-483831D01*
X345386Y-492975D01*
X340814Y-497293D01*
X336242Y-499579D01*
X333956Y-499579D01*
X413458Y-452081D02*
G01*
X413458Y-499579D01*
X413458Y-458685D02*
G01*
X418030Y-454113D01*
X422602Y-452081D01*
X429460Y-452081D01*
X434032Y-454113D01*
X438350Y-458685D01*
X440636Y-465543D01*
X440636Y-470115D01*
X438350Y-476973D01*
X434032Y-481545D01*
X429460Y-483831D01*
X422602Y-483831D01*
X418030Y-481545D01*
X413458Y-476973D01*
X455622Y-436079D02*
G01*
X455622Y-483831D01*
X455622Y-458685D02*
G01*
X460194Y-454113D01*
X464766Y-452081D01*
X471624Y-452081D01*
X476196Y-454113D01*
X480768Y-458685D01*
X483054Y-465543D01*
X483054Y-470115D01*
X480768Y-476973D01*
X476196Y-481545D01*
X471624Y-483831D01*
X464766Y-483831D01*
X460194Y-481545D01*
X455622Y-476973D01*
X525218Y-452081D02*
G01*
X525218Y-483831D01*
X525218Y-458685D02*
G01*
X520646Y-454113D01*
X516074Y-452081D01*
X509470Y-452081D01*
X504898Y-454113D01*
X500326Y-458685D01*
X498040Y-465543D01*
X498040Y-470115D01*
X500326Y-476973D01*
X504898Y-481545D01*
X509470Y-483831D01*
X516074Y-483831D01*
X520646Y-481545D01*
X525218Y-476973D01*
X540204Y-452081D02*
G01*
X540204Y-483831D01*
X540204Y-460971D02*
G01*
X547062Y-454113D01*
X551634Y-452081D01*
X558492Y-452081D01*
X563064Y-454113D01*
X565350Y-460971D01*
X565350Y-483831D01*
X589480Y-436079D02*
G01*
X591766Y-438365D01*
X594052Y-436079D01*
X591766Y-433793D01*
X589480Y-436079D01*
X591766Y-452081D02*
G01*
X591766Y-490689D01*
X589480Y-497293D01*
X584908Y-499579D01*
X580336Y-499579D01*
M02*
