G04 Layer: TopSilkscreenLayer*
G04 EasyEDA v6.5.22, 2022-12-27 15:54:52*
G04 581f4e56cbf948ffa598ce4b045c5e28,9c64b28349a745268246d024528a85f0,10*
G04 Gerber Generator version 0.2*
G04 Scale: 100 percent, Rotated: No, Reflected: No *
G04 Dimensions in millimeters *
G04 leading zeros omitted , absolute positions ,4 integer and 5 decimal *
%FSLAX45Y45*%
%MOMM*%

%ADD10C,0.1000*%
%ADD11C,0.0300*%
%ADD12C,0.0510*%

%LPD*%
G36*
X619709Y440029D02*
G01*
X618693Y422757D01*
X620979Y421233D01*
X622452Y422249D01*
X623925Y422960D01*
X625551Y423367D01*
X627329Y423519D01*
X630580Y422909D01*
X633069Y421182D01*
X634644Y418388D01*
X635203Y414629D01*
X634542Y410870D01*
X632714Y407974D01*
X630123Y406146D01*
X627075Y405485D01*
X623976Y405841D01*
X621487Y406806D01*
X619455Y408178D01*
X617677Y409803D01*
X615645Y407009D01*
X617728Y405180D01*
X620217Y403656D01*
X623366Y402590D01*
X627329Y402183D01*
X631748Y403047D01*
X635558Y405485D01*
X638251Y409498D01*
X639216Y414883D01*
X638403Y420166D01*
X636066Y423926D01*
X632612Y426110D01*
X628345Y426821D01*
X626618Y426720D01*
X623773Y425754D01*
X622503Y425043D01*
X623519Y436473D01*
X637489Y436473D01*
X637489Y440029D01*
G37*
G36*
X642315Y440029D02*
G01*
X654253Y402691D01*
X659079Y402691D01*
X670763Y440029D01*
X666699Y440029D01*
X656793Y407263D01*
X656539Y407263D01*
X646633Y440029D01*
G37*
G36*
X98399Y488645D02*
G01*
X90627Y487527D01*
X84886Y484276D01*
X81330Y478891D01*
X80111Y471373D01*
X80111Y466293D01*
X83413Y466293D01*
X83413Y470865D01*
X84429Y476808D01*
X87376Y481025D01*
X92100Y483514D01*
X98399Y484327D01*
X104851Y483514D01*
X109626Y481025D01*
X112623Y476808D01*
X113639Y470865D01*
X113639Y466293D01*
X80111Y466293D01*
X80111Y462229D01*
X117195Y462229D01*
X117195Y471373D01*
X115925Y478891D01*
X112166Y484276D01*
X106273Y487527D01*
G37*
G36*
X80111Y451815D02*
G01*
X80111Y447751D01*
X103073Y447801D01*
X111607Y448259D01*
X111607Y448005D01*
X103987Y444195D01*
X80111Y429971D01*
X80111Y425653D01*
X117195Y425653D01*
X117195Y429717D01*
X94030Y429666D01*
X85445Y429209D01*
X85445Y429463D01*
X93065Y433527D01*
X117195Y447497D01*
X117195Y451815D01*
G37*
G36*
X98145Y416763D02*
G01*
X98145Y404825D01*
X101701Y404825D01*
X101701Y412699D01*
X111861Y412699D01*
X112877Y411378D01*
X113588Y409752D01*
X113995Y407873D01*
X114147Y405841D01*
X113030Y400456D01*
X109880Y396443D01*
X104952Y394004D01*
X98399Y393141D01*
X92049Y394004D01*
X87274Y396544D01*
X84226Y400558D01*
X83159Y405841D01*
X83413Y408432D01*
X84175Y410565D01*
X85293Y412394D01*
X86715Y413969D01*
X83921Y416255D01*
X82245Y414426D01*
X80772Y412038D01*
X79756Y409092D01*
X79349Y405587D01*
X80670Y398881D01*
X84531Y393598D01*
X90627Y390093D01*
X98653Y388823D01*
X106730Y390042D01*
X112776Y393446D01*
X116636Y398678D01*
X117957Y405333D01*
X117652Y408889D01*
X116738Y411988D01*
X115366Y414629D01*
X113639Y416763D01*
G37*
G36*
X457708Y444500D02*
G01*
X457708Y409956D01*
X461975Y409956D01*
X461975Y424688D01*
X463905Y426466D01*
X465835Y427735D01*
X467715Y428498D01*
X469595Y428751D01*
X473049Y427990D01*
X475437Y425805D01*
X476808Y422503D01*
X477266Y418338D01*
X476605Y413512D01*
X474878Y409956D01*
X472185Y407670D01*
X468833Y406908D01*
X467410Y407060D01*
X465734Y407568D01*
X463905Y408482D01*
X461975Y409956D01*
X457708Y409956D01*
X457708Y404114D01*
X460959Y404114D01*
X461467Y406908D01*
X463499Y405485D01*
X465582Y404368D01*
X467614Y403606D01*
X469595Y403352D01*
X474167Y404368D01*
X477977Y407314D01*
X480568Y412038D01*
X481533Y418338D01*
X480872Y424027D01*
X478790Y428447D01*
X475335Y431292D01*
X470662Y432308D01*
X468223Y431952D01*
X465886Y431088D01*
X463753Y429818D01*
X461721Y428193D01*
X461975Y433324D01*
X461975Y444500D01*
G37*
G36*
X549402Y443230D02*
G01*
X548132Y442976D01*
X547166Y442366D01*
X546557Y441502D01*
X546303Y440435D01*
X546557Y439166D01*
X547166Y438251D01*
X548132Y437591D01*
X549402Y437388D01*
X550468Y437591D01*
X551332Y438251D01*
X551942Y439166D01*
X552145Y440435D01*
X551942Y441502D01*
X551332Y442366D01*
X550468Y442976D01*
G37*
G36*
X357124Y441198D02*
G01*
X357124Y437896D01*
X367233Y437896D01*
X371246Y437591D01*
X374142Y436524D01*
X375818Y434644D01*
X376428Y431800D01*
X375920Y429056D01*
X374294Y427075D01*
X371348Y425856D01*
X366979Y425450D01*
X361442Y425450D01*
X361442Y437896D01*
X357124Y437896D01*
X357124Y422148D01*
X367995Y422148D01*
X372567Y421690D01*
X375920Y420370D01*
X378002Y418185D01*
X378663Y415035D01*
X377952Y411683D01*
X375818Y409295D01*
X372465Y407873D01*
X367995Y407416D01*
X361442Y407416D01*
X361442Y422148D01*
X357124Y422148D01*
X357124Y404114D01*
X368808Y404114D01*
X374497Y404774D01*
X378917Y406806D01*
X381762Y410209D01*
X382778Y415035D01*
X382219Y418439D01*
X380644Y421081D01*
X378256Y422909D01*
X375158Y423926D01*
X375158Y424180D01*
X377494Y425348D01*
X379272Y427177D01*
X380339Y429564D01*
X380695Y432308D01*
X379780Y436372D01*
X377240Y439115D01*
X373227Y440690D01*
X367995Y441198D01*
G37*
G36*
X439420Y432308D02*
G01*
X436981Y431952D01*
X434644Y431038D01*
X430479Y428193D01*
X430225Y428193D01*
X429971Y431546D01*
X426466Y431546D01*
X426466Y409956D01*
X430733Y409956D01*
X430733Y424688D01*
X432765Y426466D01*
X434644Y427735D01*
X436524Y428498D01*
X438353Y428751D01*
X441807Y427990D01*
X444195Y425805D01*
X445566Y422503D01*
X446024Y418338D01*
X445363Y413512D01*
X443636Y409956D01*
X440943Y407670D01*
X437642Y406908D01*
X436168Y407060D01*
X434492Y407568D01*
X432663Y408482D01*
X430733Y409956D01*
X426466Y409956D01*
X426466Y392430D01*
X430733Y392430D01*
X430733Y401828D01*
X430479Y406654D01*
X432460Y405282D01*
X434441Y404215D01*
X436422Y403555D01*
X438353Y403352D01*
X442925Y404368D01*
X446735Y407314D01*
X449326Y412038D01*
X450342Y418338D01*
X449630Y424027D01*
X447548Y428447D01*
X444093Y431292D01*
G37*
G36*
X498348Y432308D02*
G01*
X495046Y431952D01*
X492150Y431088D01*
X487629Y428751D01*
X489153Y425704D01*
X490880Y426821D01*
X492912Y427786D01*
X495147Y428498D01*
X497585Y428751D01*
X500532Y428142D01*
X502310Y426466D01*
X503174Y424129D01*
X503428Y421385D01*
X495808Y420065D01*
X490524Y417982D01*
X487375Y415086D01*
X486426Y411480D01*
X490474Y411480D01*
X491134Y414020D01*
X493318Y416051D01*
X497332Y417576D01*
X503428Y418592D01*
X503428Y410718D01*
X501396Y409041D01*
X499465Y407822D01*
X497535Y407111D01*
X495503Y406908D01*
X493572Y407162D01*
X491947Y407924D01*
X490880Y409346D01*
X490474Y411480D01*
X486426Y411480D01*
X487019Y407822D01*
X488696Y405384D01*
X491185Y403860D01*
X494233Y403352D01*
X496824Y403656D01*
X499262Y404520D01*
X501497Y405790D01*
X503682Y407416D01*
X504139Y404114D01*
X507492Y404114D01*
X507492Y421132D01*
X506984Y425653D01*
X505358Y429158D01*
X502564Y431495D01*
G37*
G36*
X529793Y432308D02*
G01*
X527151Y431901D01*
X524713Y430834D01*
X522528Y429310D01*
X520395Y427482D01*
X519938Y431546D01*
X516635Y431546D01*
X516635Y404114D01*
X520649Y404114D01*
X520649Y424180D01*
X522630Y426161D01*
X524510Y427583D01*
X526440Y428447D01*
X528574Y428751D01*
X531012Y428243D01*
X532638Y426821D01*
X533603Y424434D01*
X533908Y421132D01*
X533908Y404114D01*
X538175Y404114D01*
X538175Y421640D01*
X537667Y426161D01*
X536092Y429514D01*
X533501Y431596D01*
G37*
G36*
X385013Y431546D02*
G01*
X396189Y403860D01*
X394360Y399338D01*
X392938Y397408D01*
X391210Y396138D01*
X389128Y395732D01*
X387045Y395986D01*
X386029Y392684D01*
X389382Y392176D01*
X392887Y392887D01*
X395630Y394868D01*
X397713Y397814D01*
X399288Y401574D01*
X409701Y431546D01*
X405638Y431546D01*
X398221Y408178D01*
X397967Y408178D01*
X389382Y431546D01*
G37*
G36*
X547370Y431546D02*
G01*
X547370Y400558D01*
X547166Y398272D01*
X546608Y396494D01*
X545541Y395376D01*
X543052Y394970D01*
X541274Y395478D01*
X540258Y392430D01*
X542086Y391820D01*
X544271Y391668D01*
X547573Y392277D01*
X549757Y394004D01*
X551027Y396798D01*
X551383Y400558D01*
X551383Y431546D01*
G37*
G36*
X458216Y11988D02*
G01*
X458216Y-22555D01*
X462483Y-22555D01*
X462483Y-7823D01*
X464413Y-5994D01*
X466343Y-4775D01*
X468223Y-4013D01*
X470103Y-3759D01*
X473557Y-4521D01*
X475945Y-6705D01*
X477316Y-9956D01*
X477774Y-14173D01*
X477113Y-18948D01*
X475386Y-22555D01*
X472693Y-24841D01*
X469341Y-25603D01*
X467918Y-25450D01*
X466242Y-24942D01*
X464413Y-23977D01*
X462483Y-22555D01*
X458216Y-22555D01*
X458216Y-28397D01*
X461467Y-28397D01*
X461975Y-25603D01*
X464007Y-27025D01*
X466090Y-28143D01*
X468122Y-28905D01*
X470103Y-29159D01*
X474675Y-28143D01*
X478485Y-25196D01*
X481076Y-20472D01*
X482041Y-14173D01*
X481330Y-8483D01*
X479247Y-4064D01*
X475843Y-1219D01*
X471170Y-203D01*
X468731Y-508D01*
X466394Y-1371D01*
X464261Y-2692D01*
X462229Y-4267D01*
X462483Y812D01*
X462483Y11988D01*
G37*
G36*
X549910Y10718D02*
G01*
X548640Y10515D01*
X547674Y9906D01*
X547065Y8991D01*
X546811Y7924D01*
X547065Y6705D01*
X547674Y5740D01*
X548640Y5080D01*
X549910Y4876D01*
X550976Y5080D01*
X551840Y5740D01*
X552450Y6705D01*
X552653Y7924D01*
X552450Y8991D01*
X551840Y9906D01*
X550976Y10515D01*
G37*
G36*
X357632Y8686D02*
G01*
X357632Y5384D01*
X367741Y5384D01*
X371754Y5080D01*
X374650Y4064D01*
X376326Y2184D01*
X376936Y-711D01*
X376428Y-3403D01*
X374802Y-5435D01*
X371856Y-6654D01*
X367487Y-7061D01*
X361950Y-7061D01*
X361950Y5384D01*
X357632Y5384D01*
X357632Y-10363D01*
X368503Y-10363D01*
X373075Y-10820D01*
X376428Y-12141D01*
X378510Y-14325D01*
X379171Y-17475D01*
X378460Y-20828D01*
X376326Y-23215D01*
X372973Y-24638D01*
X368503Y-25095D01*
X361950Y-25095D01*
X361950Y-10363D01*
X357632Y-10363D01*
X357632Y-28397D01*
X369316Y-28397D01*
X375005Y-27736D01*
X379425Y-25704D01*
X382270Y-22301D01*
X383286Y-17475D01*
X382727Y-14071D01*
X381152Y-11430D01*
X378764Y-9601D01*
X375666Y-8585D01*
X375666Y-8331D01*
X378002Y-7162D01*
X379780Y-5334D01*
X380847Y-2946D01*
X381203Y-203D01*
X380288Y3860D01*
X377748Y6604D01*
X373735Y8178D01*
X368503Y8686D01*
G37*
G36*
X439928Y-203D02*
G01*
X437489Y-558D01*
X435152Y-1473D01*
X430987Y-4267D01*
X430733Y-4267D01*
X430479Y-965D01*
X426974Y-965D01*
X426974Y-22555D01*
X431241Y-22555D01*
X431241Y-7823D01*
X433273Y-5994D01*
X435152Y-4775D01*
X437032Y-4013D01*
X438861Y-3759D01*
X442315Y-4521D01*
X444703Y-6705D01*
X446074Y-9956D01*
X446532Y-14173D01*
X445871Y-18948D01*
X444144Y-22555D01*
X441451Y-24841D01*
X438150Y-25603D01*
X436676Y-25450D01*
X435000Y-24942D01*
X433171Y-23977D01*
X431241Y-22555D01*
X426974Y-22555D01*
X426974Y-40081D01*
X431241Y-40081D01*
X431241Y-30683D01*
X430987Y-25857D01*
X432968Y-27228D01*
X434949Y-28295D01*
X436930Y-28905D01*
X438861Y-29159D01*
X443433Y-28143D01*
X447243Y-25196D01*
X449834Y-20472D01*
X450850Y-14173D01*
X450138Y-8483D01*
X448056Y-4064D01*
X444601Y-1219D01*
G37*
G36*
X498856Y-203D02*
G01*
X495554Y-558D01*
X492658Y-1422D01*
X490169Y-2540D01*
X488137Y-3759D01*
X489661Y-6807D01*
X491388Y-5689D01*
X493420Y-4724D01*
X495655Y-4013D01*
X498093Y-3759D01*
X501040Y-4368D01*
X502818Y-5994D01*
X503682Y-8382D01*
X503935Y-11125D01*
X496316Y-12446D01*
X491032Y-14478D01*
X487883Y-17424D01*
X486934Y-21031D01*
X490982Y-21031D01*
X491642Y-18440D01*
X493826Y-16408D01*
X497840Y-14935D01*
X503935Y-13919D01*
X503935Y-21793D01*
X501904Y-23469D01*
X499973Y-24638D01*
X498043Y-25349D01*
X496011Y-25603D01*
X494080Y-25349D01*
X492455Y-24587D01*
X491388Y-23164D01*
X490982Y-21031D01*
X486934Y-21031D01*
X487527Y-24688D01*
X489204Y-27127D01*
X491693Y-28651D01*
X494741Y-29159D01*
X497332Y-28854D01*
X499770Y-27990D01*
X502005Y-26720D01*
X504190Y-25095D01*
X504698Y-28397D01*
X508000Y-28397D01*
X508000Y-11379D01*
X507492Y-6858D01*
X505866Y-3302D01*
X503072Y-1016D01*
G37*
G36*
X530301Y-203D02*
G01*
X527659Y-609D01*
X525221Y-1676D01*
X523036Y-3200D01*
X520903Y-5029D01*
X520446Y-965D01*
X517143Y-965D01*
X517143Y-28397D01*
X521157Y-28397D01*
X521157Y-8331D01*
X523138Y-6350D01*
X525018Y-4927D01*
X526948Y-4064D01*
X529082Y-3759D01*
X531520Y-4216D01*
X533146Y-5689D01*
X534111Y-8077D01*
X534416Y-11379D01*
X534416Y-28397D01*
X538683Y-28397D01*
X538683Y-10871D01*
X538175Y-6299D01*
X536600Y-2997D01*
X534009Y-914D01*
G37*
G36*
X385521Y-965D02*
G01*
X396748Y-28651D01*
X394868Y-33121D01*
X393446Y-35052D01*
X391718Y-36322D01*
X389636Y-36779D01*
X387553Y-36525D01*
X386537Y-39827D01*
X389890Y-40335D01*
X393395Y-39624D01*
X396138Y-37642D01*
X398221Y-34645D01*
X399796Y-30937D01*
X410209Y-965D01*
X406146Y-965D01*
X398729Y-24333D01*
X398475Y-24333D01*
X389890Y-965D01*
G37*
G36*
X547878Y-965D02*
G01*
X547878Y-31953D01*
X547674Y-34239D01*
X547116Y-36017D01*
X546049Y-37134D01*
X544271Y-37541D01*
X542848Y-37388D01*
X541782Y-37033D01*
X540766Y-40081D01*
X542594Y-40640D01*
X544779Y-40843D01*
X548081Y-40233D01*
X550265Y-38506D01*
X551535Y-35712D01*
X551891Y-31953D01*
X551891Y-965D01*
G37*
G36*
X98907Y56134D02*
G01*
X91135Y55067D01*
X85394Y51816D01*
X81838Y46380D01*
X80619Y38862D01*
X80619Y33782D01*
X83921Y33782D01*
X83921Y38354D01*
X84937Y44348D01*
X87884Y48514D01*
X92608Y51003D01*
X98907Y51816D01*
X105359Y51003D01*
X110134Y48514D01*
X113131Y44348D01*
X114147Y38354D01*
X114147Y33782D01*
X80619Y33782D01*
X80619Y29718D01*
X117703Y29718D01*
X117703Y38862D01*
X116433Y46380D01*
X112674Y51816D01*
X106781Y55067D01*
G37*
G36*
X80619Y19304D02*
G01*
X80619Y15240D01*
X103581Y15290D01*
X112115Y15747D01*
X112115Y15494D01*
X104495Y11684D01*
X80619Y-2540D01*
X80619Y-6858D01*
X117703Y-6858D01*
X117703Y-2794D01*
X94538Y-2844D01*
X85953Y-3302D01*
X85953Y-3048D01*
X93573Y1016D01*
X117703Y14985D01*
X117703Y19304D01*
G37*
G36*
X98653Y-15747D02*
G01*
X98653Y-27686D01*
X102209Y-27686D01*
X102209Y-19812D01*
X112369Y-19812D01*
X113385Y-21132D01*
X114096Y-22758D01*
X114503Y-24638D01*
X114655Y-26670D01*
X113537Y-32054D01*
X110388Y-36068D01*
X105460Y-38506D01*
X98907Y-39370D01*
X92557Y-38455D01*
X87782Y-35966D01*
X84734Y-31953D01*
X83667Y-26670D01*
X83921Y-24079D01*
X84683Y-21945D01*
X85801Y-20116D01*
X87223Y-18542D01*
X84429Y-16256D01*
X82753Y-18034D01*
X81280Y-20421D01*
X80264Y-23418D01*
X79857Y-26924D01*
X81178Y-33629D01*
X85039Y-38912D01*
X91135Y-42418D01*
X99161Y-43688D01*
X107238Y-42468D01*
X113283Y-39065D01*
X117144Y-33832D01*
X118465Y-27178D01*
X118160Y-23622D01*
X117246Y-20523D01*
X115874Y-17881D01*
X114147Y-15747D01*
G37*
G36*
X620166Y6045D02*
G01*
X619150Y-11226D01*
X621436Y-12750D01*
X624433Y-11023D01*
X626008Y-10617D01*
X627786Y-10464D01*
X631088Y-11074D01*
X633577Y-12801D01*
X635101Y-15595D01*
X635660Y-19354D01*
X635000Y-23164D01*
X633222Y-26009D01*
X630631Y-27838D01*
X627532Y-28498D01*
X624484Y-28143D01*
X621995Y-27178D01*
X619963Y-25806D01*
X618185Y-24180D01*
X616102Y-26974D01*
X618185Y-28803D01*
X620725Y-30327D01*
X623874Y-31394D01*
X627786Y-31800D01*
X632256Y-30988D01*
X636066Y-28498D01*
X638759Y-24536D01*
X639724Y-19100D01*
X638911Y-13817D01*
X636574Y-10109D01*
X633120Y-7873D01*
X628802Y-7162D01*
X625602Y-7670D01*
X622960Y-8940D01*
X624027Y2489D01*
X637997Y2489D01*
X637997Y6045D01*
G37*
G36*
X642823Y6045D02*
G01*
X654710Y-31292D01*
X659536Y-31292D01*
X671220Y6045D01*
X667156Y6045D01*
X657250Y-26720D01*
X657047Y-26720D01*
X655980Y-23622D01*
X653440Y-14528D01*
X647090Y6045D01*
G37*
G36*
X458165Y-417474D02*
G01*
X458165Y-452018D01*
X462483Y-452018D01*
X462483Y-437286D01*
X464362Y-435508D01*
X466293Y-434238D01*
X468172Y-433476D01*
X470103Y-433222D01*
X473557Y-433984D01*
X475894Y-436168D01*
X477266Y-439420D01*
X477723Y-443636D01*
X477113Y-448411D01*
X475335Y-452018D01*
X472693Y-454304D01*
X469341Y-455066D01*
X467868Y-454914D01*
X466191Y-454406D01*
X464362Y-453491D01*
X462483Y-452018D01*
X458165Y-452018D01*
X458165Y-457860D01*
X461467Y-457860D01*
X461975Y-455066D01*
X463956Y-456488D01*
X466039Y-457606D01*
X468122Y-458368D01*
X470103Y-458622D01*
X474624Y-457606D01*
X478434Y-454659D01*
X481076Y-449935D01*
X482041Y-443636D01*
X481330Y-437946D01*
X479247Y-433527D01*
X475843Y-430682D01*
X471119Y-429666D01*
X468680Y-429971D01*
X466394Y-430834D01*
X464210Y-432155D01*
X462229Y-433730D01*
X462483Y-428650D01*
X462483Y-417474D01*
G37*
G36*
X549859Y-418744D02*
G01*
X548640Y-418998D01*
X547674Y-419557D01*
X547014Y-420471D01*
X546811Y-421538D01*
X547014Y-422757D01*
X547674Y-423722D01*
X548640Y-424383D01*
X549859Y-424586D01*
X550926Y-424383D01*
X551840Y-423722D01*
X552399Y-422757D01*
X552653Y-421538D01*
X552399Y-420471D01*
X551840Y-419557D01*
X550926Y-418998D01*
G37*
G36*
X357581Y-420776D02*
G01*
X357581Y-424078D01*
X367741Y-424078D01*
X371754Y-424383D01*
X374599Y-425399D01*
X376326Y-427278D01*
X376885Y-430174D01*
X376377Y-432917D01*
X374751Y-434898D01*
X371856Y-436118D01*
X367487Y-436524D01*
X361899Y-436524D01*
X361899Y-424078D01*
X357581Y-424078D01*
X357581Y-439826D01*
X368503Y-439826D01*
X373075Y-440283D01*
X376377Y-441604D01*
X378460Y-443788D01*
X379171Y-446938D01*
X378409Y-450291D01*
X376326Y-452678D01*
X372922Y-454101D01*
X368503Y-454558D01*
X361899Y-454558D01*
X361899Y-439826D01*
X357581Y-439826D01*
X357581Y-457860D01*
X369265Y-457860D01*
X375005Y-457200D01*
X379374Y-455168D01*
X382219Y-451764D01*
X383235Y-446938D01*
X382676Y-443534D01*
X381152Y-440893D01*
X378714Y-439064D01*
X375615Y-438048D01*
X375615Y-437794D01*
X378002Y-436626D01*
X379730Y-434797D01*
X380796Y-432409D01*
X381203Y-429666D01*
X380288Y-425602D01*
X377698Y-422859D01*
X373684Y-421284D01*
X368503Y-420776D01*
G37*
G36*
X439877Y-429666D02*
G01*
X437438Y-430022D01*
X435152Y-430936D01*
X430987Y-433730D01*
X430733Y-433730D01*
X430479Y-430428D01*
X426923Y-430428D01*
X426923Y-452018D01*
X431241Y-452018D01*
X431241Y-437286D01*
X433273Y-435508D01*
X435152Y-434238D01*
X436981Y-433476D01*
X438861Y-433222D01*
X442315Y-433984D01*
X444652Y-436168D01*
X446024Y-439420D01*
X446481Y-443636D01*
X445871Y-448411D01*
X444093Y-452018D01*
X441451Y-454304D01*
X438099Y-455066D01*
X436626Y-454914D01*
X434949Y-454406D01*
X433120Y-453491D01*
X431241Y-452018D01*
X426923Y-452018D01*
X426923Y-469544D01*
X431241Y-469544D01*
X431241Y-460146D01*
X430987Y-455320D01*
X432917Y-456692D01*
X434898Y-457758D01*
X436930Y-458419D01*
X438861Y-458622D01*
X443382Y-457606D01*
X447192Y-454659D01*
X449834Y-449935D01*
X450799Y-443636D01*
X450088Y-437946D01*
X448005Y-433527D01*
X444601Y-430682D01*
G37*
G36*
X498805Y-429666D02*
G01*
X495503Y-430022D01*
X492607Y-430885D01*
X488137Y-433222D01*
X489661Y-436270D01*
X491337Y-435152D01*
X493369Y-434187D01*
X495604Y-433476D01*
X498043Y-433222D01*
X500989Y-433832D01*
X502767Y-435457D01*
X503682Y-437845D01*
X503885Y-440588D01*
X496316Y-441909D01*
X490982Y-443941D01*
X487883Y-446887D01*
X486934Y-450494D01*
X490931Y-450494D01*
X491591Y-447903D01*
X493776Y-445871D01*
X497789Y-444398D01*
X503885Y-443382D01*
X503885Y-451256D01*
X501853Y-452932D01*
X499922Y-454101D01*
X498043Y-454863D01*
X496011Y-455066D01*
X494030Y-454812D01*
X492404Y-454050D01*
X491337Y-452628D01*
X490931Y-450494D01*
X486934Y-450494D01*
X487476Y-454151D01*
X489204Y-456590D01*
X491693Y-458114D01*
X494741Y-458622D01*
X497332Y-458317D01*
X499719Y-457454D01*
X502005Y-456184D01*
X504139Y-454558D01*
X504647Y-457860D01*
X507949Y-457860D01*
X507949Y-440842D01*
X507441Y-436321D01*
X505866Y-432765D01*
X503021Y-430479D01*
G37*
G36*
X530301Y-429666D02*
G01*
X527608Y-430072D01*
X525221Y-431139D01*
X522985Y-432663D01*
X520903Y-434492D01*
X520395Y-430428D01*
X517093Y-430428D01*
X517093Y-457860D01*
X521157Y-457860D01*
X521157Y-437794D01*
X523138Y-435813D01*
X525018Y-434390D01*
X526897Y-433527D01*
X529031Y-433222D01*
X531469Y-433679D01*
X533146Y-435152D01*
X534060Y-437540D01*
X534365Y-440842D01*
X534365Y-457860D01*
X538683Y-457860D01*
X538683Y-440334D01*
X538175Y-435762D01*
X536600Y-432460D01*
X533958Y-430377D01*
G37*
G36*
X385521Y-430428D02*
G01*
X396697Y-458114D01*
X394817Y-462584D01*
X393446Y-464515D01*
X391668Y-465785D01*
X389585Y-466242D01*
X387553Y-465988D01*
X386537Y-469290D01*
X389839Y-469798D01*
X393395Y-469087D01*
X396138Y-467106D01*
X398221Y-464108D01*
X399745Y-460400D01*
X410159Y-430428D01*
X406095Y-430428D01*
X398729Y-453796D01*
X398475Y-453796D01*
X389839Y-430428D01*
G37*
G36*
X547827Y-430428D02*
G01*
X547827Y-461416D01*
X547674Y-463702D01*
X547116Y-465480D01*
X545998Y-466598D01*
X544271Y-467004D01*
X542798Y-466851D01*
X541731Y-466496D01*
X540715Y-469544D01*
X542544Y-470103D01*
X544779Y-470306D01*
X548030Y-469696D01*
X550214Y-467969D01*
X551484Y-465175D01*
X551891Y-461416D01*
X551891Y-430428D01*
G37*
G36*
X98907Y-373329D02*
G01*
X91084Y-374396D01*
X85344Y-377647D01*
X81788Y-383082D01*
X80568Y-390601D01*
X80568Y-395681D01*
X83870Y-395681D01*
X83870Y-391109D01*
X84937Y-385165D01*
X87884Y-380949D01*
X92608Y-378460D01*
X98907Y-377647D01*
X105359Y-378460D01*
X110134Y-380949D01*
X113080Y-385165D01*
X114096Y-391109D01*
X114096Y-395681D01*
X80568Y-395681D01*
X80568Y-399745D01*
X117703Y-399745D01*
X117703Y-390601D01*
X116382Y-383082D01*
X112674Y-377647D01*
X106730Y-374396D01*
G37*
G36*
X80568Y-410159D02*
G01*
X80568Y-414223D01*
X103581Y-414172D01*
X112115Y-413715D01*
X112115Y-413969D01*
X104495Y-417779D01*
X80568Y-432003D01*
X80568Y-436321D01*
X117703Y-436321D01*
X117703Y-432257D01*
X94488Y-432308D01*
X85953Y-432765D01*
X85953Y-432511D01*
X93522Y-428447D01*
X117703Y-414477D01*
X117703Y-410159D01*
G37*
G36*
X98653Y-445211D02*
G01*
X98653Y-457149D01*
X102209Y-457149D01*
X102209Y-449275D01*
X112318Y-449275D01*
X113334Y-450596D01*
X114046Y-452221D01*
X114503Y-454101D01*
X114604Y-456133D01*
X113537Y-461518D01*
X110388Y-465531D01*
X105410Y-467969D01*
X98907Y-468833D01*
X92557Y-467918D01*
X87731Y-465429D01*
X84683Y-461416D01*
X83616Y-456133D01*
X83921Y-453542D01*
X84632Y-451408D01*
X85801Y-449580D01*
X87172Y-448005D01*
X84429Y-445719D01*
X82753Y-447548D01*
X81280Y-449884D01*
X80213Y-452882D01*
X79857Y-456387D01*
X81178Y-463092D01*
X84988Y-468376D01*
X91084Y-471881D01*
X99161Y-473151D01*
X107187Y-471932D01*
X113283Y-468528D01*
X117094Y-463296D01*
X118465Y-456641D01*
X118110Y-453085D01*
X117246Y-449986D01*
X115874Y-447344D01*
X114096Y-445211D01*
G37*
G36*
X620217Y-422452D02*
G01*
X619150Y-439724D01*
X621487Y-441248D01*
X624433Y-439521D01*
X626059Y-439115D01*
X627837Y-438962D01*
X631088Y-439572D01*
X633577Y-441299D01*
X635152Y-444093D01*
X635660Y-447852D01*
X635000Y-451662D01*
X633222Y-454507D01*
X630631Y-456336D01*
X627532Y-456996D01*
X624484Y-456641D01*
X621995Y-455676D01*
X619963Y-454304D01*
X618185Y-452678D01*
X616102Y-455472D01*
X618185Y-457301D01*
X620725Y-458825D01*
X623874Y-459892D01*
X627837Y-460298D01*
X632256Y-459485D01*
X636066Y-456996D01*
X638759Y-453034D01*
X639724Y-447598D01*
X638911Y-442315D01*
X636574Y-438607D01*
X633120Y-436372D01*
X628802Y-435660D01*
X625602Y-436168D01*
X622960Y-437438D01*
X624027Y-426008D01*
X637997Y-426008D01*
X637997Y-422452D01*
G37*
G36*
X642823Y-422452D02*
G01*
X654710Y-459790D01*
X659587Y-459790D01*
X671220Y-422452D01*
X667156Y-422452D01*
X657301Y-455218D01*
X657047Y-455218D01*
X647090Y-422452D01*
G37*
D10*
X172288Y781166D02*
G01*
X172288Y737478D01*
X169494Y729096D01*
X166954Y726556D01*
X161366Y723762D01*
X156032Y723762D01*
X150444Y726556D01*
X147650Y729096D01*
X145110Y737478D01*
X145110Y742812D01*
X190322Y781166D02*
G01*
X190322Y723762D01*
X190322Y723762D02*
G01*
X223088Y723762D01*
X282016Y767450D02*
G01*
X279222Y772784D01*
X273634Y778372D01*
X268300Y781166D01*
X257378Y781166D01*
X252044Y778372D01*
X246456Y772784D01*
X243662Y767450D01*
X241122Y759322D01*
X241122Y745606D01*
X243662Y737478D01*
X246456Y731890D01*
X252044Y726556D01*
X257378Y723762D01*
X268300Y723762D01*
X273634Y726556D01*
X279222Y731890D01*
X282016Y737478D01*
X327228Y781166D02*
G01*
X327228Y737478D01*
X324434Y729096D01*
X321640Y726556D01*
X316306Y723762D01*
X310718Y723762D01*
X305384Y726556D01*
X302590Y729096D01*
X299796Y737478D01*
X299796Y742812D01*
X345262Y781166D02*
G01*
X345262Y723762D01*
X345262Y723762D02*
G01*
X378028Y723762D01*
X436702Y767450D02*
G01*
X434162Y772784D01*
X428574Y778372D01*
X423240Y781166D01*
X412318Y781166D01*
X406730Y778372D01*
X401396Y772784D01*
X398602Y767450D01*
X395808Y759322D01*
X395808Y745606D01*
X398602Y737478D01*
X401396Y731890D01*
X406730Y726556D01*
X412318Y723762D01*
X423240Y723762D01*
X428574Y726556D01*
X434162Y731890D01*
X436702Y737478D01*
X482168Y781166D02*
G01*
X482168Y737478D01*
X479374Y729096D01*
X476580Y726556D01*
X471246Y723762D01*
X465658Y723762D01*
X460324Y726556D01*
X457530Y729096D01*
X454736Y737478D01*
X454736Y742812D01*
X500202Y781166D02*
G01*
X500202Y723762D01*
X500202Y723762D02*
G01*
X532714Y723762D01*
X591642Y767450D02*
G01*
X589102Y772784D01*
X583514Y778372D01*
X578180Y781166D01*
X567258Y781166D01*
X561670Y778372D01*
X556336Y772784D01*
X553542Y767450D01*
X550748Y759322D01*
X550748Y745606D01*
X553542Y737478D01*
X556336Y731890D01*
X561670Y726556D01*
X567258Y723762D01*
X578180Y723762D01*
X583514Y726556D01*
X589102Y731890D01*
X591642Y737478D01*
X637108Y781166D02*
G01*
X637108Y737478D01*
X634314Y729096D01*
X631520Y726556D01*
X626186Y723762D01*
X620598Y723762D01*
X615264Y726556D01*
X612470Y729096D01*
X609676Y737478D01*
X609676Y742812D01*
X654888Y781166D02*
G01*
X654888Y723762D01*
X654888Y723762D02*
G01*
X687654Y723762D01*
X746582Y767450D02*
G01*
X744042Y772784D01*
X738454Y778372D01*
X733120Y781166D01*
X722198Y781166D01*
X716610Y778372D01*
X711276Y772784D01*
X708482Y767450D01*
X705688Y759322D01*
X705688Y745606D01*
X708482Y737478D01*
X711276Y731890D01*
X716610Y726556D01*
X722198Y723762D01*
X733120Y723762D01*
X738454Y726556D01*
X744042Y731890D01*
X746582Y737478D01*
D11*
X290542Y472666D02*
G01*
X290542Y453616D01*
X290542Y462749D02*
G01*
X293336Y465302D01*
X295122Y466316D01*
X297660Y466316D01*
X299686Y465302D01*
X300454Y462749D01*
X300454Y453616D01*
X309349Y472666D02*
G01*
X309349Y457161D01*
X310116Y454375D01*
X311878Y453616D01*
X313651Y453616D01*
X306557Y466316D02*
G01*
X312907Y466316D01*
X322564Y472666D02*
G01*
X322564Y457161D01*
X323316Y454375D01*
X325353Y453616D01*
X327121Y453616D01*
X319747Y466316D02*
G01*
X326097Y466316D01*
X332968Y466316D02*
G01*
X332968Y447266D01*
X332968Y463511D02*
G01*
X334744Y465302D01*
X336783Y466316D01*
X339318Y466316D01*
X341342Y465302D01*
X343133Y463511D01*
X343882Y460979D01*
X343882Y458952D01*
X343133Y456399D01*
X341342Y454375D01*
X339318Y453616D01*
X336783Y453616D01*
X334744Y454375D01*
X332968Y456399D01*
X359882Y463511D02*
G01*
X359115Y465302D01*
X356328Y466316D01*
X353537Y466316D01*
X350753Y465302D01*
X349978Y463511D01*
X350753Y461738D01*
X352772Y460979D01*
X357350Y459966D01*
X359115Y458952D01*
X359882Y457161D01*
X359882Y456399D01*
X359115Y454375D01*
X356328Y453616D01*
X353537Y453616D01*
X350753Y454375D01*
X349978Y456399D01*
X366737Y464532D02*
G01*
X365978Y463511D01*
X366737Y462749D01*
X367756Y463511D01*
X366737Y464532D01*
X366737Y458182D02*
G01*
X365978Y457161D01*
X366737Y456399D01*
X367756Y457161D01*
X366737Y458182D01*
X390105Y476211D02*
G01*
X373854Y447266D01*
X412460Y476211D02*
G01*
X396194Y447266D01*
X418556Y466316D02*
G01*
X418556Y447266D01*
X418556Y463511D02*
G01*
X420329Y465302D01*
X422107Y466316D01*
X424906Y466316D01*
X426679Y465302D01*
X428457Y463511D01*
X429478Y460979D01*
X429478Y458952D01*
X428457Y456399D01*
X426679Y454375D01*
X424906Y453616D01*
X422107Y453616D01*
X420329Y454375D01*
X418556Y456399D01*
X435315Y472666D02*
G01*
X435315Y453616D01*
X435315Y463511D02*
G01*
X437108Y465302D01*
X439125Y466316D01*
X441665Y466316D01*
X443704Y465302D01*
X445475Y463511D01*
X446244Y460979D01*
X446244Y458952D01*
X445475Y456399D01*
X443704Y454375D01*
X441665Y453616D01*
X439125Y453616D01*
X437108Y454375D01*
X435315Y456399D01*
X463260Y466316D02*
G01*
X463260Y453616D01*
X463260Y463511D02*
G01*
X461474Y465302D01*
X459694Y466316D01*
X456910Y466316D01*
X455124Y465302D01*
X453097Y463511D01*
X452338Y460979D01*
X452338Y458952D01*
X453097Y456399D01*
X455124Y454375D01*
X456910Y453616D01*
X459694Y453616D01*
X461474Y454375D01*
X463260Y456399D01*
X469104Y466316D02*
G01*
X469104Y453616D01*
X469104Y462749D02*
G01*
X471896Y465302D01*
X473666Y466316D01*
X476476Y466316D01*
X478246Y465302D01*
X479257Y462749D01*
X479257Y453616D01*
X488919Y472666D02*
G01*
X489678Y471652D01*
X490694Y472666D01*
X489678Y473679D01*
X488919Y472666D01*
X489678Y466316D02*
G01*
X489678Y450811D01*
X488919Y448025D01*
X487141Y447266D01*
X485094Y447266D01*
X496788Y472666D02*
G01*
X497547Y471652D01*
X498558Y472666D01*
X497547Y473679D01*
X496788Y472666D01*
X497547Y466316D02*
G01*
X497547Y453616D01*
X504405Y466316D02*
G01*
X504405Y453616D01*
X504405Y462749D02*
G01*
X507204Y465302D01*
X508975Y466316D01*
X511766Y466316D01*
X513554Y465302D01*
X514576Y462749D01*
X514576Y453616D01*
X521428Y458182D02*
G01*
X520410Y457161D01*
X521428Y456399D01*
X522188Y457161D01*
X521428Y458182D01*
X538177Y463511D02*
G01*
X537428Y465302D01*
X534629Y466316D01*
X531827Y466316D01*
X529297Y465302D01*
X528279Y463511D01*
X529297Y461738D01*
X531078Y460979D01*
X535647Y459966D01*
X537428Y458952D01*
X538177Y457161D01*
X538177Y456399D01*
X537428Y454375D01*
X534629Y453616D01*
X531827Y453616D01*
X529297Y454375D01*
X528279Y456399D01*
X544291Y466316D02*
G01*
X544291Y447266D01*
X544291Y463511D02*
G01*
X546069Y465302D01*
X547844Y466316D01*
X550641Y466316D01*
X552419Y465302D01*
X554194Y463511D01*
X555205Y460979D01*
X555205Y458952D01*
X554194Y456399D01*
X552419Y454375D01*
X550641Y453616D01*
X547844Y453616D01*
X546069Y454375D01*
X544291Y456399D01*
X572228Y466316D02*
G01*
X572228Y453616D01*
X572228Y463511D02*
G01*
X570207Y465302D01*
X568408Y466316D01*
X565878Y466316D01*
X563857Y465302D01*
X562058Y463511D01*
X561294Y460979D01*
X561294Y458952D01*
X562058Y456399D01*
X563857Y454375D01*
X565878Y453616D01*
X568408Y453616D01*
X570207Y454375D01*
X572228Y456399D01*
X588977Y463511D02*
G01*
X587207Y465302D01*
X585429Y466316D01*
X582627Y466316D01*
X580857Y465302D01*
X579079Y463511D01*
X578076Y460979D01*
X578076Y458952D01*
X579079Y456399D01*
X580857Y454375D01*
X582627Y453616D01*
X585429Y453616D01*
X587207Y454375D01*
X588977Y456399D01*
X595083Y460979D02*
G01*
X606005Y460979D01*
X606005Y462749D01*
X604994Y464532D01*
X604225Y465302D01*
X602208Y466316D01*
X599655Y466316D01*
X597875Y465302D01*
X595858Y463511D01*
X595083Y460979D01*
X595083Y458952D01*
X595858Y456399D01*
X597875Y454375D01*
X599655Y453616D01*
X602208Y453616D01*
X604225Y454375D01*
X606005Y456399D01*
X291053Y40165D02*
G01*
X291053Y21115D01*
X291053Y30248D02*
G01*
X293844Y32801D01*
X295633Y33815D01*
X298168Y33815D01*
X300194Y32801D01*
X300964Y30248D01*
X300964Y21115D01*
X309857Y40165D02*
G01*
X309857Y24660D01*
X310626Y21874D01*
X312386Y21115D01*
X314162Y21115D01*
X307065Y33815D02*
G01*
X313415Y33815D01*
X323075Y40165D02*
G01*
X323075Y24660D01*
X323824Y21874D01*
X325864Y21115D01*
X327632Y21115D01*
X320255Y33815D02*
G01*
X326605Y33815D01*
X333476Y33815D02*
G01*
X333476Y14765D01*
X333476Y31010D02*
G01*
X335252Y32801D01*
X337294Y33815D01*
X339826Y33815D01*
X341853Y32801D01*
X343644Y31010D01*
X344393Y28478D01*
X344393Y26451D01*
X343644Y23898D01*
X341853Y21874D01*
X339826Y21115D01*
X337294Y21115D01*
X335252Y21874D01*
X333476Y23898D01*
X360392Y31010D02*
G01*
X359623Y32801D01*
X356836Y33815D01*
X354045Y33815D01*
X351264Y32801D01*
X350486Y31010D01*
X351264Y29237D01*
X353283Y28478D01*
X357860Y27465D01*
X359623Y26451D01*
X360392Y24660D01*
X360392Y23898D01*
X359623Y21874D01*
X356836Y21115D01*
X354045Y21115D01*
X351264Y21874D01*
X350486Y23898D01*
X367248Y32031D02*
G01*
X366488Y31010D01*
X367248Y30248D01*
X368264Y31010D01*
X367248Y32031D01*
X367248Y25681D02*
G01*
X366488Y24660D01*
X367248Y23898D01*
X368264Y24660D01*
X367248Y25681D01*
X390613Y43710D02*
G01*
X374362Y14765D01*
X412970Y43710D02*
G01*
X396699Y14765D01*
X419061Y33815D02*
G01*
X419061Y14765D01*
X419061Y31010D02*
G01*
X420837Y32801D01*
X422615Y33815D01*
X425411Y33815D01*
X427187Y32801D01*
X428965Y31010D01*
X429988Y28478D01*
X429988Y26451D01*
X428965Y23898D01*
X427187Y21874D01*
X425411Y21115D01*
X422615Y21115D01*
X420837Y21874D01*
X419061Y23898D01*
X435820Y40165D02*
G01*
X435820Y21115D01*
X435820Y31010D02*
G01*
X437614Y32801D01*
X439630Y33815D01*
X442170Y33815D01*
X444210Y32801D01*
X445980Y31010D01*
X446755Y28478D01*
X446755Y26451D01*
X445980Y23898D01*
X444210Y21874D01*
X442170Y21115D01*
X439630Y21115D01*
X437614Y21874D01*
X435820Y23898D01*
X463770Y33815D02*
G01*
X463770Y21115D01*
X463770Y31010D02*
G01*
X461982Y32801D01*
X460199Y33815D01*
X457420Y33815D01*
X455632Y32801D01*
X453603Y31010D01*
X452843Y28478D01*
X452843Y26451D01*
X453603Y23898D01*
X455632Y21874D01*
X457420Y21115D01*
X460199Y21115D01*
X461982Y21874D01*
X463770Y23898D01*
X469610Y33815D02*
G01*
X469610Y21115D01*
X469610Y30248D02*
G01*
X472401Y32801D01*
X474172Y33815D01*
X476986Y33815D01*
X478751Y32801D01*
X479765Y30248D01*
X479765Y21115D01*
X489424Y40165D02*
G01*
X490184Y39151D01*
X491205Y40165D01*
X490184Y41178D01*
X489424Y40165D01*
X490184Y33815D02*
G01*
X490184Y18310D01*
X489424Y15524D01*
X487652Y14765D01*
X485599Y14765D01*
X497293Y40165D02*
G01*
X498053Y39151D01*
X499064Y40165D01*
X498053Y41178D01*
X497293Y40165D01*
X498053Y33815D02*
G01*
X498053Y21115D01*
X504913Y33815D02*
G01*
X504913Y21115D01*
X504913Y30248D02*
G01*
X507710Y32801D01*
X509480Y33815D01*
X512272Y33815D01*
X514060Y32801D01*
X515086Y30248D01*
X515086Y21115D01*
X521934Y25681D02*
G01*
X520920Y24660D01*
X521934Y23898D01*
X522693Y24660D01*
X521934Y25681D01*
X538683Y31010D02*
G01*
X537938Y32801D01*
X535137Y33815D01*
X532333Y33815D01*
X529803Y32801D01*
X528787Y31010D01*
X529803Y29237D01*
X531588Y28478D01*
X536153Y27465D01*
X537938Y26451D01*
X538683Y24660D01*
X538683Y23898D01*
X537938Y21874D01*
X535137Y21115D01*
X532333Y21115D01*
X529803Y21874D01*
X528787Y23898D01*
X544802Y33815D02*
G01*
X544802Y14765D01*
X544802Y31010D02*
G01*
X546574Y32801D01*
X548355Y33815D01*
X551152Y33815D01*
X552924Y32801D01*
X554705Y31010D01*
X555713Y28478D01*
X555713Y26451D01*
X554705Y23898D01*
X552924Y21874D01*
X551152Y21115D01*
X548355Y21115D01*
X546574Y21874D01*
X544802Y23898D01*
X572734Y33815D02*
G01*
X572734Y21115D01*
X572734Y31010D02*
G01*
X570712Y32801D01*
X568914Y33815D01*
X566384Y33815D01*
X564362Y32801D01*
X562564Y31010D01*
X561799Y28478D01*
X561799Y26451D01*
X562564Y23898D01*
X564362Y21874D01*
X566384Y21115D01*
X568914Y21115D01*
X570712Y21874D01*
X572734Y23898D01*
X589483Y31010D02*
G01*
X587715Y32801D01*
X585937Y33815D01*
X583133Y33815D01*
X581365Y32801D01*
X579587Y31010D01*
X578586Y28478D01*
X578586Y26451D01*
X579587Y23898D01*
X581365Y21874D01*
X583133Y21115D01*
X585937Y21115D01*
X587715Y21874D01*
X589483Y23898D01*
X595594Y28478D02*
G01*
X606513Y28478D01*
X606513Y30248D01*
X605502Y32031D01*
X604728Y32801D01*
X602714Y33815D01*
X600163Y33815D01*
X598380Y32801D01*
X596364Y31010D01*
X595594Y28478D01*
X595594Y26451D01*
X596364Y23898D01*
X598380Y21874D01*
X600163Y21115D01*
X602714Y21115D01*
X604728Y21874D01*
X606513Y23898D01*
X291025Y-389300D02*
G01*
X291025Y-408350D01*
X291025Y-399216D02*
G01*
X293819Y-396664D01*
X295605Y-395650D01*
X298140Y-395650D01*
X300169Y-396664D01*
X300934Y-399216D01*
X300934Y-408350D01*
X309831Y-389300D02*
G01*
X309831Y-404804D01*
X310601Y-407591D01*
X312361Y-408350D01*
X314137Y-408350D01*
X307037Y-395650D02*
G01*
X313387Y-395650D01*
X323044Y-389300D02*
G01*
X323044Y-404804D01*
X323799Y-407591D01*
X325836Y-408350D01*
X327601Y-408350D01*
X320230Y-395650D02*
G01*
X326580Y-395650D01*
X333448Y-395650D02*
G01*
X333448Y-414700D01*
X333448Y-398454D02*
G01*
X335224Y-396664D01*
X337263Y-395650D01*
X339798Y-395650D01*
X341825Y-396664D01*
X343613Y-398454D01*
X344368Y-400987D01*
X344368Y-403014D01*
X343613Y-405566D01*
X341825Y-407591D01*
X339798Y-408350D01*
X337263Y-408350D01*
X335224Y-407591D01*
X333448Y-405566D01*
X360362Y-398454D02*
G01*
X359597Y-396664D01*
X356811Y-395650D01*
X354017Y-395650D01*
X351236Y-396664D01*
X350461Y-398454D01*
X351236Y-400227D01*
X353253Y-400987D01*
X357832Y-402000D01*
X359597Y-403014D01*
X360362Y-404804D01*
X360362Y-405566D01*
X359597Y-407591D01*
X356811Y-408350D01*
X354017Y-408350D01*
X351236Y-407591D01*
X350461Y-405566D01*
X367220Y-397433D02*
G01*
X366461Y-398454D01*
X367220Y-399216D01*
X368236Y-398454D01*
X367220Y-397433D01*
X367220Y-403783D02*
G01*
X366461Y-404804D01*
X367220Y-405566D01*
X368236Y-404804D01*
X367220Y-403783D01*
X390588Y-385754D02*
G01*
X374335Y-414700D01*
X412943Y-385754D02*
G01*
X396674Y-414700D01*
X419036Y-395650D02*
G01*
X419036Y-414700D01*
X419036Y-398454D02*
G01*
X420811Y-396664D01*
X422589Y-395650D01*
X425386Y-395650D01*
X427161Y-396664D01*
X428939Y-398454D01*
X429961Y-400987D01*
X429961Y-403014D01*
X428939Y-405566D01*
X427161Y-407591D01*
X425386Y-408350D01*
X422589Y-408350D01*
X420811Y-407591D01*
X419036Y-405566D01*
X435797Y-389300D02*
G01*
X435797Y-408350D01*
X435797Y-398454D02*
G01*
X437591Y-396664D01*
X439605Y-395650D01*
X442147Y-395650D01*
X444185Y-396664D01*
X445955Y-398454D01*
X446727Y-400987D01*
X446727Y-403014D01*
X445955Y-405566D01*
X444185Y-407591D01*
X442147Y-408350D01*
X439605Y-408350D01*
X437591Y-407591D01*
X435797Y-405566D01*
X463743Y-395650D02*
G01*
X463743Y-408350D01*
X463743Y-398454D02*
G01*
X461957Y-396664D01*
X460174Y-395650D01*
X457393Y-395650D01*
X455607Y-396664D01*
X453580Y-398454D01*
X452821Y-400987D01*
X452821Y-403014D01*
X453580Y-405566D01*
X455607Y-407591D01*
X457393Y-408350D01*
X460174Y-408350D01*
X461957Y-407591D01*
X463743Y-405566D01*
X469585Y-395650D02*
G01*
X469585Y-408350D01*
X469585Y-399216D02*
G01*
X472379Y-396664D01*
X474149Y-395650D01*
X476958Y-395650D01*
X478729Y-396664D01*
X479739Y-399216D01*
X479739Y-408350D01*
X489402Y-389300D02*
G01*
X490161Y-390314D01*
X491177Y-389300D01*
X490161Y-388287D01*
X489402Y-389300D01*
X490161Y-395650D02*
G01*
X490161Y-411154D01*
X489402Y-413941D01*
X487624Y-414700D01*
X485574Y-414700D01*
X497271Y-389300D02*
G01*
X498030Y-390314D01*
X499038Y-389300D01*
X498030Y-388287D01*
X497271Y-389300D01*
X498030Y-395650D02*
G01*
X498030Y-408350D01*
X504888Y-395650D02*
G01*
X504888Y-408350D01*
X504888Y-399216D02*
G01*
X507685Y-396664D01*
X509455Y-395650D01*
X512249Y-395650D01*
X514035Y-396664D01*
X515058Y-399216D01*
X515058Y-408350D01*
X521911Y-403783D02*
G01*
X520893Y-404804D01*
X521911Y-405566D01*
X522671Y-404804D01*
X521911Y-403783D01*
X538657Y-398454D02*
G01*
X537911Y-396664D01*
X535111Y-395650D01*
X532307Y-395650D01*
X529780Y-396664D01*
X528761Y-398454D01*
X529780Y-400227D01*
X531561Y-400987D01*
X536130Y-402000D01*
X537911Y-403014D01*
X538657Y-404804D01*
X538657Y-405566D01*
X537911Y-407591D01*
X535111Y-408350D01*
X532307Y-408350D01*
X529780Y-407591D01*
X528761Y-405566D01*
X544774Y-395650D02*
G01*
X544774Y-414700D01*
X544774Y-398454D02*
G01*
X546552Y-396664D01*
X548327Y-395650D01*
X551124Y-395650D01*
X552902Y-396664D01*
X554677Y-398454D01*
X555688Y-400987D01*
X555688Y-403014D01*
X554677Y-405566D01*
X552902Y-407591D01*
X551124Y-408350D01*
X548327Y-408350D01*
X546552Y-407591D01*
X544774Y-405566D01*
X572711Y-395650D02*
G01*
X572711Y-408350D01*
X572711Y-398454D02*
G01*
X570689Y-396664D01*
X568888Y-395650D01*
X566361Y-395650D01*
X564339Y-396664D01*
X562538Y-398454D01*
X561774Y-400987D01*
X561774Y-403014D01*
X562538Y-405566D01*
X564339Y-407591D01*
X566361Y-408350D01*
X568888Y-408350D01*
X570689Y-407591D01*
X572711Y-405566D01*
X589457Y-398454D02*
G01*
X587689Y-396664D01*
X585911Y-395650D01*
X583107Y-395650D01*
X581339Y-396664D01*
X579561Y-398454D01*
X578558Y-400987D01*
X578558Y-403014D01*
X579561Y-405566D01*
X581339Y-407591D01*
X583107Y-408350D01*
X585911Y-408350D01*
X587689Y-407591D01*
X589457Y-405566D01*
X595569Y-400987D02*
G01*
X606488Y-400987D01*
X606488Y-399216D01*
X605477Y-397433D01*
X604705Y-396664D01*
X602691Y-395650D01*
X600138Y-395650D01*
X598355Y-396664D01*
X596341Y-398454D01*
X595569Y-400987D01*
X595569Y-403014D01*
X596341Y-405566D01*
X598355Y-407591D01*
X600138Y-408350D01*
X602691Y-408350D01*
X604705Y-407591D01*
X606488Y-405566D01*
D12*
X112999Y272999D02*
G01*
X787999Y272999D01*
X788497Y-157005D02*
G01*
X113512Y-157005D01*
X788497Y-72501D02*
G01*
X113504Y-72501D01*
X788484Y-502038D02*
G01*
X113482Y-501970D01*
X787989Y359999D02*
G01*
X112996Y359999D01*
M02*
