G04 Layer: TopPasteMaskLayer*
G04 EasyEDA v6.5.22, 2022-12-30 12:31:34*
G04 8208ea2c859e44049a4325ea99c283b7,9c64b28349a745268246d024528a85f0,10*
G04 Gerber Generator version 0.2*
G04 Scale: 100 percent, Rotated: No, Reflected: No *
G04 Dimensions in millimeters *
G04 leading zeros omitted , absolute positions ,4 integer and 5 decimal *
%FSLAX45Y45*%
%MOMM*%

%ADD10C,0.0001*%

%LPD*%
G36*
X310540Y255016D02*
G01*
X306527Y251002D01*
X306527Y204978D01*
X310540Y201015D01*
X360578Y201015D01*
X364591Y204978D01*
X364591Y251002D01*
X360578Y255016D01*
G37*
G36*
X225450Y255016D02*
G01*
X221437Y251002D01*
X221437Y204978D01*
X225450Y201015D01*
X275539Y201015D01*
X279552Y204978D01*
X279552Y251002D01*
X275539Y255016D01*
G37*
G36*
X615543Y254965D02*
G01*
X611530Y250952D01*
X611530Y204978D01*
X615543Y200964D01*
X665581Y200964D01*
X669544Y204978D01*
X669544Y250952D01*
X665581Y254965D01*
G37*
G36*
X530453Y254965D02*
G01*
X526491Y250952D01*
X526491Y204978D01*
X530453Y200964D01*
X580542Y200964D01*
X584555Y204978D01*
X584555Y250952D01*
X580542Y254965D01*
G37*
G36*
X310489Y-162001D02*
G01*
X306527Y-165963D01*
X306527Y-211988D01*
X310489Y-216001D01*
X360578Y-216001D01*
X364591Y-211988D01*
X364591Y-165963D01*
X360578Y-162001D01*
G37*
G36*
X225450Y-162001D02*
G01*
X221437Y-165963D01*
X221437Y-211988D01*
X225450Y-216001D01*
X275539Y-216001D01*
X279501Y-211988D01*
X279501Y-165963D01*
X275539Y-162001D01*
G37*
G36*
X615492Y-162001D02*
G01*
X611530Y-166014D01*
X611530Y-211988D01*
X615492Y-216001D01*
X665581Y-216001D01*
X669544Y-211988D01*
X669544Y-166014D01*
X665581Y-162001D01*
G37*
G36*
X530453Y-162001D02*
G01*
X526440Y-166014D01*
X526440Y-211988D01*
X530453Y-216001D01*
X580491Y-216001D01*
X584504Y-211988D01*
X584504Y-166014D01*
X580491Y-162001D01*
G37*
G36*
X615492Y671982D02*
G01*
X611530Y667969D01*
X611530Y621995D01*
X615492Y617982D01*
X665581Y617982D01*
X669544Y621995D01*
X669544Y667969D01*
X665581Y671982D01*
G37*
G36*
X530453Y671982D02*
G01*
X526440Y667969D01*
X526440Y621995D01*
X530453Y617982D01*
X580491Y617982D01*
X584504Y621995D01*
X584504Y667969D01*
X580491Y671982D01*
G37*
G36*
X310489Y672033D02*
G01*
X306527Y668020D01*
X306527Y621995D01*
X310489Y617982D01*
X360578Y617982D01*
X364540Y621995D01*
X364540Y668020D01*
X360578Y672033D01*
G37*
G36*
X225450Y672033D02*
G01*
X221437Y668020D01*
X221437Y621995D01*
X225450Y617982D01*
X275488Y617982D01*
X279501Y621995D01*
X279501Y668020D01*
X275488Y672033D01*
G37*
M02*
