G04 Layer: TopSilkscreenLayer*
G04 EasyEDA v6.5.22, 2022-12-26 17:46:56*
G04 054495fe3ecf40f9b916fb1bc62bcec1,9c64b28349a745268246d024528a85f0,10*
G04 Gerber Generator version 0.2*
G04 Scale: 100 percent, Rotated: No, Reflected: No *
G04 Dimensions in millimeters *
G04 leading zeros omitted , absolute positions ,4 integer and 5 decimal *
%FSLAX45Y45*%
%MOMM*%

%ADD10C,0.1000*%
%ADD11C,0.0300*%

%LPD*%
G36*
X659180Y-344474D02*
G01*
X658164Y-361746D01*
X660450Y-363270D01*
X663448Y-361543D01*
X665022Y-361137D01*
X666800Y-360984D01*
X670102Y-361594D01*
X672592Y-363321D01*
X674166Y-366115D01*
X674674Y-369874D01*
X674014Y-373684D01*
X672236Y-376529D01*
X669645Y-378358D01*
X666546Y-379018D01*
X663498Y-378663D01*
X661009Y-377698D01*
X658977Y-376326D01*
X657148Y-374700D01*
X655116Y-377494D01*
X657199Y-379323D01*
X659739Y-380847D01*
X662889Y-381914D01*
X666800Y-382320D01*
X671271Y-381457D01*
X675081Y-379018D01*
X677773Y-375056D01*
X678738Y-369620D01*
X677926Y-364337D01*
X675589Y-360578D01*
X672134Y-358394D01*
X667816Y-357682D01*
X664616Y-358190D01*
X661974Y-359460D01*
X662990Y-348030D01*
X676960Y-348030D01*
X676960Y-344474D01*
G37*
G36*
X681786Y-344474D02*
G01*
X693724Y-381812D01*
X698550Y-381812D01*
X710234Y-344474D01*
X706170Y-344474D01*
X696264Y-377240D01*
X696010Y-377240D01*
X686104Y-344474D01*
G37*
G36*
X137922Y-293827D02*
G01*
X130098Y-294944D01*
X124358Y-298196D01*
X120802Y-303580D01*
X119633Y-311099D01*
X119633Y-316179D01*
X122935Y-316179D01*
X122935Y-311607D01*
X123952Y-305663D01*
X126898Y-301447D01*
X131572Y-298958D01*
X137922Y-298145D01*
X144373Y-298958D01*
X149148Y-301447D01*
X152095Y-305663D01*
X153162Y-311607D01*
X153162Y-316179D01*
X119633Y-316179D01*
X119633Y-320243D01*
X156718Y-320243D01*
X156718Y-311099D01*
X155397Y-303580D01*
X151688Y-298196D01*
X145745Y-294944D01*
G37*
G36*
X119633Y-330657D02*
G01*
X119633Y-334721D01*
X142595Y-334670D01*
X151130Y-334213D01*
X151130Y-334467D01*
X143510Y-338277D01*
X119633Y-352501D01*
X119633Y-356819D01*
X156718Y-356819D01*
X156718Y-352755D01*
X133502Y-352806D01*
X124968Y-353263D01*
X124968Y-353009D01*
X132588Y-348945D01*
X156718Y-334975D01*
X156718Y-330657D01*
G37*
G36*
X137668Y-365709D02*
G01*
X137668Y-377647D01*
X141224Y-377647D01*
X141224Y-369773D01*
X151384Y-369773D01*
X152349Y-371094D01*
X153060Y-372719D01*
X153517Y-374599D01*
X153670Y-376631D01*
X152552Y-382066D01*
X149402Y-386029D01*
X144424Y-388518D01*
X137922Y-389331D01*
X131572Y-388467D01*
X126746Y-385927D01*
X123698Y-381965D01*
X122682Y-376631D01*
X122935Y-374040D01*
X123698Y-371906D01*
X124815Y-370128D01*
X126237Y-368503D01*
X123444Y-366217D01*
X121767Y-368046D01*
X120294Y-370433D01*
X119227Y-373380D01*
X118872Y-376885D01*
X120192Y-383590D01*
X124002Y-388924D01*
X130098Y-392430D01*
X138176Y-393649D01*
X146202Y-392430D01*
X152298Y-389026D01*
X156108Y-383794D01*
X157480Y-377139D01*
X157124Y-373583D01*
X156260Y-370484D01*
X154889Y-367893D01*
X153162Y-365709D01*
G37*
G36*
X497179Y-335483D02*
G01*
X497179Y-370027D01*
X501497Y-370027D01*
X501497Y-355295D01*
X503377Y-353517D01*
X505307Y-352247D01*
X507187Y-351485D01*
X509117Y-351231D01*
X512572Y-352044D01*
X514908Y-354177D01*
X516280Y-357479D01*
X516737Y-361645D01*
X516077Y-366471D01*
X514350Y-370027D01*
X511708Y-372313D01*
X508355Y-373075D01*
X506882Y-372922D01*
X505206Y-372414D01*
X503377Y-371500D01*
X501497Y-370027D01*
X497179Y-370027D01*
X497179Y-375869D01*
X500481Y-375869D01*
X500989Y-373075D01*
X502970Y-374497D01*
X505053Y-375615D01*
X507136Y-376377D01*
X509117Y-376631D01*
X513638Y-375615D01*
X517448Y-372668D01*
X520090Y-367944D01*
X521055Y-361645D01*
X520344Y-355955D01*
X518261Y-351536D01*
X514858Y-348691D01*
X510133Y-347675D01*
X507695Y-348030D01*
X505409Y-348843D01*
X503224Y-350164D01*
X501243Y-351739D01*
X501497Y-346659D01*
X501497Y-335483D01*
G37*
G36*
X588873Y-336753D02*
G01*
X587654Y-337007D01*
X586689Y-337616D01*
X586028Y-338480D01*
X585825Y-339547D01*
X586028Y-340766D01*
X586689Y-341731D01*
X587654Y-342392D01*
X588873Y-342595D01*
X589940Y-342392D01*
X590854Y-341731D01*
X591464Y-340766D01*
X591667Y-339547D01*
X591464Y-338480D01*
X590854Y-337616D01*
X589940Y-337007D01*
G37*
G36*
X396595Y-338785D02*
G01*
X396595Y-342087D01*
X406755Y-342087D01*
X410768Y-342392D01*
X413613Y-343458D01*
X415340Y-345338D01*
X415899Y-348183D01*
X415391Y-350926D01*
X413766Y-352907D01*
X410870Y-354126D01*
X406501Y-354533D01*
X400913Y-354533D01*
X400913Y-342087D01*
X396595Y-342087D01*
X396595Y-357835D01*
X407517Y-357835D01*
X412089Y-358292D01*
X415442Y-359613D01*
X417474Y-361797D01*
X418185Y-364947D01*
X417423Y-368300D01*
X415340Y-370687D01*
X411988Y-372110D01*
X407517Y-372567D01*
X400913Y-372567D01*
X400913Y-357835D01*
X396595Y-357835D01*
X396595Y-375869D01*
X408279Y-375869D01*
X413969Y-375208D01*
X418388Y-373176D01*
X421233Y-369773D01*
X422249Y-364947D01*
X421690Y-361543D01*
X420166Y-358902D01*
X417728Y-357073D01*
X414629Y-356057D01*
X414629Y-355803D01*
X417017Y-354634D01*
X418744Y-352806D01*
X419862Y-350418D01*
X420217Y-347675D01*
X419303Y-343611D01*
X416712Y-340868D01*
X412699Y-339293D01*
X407517Y-338785D01*
G37*
G36*
X478891Y-347675D02*
G01*
X476453Y-348030D01*
X474167Y-348945D01*
X470001Y-351739D01*
X469747Y-351739D01*
X469493Y-348437D01*
X465937Y-348437D01*
X465937Y-370027D01*
X470255Y-370027D01*
X470255Y-355295D01*
X472287Y-353517D01*
X474167Y-352247D01*
X475996Y-351485D01*
X477875Y-351231D01*
X481330Y-352044D01*
X483666Y-354177D01*
X485038Y-357479D01*
X485495Y-361645D01*
X484835Y-366471D01*
X483108Y-370027D01*
X480466Y-372313D01*
X477113Y-373075D01*
X475640Y-372922D01*
X473964Y-372414D01*
X472135Y-371500D01*
X470255Y-370027D01*
X465937Y-370027D01*
X465937Y-387553D01*
X470255Y-387553D01*
X470255Y-378155D01*
X470001Y-373329D01*
X471932Y-374700D01*
X473913Y-375767D01*
X475945Y-376428D01*
X477875Y-376631D01*
X482396Y-375615D01*
X486206Y-372668D01*
X488848Y-367944D01*
X489813Y-361645D01*
X489102Y-355955D01*
X487019Y-351536D01*
X483616Y-348691D01*
G37*
G36*
X537819Y-347675D02*
G01*
X534517Y-348030D01*
X531622Y-348894D01*
X527151Y-351231D01*
X528675Y-354279D01*
X530352Y-353161D01*
X532384Y-352196D01*
X534619Y-351536D01*
X537057Y-351231D01*
X540004Y-351840D01*
X541782Y-353517D01*
X542645Y-355854D01*
X542899Y-358597D01*
X535330Y-359918D01*
X529996Y-362000D01*
X526897Y-364896D01*
X525948Y-368503D01*
X529945Y-368503D01*
X530606Y-365963D01*
X532790Y-363931D01*
X536803Y-362407D01*
X542899Y-361391D01*
X542899Y-369265D01*
X540867Y-370941D01*
X538937Y-372160D01*
X537057Y-372872D01*
X535025Y-373075D01*
X533044Y-372821D01*
X531418Y-372059D01*
X530352Y-370636D01*
X529945Y-368503D01*
X525948Y-368503D01*
X526491Y-372160D01*
X528218Y-374599D01*
X530707Y-376123D01*
X533755Y-376631D01*
X536346Y-376326D01*
X538734Y-375462D01*
X541020Y-374192D01*
X543153Y-372567D01*
X543661Y-375869D01*
X546963Y-375869D01*
X546963Y-358851D01*
X546455Y-354330D01*
X544880Y-350824D01*
X542036Y-348488D01*
G37*
G36*
X569315Y-347675D02*
G01*
X566623Y-348081D01*
X564235Y-349148D01*
X562000Y-350672D01*
X559917Y-352501D01*
X559409Y-348437D01*
X556107Y-348437D01*
X556107Y-375869D01*
X560171Y-375869D01*
X560171Y-355803D01*
X562152Y-353822D01*
X564032Y-352399D01*
X565912Y-351536D01*
X568045Y-351231D01*
X570484Y-351739D01*
X572160Y-353161D01*
X573074Y-355549D01*
X573379Y-358851D01*
X573379Y-375869D01*
X577697Y-375869D01*
X577697Y-358343D01*
X577189Y-353822D01*
X575614Y-350469D01*
X572973Y-348386D01*
G37*
G36*
X424535Y-348437D02*
G01*
X435711Y-376123D01*
X433832Y-380644D01*
X432460Y-382574D01*
X430682Y-383794D01*
X428599Y-384251D01*
X426567Y-383997D01*
X425551Y-387299D01*
X428853Y-387807D01*
X432409Y-387096D01*
X435152Y-385114D01*
X437184Y-382168D01*
X438759Y-378409D01*
X449173Y-348437D01*
X445109Y-348437D01*
X437743Y-371805D01*
X437489Y-371805D01*
X428853Y-348437D01*
G37*
G36*
X586841Y-348437D02*
G01*
X586841Y-379425D01*
X586689Y-381711D01*
X586130Y-383489D01*
X585012Y-384606D01*
X583285Y-385013D01*
X581812Y-384860D01*
X580745Y-384505D01*
X579729Y-387553D01*
X581558Y-388162D01*
X583793Y-388315D01*
X587044Y-387705D01*
X589229Y-385978D01*
X590499Y-383184D01*
X590905Y-379425D01*
X590905Y-348437D01*
G37*
G36*
X497179Y9499D02*
G01*
X497179Y-25044D01*
X501497Y-25044D01*
X501497Y-10312D01*
X503377Y-8483D01*
X505307Y-7213D01*
X507187Y-6502D01*
X509117Y-6248D01*
X512572Y-7010D01*
X514908Y-9194D01*
X516280Y-12446D01*
X516737Y-16662D01*
X516077Y-21437D01*
X514350Y-25044D01*
X511708Y-27330D01*
X508355Y-28092D01*
X506882Y-27940D01*
X505206Y-27432D01*
X503377Y-26466D01*
X501497Y-25044D01*
X497179Y-25044D01*
X497179Y-30886D01*
X500481Y-30886D01*
X500989Y-28092D01*
X502970Y-29514D01*
X505053Y-30632D01*
X507136Y-31394D01*
X509117Y-31648D01*
X513638Y-30632D01*
X517448Y-27686D01*
X520090Y-22961D01*
X521055Y-16662D01*
X520344Y-10922D01*
X518261Y-6553D01*
X514858Y-3708D01*
X510133Y-2692D01*
X507695Y-2997D01*
X505409Y-3860D01*
X503224Y-5181D01*
X501243Y-6756D01*
X501497Y-1676D01*
X501497Y9499D01*
G37*
G36*
X588873Y8229D02*
G01*
X587654Y8026D01*
X586689Y7416D01*
X586028Y6502D01*
X585825Y5435D01*
X586028Y4216D01*
X586689Y3251D01*
X587654Y2590D01*
X588873Y2387D01*
X589940Y2590D01*
X590854Y3251D01*
X591464Y4216D01*
X591667Y5435D01*
X591464Y6502D01*
X590854Y7416D01*
X589940Y8026D01*
G37*
G36*
X396595Y6197D02*
G01*
X396595Y2895D01*
X406755Y2895D01*
X410768Y2590D01*
X413613Y1574D01*
X415340Y-304D01*
X415899Y-3200D01*
X415391Y-5892D01*
X413766Y-7924D01*
X410870Y-9144D01*
X406501Y-9550D01*
X400913Y-9550D01*
X400913Y2895D01*
X396595Y2895D01*
X396595Y-12852D01*
X407517Y-12852D01*
X412089Y-13309D01*
X415442Y-14579D01*
X417474Y-16814D01*
X418185Y-19964D01*
X417423Y-23317D01*
X415340Y-25654D01*
X411988Y-27127D01*
X407517Y-27584D01*
X400913Y-27584D01*
X400913Y-12852D01*
X396595Y-12852D01*
X396595Y-30886D01*
X408279Y-30886D01*
X413969Y-30226D01*
X418388Y-28194D01*
X421233Y-24790D01*
X422249Y-19964D01*
X421690Y-16560D01*
X420166Y-13919D01*
X417728Y-12090D01*
X414629Y-11074D01*
X414629Y-10820D01*
X417017Y-9652D01*
X418744Y-7823D01*
X419862Y-5435D01*
X420217Y-2692D01*
X419303Y1371D01*
X416712Y4114D01*
X412699Y5689D01*
X407517Y6197D01*
G37*
G36*
X478891Y-2692D02*
G01*
X476453Y-3048D01*
X474167Y-3962D01*
X470001Y-6756D01*
X469747Y-6756D01*
X469493Y-3454D01*
X465937Y-3454D01*
X465937Y-25044D01*
X470255Y-25044D01*
X470255Y-10312D01*
X472236Y-8483D01*
X474167Y-7213D01*
X475996Y-6502D01*
X477875Y-6248D01*
X481330Y-7010D01*
X483666Y-9194D01*
X485038Y-12446D01*
X485495Y-16662D01*
X484885Y-21437D01*
X483108Y-25044D01*
X480466Y-27330D01*
X477113Y-28092D01*
X475640Y-27940D01*
X473964Y-27432D01*
X472135Y-26466D01*
X470255Y-25044D01*
X465937Y-25044D01*
X465937Y-42570D01*
X470255Y-42570D01*
X470255Y-33172D01*
X470001Y-28346D01*
X471932Y-29718D01*
X473913Y-30784D01*
X475945Y-31445D01*
X477875Y-31648D01*
X482396Y-30632D01*
X486206Y-27686D01*
X488848Y-22961D01*
X489813Y-16662D01*
X489102Y-10922D01*
X487019Y-6553D01*
X483616Y-3708D01*
G37*
G36*
X537819Y-2692D02*
G01*
X534517Y-3048D01*
X531622Y-3911D01*
X527151Y-6248D01*
X528675Y-9296D01*
X530352Y-8178D01*
X532384Y-7213D01*
X534619Y-6502D01*
X537057Y-6248D01*
X540004Y-6858D01*
X541782Y-8483D01*
X542645Y-10871D01*
X542899Y-13614D01*
X535279Y-14935D01*
X529996Y-16967D01*
X526897Y-19913D01*
X525948Y-23520D01*
X529945Y-23520D01*
X530606Y-20929D01*
X532790Y-18948D01*
X536803Y-17424D01*
X542899Y-16408D01*
X542899Y-24282D01*
X540867Y-25958D01*
X538937Y-27127D01*
X537057Y-27838D01*
X535025Y-28092D01*
X533044Y-27838D01*
X531418Y-27025D01*
X530352Y-25654D01*
X529945Y-23520D01*
X525948Y-23520D01*
X526491Y-27178D01*
X528167Y-29616D01*
X530707Y-31140D01*
X533755Y-31648D01*
X536346Y-31343D01*
X538734Y-30480D01*
X541020Y-29159D01*
X543153Y-27584D01*
X543661Y-30886D01*
X546963Y-30886D01*
X546963Y-13868D01*
X546455Y-9347D01*
X544880Y-5791D01*
X542036Y-3505D01*
G37*
G36*
X569315Y-2692D02*
G01*
X566623Y-3098D01*
X564235Y-4165D01*
X562000Y-5689D01*
X559917Y-7518D01*
X559409Y-3454D01*
X556107Y-3454D01*
X556107Y-30886D01*
X560171Y-30886D01*
X560171Y-10820D01*
X562152Y-8839D01*
X563981Y-7416D01*
X565912Y-6553D01*
X568045Y-6248D01*
X570484Y-6705D01*
X572109Y-8178D01*
X573074Y-10515D01*
X573379Y-13868D01*
X573379Y-30886D01*
X577697Y-30886D01*
X577697Y-13360D01*
X577189Y-8788D01*
X575614Y-5435D01*
X572973Y-3403D01*
G37*
G36*
X424535Y-3454D02*
G01*
X435711Y-31140D01*
X433832Y-35610D01*
X432409Y-37541D01*
X430682Y-38811D01*
X428040Y-39268D01*
X426567Y-39014D01*
X425551Y-42316D01*
X428853Y-42824D01*
X432409Y-42113D01*
X435152Y-40132D01*
X437184Y-37134D01*
X438759Y-33426D01*
X449173Y-3454D01*
X445109Y-3454D01*
X437743Y-26822D01*
X437489Y-26822D01*
X428853Y-3454D01*
G37*
G36*
X586841Y-3454D02*
G01*
X586841Y-34442D01*
X586689Y-36728D01*
X586130Y-38455D01*
X585012Y-39624D01*
X583285Y-40030D01*
X581812Y-39878D01*
X580745Y-39522D01*
X579729Y-42570D01*
X581558Y-43129D01*
X583793Y-43332D01*
X587044Y-42722D01*
X589229Y-40995D01*
X590499Y-38201D01*
X590905Y-34442D01*
X590905Y-3454D01*
G37*
G36*
X137922Y51155D02*
G01*
X130098Y50088D01*
X124358Y46786D01*
X120802Y41402D01*
X119633Y33883D01*
X119633Y28803D01*
X122885Y28803D01*
X122885Y33375D01*
X123952Y39319D01*
X126898Y43535D01*
X131572Y46024D01*
X137922Y46837D01*
X144373Y46024D01*
X149148Y43535D01*
X152095Y39319D01*
X153111Y33375D01*
X153111Y28803D01*
X119633Y28803D01*
X119633Y24739D01*
X156718Y24739D01*
X156718Y33883D01*
X155397Y41402D01*
X151688Y46786D01*
X145745Y50088D01*
G37*
G36*
X119633Y14325D02*
G01*
X119633Y10261D01*
X142595Y10312D01*
X151130Y10769D01*
X151130Y10515D01*
X143510Y6705D01*
X119633Y-7518D01*
X119633Y-11836D01*
X156718Y-11836D01*
X156718Y-7772D01*
X133502Y-7823D01*
X124968Y-8280D01*
X124968Y-8026D01*
X132588Y-3962D01*
X156718Y10007D01*
X156718Y14325D01*
G37*
G36*
X137668Y-20726D02*
G01*
X137668Y-32664D01*
X141224Y-32664D01*
X141224Y-24790D01*
X151384Y-24790D01*
X152349Y-26111D01*
X153060Y-27736D01*
X153517Y-29616D01*
X153619Y-31648D01*
X152552Y-37084D01*
X149402Y-41046D01*
X144424Y-43535D01*
X137922Y-44348D01*
X131572Y-43484D01*
X126746Y-40944D01*
X123698Y-36982D01*
X122682Y-31648D01*
X122935Y-29057D01*
X123698Y-26924D01*
X124815Y-25095D01*
X126237Y-23520D01*
X123393Y-21234D01*
X121716Y-23063D01*
X120294Y-25450D01*
X119227Y-28397D01*
X118872Y-31902D01*
X120192Y-38608D01*
X124002Y-43891D01*
X130098Y-47396D01*
X138176Y-48666D01*
X146202Y-47447D01*
X152298Y-44043D01*
X156108Y-38811D01*
X157480Y-32156D01*
X157124Y-28600D01*
X156260Y-25501D01*
X154889Y-22860D01*
X153111Y-20726D01*
G37*
G36*
X659180Y508D02*
G01*
X658164Y-16764D01*
X660450Y-18288D01*
X663448Y-16560D01*
X665022Y-16154D01*
X666800Y-16002D01*
X670052Y-16611D01*
X672541Y-18338D01*
X674116Y-21132D01*
X674674Y-24892D01*
X674014Y-28651D01*
X672236Y-31546D01*
X669645Y-33375D01*
X666546Y-34036D01*
X663498Y-33680D01*
X661009Y-32715D01*
X658977Y-31343D01*
X657148Y-29718D01*
X655116Y-32512D01*
X657199Y-34340D01*
X659739Y-35864D01*
X662889Y-36931D01*
X666800Y-37338D01*
X671220Y-36474D01*
X675081Y-34036D01*
X677722Y-30022D01*
X678738Y-24638D01*
X677875Y-19354D01*
X675589Y-15595D01*
X672084Y-13411D01*
X667816Y-12700D01*
X666089Y-12801D01*
X663295Y-13766D01*
X661974Y-14478D01*
X662990Y-3048D01*
X676960Y-3048D01*
X676960Y508D01*
G37*
G36*
X681786Y508D02*
G01*
X693724Y-36830D01*
X698550Y-36830D01*
X710234Y508D01*
X706170Y508D01*
X696264Y-32258D01*
X696010Y-32258D01*
X686104Y508D01*
G37*
G36*
X497179Y354482D02*
G01*
X497179Y319938D01*
X501497Y319938D01*
X501497Y334670D01*
X503428Y336499D01*
X505307Y337769D01*
X507187Y338531D01*
X509117Y338734D01*
X512572Y337972D01*
X514908Y335838D01*
X516280Y332536D01*
X516737Y328320D01*
X516128Y323545D01*
X514350Y319938D01*
X511708Y317703D01*
X508355Y316890D01*
X506882Y317042D01*
X505206Y317550D01*
X503377Y318516D01*
X501497Y319938D01*
X497179Y319938D01*
X497179Y314096D01*
X500481Y314096D01*
X500989Y316890D01*
X502970Y315468D01*
X505053Y314350D01*
X507136Y313639D01*
X509117Y313334D01*
X513638Y314350D01*
X517448Y317347D01*
X520090Y322021D01*
X521055Y328320D01*
X520344Y334060D01*
X518261Y338480D01*
X514858Y341274D01*
X510133Y342290D01*
X507695Y341985D01*
X505409Y341122D01*
X503224Y339852D01*
X501243Y338226D01*
X501497Y343306D01*
X501497Y354482D01*
G37*
G36*
X588873Y353212D02*
G01*
X587654Y353009D01*
X586689Y352399D01*
X586028Y351536D01*
X585825Y350418D01*
X586028Y349199D01*
X586689Y348234D01*
X587654Y347624D01*
X588873Y347370D01*
X589940Y347624D01*
X590854Y348234D01*
X591464Y349199D01*
X591667Y350418D01*
X591464Y351536D01*
X590854Y352399D01*
X589940Y353009D01*
G37*
G36*
X396595Y351180D02*
G01*
X396595Y347878D01*
X406755Y347878D01*
X410768Y347573D01*
X413613Y346557D01*
X415340Y344678D01*
X415899Y341782D01*
X415391Y339090D01*
X413766Y337108D01*
X410870Y335889D01*
X406501Y335432D01*
X400913Y335432D01*
X400913Y347878D01*
X396595Y347878D01*
X396595Y332130D01*
X407517Y332130D01*
X412089Y331724D01*
X415442Y330403D01*
X417474Y328168D01*
X418185Y325018D01*
X417423Y321716D01*
X415340Y319328D01*
X411988Y317906D01*
X407517Y317398D01*
X400913Y317398D01*
X400913Y332130D01*
X396595Y332130D01*
X396595Y314096D01*
X408279Y314096D01*
X414020Y314807D01*
X418388Y316788D01*
X421233Y320243D01*
X422249Y325018D01*
X421690Y328472D01*
X420166Y331114D01*
X417728Y332943D01*
X414629Y333908D01*
X414629Y334162D01*
X417017Y335330D01*
X418744Y337210D01*
X419862Y339547D01*
X420217Y342290D01*
X419303Y346354D01*
X416712Y349148D01*
X412699Y350723D01*
X407517Y351180D01*
G37*
G36*
X478891Y342290D02*
G01*
X476453Y341934D01*
X474167Y341020D01*
X471982Y339750D01*
X470001Y338226D01*
X469747Y338226D01*
X469493Y341528D01*
X465937Y341528D01*
X465937Y319938D01*
X470255Y319938D01*
X470255Y334670D01*
X472287Y336499D01*
X474167Y337769D01*
X475996Y338531D01*
X477875Y338734D01*
X481330Y337972D01*
X483666Y335838D01*
X485038Y332536D01*
X485495Y328320D01*
X484885Y323545D01*
X483108Y319938D01*
X480466Y317703D01*
X477113Y316890D01*
X475640Y317042D01*
X473964Y317550D01*
X472135Y318516D01*
X470255Y319938D01*
X465937Y319938D01*
X465937Y302412D01*
X470255Y302412D01*
X470255Y311810D01*
X470001Y316636D01*
X471932Y315264D01*
X473964Y314248D01*
X475945Y313588D01*
X477875Y313334D01*
X482396Y314350D01*
X486206Y317347D01*
X488848Y322021D01*
X489813Y328320D01*
X489102Y334060D01*
X487019Y338480D01*
X483616Y341274D01*
G37*
G36*
X537819Y342290D02*
G01*
X534517Y341985D01*
X531622Y341122D01*
X529132Y339953D01*
X527151Y338734D01*
X528675Y335686D01*
X530352Y336804D01*
X532384Y337820D01*
X534619Y338480D01*
X537057Y338734D01*
X540004Y338124D01*
X541782Y336499D01*
X542645Y334162D01*
X542899Y331368D01*
X535330Y330098D01*
X529996Y328015D01*
X526897Y325120D01*
X525947Y321462D01*
X529945Y321462D01*
X530606Y324053D01*
X532790Y326085D01*
X536803Y327609D01*
X542899Y328574D01*
X542899Y320700D01*
X540867Y319024D01*
X538937Y317855D01*
X537057Y317144D01*
X535025Y316890D01*
X533044Y317144D01*
X531418Y317957D01*
X530352Y319379D01*
X529945Y321462D01*
X525947Y321462D01*
X526491Y317855D01*
X528218Y315366D01*
X530707Y313893D01*
X533755Y313334D01*
X536346Y313690D01*
X538734Y314502D01*
X541020Y315823D01*
X543153Y317398D01*
X543661Y314096D01*
X546963Y314096D01*
X546963Y331114D01*
X546455Y335686D01*
X544880Y339191D01*
X542036Y341477D01*
G37*
G36*
X569315Y342290D02*
G01*
X566623Y341884D01*
X564235Y340868D01*
X559917Y337464D01*
X559409Y341528D01*
X556107Y341528D01*
X556107Y314096D01*
X560171Y314096D01*
X560171Y334162D01*
X562152Y336194D01*
X564032Y337616D01*
X565912Y338480D01*
X568045Y338734D01*
X570484Y338277D01*
X572160Y336854D01*
X573074Y334467D01*
X573379Y331114D01*
X573379Y314096D01*
X577697Y314096D01*
X577697Y331622D01*
X577189Y336194D01*
X575614Y339547D01*
X572973Y341579D01*
G37*
G36*
X424535Y341528D02*
G01*
X435711Y313842D01*
X433832Y309372D01*
X432460Y307441D01*
X430682Y306171D01*
X428040Y305714D01*
X426567Y305968D01*
X425551Y302666D01*
X428853Y302158D01*
X432409Y302869D01*
X435152Y304850D01*
X437235Y307848D01*
X438759Y311556D01*
X449173Y341528D01*
X445109Y341528D01*
X437743Y318160D01*
X437489Y318160D01*
X428853Y341528D01*
G37*
G36*
X586841Y341528D02*
G01*
X586841Y310540D01*
X586689Y308305D01*
X586130Y306527D01*
X585012Y305358D01*
X583285Y304952D01*
X581812Y305104D01*
X580745Y305460D01*
X579729Y302412D01*
X581558Y301853D01*
X583793Y301650D01*
X587044Y302260D01*
X589229Y304038D01*
X590499Y306832D01*
X590905Y310540D01*
X590905Y341528D01*
G37*
G36*
X137922Y396138D02*
G01*
X130098Y395071D01*
X124358Y391820D01*
X120802Y386384D01*
X119633Y378866D01*
X119633Y373786D01*
X122935Y373786D01*
X122935Y378358D01*
X123952Y384352D01*
X126898Y388518D01*
X131622Y391007D01*
X137922Y391820D01*
X144373Y391007D01*
X149148Y388518D01*
X152095Y384352D01*
X153162Y378358D01*
X153162Y373786D01*
X119633Y373786D01*
X119633Y369722D01*
X156718Y369722D01*
X156718Y378866D01*
X155397Y386384D01*
X151688Y391820D01*
X145796Y395071D01*
G37*
G36*
X119633Y359308D02*
G01*
X119633Y355244D01*
X142595Y355295D01*
X151130Y355752D01*
X151130Y355498D01*
X143510Y351688D01*
X119633Y337464D01*
X119633Y333146D01*
X156718Y333146D01*
X156718Y337210D01*
X133502Y337159D01*
X124968Y336702D01*
X124968Y336956D01*
X132588Y341020D01*
X156718Y354990D01*
X156718Y359308D01*
G37*
G36*
X137668Y324256D02*
G01*
X137668Y312318D01*
X141224Y312318D01*
X141224Y320192D01*
X151384Y320192D01*
X152349Y318871D01*
X153060Y317246D01*
X153517Y315366D01*
X153670Y313334D01*
X152552Y307949D01*
X149402Y303936D01*
X144424Y301498D01*
X137922Y300634D01*
X131572Y301548D01*
X126746Y304038D01*
X123698Y308051D01*
X122682Y313334D01*
X122935Y315925D01*
X123698Y318058D01*
X124815Y319887D01*
X126237Y321462D01*
X123444Y323748D01*
X121767Y321970D01*
X120294Y319582D01*
X119227Y316636D01*
X118872Y313080D01*
X120192Y306425D01*
X124053Y301091D01*
X130098Y297586D01*
X138176Y296316D01*
X146202Y297535D01*
X152298Y300939D01*
X156108Y306171D01*
X157480Y312826D01*
X157124Y316433D01*
X156260Y319532D01*
X154889Y322122D01*
X153162Y324256D01*
G37*
G36*
X659231Y345541D02*
G01*
X658215Y328269D01*
X660450Y326745D01*
X663448Y328422D01*
X665073Y328879D01*
X666800Y329031D01*
X670102Y328422D01*
X672592Y326644D01*
X674166Y323850D01*
X674674Y320141D01*
X674014Y316331D01*
X672236Y313436D01*
X669645Y311607D01*
X666546Y310997D01*
X663498Y311353D01*
X661009Y312267D01*
X658977Y313639D01*
X657199Y315315D01*
X655116Y312521D01*
X657199Y310692D01*
X659739Y309118D01*
X662889Y308051D01*
X666800Y307695D01*
X671271Y308508D01*
X675081Y310997D01*
X677773Y314960D01*
X678738Y320395D01*
X677926Y325678D01*
X675589Y329387D01*
X672134Y331571D01*
X667816Y332333D01*
X664616Y331825D01*
X661974Y330555D01*
X663041Y341985D01*
X677011Y341985D01*
X677011Y345541D01*
G37*
G36*
X681786Y345541D02*
G01*
X693724Y308203D01*
X698550Y308203D01*
X710234Y345541D01*
X706170Y345541D01*
X696315Y312775D01*
X696010Y312775D01*
X686104Y345541D01*
G37*
D10*
X1060655Y430217D02*
G01*
X1016967Y430217D01*
X1008585Y433011D01*
X1006045Y435551D01*
X1003251Y441139D01*
X1003251Y446473D01*
X1006045Y452061D01*
X1008585Y454855D01*
X1016967Y457395D01*
X1022301Y457395D01*
X1060655Y412183D02*
G01*
X1003251Y412183D01*
X1003251Y412183D02*
G01*
X1003251Y379417D01*
X1046939Y320489D02*
G01*
X1052273Y323283D01*
X1057861Y328871D01*
X1060655Y334205D01*
X1060655Y345127D01*
X1057861Y350461D01*
X1052273Y356049D01*
X1046939Y358843D01*
X1038811Y361383D01*
X1025095Y361383D01*
X1016967Y358843D01*
X1011379Y356049D01*
X1006045Y350461D01*
X1003251Y345127D01*
X1003251Y334205D01*
X1006045Y328871D01*
X1011379Y323283D01*
X1016967Y320489D01*
X1060655Y275277D02*
G01*
X1016967Y275277D01*
X1008585Y278071D01*
X1006045Y280865D01*
X1003251Y286199D01*
X1003251Y291787D01*
X1006045Y297121D01*
X1008585Y299915D01*
X1016967Y302709D01*
X1022301Y302709D01*
X1060655Y257243D02*
G01*
X1003251Y257243D01*
X1003251Y257243D02*
G01*
X1003251Y224477D01*
X1046939Y165803D02*
G01*
X1052273Y168343D01*
X1057861Y173931D01*
X1060655Y179265D01*
X1060655Y190187D01*
X1057861Y195775D01*
X1052273Y201109D01*
X1046939Y203903D01*
X1038811Y206697D01*
X1025095Y206697D01*
X1016967Y203903D01*
X1011379Y201109D01*
X1006045Y195775D01*
X1003251Y190187D01*
X1003251Y179265D01*
X1006045Y173931D01*
X1011379Y168343D01*
X1016967Y165803D01*
X1060655Y120337D02*
G01*
X1016967Y120337D01*
X1008585Y123131D01*
X1006045Y125925D01*
X1003251Y131259D01*
X1003251Y136847D01*
X1006045Y142181D01*
X1008585Y144975D01*
X1016967Y147769D01*
X1022301Y147769D01*
X1060655Y102303D02*
G01*
X1003251Y102303D01*
X1003251Y102303D02*
G01*
X1003251Y69791D01*
X1046939Y10863D02*
G01*
X1052273Y13403D01*
X1057861Y18991D01*
X1060655Y24325D01*
X1060655Y35247D01*
X1057861Y40835D01*
X1052273Y46169D01*
X1046939Y48963D01*
X1038811Y51757D01*
X1025095Y51757D01*
X1016967Y48963D01*
X1011379Y46169D01*
X1006045Y40835D01*
X1003251Y35247D01*
X1003251Y24325D01*
X1006045Y18991D01*
X1011379Y13403D01*
X1016967Y10863D01*
X1060655Y-34602D02*
G01*
X1016967Y-34602D01*
X1008585Y-31808D01*
X1006045Y-29014D01*
X1003251Y-23680D01*
X1003251Y-18092D01*
X1006045Y-12758D01*
X1008585Y-9964D01*
X1016967Y-7170D01*
X1022301Y-7170D01*
X1060655Y-52382D02*
G01*
X1003251Y-52382D01*
X1003251Y-52382D02*
G01*
X1003251Y-85148D01*
X1046939Y-144076D02*
G01*
X1052273Y-141536D01*
X1057861Y-135948D01*
X1060655Y-130614D01*
X1060655Y-119692D01*
X1057861Y-114104D01*
X1052273Y-108770D01*
X1046939Y-105976D01*
X1038811Y-103182D01*
X1025095Y-103182D01*
X1016967Y-105976D01*
X1011379Y-108770D01*
X1006045Y-114104D01*
X1003251Y-119692D01*
X1003251Y-130614D01*
X1006045Y-135948D01*
X1011379Y-141536D01*
X1016967Y-144076D01*
D11*
X312541Y-307327D02*
G01*
X312541Y-326377D01*
X312541Y-317233D02*
G01*
X315335Y-314693D01*
X317113Y-313677D01*
X319653Y-313677D01*
X321685Y-314693D01*
X322447Y-317233D01*
X322447Y-326377D01*
X331337Y-307327D02*
G01*
X331337Y-322821D01*
X332099Y-325615D01*
X333877Y-326377D01*
X335655Y-326377D01*
X328543Y-313677D02*
G01*
X334893Y-313677D01*
X344545Y-307327D02*
G01*
X344545Y-322821D01*
X345307Y-325615D01*
X347339Y-326377D01*
X349117Y-326377D01*
X341751Y-313677D02*
G01*
X348101Y-313677D01*
X354959Y-313677D02*
G01*
X354959Y-332727D01*
X354959Y-316471D02*
G01*
X356737Y-314693D01*
X358769Y-313677D01*
X361309Y-313677D01*
X363341Y-314693D01*
X365119Y-316471D01*
X365881Y-319011D01*
X365881Y-321043D01*
X365119Y-323583D01*
X363341Y-325615D01*
X361309Y-326377D01*
X358769Y-326377D01*
X356737Y-325615D01*
X354959Y-323583D01*
X381883Y-316471D02*
G01*
X381121Y-314693D01*
X378327Y-313677D01*
X375533Y-313677D01*
X372739Y-314693D01*
X371977Y-316471D01*
X372739Y-318249D01*
X374771Y-319011D01*
X379343Y-320027D01*
X381121Y-321043D01*
X381883Y-322821D01*
X381883Y-323583D01*
X381121Y-325615D01*
X378327Y-326377D01*
X375533Y-326377D01*
X372739Y-325615D01*
X371977Y-323583D01*
X388741Y-315455D02*
G01*
X387979Y-316471D01*
X388741Y-317233D01*
X389757Y-316471D01*
X388741Y-315455D01*
X388741Y-321805D02*
G01*
X387979Y-322821D01*
X388741Y-323583D01*
X389757Y-322821D01*
X388741Y-321805D01*
X412109Y-303771D02*
G01*
X395853Y-332727D01*
X434461Y-303771D02*
G01*
X418205Y-332727D01*
X440557Y-313677D02*
G01*
X440557Y-332727D01*
X440557Y-316471D02*
G01*
X442335Y-314693D01*
X444113Y-313677D01*
X446907Y-313677D01*
X448685Y-314693D01*
X450463Y-316471D01*
X451479Y-319011D01*
X451479Y-321043D01*
X450463Y-323583D01*
X448685Y-325615D01*
X446907Y-326377D01*
X444113Y-326377D01*
X442335Y-325615D01*
X440557Y-323583D01*
X457321Y-307327D02*
G01*
X457321Y-326377D01*
X457321Y-316471D02*
G01*
X459099Y-314693D01*
X461131Y-313677D01*
X463671Y-313677D01*
X465703Y-314693D01*
X467481Y-316471D01*
X468243Y-319011D01*
X468243Y-321043D01*
X467481Y-323583D01*
X465703Y-325615D01*
X463671Y-326377D01*
X461131Y-326377D01*
X459099Y-325615D01*
X457321Y-323583D01*
X485261Y-313677D02*
G01*
X485261Y-326377D01*
X485261Y-316471D02*
G01*
X483483Y-314693D01*
X481705Y-313677D01*
X478911Y-313677D01*
X477133Y-314693D01*
X475101Y-316471D01*
X474339Y-319011D01*
X474339Y-321043D01*
X475101Y-323583D01*
X477133Y-325615D01*
X478911Y-326377D01*
X481705Y-326377D01*
X483483Y-325615D01*
X485261Y-323583D01*
X491103Y-313677D02*
G01*
X491103Y-326377D01*
X491103Y-317233D02*
G01*
X493897Y-314693D01*
X495675Y-313677D01*
X498469Y-313677D01*
X500247Y-314693D01*
X501263Y-317233D01*
X501263Y-326377D01*
X510915Y-307327D02*
G01*
X511677Y-308343D01*
X512693Y-307327D01*
X511677Y-306311D01*
X510915Y-307327D01*
X511677Y-313677D02*
G01*
X511677Y-329171D01*
X510915Y-331965D01*
X509137Y-332727D01*
X507105Y-332727D01*
X518789Y-307327D02*
G01*
X519551Y-308343D01*
X520567Y-307327D01*
X519551Y-306311D01*
X518789Y-307327D01*
X519551Y-313677D02*
G01*
X519551Y-326377D01*
X526409Y-313677D02*
G01*
X526409Y-326377D01*
X526409Y-317233D02*
G01*
X529203Y-314693D01*
X530981Y-313677D01*
X533775Y-313677D01*
X535553Y-314693D01*
X536569Y-317233D01*
X536569Y-326377D01*
X543427Y-321805D02*
G01*
X542411Y-322821D01*
X543427Y-323583D01*
X544189Y-322821D01*
X543427Y-321805D01*
X560191Y-316471D02*
G01*
X559429Y-314693D01*
X556635Y-313677D01*
X553841Y-313677D01*
X551301Y-314693D01*
X550285Y-316471D01*
X551301Y-318249D01*
X553079Y-319011D01*
X557651Y-320027D01*
X559429Y-321043D01*
X560191Y-322821D01*
X560191Y-323583D01*
X559429Y-325615D01*
X556635Y-326377D01*
X553841Y-326377D01*
X551301Y-325615D01*
X550285Y-323583D01*
X566287Y-313677D02*
G01*
X566287Y-332727D01*
X566287Y-316471D02*
G01*
X568065Y-314693D01*
X569843Y-313677D01*
X572637Y-313677D01*
X574415Y-314693D01*
X576193Y-316471D01*
X577209Y-319011D01*
X577209Y-321043D01*
X576193Y-323583D01*
X574415Y-325615D01*
X572637Y-326377D01*
X569843Y-326377D01*
X568065Y-325615D01*
X566287Y-323583D01*
X594227Y-313677D02*
G01*
X594227Y-326377D01*
X594227Y-316471D02*
G01*
X592195Y-314693D01*
X590417Y-313677D01*
X587877Y-313677D01*
X585845Y-314693D01*
X584067Y-316471D01*
X583305Y-319011D01*
X583305Y-321043D01*
X584067Y-323583D01*
X585845Y-325615D01*
X587877Y-326377D01*
X590417Y-326377D01*
X592195Y-325615D01*
X594227Y-323583D01*
X610991Y-316471D02*
G01*
X609213Y-314693D01*
X607435Y-313677D01*
X604641Y-313677D01*
X602863Y-314693D01*
X601085Y-316471D01*
X600069Y-319011D01*
X600069Y-321043D01*
X601085Y-323583D01*
X602863Y-325615D01*
X604641Y-326377D01*
X607435Y-326377D01*
X609213Y-325615D01*
X610991Y-323583D01*
X617087Y-319011D02*
G01*
X628009Y-319011D01*
X628009Y-317233D01*
X626993Y-315455D01*
X626231Y-314693D01*
X624199Y-313677D01*
X621659Y-313677D01*
X619881Y-314693D01*
X617849Y-316471D01*
X617087Y-319011D01*
X617087Y-321043D01*
X617849Y-323583D01*
X619881Y-325615D01*
X621659Y-326377D01*
X624199Y-326377D01*
X626231Y-325615D01*
X628009Y-323583D01*
X312541Y37675D02*
G01*
X312541Y18625D01*
X312541Y27762D02*
G01*
X315335Y30302D01*
X317111Y31325D01*
X319659Y31325D01*
X321685Y30302D01*
X322445Y27762D01*
X322445Y18625D01*
X331335Y37675D02*
G01*
X331335Y22181D01*
X332099Y19385D01*
X333877Y18625D01*
X335653Y18625D01*
X328543Y31325D02*
G01*
X334893Y31325D01*
X344543Y37675D02*
G01*
X344543Y22181D01*
X345305Y19385D01*
X347337Y18625D01*
X349117Y18625D01*
X341751Y31325D02*
G01*
X348101Y31325D01*
X354959Y31325D02*
G01*
X354959Y12275D01*
X354959Y28531D02*
G01*
X356735Y30302D01*
X358769Y31325D01*
X361309Y31325D01*
X363341Y30302D01*
X365119Y28531D01*
X365879Y25979D01*
X365879Y23952D01*
X365119Y21412D01*
X363341Y19385D01*
X361309Y18625D01*
X358769Y18625D01*
X356735Y19385D01*
X354959Y21412D01*
X381883Y28531D02*
G01*
X381119Y30302D01*
X378327Y31325D01*
X375533Y31325D01*
X372737Y30302D01*
X371977Y28531D01*
X372737Y26751D01*
X374769Y25979D01*
X379343Y24975D01*
X381119Y23952D01*
X381883Y22181D01*
X381883Y21412D01*
X381119Y19385D01*
X378327Y18625D01*
X375533Y18625D01*
X372737Y19385D01*
X371977Y21412D01*
X388741Y29542D02*
G01*
X387977Y28531D01*
X388741Y27762D01*
X389755Y28531D01*
X388741Y29542D01*
X388741Y23192D02*
G01*
X387977Y22181D01*
X388741Y21412D01*
X389755Y22181D01*
X388741Y23192D01*
X412109Y41231D02*
G01*
X395859Y12275D01*
X434461Y41231D02*
G01*
X418203Y12275D01*
X440555Y31325D02*
G01*
X440555Y12275D01*
X440555Y28531D02*
G01*
X442335Y30302D01*
X444111Y31325D01*
X446905Y31325D01*
X448685Y30302D01*
X450461Y28531D01*
X451477Y25979D01*
X451477Y23952D01*
X450461Y21412D01*
X448685Y19385D01*
X446905Y18625D01*
X444111Y18625D01*
X442335Y19385D01*
X440555Y21412D01*
X457319Y37675D02*
G01*
X457319Y18625D01*
X457319Y28531D02*
G01*
X459099Y30302D01*
X461129Y31325D01*
X463669Y31325D01*
X465709Y30302D01*
X467479Y28531D01*
X468243Y25979D01*
X468243Y23952D01*
X467479Y21412D01*
X465709Y19385D01*
X463669Y18625D01*
X461129Y18625D01*
X459099Y19385D01*
X457319Y21412D01*
X485261Y31325D02*
G01*
X485261Y18625D01*
X485261Y28531D02*
G01*
X483483Y30302D01*
X481703Y31325D01*
X478911Y31325D01*
X477133Y30302D01*
X475101Y28531D01*
X474337Y25979D01*
X474337Y23952D01*
X475101Y21412D01*
X477133Y19385D01*
X478911Y18625D01*
X481703Y18625D01*
X483483Y19385D01*
X485261Y21412D01*
X491109Y31325D02*
G01*
X491109Y18625D01*
X491109Y27762D02*
G01*
X493895Y30302D01*
X495675Y31325D01*
X498469Y31325D01*
X500245Y30302D01*
X501261Y27762D01*
X501261Y18625D01*
X510918Y37675D02*
G01*
X511677Y36652D01*
X512693Y37675D01*
X511677Y38679D01*
X510918Y37675D01*
X511677Y31325D02*
G01*
X511677Y15831D01*
X510918Y13035D01*
X509135Y12275D01*
X507103Y12275D01*
X518787Y37675D02*
G01*
X519551Y36652D01*
X520567Y37675D01*
X519551Y38679D01*
X518787Y37675D01*
X519551Y31325D02*
G01*
X519551Y18625D01*
X526409Y31325D02*
G01*
X526409Y18625D01*
X526409Y27762D02*
G01*
X529209Y30302D01*
X530979Y31325D01*
X533775Y31325D01*
X535559Y30302D01*
X536569Y27762D01*
X536569Y18625D01*
X543427Y23192D02*
G01*
X542411Y22181D01*
X543427Y21412D01*
X544187Y22181D01*
X543427Y23192D01*
X560191Y28531D02*
G01*
X559427Y30302D01*
X556635Y31325D01*
X553841Y31325D01*
X551301Y30302D01*
X550285Y28531D01*
X551301Y26751D01*
X553077Y25979D01*
X557651Y24975D01*
X559427Y23952D01*
X560191Y22181D01*
X560191Y21412D01*
X559427Y19385D01*
X556635Y18625D01*
X553841Y18625D01*
X551301Y19385D01*
X550285Y21412D01*
X566285Y31325D02*
G01*
X566285Y12275D01*
X566285Y28531D02*
G01*
X568068Y30302D01*
X569843Y31325D01*
X572635Y31325D01*
X574418Y30302D01*
X576193Y28531D01*
X577209Y25979D01*
X577209Y23952D01*
X576193Y21412D01*
X574418Y19385D01*
X572635Y18625D01*
X569843Y18625D01*
X568068Y19385D01*
X566285Y21412D01*
X594227Y31325D02*
G01*
X594227Y18625D01*
X594227Y28531D02*
G01*
X592193Y30302D01*
X590417Y31325D01*
X587877Y31325D01*
X585843Y30302D01*
X584067Y28531D01*
X583303Y25979D01*
X583303Y23952D01*
X584067Y21412D01*
X585843Y19385D01*
X587877Y18625D01*
X590417Y18625D01*
X592193Y19385D01*
X594227Y21412D01*
X610986Y28531D02*
G01*
X609211Y30302D01*
X607435Y31325D01*
X604636Y31325D01*
X602861Y30302D01*
X601085Y28531D01*
X600069Y25979D01*
X600069Y23952D01*
X601085Y21412D01*
X602861Y19385D01*
X604636Y18625D01*
X607435Y18625D01*
X609211Y19385D01*
X610986Y21412D01*
X617085Y25979D02*
G01*
X628007Y25979D01*
X628007Y27762D01*
X626988Y29542D01*
X626229Y30302D01*
X624194Y31325D01*
X621657Y31325D01*
X619879Y30302D01*
X617844Y28531D01*
X617085Y25979D01*
X617085Y23952D01*
X617844Y21412D01*
X619879Y19385D01*
X621657Y18625D01*
X624194Y18625D01*
X626229Y19385D01*
X628007Y21412D01*
X312541Y382673D02*
G01*
X312541Y363623D01*
X312541Y372760D02*
G01*
X315335Y375312D01*
X317116Y376323D01*
X319659Y376323D01*
X321685Y375312D01*
X322455Y372760D01*
X322455Y363623D01*
X331340Y382673D02*
G01*
X331340Y367174D01*
X332107Y364383D01*
X333877Y363623D01*
X335658Y363623D01*
X328548Y376323D02*
G01*
X334898Y376323D01*
X344556Y382673D02*
G01*
X344556Y367174D01*
X345315Y364383D01*
X347347Y363623D01*
X349122Y363623D01*
X341756Y376323D02*
G01*
X348106Y376323D01*
X354964Y376323D02*
G01*
X354964Y357273D01*
X354964Y373524D02*
G01*
X356740Y375312D01*
X358775Y376323D01*
X361314Y376323D01*
X363341Y375312D01*
X365125Y373524D01*
X365889Y370989D01*
X365889Y368962D01*
X365125Y366410D01*
X363341Y364383D01*
X361314Y363623D01*
X358775Y363623D01*
X356740Y364383D01*
X354964Y366410D01*
X381883Y373524D02*
G01*
X381124Y375312D01*
X378327Y376323D01*
X375533Y376323D01*
X372747Y375312D01*
X371977Y373524D01*
X372747Y371749D01*
X374774Y370989D01*
X379348Y369973D01*
X381124Y368962D01*
X381883Y367174D01*
X381883Y366410D01*
X381124Y364383D01*
X378327Y363623D01*
X375533Y363623D01*
X372747Y364383D01*
X371977Y366410D01*
X388741Y374540D02*
G01*
X387982Y373524D01*
X388741Y372760D01*
X389765Y373524D01*
X388741Y374540D01*
X388741Y368190D02*
G01*
X387982Y367174D01*
X388741Y366410D01*
X389765Y367174D01*
X388741Y368190D01*
X412114Y386224D02*
G01*
X395859Y357273D01*
X434467Y386224D02*
G01*
X418208Y357273D01*
X440565Y376323D02*
G01*
X440565Y357273D01*
X440565Y373524D02*
G01*
X442335Y375312D01*
X444116Y376323D01*
X446915Y376323D01*
X448685Y375312D01*
X450466Y373524D01*
X451482Y370989D01*
X451482Y368962D01*
X450466Y366410D01*
X448685Y364383D01*
X446915Y363623D01*
X444116Y363623D01*
X442335Y364383D01*
X440565Y366410D01*
X457324Y382673D02*
G01*
X457324Y363623D01*
X457324Y373524D02*
G01*
X459107Y375312D01*
X461139Y376323D01*
X463674Y376323D01*
X465709Y375312D01*
X467489Y373524D01*
X468248Y370989D01*
X468248Y368962D01*
X467489Y366410D01*
X465709Y364383D01*
X463674Y363623D01*
X461139Y363623D01*
X459107Y364383D01*
X457324Y366410D01*
X485267Y376323D02*
G01*
X485267Y363623D01*
X485267Y373524D02*
G01*
X483483Y375312D01*
X481708Y376323D01*
X478917Y376323D01*
X477133Y375312D01*
X475106Y373524D01*
X474347Y370989D01*
X474347Y368962D01*
X475106Y366410D01*
X477133Y364383D01*
X478917Y363623D01*
X481708Y363623D01*
X483483Y364383D01*
X485267Y366410D01*
X491109Y376323D02*
G01*
X491109Y363623D01*
X491109Y372760D02*
G01*
X493905Y375312D01*
X495675Y376323D01*
X498475Y376323D01*
X500255Y375312D01*
X501266Y372760D01*
X501266Y363623D01*
X510918Y382673D02*
G01*
X511677Y381662D01*
X512698Y382673D01*
X511677Y383689D01*
X510918Y382673D01*
X511677Y376323D02*
G01*
X511677Y360824D01*
X510918Y358033D01*
X509140Y357273D01*
X507108Y357273D01*
X518797Y382673D02*
G01*
X519556Y381662D01*
X520572Y382673D01*
X519556Y383689D01*
X518797Y382673D01*
X519556Y376323D02*
G01*
X519556Y363623D01*
X526414Y376323D02*
G01*
X526414Y363623D01*
X526414Y372760D02*
G01*
X529209Y375312D01*
X530989Y376323D01*
X533775Y376323D01*
X535559Y375312D01*
X536575Y372760D01*
X536575Y363623D01*
X543427Y368190D02*
G01*
X542417Y367174D01*
X543427Y366410D01*
X544197Y367174D01*
X543427Y368190D01*
X560191Y373524D02*
G01*
X559432Y375312D01*
X556635Y376323D01*
X553841Y376323D01*
X551306Y375312D01*
X550285Y373524D01*
X551306Y371749D01*
X553082Y370989D01*
X557656Y369973D01*
X559432Y368962D01*
X560191Y367174D01*
X560191Y366410D01*
X559432Y364383D01*
X556635Y363623D01*
X553841Y363623D01*
X551306Y364383D01*
X550285Y366410D01*
X566290Y376323D02*
G01*
X566290Y357273D01*
X566290Y373524D02*
G01*
X568068Y375312D01*
X569848Y376323D01*
X572640Y376323D01*
X574418Y375312D01*
X576198Y373524D01*
X577214Y370989D01*
X577214Y368962D01*
X576198Y366410D01*
X574418Y364383D01*
X572640Y363623D01*
X569848Y363623D01*
X568068Y364383D01*
X566290Y366410D01*
X594227Y376323D02*
G01*
X594227Y363623D01*
X594227Y373524D02*
G01*
X592206Y375312D01*
X590422Y376323D01*
X587877Y376323D01*
X585856Y375312D01*
X584072Y373524D01*
X583308Y370989D01*
X583308Y368962D01*
X584072Y366410D01*
X585856Y364383D01*
X587877Y363623D01*
X590422Y363623D01*
X592206Y364383D01*
X594227Y366410D01*
X610991Y373524D02*
G01*
X609216Y375312D01*
X607435Y376323D01*
X604641Y376323D01*
X602866Y375312D01*
X601085Y373524D01*
X600075Y370989D01*
X600075Y368962D01*
X601085Y366410D01*
X602866Y364383D01*
X604641Y363623D01*
X607435Y363623D01*
X609216Y364383D01*
X610991Y366410D01*
X617090Y370989D02*
G01*
X628014Y370989D01*
X628014Y372760D01*
X626998Y374540D01*
X626239Y375312D01*
X624207Y376323D01*
X621664Y376323D01*
X619889Y375312D01*
X617857Y373524D01*
X617090Y370989D01*
X617090Y368962D01*
X617857Y366410D01*
X619889Y364383D01*
X621664Y363623D01*
X624207Y363623D01*
X626239Y364383D01*
X628014Y366410D01*
M02*
