G04 Layer: TopSilkscreenLayer*
G04 EasyEDA v6.5.22, 2022-12-30 12:31:34*
G04 8208ea2c859e44049a4325ea99c283b7,9c64b28349a745268246d024528a85f0,10*
G04 Gerber Generator version 0.2*
G04 Scale: 100 percent, Rotated: No, Reflected: No *
G04 Dimensions in millimeters *
G04 leading zeros omitted , absolute positions ,4 integer and 5 decimal *
%FSLAX45Y45*%
%MOMM*%

%ADD10C,0.1000*%
%ADD11C,0.0300*%

%LPD*%
G36*
X717702Y440029D02*
G01*
X716686Y422757D01*
X718972Y421233D01*
X720445Y422249D01*
X721969Y422960D01*
X723544Y423367D01*
X725322Y423519D01*
X728573Y422909D01*
X731062Y421182D01*
X732637Y418388D01*
X733196Y414629D01*
X732536Y410870D01*
X730758Y407974D01*
X728167Y406146D01*
X725068Y405485D01*
X721969Y405841D01*
X719480Y406806D01*
X717448Y408178D01*
X715670Y409803D01*
X713638Y407009D01*
X715721Y405180D01*
X718210Y403656D01*
X721360Y402590D01*
X725322Y402183D01*
X729742Y403047D01*
X733552Y405485D01*
X736244Y409498D01*
X737260Y414883D01*
X736396Y420166D01*
X734060Y423926D01*
X730605Y426110D01*
X726338Y426821D01*
X724611Y426720D01*
X721817Y425754D01*
X720496Y425043D01*
X721512Y436473D01*
X735482Y436473D01*
X735482Y440029D01*
G37*
G36*
X740308Y440029D02*
G01*
X752246Y402691D01*
X757072Y402691D01*
X768756Y440029D01*
X764692Y440029D01*
X754786Y407263D01*
X754532Y407263D01*
X744626Y440029D01*
G37*
G36*
X98399Y488645D02*
G01*
X90627Y487527D01*
X84886Y484276D01*
X81330Y478891D01*
X80111Y471373D01*
X80111Y466293D01*
X83413Y466293D01*
X83413Y470865D01*
X84429Y476808D01*
X87376Y481025D01*
X92100Y483514D01*
X98399Y484327D01*
X104851Y483514D01*
X109626Y481025D01*
X112623Y476808D01*
X113639Y470865D01*
X113639Y466293D01*
X80111Y466293D01*
X80111Y462229D01*
X117195Y462229D01*
X117195Y471373D01*
X115925Y478891D01*
X112166Y484276D01*
X106273Y487527D01*
G37*
G36*
X80111Y451815D02*
G01*
X80111Y447751D01*
X103073Y447801D01*
X111607Y448259D01*
X111607Y448005D01*
X103987Y444195D01*
X80111Y429971D01*
X80111Y425653D01*
X117195Y425653D01*
X117195Y429717D01*
X94030Y429666D01*
X85445Y429209D01*
X85445Y429463D01*
X93065Y433527D01*
X117195Y447497D01*
X117195Y451815D01*
G37*
G36*
X98145Y416763D02*
G01*
X98145Y404825D01*
X101701Y404825D01*
X101701Y412699D01*
X111861Y412699D01*
X112877Y411378D01*
X113588Y409752D01*
X113995Y407873D01*
X114147Y405841D01*
X113030Y400456D01*
X109880Y396443D01*
X104952Y394004D01*
X98399Y393141D01*
X92049Y394004D01*
X87274Y396544D01*
X84226Y400558D01*
X83159Y405841D01*
X83413Y408432D01*
X84175Y410565D01*
X85293Y412394D01*
X86715Y413969D01*
X83921Y416255D01*
X82245Y414426D01*
X80772Y412038D01*
X79756Y409092D01*
X79349Y405587D01*
X80670Y398881D01*
X84531Y393598D01*
X90627Y390093D01*
X98653Y388823D01*
X106730Y390042D01*
X112776Y393446D01*
X116636Y398678D01*
X117957Y405333D01*
X117652Y408889D01*
X116738Y411988D01*
X115366Y414629D01*
X113639Y416763D01*
G37*
G36*
X451205Y444957D02*
G01*
X451205Y410464D01*
X455523Y410464D01*
X455523Y425145D01*
X457403Y426974D01*
X459333Y428243D01*
X461213Y429006D01*
X463143Y429259D01*
X466547Y428447D01*
X468934Y426313D01*
X470306Y423011D01*
X470763Y418795D01*
X470103Y414020D01*
X468376Y410413D01*
X465734Y408178D01*
X462381Y407365D01*
X460908Y407517D01*
X459232Y408076D01*
X457403Y408990D01*
X455523Y410464D01*
X451205Y410464D01*
X451205Y404622D01*
X454507Y404622D01*
X455015Y407365D01*
X456996Y405993D01*
X459079Y404876D01*
X461162Y404114D01*
X463143Y403860D01*
X467664Y404876D01*
X471474Y407822D01*
X474065Y412496D01*
X475081Y418795D01*
X474370Y424535D01*
X472287Y428955D01*
X468833Y431800D01*
X464159Y432765D01*
X461721Y432460D01*
X459435Y431596D01*
X457250Y430326D01*
X455269Y428701D01*
X455523Y433781D01*
X455523Y444957D01*
G37*
G36*
X542899Y443738D02*
G01*
X541680Y443484D01*
X540715Y442874D01*
X540054Y442010D01*
X539851Y440893D01*
X540054Y439674D01*
X540715Y438708D01*
X541680Y438099D01*
X542899Y437845D01*
X543966Y438099D01*
X544830Y438708D01*
X545439Y439674D01*
X545693Y440893D01*
X545439Y442010D01*
X544830Y442874D01*
X543966Y443484D01*
G37*
G36*
X350621Y441655D02*
G01*
X350621Y438353D01*
X360781Y438353D01*
X364744Y438048D01*
X367639Y437032D01*
X369366Y435152D01*
X369925Y432257D01*
X369417Y429564D01*
X367792Y427583D01*
X364896Y426364D01*
X360527Y425907D01*
X354939Y425907D01*
X354939Y438353D01*
X350621Y438353D01*
X350621Y422605D01*
X361543Y422605D01*
X366064Y422198D01*
X369417Y420878D01*
X371500Y418642D01*
X372211Y415493D01*
X371449Y412191D01*
X369316Y409803D01*
X365963Y408381D01*
X361543Y407873D01*
X354939Y407873D01*
X354939Y422605D01*
X350621Y422605D01*
X350621Y404622D01*
X362305Y404622D01*
X367995Y405282D01*
X372414Y407314D01*
X375259Y410718D01*
X376275Y415493D01*
X375716Y418947D01*
X374192Y421589D01*
X371754Y423418D01*
X368655Y424383D01*
X368655Y424688D01*
X370992Y425805D01*
X372770Y427685D01*
X373837Y430072D01*
X374243Y432765D01*
X373329Y436829D01*
X370738Y439623D01*
X366725Y441198D01*
X361543Y441655D01*
G37*
G36*
X432917Y432765D02*
G01*
X430479Y432460D01*
X428193Y431495D01*
X426008Y430225D01*
X424027Y428701D01*
X423773Y428701D01*
X423519Y432003D01*
X419963Y432003D01*
X419963Y410464D01*
X424281Y410464D01*
X424281Y425145D01*
X426262Y426974D01*
X428193Y428243D01*
X430022Y429006D01*
X431901Y429259D01*
X435305Y428447D01*
X437692Y426313D01*
X439064Y423011D01*
X439521Y418795D01*
X438861Y414020D01*
X437134Y410413D01*
X434492Y408178D01*
X431139Y407365D01*
X429666Y407517D01*
X427990Y408076D01*
X426161Y408990D01*
X424281Y410464D01*
X419963Y410464D01*
X419963Y392938D01*
X424281Y392938D01*
X424281Y402285D01*
X424027Y407111D01*
X425958Y405739D01*
X427939Y404723D01*
X429920Y404063D01*
X431901Y403860D01*
X436422Y404876D01*
X440232Y407822D01*
X442874Y412496D01*
X443839Y418795D01*
X443128Y424535D01*
X441045Y428955D01*
X437591Y431800D01*
G37*
G36*
X491845Y432765D02*
G01*
X488543Y432460D01*
X485648Y431596D01*
X481177Y429259D01*
X482701Y426161D01*
X484378Y427329D01*
X486409Y428294D01*
X488645Y428955D01*
X491083Y429259D01*
X494030Y428599D01*
X495808Y426974D01*
X496671Y424637D01*
X496925Y421843D01*
X489305Y420573D01*
X484022Y418490D01*
X480923Y415594D01*
X479986Y411988D01*
X483971Y411988D01*
X484632Y414528D01*
X486816Y416559D01*
X490829Y418084D01*
X496925Y419049D01*
X496925Y411226D01*
X494893Y409549D01*
X492963Y408330D01*
X491032Y407619D01*
X489051Y407365D01*
X487070Y407619D01*
X485444Y408432D01*
X484378Y409854D01*
X483971Y411988D01*
X479986Y411988D01*
X480517Y408330D01*
X482193Y405892D01*
X484733Y404368D01*
X487781Y403860D01*
X490321Y404164D01*
X492759Y405028D01*
X495046Y406298D01*
X497179Y407873D01*
X497687Y404622D01*
X500989Y404622D01*
X500989Y421589D01*
X500481Y426161D01*
X498906Y429666D01*
X496062Y431952D01*
G37*
G36*
X523341Y432765D02*
G01*
X520649Y432409D01*
X518261Y431342D01*
X516026Y429768D01*
X513943Y427939D01*
X513435Y432003D01*
X510133Y432003D01*
X510133Y404622D01*
X514146Y404622D01*
X514146Y424688D01*
X516178Y426669D01*
X518007Y428091D01*
X519938Y428955D01*
X522071Y429259D01*
X524510Y428751D01*
X526135Y427329D01*
X527100Y424942D01*
X527405Y421589D01*
X527405Y404622D01*
X531723Y404622D01*
X531723Y422148D01*
X531164Y426669D01*
X529590Y430022D01*
X526999Y432104D01*
G37*
G36*
X378561Y432003D02*
G01*
X389737Y404368D01*
X387858Y399846D01*
X386435Y397916D01*
X384708Y396646D01*
X382066Y396189D01*
X380593Y396443D01*
X379577Y393141D01*
X382879Y392633D01*
X386435Y393395D01*
X389178Y395376D01*
X391210Y398322D01*
X392785Y402031D01*
X403199Y432003D01*
X399135Y432003D01*
X393446Y414477D01*
X391769Y408635D01*
X391515Y408635D01*
X382879Y432003D01*
G37*
G36*
X540867Y432003D02*
G01*
X540867Y401015D01*
X540715Y398780D01*
X540105Y397002D01*
X539038Y395833D01*
X537311Y395427D01*
X535838Y395579D01*
X534771Y395935D01*
X533755Y392938D01*
X535584Y392328D01*
X537819Y392176D01*
X541070Y392734D01*
X543255Y394512D01*
X544525Y397306D01*
X544931Y401015D01*
X544931Y432003D01*
G37*
G36*
X451205Y27990D02*
G01*
X451205Y-6553D01*
X455523Y-6553D01*
X455523Y8178D01*
X457454Y10007D01*
X459333Y11226D01*
X461264Y11988D01*
X463143Y12242D01*
X466598Y11480D01*
X468985Y9296D01*
X470357Y6045D01*
X470763Y1828D01*
X470154Y-2946D01*
X468376Y-6553D01*
X465734Y-8839D01*
X462381Y-9601D01*
X460908Y-9448D01*
X459232Y-8940D01*
X457403Y-8026D01*
X455523Y-6553D01*
X451205Y-6553D01*
X451205Y-12395D01*
X454507Y-12395D01*
X455015Y-9601D01*
X456996Y-11023D01*
X459079Y-12141D01*
X461162Y-12903D01*
X463143Y-13157D01*
X467664Y-12141D01*
X471474Y-9194D01*
X474116Y-4470D01*
X475081Y1828D01*
X474370Y7518D01*
X472287Y11938D01*
X468884Y14782D01*
X464159Y15798D01*
X461721Y15494D01*
X459435Y14630D01*
X457250Y13309D01*
X455269Y11734D01*
X455523Y16814D01*
X455523Y27990D01*
G37*
G36*
X542899Y26720D02*
G01*
X541680Y26466D01*
X540715Y25908D01*
X540054Y24993D01*
X539851Y23926D01*
X540054Y22707D01*
X540715Y21742D01*
X541680Y21082D01*
X542899Y20878D01*
X543966Y21082D01*
X544880Y21742D01*
X545490Y22707D01*
X545693Y23926D01*
X545490Y24993D01*
X544880Y25908D01*
X543966Y26466D01*
G37*
G36*
X350621Y24688D02*
G01*
X350621Y21386D01*
X360781Y21386D01*
X364794Y21082D01*
X367639Y20066D01*
X369366Y18186D01*
X369925Y15290D01*
X369417Y12598D01*
X367792Y10566D01*
X364896Y9347D01*
X360527Y8940D01*
X354939Y8940D01*
X354939Y21386D01*
X350621Y21386D01*
X350621Y5638D01*
X361543Y5638D01*
X366115Y5181D01*
X369468Y3860D01*
X371500Y1676D01*
X372211Y-1473D01*
X371449Y-4826D01*
X369366Y-7213D01*
X366014Y-8636D01*
X361543Y-9093D01*
X354939Y-9093D01*
X354939Y5638D01*
X350621Y5638D01*
X350621Y-12395D01*
X362305Y-12395D01*
X368046Y-11734D01*
X372465Y-9702D01*
X375310Y-6299D01*
X376275Y-1473D01*
X375767Y1930D01*
X374192Y4572D01*
X371805Y6400D01*
X368655Y7416D01*
X368655Y7670D01*
X371043Y8839D01*
X372770Y10668D01*
X373888Y13055D01*
X374243Y15798D01*
X373329Y19862D01*
X370738Y22606D01*
X366725Y24180D01*
X361543Y24688D01*
G37*
G36*
X432917Y15798D02*
G01*
X430479Y15443D01*
X428193Y14528D01*
X424027Y11734D01*
X423773Y11734D01*
X423519Y15036D01*
X419963Y15036D01*
X419963Y-6553D01*
X424281Y-6553D01*
X424281Y8178D01*
X426313Y10007D01*
X428193Y11226D01*
X430022Y11988D01*
X431901Y12242D01*
X435356Y11480D01*
X437743Y9296D01*
X439115Y6045D01*
X439521Y1828D01*
X438912Y-2946D01*
X437134Y-6553D01*
X434492Y-8839D01*
X431139Y-9601D01*
X429666Y-9448D01*
X427990Y-8940D01*
X426161Y-8026D01*
X424281Y-6553D01*
X419963Y-6553D01*
X419963Y-24079D01*
X424281Y-24079D01*
X424281Y-14681D01*
X424027Y-9855D01*
X425958Y-11226D01*
X427990Y-12293D01*
X429971Y-12903D01*
X431901Y-13157D01*
X436422Y-12141D01*
X440232Y-9194D01*
X442874Y-4470D01*
X443839Y1828D01*
X443128Y7518D01*
X441045Y11938D01*
X437642Y14782D01*
G37*
G36*
X491845Y15798D02*
G01*
X488594Y15443D01*
X485648Y14579D01*
X483158Y13462D01*
X481177Y12242D01*
X482701Y9194D01*
X484428Y10312D01*
X486409Y11277D01*
X488696Y11988D01*
X491083Y12242D01*
X494030Y11633D01*
X495808Y10007D01*
X496722Y7620D01*
X496925Y4876D01*
X489356Y3556D01*
X484022Y1524D01*
X480923Y-1422D01*
X479974Y-5029D01*
X483971Y-5029D01*
X484632Y-2438D01*
X486816Y-406D01*
X490829Y1066D01*
X496925Y2082D01*
X496925Y-5791D01*
X494944Y-7467D01*
X493014Y-8636D01*
X491083Y-9347D01*
X489051Y-9601D01*
X487070Y-9347D01*
X485495Y-8585D01*
X484378Y-7162D01*
X483971Y-5029D01*
X479974Y-5029D01*
X480517Y-8686D01*
X482244Y-11125D01*
X484733Y-12649D01*
X487781Y-13157D01*
X490372Y-12852D01*
X492759Y-11988D01*
X495046Y-10718D01*
X497179Y-9093D01*
X497687Y-12395D01*
X500989Y-12395D01*
X500989Y4622D01*
X500481Y9144D01*
X498906Y12700D01*
X496062Y14985D01*
G37*
G36*
X523341Y15798D02*
G01*
X520649Y15392D01*
X518261Y14325D01*
X516077Y12801D01*
X513943Y10972D01*
X513435Y15036D01*
X510133Y15036D01*
X510133Y-12395D01*
X514197Y-12395D01*
X514197Y7670D01*
X516178Y9652D01*
X518058Y11074D01*
X519938Y11938D01*
X522071Y12242D01*
X524510Y11785D01*
X526186Y10312D01*
X527100Y7924D01*
X527405Y4622D01*
X527405Y-12395D01*
X531723Y-12395D01*
X531723Y5130D01*
X531215Y9702D01*
X529640Y13004D01*
X526999Y15087D01*
G37*
G36*
X378561Y15036D02*
G01*
X389737Y-12649D01*
X387908Y-17119D01*
X386486Y-19050D01*
X384759Y-20320D01*
X382625Y-20777D01*
X380593Y-20523D01*
X379577Y-23825D01*
X382879Y-24333D01*
X386435Y-23622D01*
X389178Y-21640D01*
X391261Y-18643D01*
X392785Y-14935D01*
X403199Y15036D01*
X399135Y15036D01*
X391769Y-8331D01*
X391515Y-8331D01*
X382879Y15036D01*
G37*
G36*
X540867Y15036D02*
G01*
X540867Y-15951D01*
X540715Y-18237D01*
X540156Y-20015D01*
X539038Y-21132D01*
X537311Y-21539D01*
X535838Y-21386D01*
X534771Y-21031D01*
X533755Y-24079D01*
X535584Y-24638D01*
X537819Y-24841D01*
X541070Y-24231D01*
X543306Y-22504D01*
X544525Y-19710D01*
X544931Y-15951D01*
X544931Y15036D01*
G37*
G36*
X98450Y71628D02*
G01*
X90627Y70561D01*
X84886Y67310D01*
X81330Y61874D01*
X80111Y54356D01*
X80111Y49276D01*
X83413Y49276D01*
X83413Y53848D01*
X84480Y59842D01*
X87426Y64008D01*
X92100Y66497D01*
X98450Y67310D01*
X104902Y66497D01*
X109677Y64008D01*
X112623Y59842D01*
X113639Y53848D01*
X113639Y49276D01*
X80111Y49276D01*
X80111Y45262D01*
X117246Y45262D01*
X117246Y54356D01*
X115925Y61874D01*
X112217Y67310D01*
X106273Y70561D01*
G37*
G36*
X80111Y34798D02*
G01*
X80111Y30733D01*
X103124Y30784D01*
X111607Y31242D01*
X111607Y30988D01*
X104038Y27178D01*
X80111Y12954D01*
X80111Y8636D01*
X117246Y8636D01*
X117246Y12700D01*
X94030Y12649D01*
X85496Y12192D01*
X85496Y12446D01*
X93065Y16510D01*
X117246Y30480D01*
X117246Y34798D01*
G37*
G36*
X98196Y-254D02*
G01*
X98196Y-12192D01*
X101752Y-12192D01*
X101752Y-4267D01*
X111861Y-4267D01*
X112877Y-5638D01*
X113588Y-7264D01*
X114046Y-9093D01*
X114147Y-11125D01*
X113080Y-16560D01*
X109931Y-20574D01*
X104952Y-23012D01*
X98450Y-23825D01*
X92100Y-22961D01*
X87274Y-20472D01*
X84226Y-16459D01*
X83159Y-11125D01*
X83464Y-8585D01*
X84175Y-6451D01*
X85344Y-4622D01*
X86715Y-3048D01*
X83972Y-762D01*
X82296Y-2540D01*
X80822Y-4927D01*
X79756Y-7873D01*
X79400Y-11430D01*
X80721Y-18084D01*
X84531Y-23418D01*
X90627Y-26924D01*
X98653Y-28194D01*
X106730Y-26974D01*
X112826Y-23520D01*
X116636Y-18338D01*
X117957Y-11684D01*
X117652Y-8077D01*
X116789Y-4978D01*
X115417Y-2387D01*
X113639Y-254D01*
G37*
G36*
X717702Y23063D02*
G01*
X716686Y5740D01*
X718972Y4216D01*
X720445Y5232D01*
X721969Y5943D01*
X723544Y6400D01*
X725322Y6553D01*
X728573Y5943D01*
X731062Y4165D01*
X732637Y1371D01*
X733196Y-2336D01*
X732536Y-6146D01*
X730758Y-9042D01*
X728167Y-10871D01*
X725068Y-11480D01*
X721969Y-11125D01*
X719480Y-10210D01*
X717448Y-8839D01*
X715670Y-7213D01*
X713638Y-9956D01*
X715721Y-11785D01*
X718261Y-13360D01*
X721360Y-14427D01*
X725322Y-14833D01*
X729742Y-13970D01*
X733552Y-11480D01*
X736244Y-7518D01*
X737260Y-2133D01*
X736396Y3200D01*
X734060Y6908D01*
X730605Y9093D01*
X726338Y9855D01*
X723138Y9347D01*
X720496Y8077D01*
X721512Y19507D01*
X735482Y19507D01*
X735482Y23063D01*
G37*
G36*
X740308Y23063D02*
G01*
X752246Y-14325D01*
X757072Y-14325D01*
X768756Y23063D01*
X764692Y23063D01*
X754786Y-9702D01*
X754532Y-9702D01*
X744626Y23063D01*
G37*
G36*
X451205Y-389026D02*
G01*
X451205Y-423570D01*
X455523Y-423570D01*
X455523Y-408838D01*
X457403Y-407009D01*
X459333Y-405739D01*
X461213Y-404977D01*
X463143Y-404774D01*
X466598Y-405536D01*
X468934Y-407670D01*
X470306Y-410972D01*
X470763Y-415188D01*
X470154Y-419963D01*
X468376Y-423570D01*
X465734Y-425805D01*
X462381Y-426618D01*
X460908Y-426466D01*
X459232Y-425958D01*
X457403Y-424992D01*
X455523Y-423570D01*
X451205Y-423570D01*
X451205Y-429412D01*
X454507Y-429412D01*
X455015Y-426618D01*
X456996Y-428040D01*
X459079Y-429158D01*
X461162Y-429869D01*
X463143Y-430174D01*
X467664Y-429107D01*
X471474Y-426161D01*
X474116Y-421487D01*
X475081Y-415188D01*
X474370Y-409448D01*
X472287Y-405028D01*
X468884Y-402234D01*
X464159Y-401218D01*
X461721Y-401523D01*
X459435Y-402386D01*
X457250Y-403656D01*
X455269Y-405282D01*
X455523Y-400202D01*
X455523Y-389026D01*
G37*
G36*
X542899Y-390296D02*
G01*
X541680Y-390499D01*
X540715Y-391109D01*
X540054Y-391972D01*
X539851Y-393090D01*
X540054Y-394309D01*
X540715Y-395274D01*
X541680Y-395884D01*
X542899Y-396138D01*
X543966Y-395884D01*
X544880Y-395274D01*
X545439Y-394309D01*
X545693Y-393090D01*
X545439Y-391972D01*
X544880Y-391109D01*
X543966Y-390499D01*
G37*
G36*
X350621Y-392328D02*
G01*
X350621Y-395630D01*
X360781Y-395630D01*
X364794Y-395935D01*
X367639Y-396951D01*
X369366Y-398830D01*
X369925Y-401726D01*
X369417Y-404418D01*
X367792Y-406400D01*
X364896Y-407619D01*
X360527Y-408076D01*
X354939Y-408076D01*
X354939Y-395630D01*
X350621Y-395630D01*
X350621Y-411378D01*
X361543Y-411378D01*
X366115Y-411784D01*
X369417Y-413105D01*
X371500Y-415340D01*
X372211Y-418490D01*
X371449Y-421792D01*
X369316Y-424180D01*
X365963Y-425602D01*
X361543Y-426110D01*
X354939Y-426110D01*
X354939Y-411378D01*
X350621Y-411378D01*
X350621Y-429412D01*
X362305Y-429412D01*
X368046Y-428701D01*
X372414Y-426720D01*
X375259Y-423316D01*
X376275Y-418490D01*
X375716Y-415035D01*
X374192Y-412394D01*
X371754Y-410565D01*
X368655Y-409600D01*
X368655Y-409346D01*
X371043Y-408178D01*
X372770Y-406298D01*
X373837Y-403961D01*
X374243Y-401218D01*
X373329Y-397154D01*
X370738Y-394411D01*
X366725Y-392836D01*
X361543Y-392328D01*
G37*
G36*
X432917Y-401218D02*
G01*
X430479Y-401574D01*
X428193Y-402488D01*
X426008Y-403758D01*
X424027Y-405282D01*
X423773Y-405282D01*
X423519Y-401980D01*
X419963Y-401980D01*
X419963Y-423570D01*
X424281Y-423570D01*
X424281Y-408838D01*
X426313Y-407009D01*
X428193Y-405739D01*
X430022Y-404977D01*
X431901Y-404774D01*
X435356Y-405536D01*
X437692Y-407670D01*
X439064Y-410972D01*
X439521Y-415188D01*
X438912Y-419963D01*
X437134Y-423570D01*
X434492Y-425805D01*
X431139Y-426618D01*
X429666Y-426466D01*
X427990Y-425958D01*
X426161Y-424992D01*
X424281Y-423570D01*
X419963Y-423570D01*
X419963Y-441096D01*
X424281Y-441096D01*
X424281Y-431698D01*
X424027Y-426872D01*
X425958Y-428243D01*
X427939Y-429259D01*
X429920Y-429920D01*
X431901Y-430174D01*
X436422Y-429107D01*
X440232Y-426161D01*
X442874Y-421487D01*
X443839Y-415188D01*
X443128Y-409448D01*
X441045Y-405028D01*
X437642Y-402234D01*
G37*
G36*
X491845Y-401218D02*
G01*
X488543Y-401523D01*
X485648Y-402386D01*
X483158Y-403555D01*
X481177Y-404774D01*
X482701Y-407822D01*
X484378Y-406704D01*
X486409Y-405688D01*
X488645Y-405028D01*
X491083Y-404774D01*
X494030Y-405384D01*
X495808Y-407009D01*
X496671Y-409346D01*
X496925Y-412140D01*
X489356Y-413410D01*
X484022Y-415493D01*
X480923Y-418388D01*
X479973Y-422046D01*
X483971Y-422046D01*
X484632Y-419455D01*
X486816Y-417423D01*
X490829Y-415899D01*
X496925Y-414934D01*
X496925Y-422808D01*
X494893Y-424484D01*
X492963Y-425653D01*
X491083Y-426364D01*
X489051Y-426618D01*
X487070Y-426364D01*
X485444Y-425551D01*
X484378Y-424129D01*
X483971Y-422046D01*
X479973Y-422046D01*
X480517Y-425653D01*
X482244Y-428142D01*
X484733Y-429615D01*
X487781Y-430174D01*
X490372Y-429818D01*
X492759Y-429006D01*
X495046Y-427685D01*
X497179Y-426110D01*
X497687Y-429412D01*
X500989Y-429412D01*
X500989Y-412394D01*
X500481Y-407873D01*
X498906Y-404317D01*
X496062Y-402031D01*
G37*
G36*
X523341Y-401218D02*
G01*
X520649Y-401624D01*
X518261Y-402691D01*
X516026Y-404215D01*
X513943Y-406044D01*
X513435Y-401980D01*
X510133Y-401980D01*
X510133Y-429412D01*
X514197Y-429412D01*
X514197Y-409346D01*
X516178Y-407314D01*
X518007Y-405892D01*
X519938Y-405028D01*
X522071Y-404774D01*
X524510Y-405231D01*
X526186Y-406654D01*
X527100Y-409041D01*
X527405Y-412394D01*
X527405Y-429412D01*
X531723Y-429412D01*
X531723Y-411886D01*
X531215Y-407314D01*
X529640Y-403961D01*
X526999Y-401929D01*
G37*
G36*
X378561Y-401980D02*
G01*
X389737Y-429666D01*
X387858Y-434136D01*
X386486Y-436067D01*
X384708Y-437337D01*
X382066Y-437794D01*
X380593Y-437540D01*
X379577Y-440842D01*
X382879Y-441350D01*
X386435Y-440588D01*
X389178Y-438658D01*
X391261Y-435660D01*
X392785Y-431952D01*
X403199Y-401980D01*
X399135Y-401980D01*
X391769Y-425348D01*
X391515Y-425348D01*
X382879Y-401980D01*
G37*
G36*
X540867Y-401980D02*
G01*
X540867Y-432968D01*
X540715Y-435203D01*
X540156Y-436981D01*
X539038Y-438150D01*
X537311Y-438556D01*
X535838Y-438404D01*
X534771Y-438048D01*
X533755Y-441096D01*
X535584Y-441655D01*
X537819Y-441858D01*
X541070Y-441248D01*
X543255Y-439470D01*
X544525Y-436727D01*
X544931Y-432968D01*
X544931Y-401980D01*
G37*
G36*
X98399Y-345338D02*
G01*
X90627Y-346456D01*
X84886Y-349707D01*
X81330Y-355092D01*
X80111Y-362610D01*
X80111Y-367690D01*
X83413Y-367690D01*
X83413Y-363118D01*
X84429Y-357174D01*
X87376Y-352958D01*
X92100Y-350469D01*
X98399Y-349656D01*
X104851Y-350469D01*
X109677Y-352958D01*
X112623Y-357174D01*
X113639Y-363118D01*
X113639Y-367690D01*
X80111Y-367690D01*
X80111Y-371754D01*
X117195Y-371754D01*
X117195Y-362610D01*
X115925Y-355092D01*
X112166Y-349707D01*
X106273Y-346456D01*
G37*
G36*
X80111Y-382168D02*
G01*
X80111Y-386232D01*
X103073Y-386181D01*
X111607Y-385724D01*
X111607Y-385978D01*
X103987Y-389788D01*
X80111Y-404012D01*
X80111Y-408330D01*
X117195Y-408330D01*
X117195Y-404266D01*
X94030Y-404317D01*
X85445Y-404774D01*
X85445Y-404520D01*
X93065Y-400456D01*
X117195Y-386486D01*
X117195Y-382168D01*
G37*
G36*
X98145Y-417220D02*
G01*
X98145Y-429158D01*
X101752Y-429158D01*
X101752Y-421284D01*
X111861Y-421284D01*
X112877Y-422605D01*
X113588Y-424230D01*
X113995Y-426110D01*
X114147Y-428142D01*
X113080Y-433578D01*
X109931Y-437540D01*
X104952Y-440029D01*
X98399Y-440842D01*
X92049Y-439978D01*
X87274Y-437438D01*
X84226Y-433476D01*
X83159Y-428142D01*
X83413Y-425551D01*
X84175Y-423418D01*
X85293Y-421640D01*
X86715Y-420014D01*
X83921Y-417728D01*
X82245Y-419557D01*
X80772Y-421944D01*
X79756Y-424891D01*
X79349Y-428396D01*
X80721Y-435101D01*
X84531Y-440385D01*
X90627Y-443890D01*
X98653Y-445160D01*
X106730Y-443941D01*
X112776Y-440537D01*
X116636Y-435305D01*
X117957Y-428650D01*
X117652Y-425094D01*
X116738Y-421995D01*
X115417Y-419354D01*
X113639Y-417220D01*
G37*
G36*
X717702Y-393954D02*
G01*
X716686Y-411226D01*
X718972Y-412750D01*
X720445Y-411734D01*
X721969Y-411022D01*
X723544Y-410616D01*
X725322Y-410464D01*
X728573Y-411073D01*
X731062Y-412800D01*
X732637Y-415594D01*
X733196Y-419354D01*
X732536Y-423164D01*
X730758Y-426008D01*
X728167Y-427837D01*
X725068Y-428498D01*
X721969Y-428142D01*
X719480Y-427177D01*
X717448Y-425805D01*
X715670Y-424180D01*
X713638Y-426974D01*
X715721Y-428802D01*
X718210Y-430326D01*
X721360Y-431393D01*
X725322Y-431800D01*
X729742Y-430987D01*
X733552Y-428498D01*
X736244Y-424535D01*
X737260Y-419100D01*
X736396Y-413816D01*
X734060Y-410108D01*
X730605Y-407873D01*
X726338Y-407162D01*
X723138Y-407670D01*
X720496Y-408940D01*
X721512Y-397510D01*
X735482Y-397510D01*
X735482Y-393954D01*
G37*
G36*
X740308Y-393954D02*
G01*
X752246Y-431292D01*
X757072Y-431292D01*
X768756Y-393954D01*
X764692Y-393954D01*
X754786Y-426720D01*
X754532Y-426720D01*
X744626Y-393954D01*
G37*
D10*
X1002167Y486219D02*
G01*
X958479Y486219D01*
X950097Y489013D01*
X947557Y491553D01*
X944763Y497141D01*
X944763Y502475D01*
X947557Y508063D01*
X950097Y510857D01*
X958479Y513397D01*
X963813Y513397D01*
X1002167Y468185D02*
G01*
X944763Y468185D01*
X944763Y468185D02*
G01*
X944763Y435419D01*
X988451Y376491D02*
G01*
X993785Y379285D01*
X999373Y384873D01*
X1002167Y390207D01*
X1002167Y401129D01*
X999373Y406463D01*
X993785Y412051D01*
X988451Y414845D01*
X980323Y417385D01*
X966607Y417385D01*
X958479Y414845D01*
X952891Y412051D01*
X947557Y406463D01*
X944763Y401129D01*
X944763Y390207D01*
X947557Y384873D01*
X952891Y379285D01*
X958479Y376491D01*
X1002167Y331279D02*
G01*
X958479Y331279D01*
X950097Y334073D01*
X947557Y336867D01*
X944763Y342201D01*
X944763Y347789D01*
X947557Y353123D01*
X950097Y355917D01*
X958479Y358711D01*
X963813Y358711D01*
X1002167Y313245D02*
G01*
X944763Y313245D01*
X944763Y313245D02*
G01*
X944763Y280479D01*
X988451Y221805D02*
G01*
X993785Y224345D01*
X999373Y229933D01*
X1002167Y235267D01*
X1002167Y246189D01*
X999373Y251777D01*
X993785Y257111D01*
X988451Y259905D01*
X980323Y262699D01*
X966607Y262699D01*
X958479Y259905D01*
X952891Y257111D01*
X947557Y251777D01*
X944763Y246189D01*
X944763Y235267D01*
X947557Y229933D01*
X952891Y224345D01*
X958479Y221805D01*
X1002167Y176339D02*
G01*
X958479Y176339D01*
X950097Y179133D01*
X947557Y181927D01*
X944763Y187261D01*
X944763Y192849D01*
X947557Y198183D01*
X950097Y200977D01*
X958479Y203771D01*
X963813Y203771D01*
X1002167Y158305D02*
G01*
X944763Y158305D01*
X944763Y158305D02*
G01*
X944763Y125793D01*
X988451Y66865D02*
G01*
X993785Y69405D01*
X999373Y74993D01*
X1002167Y80327D01*
X1002167Y91249D01*
X999373Y96837D01*
X993785Y102171D01*
X988451Y104965D01*
X980323Y107759D01*
X966607Y107759D01*
X958479Y104965D01*
X952891Y102171D01*
X947557Y96837D01*
X944763Y91249D01*
X944763Y80327D01*
X947557Y74993D01*
X952891Y69405D01*
X958479Y66865D01*
X1002167Y21399D02*
G01*
X958479Y21399D01*
X950097Y24193D01*
X947557Y26987D01*
X944763Y32321D01*
X944763Y37909D01*
X947557Y43243D01*
X950097Y46037D01*
X958479Y48831D01*
X963813Y48831D01*
X1002167Y3619D02*
G01*
X944763Y3619D01*
X944763Y3619D02*
G01*
X944763Y-29146D01*
X988451Y-88074D02*
G01*
X993785Y-85534D01*
X999373Y-79946D01*
X1002167Y-74612D01*
X1002167Y-63690D01*
X999373Y-58102D01*
X993785Y-52768D01*
X988451Y-49974D01*
X980323Y-47180D01*
X966607Y-47180D01*
X958479Y-49974D01*
X952891Y-52768D01*
X947557Y-58102D01*
X944763Y-63690D01*
X944763Y-74612D01*
X947557Y-79946D01*
X952891Y-85534D01*
X958479Y-88074D01*
D11*
X282041Y472663D02*
G01*
X282041Y453613D01*
X282041Y462747D02*
G01*
X284835Y465300D01*
X286621Y466313D01*
X289158Y466313D01*
X291185Y465300D01*
X291952Y462747D01*
X291952Y453613D01*
X300847Y472663D02*
G01*
X300847Y457159D01*
X301614Y454372D01*
X303377Y453613D01*
X305150Y453613D01*
X298056Y466313D02*
G01*
X304406Y466313D01*
X314063Y472663D02*
G01*
X314063Y457159D01*
X314815Y454372D01*
X316852Y453613D01*
X318620Y453613D01*
X311246Y466313D02*
G01*
X317596Y466313D01*
X324467Y466313D02*
G01*
X324467Y447263D01*
X324467Y463509D02*
G01*
X326242Y465300D01*
X328282Y466313D01*
X330817Y466313D01*
X332841Y465300D01*
X334632Y463509D01*
X335381Y460976D01*
X335381Y458950D01*
X334632Y456397D01*
X332841Y454372D01*
X330817Y453613D01*
X328282Y453613D01*
X326242Y454372D01*
X324467Y456397D01*
X351381Y463509D02*
G01*
X350613Y465300D01*
X347827Y466313D01*
X345036Y466313D01*
X342252Y465300D01*
X341477Y463509D01*
X342252Y461736D01*
X344271Y460976D01*
X348848Y459963D01*
X350613Y458950D01*
X351381Y457159D01*
X351381Y456397D01*
X350613Y454372D01*
X347827Y453613D01*
X345036Y453613D01*
X342252Y454372D01*
X341477Y456397D01*
X358236Y464530D02*
G01*
X357477Y463509D01*
X358236Y462747D01*
X359255Y463509D01*
X358236Y464530D01*
X358236Y458180D02*
G01*
X357477Y457159D01*
X358236Y456397D01*
X359255Y457159D01*
X358236Y458180D01*
X381604Y476209D02*
G01*
X365353Y447263D01*
X403959Y476209D02*
G01*
X387692Y447263D01*
X410055Y466313D02*
G01*
X410055Y447263D01*
X410055Y463509D02*
G01*
X411827Y465300D01*
X413605Y466313D01*
X416405Y466313D01*
X418177Y465300D01*
X419955Y463509D01*
X420977Y460976D01*
X420977Y458950D01*
X419955Y456397D01*
X418177Y454372D01*
X416405Y453613D01*
X413605Y453613D01*
X411827Y454372D01*
X410055Y456397D01*
X426813Y472663D02*
G01*
X426813Y453613D01*
X426813Y463509D02*
G01*
X428607Y465300D01*
X430623Y466313D01*
X433163Y466313D01*
X435203Y465300D01*
X436973Y463509D01*
X437743Y460976D01*
X437743Y458950D01*
X436973Y456397D01*
X435203Y454372D01*
X433163Y453613D01*
X430623Y453613D01*
X428607Y454372D01*
X426813Y456397D01*
X454759Y466313D02*
G01*
X454759Y453613D01*
X454759Y463509D02*
G01*
X452973Y465300D01*
X451192Y466313D01*
X448409Y466313D01*
X446623Y465300D01*
X444596Y463509D01*
X443837Y460976D01*
X443837Y458950D01*
X444596Y456397D01*
X446623Y454372D01*
X448409Y453613D01*
X451192Y453613D01*
X452973Y454372D01*
X454759Y456397D01*
X460603Y466313D02*
G01*
X460603Y453613D01*
X460603Y462747D02*
G01*
X463395Y465300D01*
X465165Y466313D01*
X467974Y466313D01*
X469745Y465300D01*
X470755Y462747D01*
X470755Y453613D01*
X480418Y472663D02*
G01*
X481177Y471650D01*
X482193Y472663D01*
X481177Y473676D01*
X480418Y472663D01*
X481177Y466313D02*
G01*
X481177Y450809D01*
X480418Y448022D01*
X478640Y447263D01*
X476592Y447263D01*
X488287Y472663D02*
G01*
X489046Y471650D01*
X490057Y472663D01*
X489046Y473676D01*
X488287Y472663D01*
X489046Y466313D02*
G01*
X489046Y453613D01*
X495904Y466313D02*
G01*
X495904Y453613D01*
X495904Y462747D02*
G01*
X498703Y465300D01*
X500473Y466313D01*
X503265Y466313D01*
X505053Y465300D01*
X506074Y462747D01*
X506074Y453613D01*
X512927Y458180D02*
G01*
X511909Y457159D01*
X512927Y456397D01*
X513687Y457159D01*
X512927Y458180D01*
X529676Y463509D02*
G01*
X528927Y465300D01*
X526127Y466313D01*
X523326Y466313D01*
X520796Y465300D01*
X519777Y463509D01*
X520796Y461736D01*
X522577Y460976D01*
X527146Y459963D01*
X528927Y458950D01*
X529676Y457159D01*
X529676Y456397D01*
X528927Y454372D01*
X526127Y453613D01*
X523326Y453613D01*
X520796Y454372D01*
X519777Y456397D01*
X535790Y466313D02*
G01*
X535790Y447263D01*
X535790Y463509D02*
G01*
X537568Y465300D01*
X539343Y466313D01*
X542140Y466313D01*
X543918Y465300D01*
X545693Y463509D01*
X546704Y460976D01*
X546704Y458950D01*
X545693Y456397D01*
X543918Y454372D01*
X542140Y453613D01*
X539343Y453613D01*
X537568Y454372D01*
X535790Y456397D01*
X563727Y466313D02*
G01*
X563727Y453613D01*
X563727Y463509D02*
G01*
X561705Y465300D01*
X559907Y466313D01*
X557377Y466313D01*
X555355Y465300D01*
X553557Y463509D01*
X552792Y460976D01*
X552792Y458950D01*
X553557Y456397D01*
X555355Y454372D01*
X557377Y453613D01*
X559907Y453613D01*
X561705Y454372D01*
X563727Y456397D01*
X580476Y463509D02*
G01*
X578705Y465300D01*
X576927Y466313D01*
X574126Y466313D01*
X572355Y465300D01*
X570577Y463509D01*
X569574Y460976D01*
X569574Y458950D01*
X570577Y456397D01*
X572355Y454372D01*
X574126Y453613D01*
X576927Y453613D01*
X578705Y454372D01*
X580476Y456397D01*
X586582Y460976D02*
G01*
X597504Y460976D01*
X597504Y462747D01*
X596493Y464530D01*
X595723Y465300D01*
X593707Y466313D01*
X591154Y466313D01*
X589373Y465300D01*
X587357Y463509D01*
X586582Y460976D01*
X586582Y458950D01*
X587357Y456397D01*
X589373Y454372D01*
X591154Y453613D01*
X593707Y453613D01*
X595723Y454372D01*
X597504Y456397D01*
X282064Y55664D02*
G01*
X282064Y36614D01*
X282064Y45750D02*
G01*
X284858Y48303D01*
X286644Y49314D01*
X289181Y49314D01*
X291208Y48303D01*
X291975Y45750D01*
X291975Y36614D01*
X300870Y55664D02*
G01*
X300870Y40162D01*
X301637Y37373D01*
X303400Y36614D01*
X305173Y36614D01*
X298079Y49314D02*
G01*
X304429Y49314D01*
X314086Y55664D02*
G01*
X314086Y40162D01*
X314838Y37373D01*
X316875Y36614D01*
X318643Y36614D01*
X311269Y49314D02*
G01*
X317619Y49314D01*
X324490Y49314D02*
G01*
X324490Y30264D01*
X324490Y46512D02*
G01*
X326265Y48303D01*
X328305Y49314D01*
X330840Y49314D01*
X332864Y48303D01*
X334655Y46512D01*
X335404Y43980D01*
X335404Y41953D01*
X334655Y39400D01*
X332864Y37373D01*
X330840Y36614D01*
X328305Y36614D01*
X326265Y37373D01*
X324490Y39400D01*
X351403Y46512D02*
G01*
X350636Y48303D01*
X347850Y49314D01*
X345059Y49314D01*
X342275Y48303D01*
X341500Y46512D01*
X342275Y44739D01*
X344294Y43980D01*
X348871Y42964D01*
X350636Y41953D01*
X351403Y40162D01*
X351403Y39400D01*
X350636Y37373D01*
X347850Y36614D01*
X345059Y36614D01*
X342275Y37373D01*
X341500Y39400D01*
X358259Y47533D02*
G01*
X357499Y46512D01*
X358259Y45750D01*
X359277Y46512D01*
X358259Y47533D01*
X358259Y41183D02*
G01*
X357499Y40162D01*
X358259Y39400D01*
X359277Y40162D01*
X358259Y41183D01*
X381627Y59212D02*
G01*
X365376Y30264D01*
X403981Y59212D02*
G01*
X387715Y30264D01*
X410077Y49314D02*
G01*
X410077Y30264D01*
X410077Y46512D02*
G01*
X411850Y48303D01*
X413628Y49314D01*
X416427Y49314D01*
X418200Y48303D01*
X419978Y46512D01*
X420999Y43980D01*
X420999Y41953D01*
X419978Y39400D01*
X418200Y37373D01*
X416427Y36614D01*
X413628Y36614D01*
X411850Y37373D01*
X410077Y39400D01*
X426836Y55664D02*
G01*
X426836Y36614D01*
X426836Y46512D02*
G01*
X428630Y48303D01*
X430646Y49314D01*
X433186Y49314D01*
X435226Y48303D01*
X436996Y46512D01*
X437766Y43980D01*
X437766Y41953D01*
X436996Y39400D01*
X435226Y37373D01*
X433186Y36614D01*
X430646Y36614D01*
X428630Y37373D01*
X426836Y39400D01*
X454781Y49314D02*
G01*
X454781Y36614D01*
X454781Y46512D02*
G01*
X452996Y48303D01*
X451215Y49314D01*
X448431Y49314D01*
X446646Y48303D01*
X444619Y46512D01*
X443859Y43980D01*
X443859Y41953D01*
X444619Y39400D01*
X446646Y37373D01*
X448431Y36614D01*
X451215Y36614D01*
X452996Y37373D01*
X454781Y39400D01*
X460626Y49314D02*
G01*
X460626Y36614D01*
X460626Y45750D02*
G01*
X463417Y48303D01*
X465188Y49314D01*
X467997Y49314D01*
X469767Y48303D01*
X470778Y45750D01*
X470778Y36614D01*
X480440Y55664D02*
G01*
X481200Y54653D01*
X482216Y55664D01*
X481200Y56680D01*
X480440Y55664D01*
X481200Y49314D02*
G01*
X481200Y33812D01*
X480440Y31023D01*
X478662Y30264D01*
X476615Y30264D01*
X488309Y55664D02*
G01*
X489069Y54653D01*
X490080Y55664D01*
X489069Y56680D01*
X488309Y55664D01*
X489069Y49314D02*
G01*
X489069Y36614D01*
X495927Y49314D02*
G01*
X495927Y36614D01*
X495927Y45750D02*
G01*
X498726Y48303D01*
X500496Y49314D01*
X503288Y49314D01*
X505076Y48303D01*
X506097Y45750D01*
X506097Y36614D01*
X512950Y41183D02*
G01*
X511931Y40162D01*
X512950Y39400D01*
X513709Y40162D01*
X512950Y41183D01*
X529699Y46512D02*
G01*
X528949Y48303D01*
X526150Y49314D01*
X523349Y49314D01*
X520819Y48303D01*
X519800Y46512D01*
X520819Y44739D01*
X522599Y43980D01*
X527169Y42964D01*
X528949Y41953D01*
X529699Y40162D01*
X529699Y39400D01*
X528949Y37373D01*
X526150Y36614D01*
X523349Y36614D01*
X520819Y37373D01*
X519800Y39400D01*
X535812Y49314D02*
G01*
X535812Y30264D01*
X535812Y46512D02*
G01*
X537590Y48303D01*
X539366Y49314D01*
X542162Y49314D01*
X543940Y48303D01*
X545716Y46512D01*
X546727Y43980D01*
X546727Y41953D01*
X545716Y39400D01*
X543940Y37373D01*
X542162Y36614D01*
X539366Y36614D01*
X537590Y37373D01*
X535812Y39400D01*
X563750Y49314D02*
G01*
X563750Y36614D01*
X563750Y46512D02*
G01*
X561728Y48303D01*
X559930Y49314D01*
X557400Y49314D01*
X555378Y48303D01*
X553580Y46512D01*
X552815Y43980D01*
X552815Y41953D01*
X553580Y39400D01*
X555378Y37373D01*
X557400Y36614D01*
X559930Y36614D01*
X561728Y37373D01*
X563750Y39400D01*
X580499Y46512D02*
G01*
X578728Y48303D01*
X576950Y49314D01*
X574149Y49314D01*
X572378Y48303D01*
X570600Y46512D01*
X569597Y43980D01*
X569597Y41953D01*
X570600Y39400D01*
X572378Y37373D01*
X574149Y36614D01*
X576950Y36614D01*
X578728Y37373D01*
X580499Y39400D01*
X586605Y43980D02*
G01*
X597527Y43980D01*
X597527Y45750D01*
X596516Y47533D01*
X595746Y48303D01*
X593730Y49314D01*
X591177Y49314D01*
X589396Y48303D01*
X587380Y46512D01*
X586605Y43980D01*
X586605Y41953D01*
X587380Y39400D01*
X589396Y37373D01*
X591177Y36614D01*
X593730Y36614D01*
X595746Y37373D01*
X597527Y39400D01*
X282054Y-361335D02*
G01*
X282054Y-380385D01*
X282054Y-371246D02*
G01*
X284845Y-368696D01*
X286631Y-367685D01*
X289168Y-367685D01*
X291195Y-368696D01*
X291962Y-371246D01*
X291962Y-380385D01*
X300857Y-361335D02*
G01*
X300857Y-376836D01*
X301625Y-379625D01*
X303387Y-380385D01*
X305160Y-380385D01*
X298066Y-367685D02*
G01*
X304416Y-367685D01*
X314073Y-361335D02*
G01*
X314073Y-376836D01*
X314825Y-379625D01*
X316862Y-380385D01*
X318630Y-380385D01*
X311256Y-367685D02*
G01*
X317606Y-367685D01*
X324477Y-367685D02*
G01*
X324477Y-386735D01*
X324477Y-370486D02*
G01*
X326252Y-368696D01*
X328292Y-367685D01*
X330827Y-367685D01*
X332854Y-368696D01*
X334642Y-370486D01*
X335391Y-373016D01*
X335391Y-375046D01*
X334642Y-377596D01*
X332854Y-379625D01*
X330827Y-380385D01*
X328292Y-380385D01*
X326252Y-379625D01*
X324477Y-377596D01*
X351391Y-370486D02*
G01*
X350624Y-368696D01*
X347837Y-367685D01*
X345046Y-367685D01*
X342262Y-368696D01*
X341487Y-370486D01*
X342262Y-372257D01*
X344281Y-373016D01*
X348858Y-374035D01*
X350624Y-375046D01*
X351391Y-376836D01*
X351391Y-377596D01*
X350624Y-379625D01*
X347837Y-380385D01*
X345046Y-380385D01*
X342262Y-379625D01*
X341487Y-377596D01*
X358246Y-369458D02*
G01*
X357487Y-370486D01*
X358246Y-371246D01*
X359265Y-370486D01*
X358246Y-369458D01*
X358246Y-375808D02*
G01*
X357487Y-376836D01*
X358246Y-377596D01*
X359265Y-376836D01*
X358246Y-375808D01*
X381614Y-357786D02*
G01*
X365363Y-386735D01*
X403969Y-357786D02*
G01*
X387703Y-386735D01*
X410065Y-367685D02*
G01*
X410065Y-386735D01*
X410065Y-370486D02*
G01*
X411838Y-368696D01*
X413616Y-367685D01*
X416415Y-367685D01*
X418188Y-368696D01*
X419966Y-370486D01*
X420987Y-373016D01*
X420987Y-375046D01*
X419966Y-377596D01*
X418188Y-379625D01*
X416415Y-380385D01*
X413616Y-380385D01*
X411838Y-379625D01*
X410065Y-377596D01*
X426824Y-361335D02*
G01*
X426824Y-380385D01*
X426824Y-370486D02*
G01*
X428617Y-368696D01*
X430634Y-367685D01*
X433174Y-367685D01*
X435213Y-368696D01*
X436984Y-370486D01*
X437753Y-373016D01*
X437753Y-375046D01*
X436984Y-377596D01*
X435213Y-379625D01*
X433174Y-380385D01*
X430634Y-380385D01*
X428617Y-379625D01*
X426824Y-377596D01*
X454769Y-367685D02*
G01*
X454769Y-380385D01*
X454769Y-370486D02*
G01*
X452983Y-368696D01*
X451203Y-367685D01*
X448419Y-367685D01*
X446633Y-368696D01*
X444606Y-370486D01*
X443847Y-373016D01*
X443847Y-375046D01*
X444606Y-377596D01*
X446633Y-379625D01*
X448419Y-380385D01*
X451203Y-380385D01*
X452983Y-379625D01*
X454769Y-377596D01*
X460613Y-367685D02*
G01*
X460613Y-380385D01*
X460613Y-371246D02*
G01*
X463405Y-368696D01*
X465175Y-367685D01*
X467984Y-367685D01*
X469755Y-368696D01*
X470766Y-371246D01*
X470766Y-380385D01*
X480428Y-361335D02*
G01*
X481187Y-362346D01*
X482203Y-361335D01*
X481187Y-360316D01*
X480428Y-361335D01*
X481187Y-367685D02*
G01*
X481187Y-383186D01*
X480428Y-385975D01*
X478650Y-386735D01*
X476603Y-386735D01*
X488297Y-361335D02*
G01*
X489056Y-362346D01*
X490067Y-361335D01*
X489056Y-360316D01*
X488297Y-361335D01*
X489056Y-367685D02*
G01*
X489056Y-380385D01*
X495914Y-367685D02*
G01*
X495914Y-380385D01*
X495914Y-371246D02*
G01*
X498713Y-368696D01*
X500484Y-367685D01*
X503275Y-367685D01*
X505063Y-368696D01*
X506084Y-371246D01*
X506084Y-380385D01*
X512937Y-375808D02*
G01*
X511919Y-376836D01*
X512937Y-377596D01*
X513697Y-376836D01*
X512937Y-375808D01*
X529686Y-370486D02*
G01*
X528937Y-368696D01*
X526138Y-367685D01*
X523336Y-367685D01*
X520806Y-368696D01*
X519788Y-370486D01*
X520806Y-372257D01*
X522587Y-373016D01*
X527156Y-374035D01*
X528937Y-375046D01*
X529686Y-376836D01*
X529686Y-377596D01*
X528937Y-379625D01*
X526138Y-380385D01*
X523336Y-380385D01*
X520806Y-379625D01*
X519788Y-377596D01*
X535800Y-367685D02*
G01*
X535800Y-386735D01*
X535800Y-370486D02*
G01*
X537578Y-368696D01*
X539353Y-367685D01*
X542150Y-367685D01*
X543928Y-368696D01*
X545703Y-370486D01*
X546714Y-373016D01*
X546714Y-375046D01*
X545703Y-377596D01*
X543928Y-379625D01*
X542150Y-380385D01*
X539353Y-380385D01*
X537578Y-379625D01*
X535800Y-377596D01*
X563737Y-367685D02*
G01*
X563737Y-380385D01*
X563737Y-370486D02*
G01*
X561715Y-368696D01*
X559917Y-367685D01*
X557387Y-367685D01*
X555365Y-368696D01*
X553567Y-370486D01*
X552803Y-373016D01*
X552803Y-375046D01*
X553567Y-377596D01*
X555365Y-379625D01*
X557387Y-380385D01*
X559917Y-380385D01*
X561715Y-379625D01*
X563737Y-377596D01*
X580486Y-370486D02*
G01*
X578716Y-368696D01*
X576938Y-367685D01*
X574136Y-367685D01*
X572366Y-368696D01*
X570588Y-370486D01*
X569584Y-373016D01*
X569584Y-375046D01*
X570588Y-377596D01*
X572366Y-379625D01*
X574136Y-380385D01*
X576938Y-380385D01*
X578716Y-379625D01*
X580486Y-377596D01*
X586592Y-373016D02*
G01*
X597514Y-373016D01*
X597514Y-371246D01*
X596503Y-369458D01*
X595734Y-368696D01*
X593717Y-367685D01*
X591164Y-367685D01*
X589384Y-368696D01*
X587367Y-370486D01*
X586592Y-373016D01*
X586592Y-375046D01*
X587367Y-377596D01*
X589384Y-379625D01*
X591164Y-380385D01*
X593717Y-380385D01*
X595734Y-379625D01*
X597514Y-377596D01*
M02*
