G04 Layer: BoardOutlineLayer*
G04 EasyEDA v6.5.22, 2022-12-26 17:46:56*
G04 054495fe3ecf40f9b916fb1bc62bcec1,9c64b28349a745268246d024528a85f0,10*
G04 Gerber Generator version 0.2*
G04 Scale: 100 percent, Rotated: No, Reflected: No *
G04 Dimensions in millimeters *
G04 leading zeros omitted , absolute positions ,4 integer and 5 decimal *
%FSLAX45Y45*%
%MOMM*%

%ADD10C,0.0500*%
%ADD11C,0.0508*%
%ADD12C,0.0510*%
D10*
X822497Y270002D02*
G01*
X152511Y270002D01*
X152511Y614984D02*
G01*
X828055Y614984D01*
X52138Y342021D02*
G01*
X52511Y524974D01*
X927806Y524987D02*
G01*
X927447Y337736D01*
X822462Y-75006D02*
G01*
X152511Y-75006D01*
X152511Y269989D02*
G01*
X828004Y269989D01*
X52133Y-2971D02*
G01*
X52511Y179961D01*
X927770Y179992D02*
G01*
X927422Y-7264D01*
X822497Y-419999D02*
G01*
X152511Y-419999D01*
X152511Y-75011D02*
G01*
X828055Y-75011D01*
X52133Y-347974D02*
G01*
X52511Y-165021D01*
X927806Y-165008D02*
G01*
X927447Y-352259D01*
D11*
X1079997Y-419999D02*
G01*
X-12499Y-419999D01*
X-12499Y704997D02*
G01*
X1077503Y704992D01*
X-12499Y704997D02*
G01*
X-12499Y-419999D01*
D12*
X1078697Y704997D02*
G01*
X1079997Y-419999D01*
D10*
G75*
G01*
X827507Y-75009D02*
G02*
X927506Y-175009I0J-100000D01*
G75*
G01*
X52509Y-175009D02*
G02*
X152509Y-75009I100000J0D01*
G75*
G01*
X927499Y-319999D02*
G02*
X821870Y-419839I-100000J1D01*
G75*
G01*
X152499Y-419999D02*
G02*
X52126Y-317594I-402J99999D01*
G75*
G01*
X152497Y-75004D02*
G02*
X52131Y27402I-395J99999D01*
G75*
G01*
X927468Y24991D02*
G02*
X821825Y-74839I-99999J11D01*
G75*
G01*
X52507Y169979D02*
G02*
X152509Y269992I100000J13D01*
G75*
G01*
X827479Y269992D02*
G02*
X927468Y169979I-10J-100000D01*
G75*
G01*
X152502Y269997D02*
G02*
X52131Y372402I-400J99999D01*
G75*
G01*
X927499Y370002D02*
G02*
X821868Y270157I-100000J-4D01*
G75*
G01*
X52512Y514990D02*
G02*
X152514Y614987I100000J-2D01*
G75*
G01*
X827507Y614987D02*
G02*
X927509Y514990I2J-99999D01*

%LPD*%
M02*
