G04 Layer: TopSolderMaskLayer*
G04 EasyEDA v6.5.22, 2022-12-26 17:46:56*
G04 054495fe3ecf40f9b916fb1bc62bcec1,9c64b28349a745268246d024528a85f0,10*
G04 Gerber Generator version 0.2*
G04 Scale: 100 percent, Rotated: No, Reflected: No *
G04 Dimensions in millimeters *
G04 leading zeros omitted , absolute positions ,4 integer and 5 decimal *
%FSLAX45Y45*%
%MOMM*%

%AMMACRO1*1,1,$1,$2,$3*1,1,$1,$4,$5*1,1,$1,0-$2,0-$3*1,1,$1,0-$4,0-$5*20,1,$1,$2,$3,$4,$5,0*20,1,$1,$4,$5,0-$2,0-$3,0*20,1,$1,0-$2,0-$3,0-$4,0-$5,0*20,1,$1,0-$4,0-$5,$2,$3,0*4,1,4,$2,$3,$4,$5,0-$2,0-$3,0-$4,0-$5,$2,$3,0*%
%ADD10C,0.9016*%
%ADD11O,0.9500362X1.2000230000000003*%
%ADD12O,1.1000232X2.3000208000000004*%
%ADD13MACRO1,0.1016X-0.2828X-0.27X-0.2828X0.27*%
%ADD14MACRO1,0.1016X0.2828X-0.27X0.2828X0.27*%
%ADD15MACRO1,0.1016X-0.2827X-0.27X-0.2827X0.27*%

%LPD*%
D10*
G01*
X209999Y-349999D03*
G01*
X754999Y-352498D03*
G01*
X754966Y-7500D03*
G01*
X209999Y-4998D03*
G01*
X754997Y337497D03*
G01*
X209999Y339999D03*
D11*
G01*
X761979Y103002D03*
G01*
X211998Y103002D03*
G01*
X538007Y103002D03*
D12*
G01*
X57995Y74752D03*
G01*
X921974Y74752D03*
D11*
G01*
X640006Y103002D03*
G01*
X438007Y103002D03*
G01*
X333992Y103002D03*
D13*
G01*
X375780Y207504D03*
D14*
G01*
X289213Y207504D03*
D15*
G01*
X680766Y209998D03*
D14*
G01*
X594212Y209998D03*
D11*
G01*
X762010Y447995D03*
G01*
X211998Y447995D03*
G01*
X538012Y447995D03*
D12*
G01*
X58000Y419750D03*
G01*
X922004Y419750D03*
D11*
G01*
X640013Y447995D03*
G01*
X438012Y447995D03*
G01*
X334002Y447995D03*
D13*
G01*
X375785Y552496D03*
D14*
G01*
X289220Y552496D03*
D13*
G01*
X680784Y554995D03*
D14*
G01*
X594224Y554995D03*
D13*
G01*
X680782Y-135001D03*
D14*
G01*
X594216Y-135001D03*
D13*
G01*
X375781Y-137500D03*
D14*
G01*
X289215Y-137500D03*
D11*
G01*
X762010Y-242001D03*
G01*
X211998Y-242001D03*
G01*
X538007Y-242001D03*
D12*
G01*
X57998Y-270245D03*
G01*
X922004Y-270245D03*
D11*
G01*
X640013Y-242001D03*
G01*
X438007Y-242001D03*
G01*
X333994Y-242001D03*
M02*
