G04 Layer: TopSolderMaskLayer*
G04 EasyEDA v6.5.22, 2022-12-30 12:31:34*
G04 8208ea2c859e44049a4325ea99c283b7,9c64b28349a745268246d024528a85f0,10*
G04 Gerber Generator version 0.2*
G04 Scale: 100 percent, Rotated: No, Reflected: No *
G04 Dimensions in millimeters *
G04 leading zeros omitted , absolute positions ,4 integer and 5 decimal *
%FSLAX45Y45*%
%MOMM*%

%AMMACRO1*1,1,$1,$2,$3*1,1,$1,$4,$5*1,1,$1,0-$2,0-$3*1,1,$1,0-$4,0-$5*20,1,$1,$2,$3,$4,$5,0*20,1,$1,$4,$5,0-$2,0-$3,0*20,1,$1,0-$2,0-$3,0-$4,0-$5,0*20,1,$1,0-$4,0-$5,$2,$3,0*4,1,4,$2,$3,$4,$5,0-$2,0-$3,0-$4,0-$5,$2,$3,0*%
%ADD10C,0.8800*%
%ADD11O,0.8300212X1.1800078*%
%ADD12O,0.9500362X1.2000230000000003*%
%ADD13O,0.7800086X1.1800078*%
%ADD14O,1.1000232X2.3000208000000004*%
%ADD15O,0.8500364X1.2000230000000003*%
%ADD16MACRO1,0.1016X-0.2828X-0.2701X-0.2828X0.2701*%
%ADD17MACRO1,0.1016X0.2829X-0.2701X0.2829X0.2701*%
%ADD18MACRO1,0.1016X-0.2826X-0.27X-0.2826X0.27*%
%ADD19MACRO1,0.1016X0.2828X-0.27X0.2828X0.27*%
%ADD20MACRO1,0.1016X0.2828X-0.2701X0.2828X0.2701*%
%ADD21MACRO1,0.1016X-0.2827X-0.27X-0.2827X0.27*%

%LPD*%
D10*
G01*
X172491Y428497D03*
G01*
X640003Y426999D03*
G01*
X640029Y10007D03*
G01*
X172516Y11506D03*
G01*
X640003Y-406984D03*
G01*
X172516Y-405511D03*
D11*
G01*
X722502Y121005D03*
D12*
G01*
X172516Y121005D03*
D13*
G01*
X498551Y121005D03*
D14*
G01*
X18542Y92760D03*
G01*
X882497Y92760D03*
D15*
G01*
X600506Y121005D03*
D13*
G01*
X398526Y121005D03*
D11*
G01*
X294538Y121005D03*
D16*
G01*
X336304Y228000D03*
D17*
G01*
X249745Y228000D03*
D18*
G01*
X641304Y227981D03*
D19*
G01*
X554755Y227981D03*
D11*
G01*
X722502Y-295986D03*
D12*
G01*
X172491Y-295986D03*
D13*
G01*
X498525Y-295986D03*
D14*
G01*
X18542Y-324256D03*
G01*
X882497Y-324256D03*
D15*
G01*
X600481Y-295986D03*
D13*
G01*
X398526Y-295986D03*
D11*
G01*
X294512Y-295986D03*
D16*
G01*
X336292Y-188995D03*
D20*
G01*
X249734Y-188995D03*
D21*
G01*
X641296Y-189015D03*
D19*
G01*
X554742Y-189015D03*
D21*
G01*
X641290Y644978D03*
D19*
G01*
X554732Y644978D03*
D16*
G01*
X336282Y644999D03*
D17*
G01*
X249722Y644999D03*
D11*
G01*
X722502Y537997D03*
D12*
G01*
X172491Y537997D03*
D13*
G01*
X498525Y537997D03*
D14*
G01*
X18516Y509752D03*
G01*
X882497Y509752D03*
D15*
G01*
X600481Y537997D03*
D13*
G01*
X398500Y537997D03*
D11*
G01*
X294512Y537997D03*
M02*
