G04 Layer: BottomSolderMaskLayer*
G04 EasyEDA v6.5.22, 2022-12-27 15:54:52*
G04 581f4e56cbf948ffa598ce4b045c5e28,9c64b28349a745268246d024528a85f0,10*
G04 Gerber Generator version 0.2*
G04 Scale: 100 percent, Rotated: No, Reflected: No *
G04 Dimensions in millimeters *
G04 leading zeros omitted , absolute positions ,4 integer and 5 decimal *
%FSLAX45Y45*%
%MOMM*%

%AMMACRO1*1,1,$1,$2,$3*1,1,$1,$4,$5*1,1,$1,0-$2,0-$3*1,1,$1,0-$4,0-$5*20,1,$1,$2,$3,$4,$5,0*20,1,$1,$4,$5,0-$2,0-$3,0*20,1,$1,0-$2,0-$3,0-$4,0-$5,0*20,1,$1,0-$4,0-$5,$2,$3,0*4,1,4,$2,$3,$4,$5,0-$2,0-$3,0-$4,0-$5,$2,$3,0*%
%ADD10MACRO1,0.1016X-0.6X0.375X0.6X0.375*%
%ADD11MACRO1,0.1016X0.2828X-0.27X0.2828X0.27*%
%ADD12MACRO1,0.1016X-0.2828X-0.27X-0.2828X0.27*%
%ADD13O,0.8300212X1.1800078*%
%ADD14O,0.9500362X1.2000230000000003*%
%ADD15O,1.1000232X2.3000208000000004*%
%ADD16O,0.8500364X1.2000230000000003*%

%LPD*%
D10*
G01*
X172499Y424997D03*
G01*
X722497Y425002D03*
G01*
X722999Y-7498D03*
G01*
X172998Y-7500D03*
G01*
X722997Y-436999D03*
G01*
X172999Y-436966D03*
D11*
G01*
X250234Y212510D03*
D12*
G01*
X336796Y212510D03*
D11*
G01*
X555221Y212484D03*
D12*
G01*
X641788Y212484D03*
D11*
G01*
X250207Y-216955D03*
D12*
G01*
X336768Y-216955D03*
D11*
G01*
X555193Y-216980D03*
D12*
G01*
X641764Y-216980D03*
D11*
G01*
X554713Y644986D03*
D12*
G01*
X641281Y644986D03*
D11*
G01*
X249726Y645011D03*
D12*
G01*
X336287Y645011D03*
D13*
G01*
X723011Y105493D03*
D14*
G01*
X172996Y105493D03*
D13*
G01*
X499026Y105493D03*
D15*
G01*
X19019Y77251D03*
G01*
X883005Y77251D03*
D16*
G01*
X600999Y105493D03*
D13*
G01*
X399013Y105493D03*
G01*
X295015Y105493D03*
G01*
X722988Y-323971D03*
D14*
G01*
X172968Y-323971D03*
D13*
G01*
X499000Y-323971D03*
D15*
G01*
X18991Y-352214D03*
G01*
X882982Y-352214D03*
D16*
G01*
X600971Y-323971D03*
D13*
G01*
X398988Y-323971D03*
G01*
X294987Y-323971D03*
G01*
X722505Y537994D03*
D14*
G01*
X172486Y537994D03*
D13*
G01*
X498518Y537994D03*
D15*
G01*
X18511Y509752D03*
G01*
X882500Y509752D03*
D16*
G01*
X600491Y537994D03*
D13*
G01*
X398505Y537994D03*
G01*
X294507Y537994D03*
M02*
