G04 Layer: BottomLayer*
G04 EasyEDA v6.5.22, 2022-12-26 17:46:56*
G04 054495fe3ecf40f9b916fb1bc62bcec1,9c64b28349a745268246d024528a85f0,10*
G04 Gerber Generator version 0.2*
G04 Scale: 100 percent, Rotated: No, Reflected: No *
G04 Dimensions in millimeters *
G04 leading zeros omitted , absolute positions ,4 integer and 5 decimal *
%FSLAX45Y45*%
%MOMM*%

%AMMACRO1*21,1,$1,$2,0,0,$3*%
%ADD10R,1.2000X0.8000*%
%ADD11MACRO1,0.5401X0.5656X90.0000*%
%ADD12MACRO1,0.54X0.5656X90.0000*%
%ADD13O,0.850011X1.0999978000000001*%
%ADD14O,0.9999979999999999X2.1999956000000003*%
%ADD15C,0.6000*%
%ADD16C,0.0177*%

%LPD*%
G36*
X395224Y464972D02*
G01*
X390956Y465937D01*
X387451Y468630D01*
X385419Y472490D01*
X383794Y478586D01*
X379882Y486968D01*
X374599Y494538D01*
X368046Y501091D01*
X360476Y506374D01*
X352145Y510285D01*
X347522Y511505D01*
X343662Y513537D01*
X340969Y516991D01*
X340004Y521309D01*
X340004Y578916D01*
X340766Y582828D01*
X343001Y586079D01*
X346303Y588314D01*
X350164Y589076D01*
X467359Y589076D01*
X471220Y588314D01*
X474522Y586079D01*
X476758Y582828D01*
X477520Y578916D01*
X477520Y480161D01*
X476758Y476250D01*
X474522Y472948D01*
X471220Y470763D01*
X467359Y470001D01*
X418693Y470001D01*
X416458Y469442D01*
X409651Y466039D01*
X405130Y464972D01*
G37*

%LPD*%
G36*
X507695Y447497D02*
G01*
X503783Y448259D01*
X500481Y450443D01*
X498297Y453745D01*
X497535Y457657D01*
X497535Y578916D01*
X498297Y582828D01*
X500481Y586079D01*
X503783Y588314D01*
X507695Y589076D01*
X621842Y589076D01*
X625703Y588314D01*
X629005Y586079D01*
X631240Y582828D01*
X632002Y578916D01*
X632002Y520750D01*
X631037Y516483D01*
X628345Y512978D01*
X624484Y510946D01*
X621893Y510285D01*
X613511Y506374D01*
X605942Y501091D01*
X599440Y494538D01*
X594156Y486968D01*
X590245Y478586D01*
X587857Y469696D01*
X586994Y460044D01*
X586994Y457657D01*
X586232Y453745D01*
X583996Y450443D01*
X580745Y448259D01*
X576834Y447497D01*
G37*

%LPD*%
G36*
X772566Y445109D02*
G01*
X770077Y445262D01*
X767740Y446074D01*
X728472Y464515D01*
X727100Y464058D01*
X722630Y453643D01*
X720445Y450392D01*
X717143Y448259D01*
X713282Y447497D01*
X703173Y447497D01*
X699312Y448259D01*
X696010Y450443D01*
X693826Y453745D01*
X693013Y457657D01*
X693013Y460044D01*
X692200Y469696D01*
X689813Y478586D01*
X685901Y486968D01*
X680618Y494538D01*
X674065Y501091D01*
X666496Y506374D01*
X658114Y510285D01*
X650036Y512419D01*
X646125Y514451D01*
X643483Y517956D01*
X642518Y522224D01*
X642518Y578916D01*
X643280Y582828D01*
X645464Y586079D01*
X648766Y588314D01*
X652678Y589076D01*
X809853Y589076D01*
X813714Y588314D01*
X817016Y586079D01*
X819251Y582828D01*
X820013Y578916D01*
X820013Y457149D01*
X819302Y453390D01*
X817219Y450138D01*
X814069Y447903D01*
X810361Y446989D01*
G37*

%LPD*%
G36*
X604672Y295910D02*
G01*
X600811Y296672D01*
X597509Y298856D01*
X595325Y302056D01*
X594512Y305917D01*
X592734Y429717D01*
X593293Y433171D01*
X594969Y436219D01*
X599135Y439420D01*
X601167Y441706D01*
X604570Y444144D01*
X608685Y445008D01*
X678434Y445008D01*
X682294Y444246D01*
X685596Y442010D01*
X689203Y438810D01*
X692099Y437489D01*
X695756Y436981D01*
X699566Y436981D01*
X703275Y436270D01*
X706475Y434289D01*
X708710Y431292D01*
X709828Y426313D01*
X712216Y417372D01*
X716127Y408990D01*
X721410Y401421D01*
X727964Y394919D01*
X735533Y389585D01*
X743864Y385724D01*
X752805Y383336D01*
X762000Y382524D01*
X771194Y383336D01*
X780135Y385724D01*
X788517Y389585D01*
X796036Y394919D01*
X803351Y402234D01*
X806602Y404469D01*
X810463Y405231D01*
X814374Y404520D01*
X817676Y402336D01*
X819912Y399084D01*
X820724Y395224D01*
X821994Y306222D01*
X821232Y302260D01*
X819048Y298958D01*
X815746Y296672D01*
X811834Y295910D01*
G37*

%LPD*%
G36*
X153568Y295910D02*
G01*
X141884Y296722D01*
X132232Y298704D01*
X122935Y302006D01*
X114198Y306476D01*
X106070Y312064D01*
X98806Y318668D01*
X92456Y326237D01*
X87172Y334518D01*
X83007Y343458D01*
X80111Y352907D01*
X78486Y362610D01*
X78130Y371551D01*
X78384Y513689D01*
X79400Y526237D01*
X81737Y536549D01*
X85547Y546404D01*
X90678Y555599D01*
X97078Y563981D01*
X104597Y571347D01*
X113131Y577596D01*
X122428Y582574D01*
X132384Y586181D01*
X142697Y588314D01*
X153771Y589076D01*
X315772Y589076D01*
X319582Y588314D01*
X322834Y586181D01*
X325069Y582980D01*
X325882Y579170D01*
X327253Y521360D01*
X326390Y516940D01*
X323697Y513384D01*
X319735Y511301D01*
X315874Y510285D01*
X307543Y506374D01*
X299974Y501091D01*
X293420Y494538D01*
X289509Y489356D01*
X287578Y488035D01*
X278384Y482955D01*
X277520Y481787D01*
X277520Y306070D01*
X276707Y302158D01*
X274523Y298856D01*
X271221Y296672D01*
X267360Y295910D01*
G37*

%LPD*%
G36*
X395224Y119989D02*
G01*
X390956Y120954D01*
X387451Y123596D01*
X385419Y127508D01*
X383794Y133604D01*
X379882Y141986D01*
X374599Y149555D01*
X368046Y156057D01*
X360476Y161391D01*
X352145Y165252D01*
X347522Y166522D01*
X343611Y168554D01*
X340969Y172008D01*
X340004Y176326D01*
X340004Y233934D01*
X340766Y237794D01*
X343001Y241096D01*
X346252Y243332D01*
X350164Y244094D01*
X467359Y244094D01*
X471220Y243332D01*
X474522Y241096D01*
X476758Y237794D01*
X477520Y233934D01*
X477520Y135128D01*
X476758Y131267D01*
X474522Y127965D01*
X471220Y125780D01*
X467359Y124968D01*
X418693Y124968D01*
X416458Y124460D01*
X409651Y121056D01*
X405130Y119989D01*
G37*

%LPD*%
G36*
X507644Y102463D02*
G01*
X503783Y103225D01*
X500481Y105460D01*
X498297Y108762D01*
X497484Y112623D01*
X497484Y233934D01*
X498297Y237794D01*
X500481Y241096D01*
X503783Y243332D01*
X507644Y244094D01*
X621842Y244094D01*
X625703Y243332D01*
X629005Y241096D01*
X631240Y237794D01*
X632002Y233934D01*
X632002Y175768D01*
X631037Y171500D01*
X628345Y167995D01*
X624484Y165963D01*
X621893Y165252D01*
X613511Y161391D01*
X605942Y156057D01*
X599440Y149555D01*
X594106Y141986D01*
X590245Y133604D01*
X587857Y124663D01*
X586994Y115062D01*
X586994Y112623D01*
X586232Y108762D01*
X583996Y105460D01*
X580694Y103225D01*
X576834Y102463D01*
G37*

%LPD*%
G36*
X772515Y100126D02*
G01*
X770026Y100279D01*
X767689Y101041D01*
X728472Y119532D01*
X727049Y119075D01*
X722630Y108661D01*
X720394Y105410D01*
X717143Y103225D01*
X713282Y102463D01*
X703173Y102463D01*
X699312Y103225D01*
X696010Y105460D01*
X693775Y108762D01*
X693013Y112623D01*
X693013Y115062D01*
X692200Y124663D01*
X689813Y133604D01*
X685901Y141986D01*
X680567Y149555D01*
X674065Y156057D01*
X666496Y161391D01*
X658114Y165252D01*
X650036Y167436D01*
X646125Y169468D01*
X643483Y172974D01*
X642518Y177241D01*
X642518Y233934D01*
X643280Y237794D01*
X645464Y241096D01*
X648766Y243332D01*
X652678Y244094D01*
X809802Y244094D01*
X813714Y243332D01*
X817016Y241096D01*
X819200Y237794D01*
X819962Y233934D01*
X819962Y112166D01*
X819251Y108356D01*
X817168Y105156D01*
X814069Y102920D01*
X810310Y102006D01*
G37*

%LPD*%
G36*
X604621Y-49123D02*
G01*
X600811Y-48361D01*
X597509Y-46177D01*
X595274Y-42926D01*
X594461Y-39065D01*
X592734Y84683D01*
X593293Y88138D01*
X594969Y91186D01*
X599135Y94437D01*
X601167Y96672D01*
X604570Y99110D01*
X608685Y99974D01*
X678383Y99974D01*
X682294Y99212D01*
X685596Y97028D01*
X689203Y93776D01*
X692048Y92506D01*
X695706Y91948D01*
X699566Y91948D01*
X703224Y91287D01*
X706424Y89306D01*
X708660Y86309D01*
X712216Y72390D01*
X716076Y64008D01*
X721410Y56438D01*
X727913Y49885D01*
X735482Y44602D01*
X743864Y40690D01*
X752805Y38303D01*
X762000Y37541D01*
X771194Y38303D01*
X780084Y40690D01*
X788466Y44602D01*
X796036Y49885D01*
X803300Y57251D01*
X806551Y59436D01*
X810463Y60248D01*
X814324Y59486D01*
X817625Y57353D01*
X819861Y54102D01*
X820674Y50241D01*
X821944Y-38811D01*
X821232Y-42722D01*
X819048Y-46075D01*
X815695Y-48310D01*
X811784Y-49123D01*
G37*

%LPD*%
G36*
X153619Y-49123D02*
G01*
X141884Y-48310D01*
X132232Y-46278D01*
X122935Y-43027D01*
X114198Y-38557D01*
X106070Y-32918D01*
X98806Y-26314D01*
X92456Y-18796D01*
X87172Y-10464D01*
X83007Y-1524D01*
X80111Y7873D01*
X78486Y17627D01*
X78079Y26619D01*
X78384Y168656D01*
X79400Y181203D01*
X81737Y191516D01*
X85496Y201371D01*
X90678Y210616D01*
X97078Y218998D01*
X104597Y226364D01*
X113131Y232613D01*
X122428Y237591D01*
X132384Y241198D01*
X142697Y243332D01*
X153771Y244094D01*
X315722Y244094D01*
X319582Y243332D01*
X322834Y241198D01*
X325069Y237947D01*
X325882Y234137D01*
X327253Y176326D01*
X326339Y171958D01*
X323697Y168402D01*
X319735Y166319D01*
X315874Y165252D01*
X307543Y161391D01*
X299974Y156057D01*
X293420Y149555D01*
X289509Y144373D01*
X287578Y143052D01*
X278384Y137972D01*
X277520Y136753D01*
X277520Y-38963D01*
X276707Y-42824D01*
X274523Y-46126D01*
X271221Y-48310D01*
X267360Y-49123D01*
G37*

%LPD*%
G36*
X395224Y-224993D02*
G01*
X390956Y-224078D01*
X387451Y-221386D01*
X385419Y-217474D01*
X383794Y-211378D01*
X379882Y-202996D01*
X374599Y-195478D01*
X368046Y-188925D01*
X360476Y-183642D01*
X352145Y-179730D01*
X347522Y-178511D01*
X343611Y-176479D01*
X340969Y-172974D01*
X340004Y-168706D01*
X340004Y-111099D01*
X340766Y-107187D01*
X343001Y-103885D01*
X346303Y-101701D01*
X350164Y-100939D01*
X467359Y-100939D01*
X471220Y-101701D01*
X474522Y-103885D01*
X476758Y-107187D01*
X477520Y-111099D01*
X477520Y-209854D01*
X476758Y-213715D01*
X474522Y-217017D01*
X471220Y-219252D01*
X467359Y-220014D01*
X418693Y-220014D01*
X416458Y-220522D01*
X409651Y-223926D01*
X405130Y-224993D01*
G37*

%LPD*%
G36*
X507644Y-242519D02*
G01*
X503783Y-241757D01*
X500481Y-239521D01*
X498297Y-236220D01*
X497484Y-232359D01*
X497484Y-111099D01*
X498297Y-107187D01*
X500481Y-103885D01*
X503783Y-101701D01*
X507644Y-100939D01*
X621842Y-100939D01*
X625703Y-101701D01*
X629005Y-103885D01*
X631240Y-107187D01*
X632002Y-111099D01*
X632002Y-169214D01*
X631037Y-173532D01*
X628345Y-176987D01*
X624484Y-179019D01*
X621893Y-179730D01*
X613511Y-183642D01*
X605942Y-188925D01*
X599440Y-195478D01*
X594106Y-202996D01*
X590245Y-211378D01*
X587857Y-220319D01*
X586994Y-229971D01*
X586994Y-232359D01*
X586232Y-236220D01*
X583996Y-239521D01*
X580694Y-241757D01*
X576834Y-242519D01*
G37*

%LPD*%
G36*
X772566Y-244906D02*
G01*
X770077Y-244703D01*
X767689Y-243941D01*
X728472Y-225501D01*
X727100Y-225907D01*
X722630Y-236372D01*
X720445Y-239572D01*
X717143Y-241757D01*
X713282Y-242519D01*
X703173Y-242519D01*
X699312Y-241757D01*
X696010Y-239521D01*
X693775Y-236220D01*
X693013Y-232359D01*
X693013Y-229971D01*
X692200Y-220319D01*
X689813Y-211378D01*
X685901Y-202996D01*
X680567Y-195478D01*
X674065Y-188925D01*
X666496Y-183642D01*
X658114Y-179730D01*
X650036Y-177546D01*
X646125Y-175514D01*
X643483Y-172059D01*
X642518Y-167741D01*
X642518Y-111099D01*
X643280Y-107187D01*
X645464Y-103885D01*
X648766Y-101701D01*
X652678Y-100939D01*
X809853Y-100939D01*
X813714Y-101701D01*
X817016Y-103885D01*
X819251Y-107187D01*
X820013Y-111099D01*
X820013Y-232867D01*
X819302Y-236626D01*
X817219Y-239826D01*
X814069Y-242062D01*
X810361Y-242976D01*
G37*

%LPD*%
G36*
X153568Y-394106D02*
G01*
X141884Y-393293D01*
X132232Y-391261D01*
X122935Y-388010D01*
X114198Y-383540D01*
X106070Y-377952D01*
X98806Y-371297D01*
X92456Y-363778D01*
X87172Y-355447D01*
X83007Y-346506D01*
X80111Y-337108D01*
X78486Y-327406D01*
X78079Y-318465D01*
X78384Y-176326D01*
X79400Y-163779D01*
X81737Y-153466D01*
X85496Y-143611D01*
X90678Y-134416D01*
X97078Y-126034D01*
X104597Y-118618D01*
X113131Y-112369D01*
X122428Y-107391D01*
X132384Y-103835D01*
X142697Y-101701D01*
X153771Y-100939D01*
X315722Y-100939D01*
X319582Y-101650D01*
X322834Y-103835D01*
X325069Y-107035D01*
X325882Y-110845D01*
X327253Y-168656D01*
X326339Y-173024D01*
X323697Y-176631D01*
X319735Y-178714D01*
X315874Y-179730D01*
X307543Y-183642D01*
X299974Y-188925D01*
X293420Y-195478D01*
X289509Y-200609D01*
X287578Y-201980D01*
X278384Y-207010D01*
X277520Y-208229D01*
X277520Y-383946D01*
X276707Y-387807D01*
X274523Y-391109D01*
X271221Y-393293D01*
X267360Y-394106D01*
G37*

%LPD*%
G36*
X604621Y-394106D02*
G01*
X600811Y-393344D01*
X597509Y-391160D01*
X595325Y-387908D01*
X594461Y-384098D01*
X592734Y-260299D01*
X593293Y-256844D01*
X594969Y-253796D01*
X599135Y-250545D01*
X601167Y-248310D01*
X604570Y-245871D01*
X608685Y-245008D01*
X678434Y-245008D01*
X682294Y-245770D01*
X685596Y-247954D01*
X689203Y-251206D01*
X692099Y-252475D01*
X695756Y-253034D01*
X699566Y-253034D01*
X703275Y-253695D01*
X706475Y-255676D01*
X708710Y-258673D01*
X709828Y-263702D01*
X712216Y-272643D01*
X716127Y-280974D01*
X721410Y-288544D01*
X727964Y-295097D01*
X735533Y-300380D01*
X743864Y-304292D01*
X752805Y-306679D01*
X762000Y-307492D01*
X771194Y-306679D01*
X780135Y-304292D01*
X788517Y-300380D01*
X796036Y-295097D01*
X803351Y-287731D01*
X806602Y-285546D01*
X810463Y-284734D01*
X814374Y-285496D01*
X817676Y-287629D01*
X819912Y-290880D01*
X820724Y-294741D01*
X821994Y-383794D01*
X821232Y-387705D01*
X819048Y-391058D01*
X815746Y-393293D01*
X811834Y-394106D01*
G37*

%LPD*%
D10*
G01*
X209999Y-349999D03*
G01*
X754999Y-352498D03*
G01*
X754966Y-7500D03*
G01*
X209999Y-4998D03*
G01*
X754997Y337497D03*
G01*
X209999Y339999D03*
D11*
G01*
X289224Y207486D03*
G01*
X375789Y207486D03*
D12*
G01*
X594224Y209980D03*
G01*
X680780Y209980D03*
G01*
X289229Y552481D03*
G01*
X375794Y552481D03*
G01*
X594235Y554986D03*
G01*
X680796Y554986D03*
G01*
X594226Y-135013D03*
G01*
X680792Y-135013D03*
G01*
X289225Y-137513D03*
G01*
X375791Y-137513D03*
D13*
G01*
X761979Y103002D03*
G01*
X211998Y103002D03*
G01*
X538007Y103002D03*
D14*
G01*
X57995Y74752D03*
G01*
X921974Y74752D03*
D13*
G01*
X640006Y103002D03*
G01*
X438007Y103002D03*
G01*
X333992Y103002D03*
G01*
X762010Y447995D03*
G01*
X211998Y447995D03*
G01*
X538012Y447995D03*
D14*
G01*
X58000Y419750D03*
G01*
X922004Y419750D03*
D13*
G01*
X640013Y447995D03*
G01*
X438012Y447995D03*
G01*
X334002Y447995D03*
G01*
X762010Y-242001D03*
G01*
X211998Y-242001D03*
G01*
X538007Y-242001D03*
D14*
G01*
X57998Y-270245D03*
G01*
X922004Y-270245D03*
D13*
G01*
X640013Y-242001D03*
G01*
X438007Y-242001D03*
G01*
X333994Y-242001D03*
D15*
G01*
X209999Y-349999D03*
G01*
X754999Y-352498D03*
G01*
X754931Y-7447D03*
G01*
X209930Y-4947D03*
G01*
X754976Y337515D03*
G01*
X209976Y340014D03*
M02*
