G04 Layer: BoardOutlineLayer*
G04 EasyEDA v6.5.22, 2022-12-30 12:31:34*
G04 8208ea2c859e44049a4325ea99c283b7,9c64b28349a745268246d024528a85f0,10*
G04 Gerber Generator version 0.2*
G04 Scale: 100 percent, Rotated: No, Reflected: No *
G04 Dimensions in millimeters *
G04 leading zeros omitted , absolute positions ,4 integer and 5 decimal *
%FSLAX45Y45*%
%MOMM*%

%ADD10C,0.0510*%
%ADD11C,0.0500*%
D10*
X892556Y741426D02*
G01*
X1013968Y741426D01*
X1014999Y-473499D01*
X1014999Y-473499D02*
G01*
X790008Y-474101D01*
X-40639Y739139D02*
G01*
X-39999Y-473499D01*
X-40639Y739139D02*
G01*
X890498Y741497D01*
X-39999Y-473499D02*
G01*
X788479Y-474002D01*
X15499Y605000D02*
G01*
X15001Y438998D01*
X885443Y611378D02*
G01*
X885443Y465073D01*
X885443Y194310D02*
G01*
X885443Y48005D01*
X885443Y-222504D02*
G01*
X885443Y-369062D01*
X15494Y-229107D02*
G01*
X15494Y-397763D01*
X15521Y188003D02*
G01*
X15521Y19278D01*
X113019Y-57000D02*
G01*
X113019Y-128498D01*
X787994Y-57000D02*
G01*
X787994Y-128493D01*
X112999Y360502D02*
G01*
X113002Y288503D01*
D11*
X112996Y705497D02*
G01*
X787989Y705497D01*
D10*
X787989Y359999D02*
G01*
X787991Y288500D01*
D11*
G75*
G01*
X885495Y465000D02*
G02*
X787994Y360050I-99876J-4978D01*
G75*
G01*
X113033Y-57026D02*
G02*
X15499Y19279I-382J100000D01*
G75*
G01*
X885495Y48001D02*
G02*
X787997Y-56947I-99876J-4976D01*
G75*
G01*
X15522Y188003D02*
G02*
X113020Y288519I99998J547D01*
G75*
G01*
X885500Y-368999D02*
G02*
X787997Y-473944I-99876J-4973D01*
G75*
G01*
X15509Y-228996D02*
G02*
X113007Y-128481I99999J547D01*
G75*
G01*
X787997Y288501D02*
G02*
X885360Y194371I-2466J-99970D01*
G75*
G01*
X787999Y705498D02*
G02*
X885358Y611368I-2471J-99970D01*
G75*
G01*
X113010Y359974D02*
G02*
X14905Y438760I-381J99999D01*
G75*
G01*
X788002Y-128496D02*
G02*
X885360Y-222626I-2471J-99969D01*
G75*
G01*
X113020Y-474025D02*
G02*
X15486Y-397716I-380J99999D01*
G75*
G01*
X15499Y605000D02*
G02*
X112997Y705518I99998J549D01*

%LPD*%
M02*
