G04 Layer: BottomSolderMaskLayer*
G04 EasyEDA v6.5.22, 2022-12-26 17:46:56*
G04 054495fe3ecf40f9b916fb1bc62bcec1,9c64b28349a745268246d024528a85f0,10*
G04 Gerber Generator version 0.2*
G04 Scale: 100 percent, Rotated: No, Reflected: No *
G04 Dimensions in millimeters *
G04 leading zeros omitted , absolute positions ,4 integer and 5 decimal *
%FSLAX45Y45*%
%MOMM*%

%AMMACRO1*1,1,$1,$2,$3*1,1,$1,$4,$5*1,1,$1,0-$2,0-$3*1,1,$1,0-$4,0-$5*20,1,$1,$2,$3,$4,$5,0*20,1,$1,$4,$5,0-$2,0-$3,0*20,1,$1,0-$2,0-$3,0-$4,0-$5,0*20,1,$1,0-$4,0-$5,$2,$3,0*4,1,4,$2,$3,$4,$5,0-$2,0-$3,0-$4,0-$5,$2,$3,0*%
%ADD10MACRO1,0.1016X-0.6X0.4X0.6X0.4*%
%ADD11O,0.9500362X1.2000230000000003*%
%ADD12O,1.1000232X2.3000208000000004*%
%ADD13MACRO1,0.1016X0.2828X-0.27X0.2828X0.27*%
%ADD14MACRO1,0.1016X-0.2828X-0.27X-0.2828X0.27*%

%LPD*%
D10*
G01*
X210004Y-349996D03*
G01*
X755007Y-352508D03*
G01*
X754980Y-7509D03*
G01*
X210002Y-4999D03*
G01*
X755008Y337491D03*
G01*
X210012Y340003D03*
D11*
G01*
X761979Y103002D03*
G01*
X211998Y103002D03*
G01*
X538007Y103002D03*
D12*
G01*
X57995Y74752D03*
G01*
X921974Y74752D03*
D11*
G01*
X640006Y103002D03*
G01*
X438007Y103002D03*
G01*
X333992Y103002D03*
G01*
X762010Y447995D03*
G01*
X211998Y447995D03*
G01*
X538012Y447995D03*
D12*
G01*
X58000Y419750D03*
G01*
X922004Y419750D03*
D11*
G01*
X640013Y447995D03*
G01*
X438012Y447995D03*
G01*
X334002Y447995D03*
G01*
X762010Y-242001D03*
G01*
X211998Y-242001D03*
G01*
X538007Y-242001D03*
D12*
G01*
X57998Y-270245D03*
G01*
X922004Y-270245D03*
D11*
G01*
X640013Y-242001D03*
G01*
X438007Y-242001D03*
G01*
X333994Y-242001D03*
D13*
G01*
X289224Y207486D03*
D14*
G01*
X375789Y207486D03*
D13*
G01*
X594224Y209980D03*
D14*
G01*
X680780Y209980D03*
D13*
G01*
X289229Y552481D03*
D14*
G01*
X375794Y552481D03*
D13*
G01*
X594235Y554986D03*
D14*
G01*
X680796Y554986D03*
D13*
G01*
X594226Y-135013D03*
D14*
G01*
X680792Y-135013D03*
D13*
G01*
X289225Y-137513D03*
D14*
G01*
X375791Y-137513D03*
M02*
