G04 Layer: BottomSilkscreenLayer*
G04 EasyEDA v6.5.22, 2023-01-17 18:22:32*
G04 9ba01a3dcee843c484719c7dbc03d3de,9c64b28349a745268246d024528a85f0,10*
G04 Gerber Generator version 0.2*
G04 Scale: 100 percent, Rotated: No, Reflected: No *
G04 Dimensions in millimeters *
G04 leading zeros omitted , absolute positions ,4 integer and 5 decimal *
%FSLAX45Y45*%
%MOMM*%

%ADD10C,0.0500*%
%ADD11C,0.0450*%
%ADD12C,0.0800*%

%LPD*%
G36*
X398881Y494284D02*
G01*
X390855Y493064D01*
X384759Y489661D01*
X380949Y484530D01*
X379628Y478028D01*
X379984Y474776D01*
X380949Y471982D01*
X382371Y469696D01*
X384200Y467868D01*
X386740Y470154D01*
X385318Y471779D01*
X384200Y473608D01*
X383438Y475691D01*
X383184Y478028D01*
X384251Y482904D01*
X387400Y486664D01*
X392277Y489102D01*
X398678Y489966D01*
X405180Y489153D01*
X410159Y486765D01*
X413308Y483006D01*
X414375Y478028D01*
X414121Y475488D01*
X413258Y473252D01*
X411937Y471220D01*
X410108Y469392D01*
X412597Y466851D01*
X414934Y469239D01*
X416610Y471881D01*
X417626Y474878D01*
X417931Y478282D01*
X416661Y484632D01*
X412902Y489712D01*
X406908Y493064D01*
G37*
G36*
X398881Y463550D02*
G01*
X390855Y462330D01*
X384759Y458927D01*
X380949Y453796D01*
X379628Y447293D01*
X379984Y444093D01*
X380949Y441350D01*
X382371Y439064D01*
X384200Y437134D01*
X386740Y439420D01*
X385318Y441045D01*
X384200Y442874D01*
X383438Y444957D01*
X383184Y447293D01*
X384251Y452170D01*
X387400Y455930D01*
X392277Y458368D01*
X398678Y459232D01*
X405180Y458419D01*
X410159Y456031D01*
X413308Y452272D01*
X414375Y447293D01*
X414121Y444754D01*
X413258Y442468D01*
X411937Y440486D01*
X410108Y438658D01*
X412597Y436372D01*
X414934Y438607D01*
X416610Y441198D01*
X417626Y444144D01*
X417931Y447548D01*
X416661Y453898D01*
X412902Y458978D01*
X406908Y462330D01*
G37*
G36*
X384911Y432308D02*
G01*
X382727Y429971D01*
X381050Y427532D01*
X379984Y424789D01*
X379628Y421640D01*
X380390Y417169D01*
X382574Y413816D01*
X386029Y411683D01*
X390550Y410972D01*
X396087Y412038D01*
X401878Y415035D01*
X407822Y419760D01*
X414121Y425958D01*
X413918Y422808D01*
X413867Y409194D01*
X417423Y409194D01*
X417423Y432054D01*
X414934Y432054D01*
X407619Y424332D01*
X401269Y419049D01*
X395681Y416001D01*
X390550Y415035D01*
X387502Y415442D01*
X385114Y416661D01*
X383489Y418795D01*
X382930Y421893D01*
X383286Y424230D01*
X384200Y426313D01*
X385572Y428243D01*
X387197Y430022D01*
G37*
G36*
X498754Y492810D02*
G01*
X490728Y491540D01*
X484632Y488086D01*
X480771Y482854D01*
X479450Y476300D01*
X479856Y473252D01*
X480872Y470509D01*
X482346Y468223D01*
X484022Y466394D01*
X486816Y468680D01*
X485393Y470154D01*
X484276Y471932D01*
X483565Y473964D01*
X483260Y476300D01*
X484327Y481330D01*
X487426Y485190D01*
X492251Y487629D01*
X498754Y488492D01*
X505256Y487680D01*
X510133Y485292D01*
X513181Y481533D01*
X514248Y476554D01*
X513994Y474014D01*
X513181Y471728D01*
X511911Y469646D01*
X510184Y467664D01*
X512724Y465378D01*
X514959Y467664D01*
X516635Y470357D01*
X517702Y473405D01*
X518058Y476808D01*
X516737Y483158D01*
X512978Y488238D01*
X506933Y491591D01*
G37*
G36*
X498754Y462127D02*
G01*
X490728Y460908D01*
X484632Y457504D01*
X480771Y452323D01*
X479450Y445820D01*
X479856Y442620D01*
X480872Y439826D01*
X482346Y437489D01*
X484022Y435660D01*
X486816Y437946D01*
X485393Y439572D01*
X484276Y441401D01*
X483565Y443382D01*
X483260Y445566D01*
X484327Y450596D01*
X487426Y454456D01*
X492251Y456895D01*
X498754Y457758D01*
X505256Y456946D01*
X510133Y454558D01*
X513181Y450799D01*
X514248Y445820D01*
X513994Y443280D01*
X513181Y440994D01*
X511911Y438912D01*
X510184Y436930D01*
X512724Y434644D01*
X514959Y437032D01*
X516635Y439724D01*
X517702Y442671D01*
X518058Y446074D01*
X516737Y452475D01*
X512978Y457504D01*
X506933Y460908D01*
G37*
G36*
X513994Y428294D02*
G01*
X513994Y419912D01*
X485546Y419912D01*
X485546Y426516D01*
X482752Y426516D01*
X481787Y422249D01*
X480212Y418896D01*
X480212Y415848D01*
X513994Y415848D01*
X513994Y408228D01*
X517296Y408228D01*
X517296Y428294D01*
G37*
G36*
X498754Y46786D02*
G01*
X490728Y45516D01*
X484632Y42062D01*
X480822Y36830D01*
X479450Y30276D01*
X479856Y27178D01*
X480923Y24434D01*
X482346Y22148D01*
X484022Y20370D01*
X486816Y22656D01*
X485444Y24130D01*
X484276Y25908D01*
X483565Y27940D01*
X483311Y30276D01*
X484327Y35306D01*
X487426Y39116D01*
X492302Y41605D01*
X498754Y42468D01*
X505256Y41656D01*
X510133Y39268D01*
X513232Y35509D01*
X514299Y30530D01*
X513994Y27990D01*
X513181Y25704D01*
X511911Y23571D01*
X510184Y21640D01*
X512724Y19354D01*
X514959Y21640D01*
X516635Y24282D01*
X517702Y27330D01*
X518058Y30784D01*
X516788Y37134D01*
X512978Y42214D01*
X506933Y45567D01*
G37*
G36*
X498754Y16052D02*
G01*
X490728Y14833D01*
X484632Y11430D01*
X480822Y6299D01*
X479450Y-203D01*
X479856Y-3454D01*
X480923Y-6248D01*
X482346Y-8585D01*
X484022Y-10363D01*
X486816Y-8077D01*
X484276Y-4673D01*
X483565Y-2641D01*
X483311Y-457D01*
X484327Y4521D01*
X487426Y8382D01*
X492302Y10871D01*
X498754Y11734D01*
X505256Y10922D01*
X510133Y8534D01*
X513232Y4775D01*
X514299Y-203D01*
X513994Y-2743D01*
X513181Y-5029D01*
X511911Y-7162D01*
X510184Y-9093D01*
X512724Y-11379D01*
X514959Y-8991D01*
X516635Y-6350D01*
X517702Y-3352D01*
X518058Y50D01*
X516788Y6400D01*
X512978Y11480D01*
X506933Y14833D01*
G37*
G36*
X513994Y-17729D02*
G01*
X513994Y-26111D01*
X485546Y-26111D01*
X485546Y-19507D01*
X482803Y-19507D01*
X481787Y-23825D01*
X480263Y-27127D01*
X480263Y-30175D01*
X513994Y-30175D01*
X513994Y-37795D01*
X517296Y-37795D01*
X517296Y-17729D01*
G37*
G36*
X398932Y48260D02*
G01*
X390855Y47040D01*
X384810Y43637D01*
X380949Y38455D01*
X379628Y31953D01*
X379984Y28752D01*
X380949Y25958D01*
X382422Y23622D01*
X384200Y21844D01*
X386740Y24130D01*
X385318Y25704D01*
X384200Y27584D01*
X383438Y29616D01*
X383184Y31953D01*
X384302Y36830D01*
X387400Y40589D01*
X392277Y43027D01*
X398678Y43891D01*
X405180Y43078D01*
X410159Y40690D01*
X413308Y36931D01*
X414426Y31953D01*
X414121Y29464D01*
X413308Y27178D01*
X411937Y25146D01*
X410108Y23368D01*
X412648Y20777D01*
X414985Y23215D01*
X416661Y25857D01*
X417626Y28854D01*
X417982Y32207D01*
X416661Y38608D01*
X412902Y43637D01*
X406908Y47040D01*
G37*
G36*
X398932Y17526D02*
G01*
X390855Y16306D01*
X384810Y12903D01*
X380949Y7772D01*
X379628Y1219D01*
X379984Y-1981D01*
X380949Y-4673D01*
X382422Y-7010D01*
X384200Y-8890D01*
X386740Y-6654D01*
X385318Y-5029D01*
X384200Y-3149D01*
X383438Y-1117D01*
X383184Y1219D01*
X384302Y6096D01*
X387400Y9855D01*
X392277Y12293D01*
X398678Y13157D01*
X405180Y12344D01*
X410159Y9956D01*
X413308Y6197D01*
X414426Y1219D01*
X414121Y-1270D01*
X413308Y-3556D01*
X411937Y-5588D01*
X410108Y-7416D01*
X412648Y-9702D01*
X414985Y-7416D01*
X416661Y-4876D01*
X417626Y-1879D01*
X417982Y1473D01*
X416661Y7873D01*
X412902Y12954D01*
X406908Y16306D01*
G37*
G36*
X384962Y-13766D02*
G01*
X382727Y-16052D01*
X381050Y-18491D01*
X379984Y-21234D01*
X379628Y-24434D01*
X380390Y-28854D01*
X382625Y-32207D01*
X386029Y-34340D01*
X390550Y-35102D01*
X396138Y-34036D01*
X401878Y-31038D01*
X407873Y-26314D01*
X414172Y-20116D01*
X413918Y-23215D01*
X413918Y-36880D01*
X417474Y-36880D01*
X417474Y-13970D01*
X414934Y-13970D01*
X407670Y-21691D01*
X401320Y-26974D01*
X395681Y-30022D01*
X390550Y-31038D01*
X387553Y-30632D01*
X385114Y-29413D01*
X383489Y-27279D01*
X382930Y-24180D01*
X383286Y-21793D01*
X384200Y-19710D01*
X385572Y-17780D01*
X387248Y-16052D01*
G37*
G36*
X498805Y-398729D02*
G01*
X490728Y-399999D01*
X484632Y-403453D01*
X480822Y-408686D01*
X479450Y-415239D01*
X479856Y-418338D01*
X480923Y-421030D01*
X482396Y-423367D01*
X484073Y-425145D01*
X486867Y-422859D01*
X485444Y-421385D01*
X484327Y-419608D01*
X483565Y-417576D01*
X483311Y-415239D01*
X484378Y-410209D01*
X487426Y-406400D01*
X492302Y-403910D01*
X498805Y-403047D01*
X505256Y-403860D01*
X510133Y-406247D01*
X513232Y-410006D01*
X514299Y-414985D01*
X513994Y-417525D01*
X513181Y-419811D01*
X511911Y-421893D01*
X510235Y-423875D01*
X512724Y-426161D01*
X514959Y-423875D01*
X516635Y-421233D01*
X517702Y-418185D01*
X518058Y-414731D01*
X516788Y-408381D01*
X512978Y-403301D01*
X506933Y-399948D01*
G37*
G36*
X498805Y-429463D02*
G01*
X490728Y-430682D01*
X484632Y-434035D01*
X480822Y-439216D01*
X479450Y-445719D01*
X479856Y-448970D01*
X480923Y-451764D01*
X482396Y-454101D01*
X484073Y-455879D01*
X486867Y-453593D01*
X485444Y-451967D01*
X484327Y-450138D01*
X483565Y-448157D01*
X483311Y-445973D01*
X484378Y-440943D01*
X487426Y-437134D01*
X492302Y-434644D01*
X498805Y-433781D01*
X505256Y-434593D01*
X510133Y-436981D01*
X513232Y-440740D01*
X514299Y-445719D01*
X513994Y-448259D01*
X513181Y-450545D01*
X511911Y-452628D01*
X510235Y-454609D01*
X512724Y-456895D01*
X514959Y-454507D01*
X516635Y-451866D01*
X517702Y-448868D01*
X518058Y-445465D01*
X516788Y-439115D01*
X512978Y-434035D01*
X506933Y-430682D01*
G37*
G36*
X514045Y-463245D02*
G01*
X514045Y-471627D01*
X485597Y-471627D01*
X485597Y-465023D01*
X482803Y-465023D01*
X481787Y-469290D01*
X481126Y-471068D01*
X480263Y-472643D01*
X480263Y-475691D01*
X514045Y-475691D01*
X514045Y-483311D01*
X517347Y-483311D01*
X517347Y-463245D01*
G37*
G36*
X398932Y-397256D02*
G01*
X390855Y-398475D01*
X384810Y-401878D01*
X380949Y-407009D01*
X379628Y-413512D01*
X379984Y-416763D01*
X380949Y-419557D01*
X382422Y-421893D01*
X384200Y-423672D01*
X386740Y-421385D01*
X385318Y-419760D01*
X384200Y-417931D01*
X383438Y-415848D01*
X383184Y-413512D01*
X384302Y-408686D01*
X387400Y-404876D01*
X392277Y-402437D01*
X398678Y-401574D01*
X405231Y-402437D01*
X410159Y-404825D01*
X413308Y-408584D01*
X414426Y-413512D01*
X414121Y-416051D01*
X413308Y-418338D01*
X411937Y-420370D01*
X410108Y-422148D01*
X412648Y-424688D01*
X414985Y-422300D01*
X416661Y-419658D01*
X417626Y-416661D01*
X417982Y-413258D01*
X416661Y-406908D01*
X412902Y-401828D01*
X406958Y-398475D01*
G37*
G36*
X398932Y-427990D02*
G01*
X390855Y-429209D01*
X384810Y-432612D01*
X380949Y-437743D01*
X379628Y-444246D01*
X379984Y-447446D01*
X380949Y-450189D01*
X382422Y-452526D01*
X384200Y-454406D01*
X386740Y-452120D01*
X385318Y-450494D01*
X384200Y-448665D01*
X383438Y-446582D01*
X383184Y-444246D01*
X384302Y-439420D01*
X387400Y-435609D01*
X392277Y-433171D01*
X398678Y-432308D01*
X405231Y-433171D01*
X410159Y-435559D01*
X413308Y-439318D01*
X414426Y-444246D01*
X414121Y-446785D01*
X413308Y-449072D01*
X411937Y-451104D01*
X410108Y-452882D01*
X412648Y-455168D01*
X414985Y-452932D01*
X416661Y-450342D01*
X417626Y-447395D01*
X417982Y-443992D01*
X416661Y-437642D01*
X412902Y-432562D01*
X406958Y-429209D01*
G37*
G36*
X384962Y-459232D02*
G01*
X382727Y-461568D01*
X381050Y-464007D01*
X379984Y-466750D01*
X379628Y-469900D01*
X380390Y-474370D01*
X382625Y-477723D01*
X386029Y-479856D01*
X390550Y-480568D01*
X396138Y-479551D01*
X401878Y-476504D01*
X407873Y-471779D01*
X414172Y-465582D01*
X413918Y-468731D01*
X413918Y-482346D01*
X417474Y-482346D01*
X417474Y-459485D01*
X414934Y-459485D01*
X407670Y-467207D01*
X401320Y-472490D01*
X395681Y-475538D01*
X390550Y-476504D01*
X387553Y-476148D01*
X385114Y-474878D01*
X383540Y-472744D01*
X382930Y-469646D01*
X383286Y-467309D01*
X384251Y-465226D01*
X385622Y-463296D01*
X387248Y-461518D01*
G37*
D10*
X767013Y468411D02*
G01*
X789739Y468411D01*
X792012Y447956D01*
X789739Y450230D01*
X782921Y452503D01*
X776104Y452503D01*
X769284Y450230D01*
X764740Y445683D01*
X762467Y438866D01*
X762467Y434319D01*
X764740Y427502D01*
X769284Y422955D01*
X776104Y420684D01*
X782921Y420684D01*
X789739Y422955D01*
X792012Y425229D01*
X794285Y429775D01*
X747468Y468411D02*
G01*
X729284Y420684D01*
X711103Y468411D02*
G01*
X729284Y420684D01*
D11*
X334606Y455089D02*
G01*
X336880Y459635D01*
X341426Y464179D01*
X345970Y466453D01*
X355061Y466453D01*
X359608Y464179D01*
X364152Y459635D01*
X366425Y455089D01*
X368698Y448271D01*
X368698Y436907D01*
X366425Y430090D01*
X364152Y425543D01*
X359608Y420997D01*
X355061Y418726D01*
X345970Y418726D01*
X341426Y420997D01*
X336880Y425543D01*
X334606Y430090D01*
X334606Y436907D01*
X345970Y436907D02*
G01*
X334606Y436907D01*
X319608Y466453D02*
G01*
X319608Y418726D01*
X319608Y466453D02*
G01*
X287789Y418726D01*
X287789Y466453D02*
G01*
X287789Y418726D01*
X272790Y466453D02*
G01*
X272790Y418726D01*
X272790Y466453D02*
G01*
X256880Y466453D01*
X250062Y464179D01*
X245516Y459635D01*
X243245Y455089D01*
X240972Y448271D01*
X240972Y436907D01*
X243245Y430090D01*
X245516Y425543D01*
X250062Y420997D01*
X256880Y418726D01*
X272790Y418726D01*
D12*
X975964Y214497D02*
G01*
X918690Y214497D01*
X967780Y214497D02*
G01*
X973236Y219951D01*
X975964Y225407D01*
X975964Y233588D01*
X973236Y239044D01*
X967780Y244497D01*
X959599Y247225D01*
X954145Y247225D01*
X945964Y244497D01*
X940508Y239044D01*
X937780Y233588D01*
X937780Y225407D01*
X940508Y219951D01*
X945964Y214497D01*
X995055Y265224D02*
G01*
X937780Y265224D01*
X967780Y265224D02*
G01*
X973236Y270680D01*
X975964Y276133D01*
X975964Y284314D01*
X973236Y289770D01*
X967780Y295224D01*
X959599Y297952D01*
X954145Y297952D01*
X945964Y295224D01*
X940508Y289770D01*
X937780Y284314D01*
X937780Y276133D01*
X940508Y270680D01*
X945964Y265224D01*
X967780Y348678D02*
G01*
X973236Y343225D01*
X975964Y337769D01*
X975964Y329587D01*
X973236Y324134D01*
X967780Y318678D01*
X959599Y315953D01*
X954145Y315953D01*
X945964Y318678D01*
X940508Y324134D01*
X937780Y329587D01*
X937780Y337769D01*
X940508Y343225D01*
X945964Y348678D01*
X995055Y366679D02*
G01*
X937780Y366679D01*
X967780Y366679D02*
G01*
X973236Y372132D01*
X975964Y377588D01*
X975964Y385770D01*
X973236Y391226D01*
X967780Y396679D01*
X959599Y399407D01*
X954145Y399407D01*
X945964Y396679D01*
X940508Y391226D01*
X937780Y385770D01*
X937780Y377588D01*
X940508Y372132D01*
X945964Y366679D01*
D11*
X334619Y9039D02*
G01*
X336892Y13586D01*
X341439Y18130D01*
X345983Y20403D01*
X355074Y20403D01*
X359620Y18130D01*
X364164Y13586D01*
X366438Y9039D01*
X368711Y2222D01*
X368711Y-9141D01*
X366438Y-15958D01*
X364164Y-20505D01*
X359620Y-25052D01*
X355074Y-27322D01*
X345983Y-27322D01*
X341439Y-25052D01*
X336892Y-20505D01*
X334619Y-15958D01*
X334619Y-9141D01*
X345983Y-9141D02*
G01*
X334619Y-9141D01*
X319620Y20403D02*
G01*
X319620Y-27322D01*
X319620Y20403D02*
G01*
X287802Y-27322D01*
X287802Y20403D02*
G01*
X287802Y-27322D01*
X272803Y20403D02*
G01*
X272803Y-27322D01*
X272803Y20403D02*
G01*
X256893Y20403D01*
X250075Y18130D01*
X245529Y13586D01*
X243258Y9039D01*
X240985Y2222D01*
X240985Y-9141D01*
X243258Y-15958D01*
X245529Y-20505D01*
X250075Y-25052D01*
X256893Y-27322D01*
X272803Y-27322D01*
D10*
X767026Y22362D02*
G01*
X789752Y22362D01*
X792025Y1907D01*
X789752Y4180D01*
X782934Y6454D01*
X776117Y6454D01*
X769297Y4180D01*
X764753Y-365D01*
X762480Y-7183D01*
X762480Y-11729D01*
X764753Y-18547D01*
X769297Y-23093D01*
X776117Y-25364D01*
X782934Y-25364D01*
X789752Y-23093D01*
X792025Y-20820D01*
X794298Y-16273D01*
X747481Y22362D02*
G01*
X729297Y-25364D01*
X711116Y22362D02*
G01*
X729297Y-25364D01*
D11*
X334622Y-436463D02*
G01*
X336895Y-431916D01*
X341442Y-427372D01*
X345986Y-425099D01*
X355076Y-425099D01*
X359623Y-427372D01*
X364167Y-431916D01*
X366440Y-436463D01*
X368714Y-443280D01*
X368714Y-454644D01*
X366440Y-461462D01*
X364167Y-466008D01*
X359623Y-470555D01*
X355076Y-472826D01*
X345986Y-472826D01*
X341442Y-470555D01*
X336895Y-466008D01*
X334622Y-461462D01*
X334622Y-454644D01*
X345986Y-454644D02*
G01*
X334622Y-454644D01*
X319623Y-425099D02*
G01*
X319623Y-472826D01*
X319623Y-425099D02*
G01*
X287804Y-472826D01*
X287804Y-425099D02*
G01*
X287804Y-472826D01*
X272806Y-425099D02*
G01*
X272806Y-472826D01*
X272806Y-425099D02*
G01*
X256895Y-425099D01*
X250078Y-427372D01*
X245531Y-431916D01*
X243260Y-436463D01*
X240987Y-443280D01*
X240987Y-454644D01*
X243260Y-461462D01*
X245531Y-466008D01*
X250078Y-470555D01*
X256895Y-472826D01*
X272806Y-472826D01*
D10*
X767026Y-423143D02*
G01*
X789752Y-423143D01*
X792025Y-443598D01*
X789752Y-441325D01*
X782934Y-439051D01*
X776117Y-439051D01*
X769297Y-441325D01*
X764753Y-445871D01*
X762480Y-452688D01*
X762480Y-457235D01*
X764753Y-464052D01*
X769297Y-468599D01*
X776117Y-470870D01*
X782934Y-470870D01*
X789752Y-468599D01*
X792025Y-466326D01*
X794298Y-461779D01*
X747481Y-423143D02*
G01*
X729297Y-470870D01*
X711116Y-423143D02*
G01*
X729297Y-470870D01*
M02*
