G04 Layer: BoardOutlineLayer*
G04 EasyEDA v6.5.22, 2022-12-27 15:54:52*
G04 581f4e56cbf948ffa598ce4b045c5e28,9c64b28349a745268246d024528a85f0,10*
G04 Gerber Generator version 0.2*
G04 Scale: 100 percent, Rotated: No, Reflected: No *
G04 Dimensions in millimeters *
G04 leading zeros omitted , absolute positions ,4 integer and 5 decimal *
%FSLAX45Y45*%
%MOMM*%

%ADD10C,0.0510*%
%ADD11C,0.0508*%
%ADD12C,0.0500*%
D10*
X15999Y802497D02*
G01*
X885441Y802497D01*
X885395Y800003D02*
G01*
X885395Y-403494D01*
X787989Y359999D02*
G01*
X787999Y272999D01*
D11*
X15999Y800003D02*
G01*
X15496Y-423494D01*
D10*
X113504Y-72501D02*
G01*
X113499Y-156999D01*
X113482Y-501970D02*
G01*
X788484Y-502038D01*
X788497Y-72501D02*
G01*
X788497Y-156999D01*
D12*
X112996Y705497D02*
G01*
X787989Y705002D01*
D10*
X112996Y359999D02*
G01*
X112996Y276004D01*
D12*
G75*
G01*
X113010Y359974D02*
G02*
X15476Y436278I-382J99999D01*
G75*
G01*
X15499Y605000D02*
G02*
X112997Y705518I99998J549D01*
G75*
G01*
X113520Y-72527D02*
G02*
X15987Y3777I-381J99999D01*
G75*
G01*
X885495Y465000D02*
G02*
X787994Y360050I-99876J-4978D01*
G75*
G01*
X885495Y28003D02*
G02*
X788492Y-72431I-99999J-479D01*
G75*
G01*
X787997Y705000D02*
G02*
X885355Y610870I-2471J-99969D01*
G75*
G01*
X788464Y-156997D02*
G02*
X885388Y-245953I-2467J-99970D01*
G75*
G01*
X885495Y-403497D02*
G02*
X788479Y-502036I-99990J1416D01*
G75*
G01*
X15997Y-257498D02*
G02*
X113490Y-156980I99998J550D01*
G75*
G01*
X113495Y-501993D02*
G02*
X15456Y-423507I-381J99999D01*
G75*
G01*
X16010Y172499D02*
G02*
X113505Y273017I99998J550D01*
G75*
G01*
X787999Y272999D02*
G02*
X885396Y167833I-2468J-99969D01*

%LPD*%
M02*
