G04 Layer: TopLayer*
G04 EasyEDA v6.5.22, 2022-12-27 15:54:52*
G04 581f4e56cbf948ffa598ce4b045c5e28,9c64b28349a745268246d024528a85f0,10*
G04 Gerber Generator version 0.2*
G04 Scale: 100 percent, Rotated: No, Reflected: No *
G04 Dimensions in millimeters *
G04 leading zeros omitted , absolute positions ,4 integer and 5 decimal *
%FSLAX45Y45*%
%MOMM*%

%AMMACRO1*21,1,$1,$2,0,0,$3*%
%ADD10C,0.3000*%
%ADD11C,0.8000*%
%ADD12MACRO1,0.5402X0.5655X90.0000*%
%ADD13MACRO1,0.5402X0.5657X90.0000*%
%ADD14MACRO1,0.54X0.5655X90.0000*%
%ADD15MACRO1,0.54X0.5657X90.0000*%
%ADD16MACRO1,0.54X0.5654X90.0000*%
%ADD17O,0.7500112X1.0999978000000001*%
%ADD18O,0.850011X1.0999978000000001*%
%ADD19O,0.9999979999999999X2.1999956000000003*%
%ADD20C,0.6000*%
%ADD21C,0.0124*%

%LPD*%
G36*
X361848Y554990D02*
G01*
X358190Y555701D01*
X354990Y557682D01*
X352755Y560679D01*
X349351Y574294D01*
X345490Y583082D01*
X340258Y591058D01*
X333756Y598119D01*
X326186Y604012D01*
X317804Y608533D01*
X309880Y611276D01*
X306273Y613410D01*
X303834Y616813D01*
X303022Y620877D01*
X303022Y667816D01*
X303784Y671728D01*
X305968Y675030D01*
X309270Y677214D01*
X313182Y677976D01*
X427837Y677976D01*
X431749Y677214D01*
X435000Y675030D01*
X437235Y671728D01*
X437997Y667867D01*
X437997Y570128D01*
X437235Y566267D01*
X435000Y562965D01*
X431749Y560730D01*
X427837Y559968D01*
X379171Y559968D01*
X376936Y559460D01*
X370128Y556056D01*
X367944Y555244D01*
G37*

%LPD*%
G36*
X468172Y537464D02*
G01*
X464261Y538276D01*
X461009Y540461D01*
X458774Y543763D01*
X458012Y547624D01*
X458012Y667816D01*
X458774Y671728D01*
X460959Y675030D01*
X464261Y677214D01*
X468172Y677976D01*
X577850Y677976D01*
X581710Y677214D01*
X585012Y675030D01*
X587248Y671728D01*
X588010Y667816D01*
X588010Y619506D01*
X587146Y615442D01*
X584708Y612038D01*
X581152Y609904D01*
X577240Y608533D01*
X568807Y604012D01*
X561238Y598119D01*
X554786Y591058D01*
X549554Y583082D01*
X545693Y574294D01*
X543356Y564997D01*
X542493Y555040D01*
X542493Y547624D01*
X541731Y543763D01*
X539546Y540461D01*
X536244Y538276D01*
X532333Y537464D01*
G37*

%LPD*%
G36*
X685647Y480009D02*
G01*
X681786Y480771D01*
X678484Y482955D01*
X676249Y486257D01*
X675487Y490169D01*
X675487Y539597D01*
X668477Y539750D01*
X664667Y540562D01*
X661416Y542798D01*
X659282Y546049D01*
X658520Y549910D01*
X658520Y555040D01*
X657707Y564997D01*
X655320Y574294D01*
X651510Y583082D01*
X646277Y591058D01*
X639775Y598119D01*
X632206Y604012D01*
X623773Y608533D01*
X614883Y611632D01*
X611276Y613765D01*
X608838Y617169D01*
X607974Y621233D01*
X607974Y667816D01*
X608787Y671728D01*
X610971Y675030D01*
X614273Y677214D01*
X618134Y677976D01*
X770331Y677976D01*
X774242Y677214D01*
X777544Y675030D01*
X779729Y671728D01*
X780491Y667867D01*
X780491Y597509D01*
X849325Y597509D01*
X853236Y596747D01*
X856487Y594512D01*
X858723Y591210D01*
X859485Y587349D01*
X859485Y490169D01*
X858723Y486257D01*
X856487Y482955D01*
X853236Y480771D01*
X849325Y480009D01*
G37*

%LPD*%
G36*
X127355Y382524D02*
G01*
X123291Y383387D01*
X120142Y384759D01*
X113944Y385876D01*
X102362Y386689D01*
X92710Y388721D01*
X83413Y391972D01*
X74625Y396494D01*
X66497Y402132D01*
X59232Y408787D01*
X52882Y416356D01*
X47599Y424688D01*
X43484Y433679D01*
X42214Y437591D01*
X41757Y440639D01*
X41808Y610362D01*
X42316Y616254D01*
X44500Y626414D01*
X48158Y636219D01*
X53136Y645363D01*
X59334Y653745D01*
X66700Y661162D01*
X74980Y667461D01*
X84074Y672541D01*
X93827Y676300D01*
X101346Y678078D01*
X103733Y678383D01*
X272846Y678027D01*
X276758Y677265D01*
X280009Y675030D01*
X282244Y671728D01*
X283006Y667867D01*
X283006Y619861D01*
X282143Y615746D01*
X279704Y612394D01*
X276148Y610260D01*
X271221Y608533D01*
X262788Y604012D01*
X255270Y598119D01*
X248767Y591058D01*
X243535Y583082D01*
X239674Y574294D01*
X237337Y564997D01*
X236524Y555040D01*
X236524Y520903D01*
X237337Y510946D01*
X237998Y507034D01*
X237998Y392684D01*
X237236Y388772D01*
X235000Y385470D01*
X231749Y383286D01*
X227838Y382524D01*
G37*

%LPD*%
G36*
X362356Y122478D02*
G01*
X358698Y123189D01*
X355498Y125171D01*
X353263Y128168D01*
X349859Y141782D01*
X345998Y150571D01*
X340766Y158597D01*
X334264Y165608D01*
X326694Y171500D01*
X318312Y176072D01*
X310388Y178765D01*
X306781Y180898D01*
X304342Y184302D01*
X303530Y188366D01*
X303530Y235356D01*
X304292Y239217D01*
X306476Y242519D01*
X309778Y244703D01*
X313690Y245516D01*
X428345Y245516D01*
X432257Y244703D01*
X435508Y242519D01*
X437743Y239217D01*
X438505Y235356D01*
X438505Y137617D01*
X437743Y133756D01*
X435508Y130454D01*
X432257Y128270D01*
X428345Y127457D01*
X379679Y127457D01*
X377444Y126949D01*
X370636Y123545D01*
X368452Y122732D01*
G37*

%LPD*%
G36*
X468680Y105003D02*
G01*
X464769Y105765D01*
X461518Y107950D01*
X459282Y111252D01*
X458520Y115163D01*
X458520Y235356D01*
X459282Y239217D01*
X461467Y242519D01*
X464769Y244703D01*
X468680Y245516D01*
X578358Y245516D01*
X582218Y244703D01*
X585520Y242519D01*
X587705Y239217D01*
X588518Y235356D01*
X588518Y186994D01*
X587654Y182930D01*
X585216Y179527D01*
X581660Y177393D01*
X577748Y176072D01*
X569315Y171500D01*
X561746Y165608D01*
X555294Y158597D01*
X550062Y150571D01*
X546201Y141782D01*
X543864Y132537D01*
X543001Y122529D01*
X543001Y115163D01*
X542239Y111252D01*
X540054Y107950D01*
X536752Y105765D01*
X532841Y105003D01*
G37*

%LPD*%
G36*
X686155Y47498D02*
G01*
X682244Y48260D01*
X678992Y50444D01*
X676757Y53746D01*
X675995Y57658D01*
X675995Y107086D01*
X668985Y107238D01*
X665175Y108051D01*
X661924Y110286D01*
X659790Y113537D01*
X659028Y117398D01*
X659028Y122529D01*
X658215Y132537D01*
X655828Y141782D01*
X652018Y150571D01*
X646785Y158597D01*
X640283Y165608D01*
X632714Y171500D01*
X624281Y176072D01*
X615391Y179120D01*
X611784Y181254D01*
X609346Y184658D01*
X608482Y188722D01*
X608482Y235356D01*
X609295Y239217D01*
X611479Y242519D01*
X614781Y244703D01*
X618642Y245516D01*
X770839Y245516D01*
X774750Y244703D01*
X778002Y242519D01*
X780237Y239217D01*
X780999Y235356D01*
X780999Y164998D01*
X849325Y164998D01*
X853236Y164236D01*
X856487Y162001D01*
X858723Y158750D01*
X859485Y154838D01*
X859485Y57658D01*
X858723Y53746D01*
X856487Y50495D01*
X853236Y48260D01*
X849325Y47498D01*
G37*

%LPD*%
G36*
X127863Y-49987D02*
G01*
X123748Y-49123D01*
X120650Y-47752D01*
X114452Y-46634D01*
X102870Y-45821D01*
X93218Y-43789D01*
X83921Y-40487D01*
X75133Y-36017D01*
X67005Y-30378D01*
X59740Y-23723D01*
X53390Y-16154D01*
X48107Y-7823D01*
X43992Y1168D01*
X42062Y7162D01*
X41605Y10261D01*
X41656Y169214D01*
X42824Y183743D01*
X45059Y193954D01*
X48666Y203708D01*
X53644Y212852D01*
X59893Y221234D01*
X67208Y228650D01*
X75488Y234950D01*
X84582Y240029D01*
X94335Y243789D01*
X101854Y245617D01*
X104241Y245871D01*
X273354Y245516D01*
X277266Y244754D01*
X280517Y242519D01*
X282752Y239267D01*
X283514Y235356D01*
X283514Y187350D01*
X282651Y183286D01*
X280212Y179882D01*
X276656Y177749D01*
X271729Y176072D01*
X263296Y171500D01*
X255778Y165608D01*
X249275Y158597D01*
X244043Y150571D01*
X240182Y141782D01*
X237845Y132537D01*
X237032Y122529D01*
X237032Y88392D01*
X237845Y78435D01*
X238506Y74574D01*
X238506Y-39827D01*
X237744Y-43738D01*
X235508Y-47040D01*
X232257Y-49225D01*
X228346Y-49987D01*
G37*

%LPD*%
G36*
X362356Y-306984D02*
G01*
X358648Y-306273D01*
X355447Y-304292D01*
X353212Y-301294D01*
X349808Y-287680D01*
X345948Y-278892D01*
X340715Y-270865D01*
X334264Y-263855D01*
X326694Y-257962D01*
X318262Y-253390D01*
X310337Y-250698D01*
X306781Y-248564D01*
X304342Y-245160D01*
X303479Y-241096D01*
X303479Y-194106D01*
X304241Y-190246D01*
X306476Y-186944D01*
X309778Y-184759D01*
X313639Y-183946D01*
X428345Y-183946D01*
X432206Y-184759D01*
X435508Y-186944D01*
X437692Y-190246D01*
X438505Y-194106D01*
X438505Y-291846D01*
X437692Y-295706D01*
X435508Y-299008D01*
X432206Y-301193D01*
X428345Y-302006D01*
X379679Y-302006D01*
X377444Y-302514D01*
X370636Y-305917D01*
X368401Y-306730D01*
G37*

%LPD*%
G36*
X468630Y-324459D02*
G01*
X464769Y-323697D01*
X461467Y-321513D01*
X459282Y-318211D01*
X458470Y-314299D01*
X458470Y-194106D01*
X459232Y-190246D01*
X461467Y-186944D01*
X464769Y-184759D01*
X468630Y-183946D01*
X578307Y-183946D01*
X582218Y-184759D01*
X585520Y-186944D01*
X587705Y-190246D01*
X588467Y-194106D01*
X588467Y-242468D01*
X587603Y-246532D01*
X585216Y-249936D01*
X581609Y-252069D01*
X577697Y-253390D01*
X569315Y-257962D01*
X561746Y-263855D01*
X555244Y-270865D01*
X550011Y-278892D01*
X546150Y-287680D01*
X543814Y-296926D01*
X543001Y-306933D01*
X543001Y-314299D01*
X542239Y-318211D01*
X540004Y-321513D01*
X536702Y-323697D01*
X532841Y-324459D01*
G37*

%LPD*%
G36*
X686155Y-381965D02*
G01*
X682244Y-381203D01*
X678942Y-379018D01*
X676757Y-375716D01*
X675995Y-371805D01*
X675995Y-322376D01*
X668934Y-322224D01*
X665124Y-321411D01*
X661873Y-319176D01*
X659739Y-315925D01*
X658977Y-312064D01*
X658977Y-306933D01*
X658164Y-296926D01*
X655828Y-287680D01*
X651967Y-278892D01*
X646734Y-270865D01*
X640232Y-263855D01*
X632714Y-257962D01*
X624281Y-253390D01*
X615340Y-250342D01*
X611733Y-248208D01*
X609346Y-244805D01*
X608482Y-240741D01*
X608482Y-194106D01*
X609244Y-190246D01*
X611479Y-186944D01*
X614730Y-184759D01*
X618642Y-183946D01*
X770839Y-183946D01*
X774700Y-184759D01*
X778002Y-186944D01*
X780186Y-190246D01*
X780999Y-194106D01*
X780999Y-264464D01*
X849325Y-264464D01*
X853236Y-265226D01*
X856487Y-267462D01*
X858723Y-270764D01*
X859485Y-274624D01*
X859485Y-371805D01*
X858723Y-375716D01*
X856487Y-378968D01*
X853236Y-381203D01*
X849325Y-381965D01*
G37*

%LPD*%
G36*
X228295Y-476097D02*
G01*
X114554Y-476046D01*
X102666Y-475234D01*
X92862Y-473151D01*
X83413Y-469747D01*
X74523Y-465124D01*
X66344Y-459333D01*
X59029Y-452475D01*
X52679Y-444652D01*
X47447Y-436118D01*
X43434Y-426923D01*
X41808Y-421335D01*
X41402Y-418490D01*
X41452Y-261670D01*
X41910Y-258470D01*
X42773Y-246227D01*
X45008Y-236067D01*
X48666Y-226314D01*
X53644Y-217119D01*
X59842Y-208788D01*
X67208Y-201371D01*
X75488Y-195021D01*
X84582Y-189941D01*
X94335Y-186232D01*
X104495Y-183845D01*
X107797Y-183591D01*
X273354Y-183946D01*
X277215Y-184708D01*
X280517Y-186944D01*
X282702Y-190195D01*
X283464Y-194106D01*
X283464Y-242112D01*
X282600Y-246176D01*
X280212Y-249580D01*
X276606Y-251714D01*
X271729Y-253390D01*
X263296Y-257962D01*
X255727Y-263855D01*
X249224Y-270865D01*
X243992Y-278892D01*
X240182Y-287680D01*
X237794Y-296926D01*
X236982Y-306933D01*
X236982Y-341071D01*
X237794Y-351028D01*
X238455Y-354939D01*
X238455Y-465937D01*
X237693Y-469798D01*
X235508Y-473100D01*
X232206Y-475284D01*
G37*

%LPD*%
D10*
X294467Y537999D02*
G01*
X295498Y424997D01*
X597999Y424997D01*
X598497Y537999D01*
X722497Y424997D02*
G01*
X595000Y424997D01*
X722998Y-7426D02*
G01*
X597999Y-8999D01*
X294952Y-323918D02*
G01*
X295000Y-436996D01*
X601502Y-436996D01*
X600974Y-323900D01*
X722998Y-436963D02*
G01*
X600499Y-436999D01*
X294977Y105552D02*
G01*
X295000Y-8999D01*
X598998Y-9499D01*
X598759Y97497D01*
D11*
G01*
X172499Y424997D03*
G01*
X722497Y424997D03*
G01*
X722998Y-7498D03*
G01*
X172999Y-7500D03*
G01*
X722998Y-436963D03*
G01*
X172999Y-436999D03*
D12*
G01*
X336791Y212498D03*
D13*
G01*
X250231Y212498D03*
D14*
G01*
X641794Y212477D03*
D15*
G01*
X555238Y212477D03*
D12*
G01*
X336763Y-216966D03*
D13*
G01*
X250205Y-216966D03*
D14*
G01*
X641771Y-216988D03*
D15*
G01*
X555213Y-216988D03*
D16*
G01*
X641290Y644978D03*
D15*
G01*
X554732Y644978D03*
D12*
G01*
X336282Y644999D03*
D13*
G01*
X249722Y644999D03*
D17*
G01*
X723011Y105493D03*
D18*
G01*
X172996Y105493D03*
D17*
G01*
X499026Y105493D03*
D19*
G01*
X19019Y77251D03*
G01*
X883005Y77251D03*
D17*
G01*
X600999Y105493D03*
G01*
X399013Y105493D03*
G01*
X295015Y105493D03*
G01*
X722988Y-323971D03*
D18*
G01*
X172968Y-323971D03*
D17*
G01*
X499000Y-323971D03*
D19*
G01*
X18991Y-352214D03*
G01*
X882982Y-352214D03*
D17*
G01*
X600971Y-323971D03*
G01*
X398988Y-323971D03*
G01*
X294987Y-323971D03*
G01*
X722505Y537994D03*
D18*
G01*
X172486Y537994D03*
D17*
G01*
X498518Y537994D03*
D19*
G01*
X18511Y509752D03*
G01*
X882500Y509752D03*
D17*
G01*
X600491Y537994D03*
G01*
X398505Y537994D03*
G01*
X294507Y537994D03*
D20*
G01*
X172499Y424997D03*
G01*
X722497Y424997D03*
G01*
X722998Y-7426D03*
G01*
X172999Y-7432D03*
G01*
X722998Y-436928D03*
G01*
X172999Y-436999D03*
M02*
