G04 Layer: TopLayer*
G04 EasyEDA v6.5.22, 2022-12-30 12:31:34*
G04 8208ea2c859e44049a4325ea99c283b7,9c64b28349a745268246d024528a85f0,10*
G04 Gerber Generator version 0.2*
G04 Scale: 100 percent, Rotated: No, Reflected: No *
G04 Dimensions in millimeters *
G04 leading zeros omitted , absolute positions ,4 integer and 5 decimal *
%FSLAX45Y45*%
%MOMM*%

%AMMACRO1*21,1,$1,$2,0,0,$3*%
%ADD10C,0.3000*%
%ADD11C,0.8000*%
%ADD12MACRO1,0.5402X0.5655X90.0000*%
%ADD13MACRO1,0.5402X0.5657X90.0000*%
%ADD14MACRO1,0.54X0.5653X90.0000*%
%ADD15MACRO1,0.54X0.5657X90.0000*%
%ADD16MACRO1,0.54X0.5654X90.0000*%
%ADD17O,0.7500112X1.0999978000000001*%
%ADD18O,0.850011X1.0999978000000001*%
%ADD19O,0.6999986X1.0999978000000001*%
%ADD20O,0.9999979999999999X2.1999956000000003*%
%ADD21C,0.6000*%
%ADD22C,0.0139*%

%LPD*%
G36*
X361391Y566013D02*
G01*
X357073Y566978D01*
X353568Y569722D01*
X347268Y583996D01*
X341833Y592328D01*
X335127Y599592D01*
X327304Y605688D01*
X318617Y610412D01*
X312369Y612546D01*
X308762Y614680D01*
X306374Y618083D01*
X305511Y622147D01*
X305511Y667816D01*
X306273Y671728D01*
X308457Y675030D01*
X311759Y677214D01*
X315671Y677976D01*
X426821Y677976D01*
X430733Y677214D01*
X434035Y675030D01*
X436219Y671728D01*
X436981Y667816D01*
X436981Y576173D01*
X436219Y572262D01*
X434035Y568960D01*
X430733Y566775D01*
X426821Y566013D01*
G37*

%LPD*%
G36*
X470154Y566013D02*
G01*
X466293Y566775D01*
X462991Y568960D01*
X460756Y572262D01*
X459993Y576173D01*
X459993Y667816D01*
X460756Y671728D01*
X462991Y675030D01*
X466293Y677214D01*
X470154Y677976D01*
X577850Y677976D01*
X581710Y677214D01*
X585012Y675030D01*
X587248Y671728D01*
X588010Y667816D01*
X588010Y621639D01*
X587146Y617524D01*
X584708Y614121D01*
X581152Y611987D01*
X576427Y610412D01*
X567690Y605688D01*
X559917Y599592D01*
X553212Y592328D01*
X547776Y583996D01*
X541477Y569722D01*
X537972Y566978D01*
X533603Y566013D01*
G37*

%LPD*%
G36*
X685647Y480009D02*
G01*
X681786Y480771D01*
X678484Y482955D01*
X676249Y486257D01*
X675487Y490169D01*
X675487Y566013D01*
X667410Y566013D01*
X663092Y566978D01*
X659587Y569722D01*
X653237Y583996D01*
X647852Y592328D01*
X641146Y599592D01*
X633323Y605688D01*
X624586Y610412D01*
X617372Y612902D01*
X613765Y615035D01*
X611378Y618388D01*
X610514Y622503D01*
X610514Y667816D01*
X611276Y671728D01*
X613460Y675030D01*
X616762Y677214D01*
X620674Y677976D01*
X770331Y677976D01*
X774242Y677214D01*
X777544Y675030D01*
X779729Y671728D01*
X780491Y667816D01*
X780491Y597509D01*
X849376Y597509D01*
X853236Y596747D01*
X856538Y594512D01*
X858774Y591210D01*
X859536Y587349D01*
X859536Y490169D01*
X858774Y486257D01*
X856538Y482955D01*
X853236Y480771D01*
X849376Y480009D01*
G37*

%LPD*%
G36*
X143357Y384759D02*
G01*
X130657Y386740D01*
X120345Y386740D01*
X115874Y386130D01*
X111607Y386029D01*
X102362Y386689D01*
X92710Y388721D01*
X83413Y391972D01*
X74625Y396494D01*
X66497Y402132D01*
X59232Y408787D01*
X52882Y416356D01*
X47599Y424688D01*
X43484Y433679D01*
X42214Y437591D01*
X41757Y440690D01*
X41808Y610311D01*
X42316Y616254D01*
X44500Y626414D01*
X48158Y636219D01*
X53136Y645363D01*
X59334Y653745D01*
X66700Y661162D01*
X74980Y667461D01*
X84074Y672541D01*
X93827Y676300D01*
X101346Y678078D01*
X103733Y678383D01*
X272846Y678027D01*
X276758Y677265D01*
X280009Y675030D01*
X282244Y671728D01*
X283006Y667867D01*
X283006Y621944D01*
X282143Y617880D01*
X279704Y614476D01*
X276148Y612343D01*
X270408Y610412D01*
X261721Y605688D01*
X253898Y599592D01*
X247192Y592328D01*
X241757Y583996D01*
X237794Y574954D01*
X235356Y565353D01*
X234492Y555040D01*
X234492Y520903D01*
X235356Y510590D01*
X237693Y501396D01*
X237998Y498906D01*
X237998Y395122D01*
X237236Y391261D01*
X235051Y387959D01*
X231749Y385775D01*
X227888Y384962D01*
X221589Y385114D01*
X211683Y386740D01*
X201320Y386740D01*
X189280Y384860D01*
G37*

%LPD*%
G36*
X470204Y148996D02*
G01*
X466293Y149758D01*
X462991Y151993D01*
X460806Y155295D01*
X460044Y159156D01*
X460044Y250850D01*
X460806Y254711D01*
X462991Y258013D01*
X466293Y260248D01*
X470204Y261010D01*
X577850Y261010D01*
X581761Y260248D01*
X585063Y258013D01*
X587248Y254711D01*
X588010Y250850D01*
X588010Y204622D01*
X587146Y200558D01*
X584758Y197154D01*
X581152Y195021D01*
X576427Y193395D01*
X567740Y188671D01*
X559917Y182575D01*
X553212Y175310D01*
X547776Y167030D01*
X541477Y152704D01*
X537972Y149961D01*
X533654Y148996D01*
G37*

%LPD*%
G36*
X361442Y148996D02*
G01*
X357073Y149961D01*
X353568Y152704D01*
X347268Y167030D01*
X341833Y175310D01*
X335127Y182575D01*
X327355Y188671D01*
X318617Y193395D01*
X312369Y195529D01*
X308813Y197662D01*
X306374Y201066D01*
X305511Y205130D01*
X305511Y250850D01*
X306273Y254711D01*
X308508Y258013D01*
X311810Y260248D01*
X315671Y261010D01*
X426872Y261010D01*
X430733Y260248D01*
X434035Y258013D01*
X436270Y254711D01*
X437032Y250850D01*
X437032Y159156D01*
X436270Y155295D01*
X434035Y151993D01*
X430733Y149758D01*
X426872Y148996D01*
G37*

%LPD*%
G36*
X685647Y62991D02*
G01*
X681786Y63754D01*
X678484Y65989D01*
X676249Y69240D01*
X675487Y73152D01*
X675487Y148996D01*
X667410Y148996D01*
X663092Y149961D01*
X659587Y152704D01*
X653288Y167030D01*
X647852Y175310D01*
X641146Y182575D01*
X633323Y188671D01*
X624636Y193395D01*
X617372Y195884D01*
X613816Y198018D01*
X611378Y201422D01*
X610514Y205486D01*
X610514Y250850D01*
X611276Y254711D01*
X613511Y258013D01*
X616813Y260248D01*
X620674Y261010D01*
X770331Y261010D01*
X774242Y260248D01*
X777494Y258013D01*
X779729Y254711D01*
X780491Y250850D01*
X780491Y180492D01*
X849325Y180492D01*
X853236Y179730D01*
X856538Y177546D01*
X858723Y174244D01*
X859485Y170332D01*
X859485Y73152D01*
X858723Y69291D01*
X856538Y65989D01*
X853236Y63754D01*
X849325Y62991D01*
G37*

%LPD*%
G36*
X144830Y-32207D02*
G01*
X130606Y-29718D01*
X120294Y-29718D01*
X113639Y-30835D01*
X111353Y-30937D01*
X102412Y-30327D01*
X92760Y-28295D01*
X83413Y-24993D01*
X74625Y-20523D01*
X66548Y-14884D01*
X59232Y-8229D01*
X52882Y-660D01*
X47599Y7670D01*
X43484Y16662D01*
X42062Y21234D01*
X41554Y24333D01*
X41656Y190195D01*
X42316Y199237D01*
X44551Y209448D01*
X48209Y219202D01*
X53187Y228346D01*
X59385Y236728D01*
X66700Y244144D01*
X75031Y250444D01*
X84124Y255524D01*
X93827Y259283D01*
X101346Y261112D01*
X103784Y261366D01*
X272897Y261010D01*
X276758Y260248D01*
X280060Y258064D01*
X282244Y254762D01*
X283006Y250850D01*
X283006Y204978D01*
X282143Y200863D01*
X279755Y197510D01*
X276148Y195376D01*
X270459Y193395D01*
X261721Y188671D01*
X253898Y182575D01*
X247192Y175310D01*
X241808Y167030D01*
X237794Y157937D01*
X235356Y148336D01*
X234543Y138074D01*
X234543Y103885D01*
X235356Y93624D01*
X237693Y84378D01*
X237998Y81889D01*
X237998Y-21844D01*
X237185Y-25958D01*
X234696Y-29362D01*
X231089Y-31495D01*
X226974Y-32004D01*
X222656Y-31546D01*
X211632Y-29718D01*
X201320Y-29718D01*
X187452Y-32105D01*
G37*

%LPD*%
G36*
X470154Y-268020D02*
G01*
X466293Y-267208D01*
X462991Y-265023D01*
X460806Y-261721D01*
X459993Y-257860D01*
X459993Y-166166D01*
X460806Y-162255D01*
X462991Y-158953D01*
X466293Y-156768D01*
X470154Y-156006D01*
X577850Y-156006D01*
X581710Y-156768D01*
X585012Y-158953D01*
X587248Y-162255D01*
X588010Y-166166D01*
X588010Y-212394D01*
X587146Y-216458D01*
X584708Y-219862D01*
X581152Y-221996D01*
X576427Y-223621D01*
X567740Y-228295D01*
X559917Y-234391D01*
X553212Y-241706D01*
X547776Y-249986D01*
X541477Y-264312D01*
X537972Y-267004D01*
X533654Y-268020D01*
G37*

%LPD*%
G36*
X361391Y-268020D02*
G01*
X357073Y-267004D01*
X353568Y-264312D01*
X347268Y-249986D01*
X341833Y-241706D01*
X335127Y-234391D01*
X327304Y-228295D01*
X318617Y-223621D01*
X312369Y-221437D01*
X308813Y-219303D01*
X306374Y-215950D01*
X305511Y-211836D01*
X305511Y-166166D01*
X306273Y-162255D01*
X308508Y-158953D01*
X311759Y-156768D01*
X315671Y-156006D01*
X426872Y-156006D01*
X430733Y-156768D01*
X434035Y-158953D01*
X436219Y-162255D01*
X437032Y-166166D01*
X437032Y-257860D01*
X436219Y-261721D01*
X434035Y-265023D01*
X430733Y-267208D01*
X426872Y-268020D01*
G37*

%LPD*%
G36*
X685647Y-354025D02*
G01*
X681786Y-353212D01*
X678484Y-351028D01*
X676249Y-347726D01*
X675487Y-343865D01*
X675487Y-268020D01*
X667410Y-268020D01*
X663092Y-267004D01*
X659587Y-264312D01*
X653288Y-249986D01*
X647852Y-241706D01*
X641146Y-234391D01*
X633323Y-228295D01*
X624636Y-223621D01*
X617372Y-221132D01*
X613765Y-218998D01*
X611378Y-215595D01*
X610514Y-211480D01*
X610514Y-166166D01*
X611276Y-162255D01*
X613511Y-158953D01*
X616762Y-156768D01*
X620674Y-156006D01*
X770331Y-156006D01*
X774242Y-156768D01*
X777544Y-158953D01*
X779729Y-162255D01*
X780491Y-166166D01*
X780491Y-236474D01*
X849325Y-236474D01*
X853236Y-237286D01*
X856538Y-239471D01*
X858723Y-242773D01*
X859485Y-246634D01*
X859485Y-343814D01*
X858723Y-347726D01*
X856538Y-351028D01*
X853236Y-353212D01*
X849325Y-353974D01*
G37*

%LPD*%
G36*
X142240Y-448106D02*
G01*
X130149Y-446227D01*
X119837Y-446227D01*
X111099Y-447700D01*
X108762Y-447801D01*
X102412Y-447293D01*
X92710Y-445312D01*
X83413Y-442010D01*
X74625Y-437489D01*
X66497Y-431901D01*
X59232Y-425246D01*
X52882Y-417677D01*
X47599Y-409295D01*
X43484Y-400354D01*
X41859Y-395224D01*
X41402Y-392176D01*
X41452Y-229412D01*
X42316Y-217728D01*
X44551Y-207568D01*
X48158Y-197815D01*
X53136Y-188620D01*
X59385Y-180238D01*
X66700Y-172872D01*
X74980Y-166522D01*
X84124Y-161442D01*
X93827Y-157734D01*
X101346Y-155905D01*
X103784Y-155600D01*
X272846Y-155956D01*
X276758Y-156768D01*
X280060Y-158953D01*
X282244Y-162255D01*
X283006Y-166116D01*
X283006Y-212039D01*
X282143Y-216103D01*
X279704Y-219506D01*
X276148Y-221640D01*
X270408Y-223621D01*
X261721Y-228295D01*
X253898Y-234391D01*
X247192Y-241706D01*
X241757Y-249986D01*
X237794Y-259029D01*
X235356Y-268630D01*
X234492Y-278942D01*
X234492Y-313080D01*
X235356Y-323392D01*
X237693Y-332587D01*
X237998Y-335076D01*
X237998Y-437946D01*
X237236Y-441807D01*
X235051Y-445109D01*
X231749Y-447344D01*
X227838Y-448106D01*
X221538Y-447954D01*
X211175Y-446227D01*
X200863Y-446227D01*
X188772Y-448106D01*
G37*

%LPD*%
D10*
X639998Y426999D02*
G01*
X596498Y426499D01*
X294467Y537999D02*
G01*
X295000Y426499D01*
X599998Y426499D01*
X598497Y537999D01*
X640021Y10002D02*
G01*
X596519Y9502D01*
X294492Y121003D02*
G01*
X295026Y9502D01*
X600024Y9502D01*
X598523Y121003D01*
X640003Y-406994D02*
G01*
X596503Y-407494D01*
X294482Y-295991D02*
G01*
X295013Y-407494D01*
X600014Y-407494D01*
X598505Y-295991D01*
D11*
G01*
X172491Y428497D03*
G01*
X640003Y426999D03*
G01*
X640029Y10007D03*
G01*
X172516Y11506D03*
G01*
X640003Y-406984D03*
G01*
X172516Y-405511D03*
D12*
G01*
X336304Y228000D03*
D13*
G01*
X249745Y228000D03*
D14*
G01*
X641304Y227981D03*
D15*
G01*
X554755Y227981D03*
D12*
G01*
X336292Y-188995D03*
D13*
G01*
X249734Y-188995D03*
D16*
G01*
X641296Y-189015D03*
D15*
G01*
X554742Y-189015D03*
D16*
G01*
X641290Y644978D03*
D15*
G01*
X554732Y644978D03*
D12*
G01*
X336282Y644999D03*
D13*
G01*
X249722Y644999D03*
D17*
G01*
X722502Y121005D03*
D18*
G01*
X172516Y121005D03*
D19*
G01*
X498551Y121005D03*
D20*
G01*
X18542Y92760D03*
G01*
X882497Y92760D03*
D17*
G01*
X600506Y121005D03*
D19*
G01*
X398526Y121005D03*
D17*
G01*
X294538Y121005D03*
G01*
X722502Y-295986D03*
D18*
G01*
X172491Y-295986D03*
D19*
G01*
X498525Y-295986D03*
D20*
G01*
X18542Y-324256D03*
G01*
X882497Y-324256D03*
D17*
G01*
X600481Y-295986D03*
D19*
G01*
X398526Y-295986D03*
D17*
G01*
X294512Y-295986D03*
G01*
X722502Y537997D03*
D18*
G01*
X172491Y537997D03*
D19*
G01*
X498525Y537997D03*
D20*
G01*
X18516Y509752D03*
G01*
X882497Y509752D03*
D17*
G01*
X600481Y537997D03*
D19*
G01*
X398500Y537997D03*
D17*
G01*
X294512Y537997D03*
D21*
G01*
X172491Y428497D03*
G01*
X640003Y426999D03*
G01*
X639978Y10515D03*
G01*
X172465Y12014D03*
G01*
X639495Y-405968D03*
G01*
X172008Y-404469D03*
M02*
