G04 Layer: BottomSilkscreenLayer*
G04 EasyEDA v6.5.22, 2022-12-26 17:46:56*
G04 054495fe3ecf40f9b916fb1bc62bcec1,9c64b28349a745268246d024528a85f0,10*
G04 Gerber Generator version 0.2*
G04 Scale: 100 percent, Rotated: No, Reflected: No *
G04 Dimensions in millimeters *
G04 leading zeros omitted , absolute positions ,4 integer and 5 decimal *
%FSLAX45Y45*%
%MOMM*%

%ADD10C,0.0800*%

%LPD*%
G36*
X663295Y-346303D02*
G01*
X663295Y-349859D01*
X677519Y-349859D01*
X678535Y-361035D01*
X675843Y-359918D01*
X672693Y-359511D01*
X668375Y-360222D01*
X664819Y-362356D01*
X662432Y-366064D01*
X661517Y-371449D01*
X662533Y-376783D01*
X665226Y-380796D01*
X669036Y-383286D01*
X673455Y-384149D01*
X677468Y-383743D01*
X680669Y-382574D01*
X683310Y-380949D01*
X685393Y-379069D01*
X683107Y-376275D01*
X681431Y-377952D01*
X679399Y-379323D01*
X676960Y-380238D01*
X673963Y-380593D01*
X670763Y-379984D01*
X668223Y-378155D01*
X666496Y-375259D01*
X665835Y-371449D01*
X666394Y-367741D01*
X667969Y-364947D01*
X670458Y-363169D01*
X673709Y-362559D01*
X675487Y-362762D01*
X678484Y-363982D01*
X680059Y-364845D01*
X682345Y-363575D01*
X681075Y-346303D01*
G37*
G36*
X630021Y-346303D02*
G01*
X641959Y-383387D01*
X646785Y-383387D01*
X658723Y-346303D01*
X654405Y-346303D01*
X644499Y-379069D01*
X644245Y-379069D01*
X634339Y-346303D01*
G37*
G36*
X358241Y-343357D02*
G01*
X354634Y-343763D01*
X351688Y-344779D01*
X349351Y-346252D01*
X347573Y-347929D01*
X349859Y-350723D01*
X351332Y-349300D01*
X353161Y-348183D01*
X355346Y-347421D01*
X357987Y-347167D01*
X363321Y-348234D01*
X367284Y-351282D01*
X369824Y-356158D01*
X370687Y-362661D01*
X369824Y-369062D01*
X367385Y-373938D01*
X363423Y-377037D01*
X357987Y-378155D01*
X355904Y-378002D01*
X353974Y-377596D01*
X352247Y-376885D01*
X350875Y-375869D01*
X350875Y-365709D01*
X359003Y-365709D01*
X359003Y-362153D01*
X347065Y-362153D01*
X347065Y-377647D01*
X349097Y-379374D01*
X351739Y-380746D01*
X354888Y-381660D01*
X358495Y-381965D01*
X365150Y-380644D01*
X370382Y-376783D01*
X373786Y-370738D01*
X375005Y-362661D01*
X373735Y-354584D01*
X370230Y-348538D01*
X364947Y-344678D01*
G37*
G36*
X312013Y-344119D02*
G01*
X312013Y-381203D01*
X316331Y-381203D01*
X330301Y-357073D01*
X334365Y-349453D01*
X334619Y-349453D01*
X334111Y-360883D01*
X334111Y-381203D01*
X338175Y-381203D01*
X338175Y-344119D01*
X333857Y-344119D01*
X319633Y-368249D01*
X315569Y-375869D01*
X315315Y-375869D01*
X315976Y-367080D01*
X316077Y-344119D01*
G37*
G36*
X292455Y-344119D02*
G01*
X284937Y-345338D01*
X279552Y-348894D01*
X276301Y-354634D01*
X275183Y-362407D01*
X279501Y-362407D01*
X280314Y-356108D01*
X282752Y-351383D01*
X286918Y-348437D01*
X292709Y-347421D01*
X297281Y-347421D01*
X297281Y-377901D01*
X292709Y-377901D01*
X286918Y-376834D01*
X282752Y-373786D01*
X280314Y-368909D01*
X279501Y-362407D01*
X275183Y-362407D01*
X276250Y-370281D01*
X279501Y-376174D01*
X284835Y-379933D01*
X292201Y-381203D01*
X301599Y-381203D01*
X301599Y-344119D01*
G37*
G36*
X211886Y-121970D02*
G01*
X211886Y-136194D01*
X211632Y-136194D01*
X205790Y-128574D01*
X203250Y-128574D01*
X207822Y-134162D01*
X202742Y-142290D01*
X205028Y-142290D01*
X209092Y-135432D01*
X211886Y-138734D01*
X211886Y-142290D01*
X213918Y-142290D01*
X213918Y-121970D01*
G37*
G36*
X192836Y-123494D02*
G01*
X189585Y-124155D01*
X187096Y-125933D01*
X185521Y-128778D01*
X184962Y-132384D01*
X185267Y-135026D01*
X186080Y-137210D01*
X187198Y-139039D01*
X188518Y-140512D01*
X184708Y-140512D01*
X184708Y-142290D01*
X191058Y-142290D01*
X191058Y-140766D01*
X189636Y-139395D01*
X188417Y-137566D01*
X187553Y-135229D01*
X187248Y-132384D01*
X187655Y-129590D01*
X188722Y-127304D01*
X190449Y-125831D01*
X192836Y-125272D01*
X195275Y-125831D01*
X197104Y-127304D01*
X198272Y-129590D01*
X198678Y-132384D01*
X198374Y-135229D01*
X197510Y-137566D01*
X196240Y-139395D01*
X194614Y-140766D01*
X194614Y-142290D01*
X201218Y-142290D01*
X201218Y-140512D01*
X197408Y-140512D01*
X198577Y-139039D01*
X199644Y-137210D01*
X200406Y-135026D01*
X200710Y-132384D01*
X200152Y-128778D01*
X198577Y-125933D01*
X196088Y-124155D01*
G37*
G36*
X239318Y-123748D02*
G01*
X239318Y-125526D01*
X246430Y-125526D01*
X246938Y-131114D01*
X245516Y-130556D01*
X243890Y-130352D01*
X241757Y-130708D01*
X239979Y-131775D01*
X238760Y-133604D01*
X238302Y-136194D01*
X238861Y-138938D01*
X240233Y-140919D01*
X242163Y-142138D01*
X244398Y-142544D01*
X246329Y-142392D01*
X247904Y-141884D01*
X249174Y-141173D01*
X250240Y-140258D01*
X249224Y-138734D01*
X247345Y-140360D01*
X246075Y-140868D01*
X244652Y-141020D01*
X243078Y-140716D01*
X241757Y-139750D01*
X240893Y-138277D01*
X240588Y-136194D01*
X240893Y-134467D01*
X241655Y-133096D01*
X242824Y-132232D01*
X244398Y-131876D01*
X246176Y-132232D01*
X247700Y-133146D01*
X248716Y-132384D01*
X248208Y-123748D01*
G37*
G36*
X221792Y-123748D02*
G01*
X221792Y-140512D01*
X217982Y-140512D01*
X217982Y-142290D01*
X227888Y-142290D01*
X227888Y-140512D01*
X223824Y-140512D01*
X223824Y-126288D01*
X227126Y-126288D01*
X227126Y-125018D01*
X224942Y-124510D01*
X223316Y-123748D01*
G37*
G36*
X169468Y-123748D02*
G01*
X166878Y-124002D01*
X164896Y-124866D01*
X163576Y-126441D01*
X163118Y-128828D01*
X165150Y-128828D01*
X165455Y-127254D01*
X166319Y-126237D01*
X167741Y-125679D01*
X173024Y-125526D01*
X173024Y-132638D01*
X167741Y-132435D01*
X166319Y-131724D01*
X165455Y-130505D01*
X165150Y-128828D01*
X163118Y-128828D01*
X163423Y-130860D01*
X164236Y-132384D01*
X165608Y-133451D01*
X167436Y-134162D01*
X162610Y-142290D01*
X164896Y-142290D01*
X169468Y-134162D01*
X173024Y-134162D01*
X173024Y-142290D01*
X175056Y-142290D01*
X175056Y-123748D01*
G37*
G36*
X153212Y-123748D02*
G01*
X153212Y-140512D01*
X149402Y-140512D01*
X149402Y-142290D01*
X159562Y-142290D01*
X159562Y-140512D01*
X155244Y-140512D01*
X155244Y-126288D01*
X158546Y-126288D01*
X158546Y-125018D01*
X156514Y-124510D01*
X154990Y-123748D01*
G37*
G36*
X233730Y-139242D02*
G01*
X232460Y-139750D01*
X231952Y-141020D01*
X232460Y-142189D01*
X233730Y-142544D01*
X234797Y-142189D01*
X235153Y-141681D01*
X235153Y-140309D01*
X234289Y-139395D01*
G37*
G36*
X780745Y-119481D02*
G01*
X780745Y-133705D01*
X780491Y-133705D01*
X774395Y-126085D01*
X772109Y-126085D01*
X776681Y-131673D01*
X771601Y-139801D01*
X773887Y-139801D01*
X777951Y-132943D01*
X780745Y-136245D01*
X780745Y-139801D01*
X782523Y-139801D01*
X782523Y-119481D01*
G37*
G36*
X761695Y-121005D02*
G01*
X758444Y-121666D01*
X755954Y-123444D01*
X754380Y-126237D01*
X753821Y-129895D01*
X754126Y-132537D01*
X754938Y-134721D01*
X756056Y-136550D01*
X757377Y-138023D01*
X753567Y-138023D01*
X753567Y-139801D01*
X759917Y-139801D01*
X759917Y-138277D01*
X758444Y-136906D01*
X757224Y-135026D01*
X756412Y-132689D01*
X756107Y-129895D01*
X756462Y-127050D01*
X757580Y-124815D01*
X759307Y-123342D01*
X761695Y-122783D01*
X764082Y-123342D01*
X765962Y-124815D01*
X767130Y-127050D01*
X767537Y-129895D01*
X767232Y-132689D01*
X766368Y-135026D01*
X765048Y-136906D01*
X763473Y-138277D01*
X763473Y-139801D01*
X770077Y-139801D01*
X770077Y-138023D01*
X766267Y-138023D01*
X767435Y-136550D01*
X768502Y-134721D01*
X769264Y-132537D01*
X769569Y-129895D01*
X769010Y-126237D01*
X767435Y-123444D01*
X764946Y-121666D01*
G37*
G36*
X724103Y-121005D02*
G01*
X721868Y-121361D01*
X720191Y-122428D01*
X719124Y-124104D01*
X718769Y-126339D01*
X719328Y-129184D01*
X720852Y-132130D01*
X723290Y-135128D01*
X726389Y-138277D01*
X724763Y-138074D01*
X718007Y-138023D01*
X718007Y-139801D01*
X729437Y-139801D01*
X729437Y-138531D01*
X725627Y-134924D01*
X722934Y-131775D01*
X721309Y-128930D01*
X720801Y-126339D01*
X721055Y-124866D01*
X721715Y-123647D01*
X722833Y-122834D01*
X724357Y-122529D01*
X726592Y-123189D01*
X728421Y-124815D01*
X729691Y-123545D01*
X727202Y-121716D01*
X725728Y-121208D01*
G37*
G36*
X808177Y-121259D02*
G01*
X808177Y-123037D01*
X815289Y-123037D01*
X815797Y-128625D01*
X814374Y-128066D01*
X812749Y-127863D01*
X810564Y-128219D01*
X808786Y-129235D01*
X807618Y-131064D01*
X807161Y-133705D01*
X807669Y-136398D01*
X809040Y-138430D01*
X811022Y-139649D01*
X813257Y-140055D01*
X815187Y-139852D01*
X816762Y-139395D01*
X818032Y-138684D01*
X819099Y-137769D01*
X818083Y-136245D01*
X817219Y-137160D01*
X816152Y-137871D01*
X814933Y-138328D01*
X813511Y-138531D01*
X811885Y-138226D01*
X810615Y-137261D01*
X809752Y-135737D01*
X809447Y-133705D01*
X809701Y-131978D01*
X810514Y-130606D01*
X811682Y-129692D01*
X813257Y-129387D01*
X814882Y-129743D01*
X816559Y-130657D01*
X817575Y-129895D01*
X817067Y-121259D01*
G37*
G36*
X790651Y-121259D02*
G01*
X790651Y-138023D01*
X786841Y-138023D01*
X786841Y-139801D01*
X796747Y-139801D01*
X796747Y-138023D01*
X792683Y-138023D01*
X792683Y-123799D01*
X795985Y-123799D01*
X795985Y-122529D01*
X793699Y-121970D01*
X792175Y-121259D01*
G37*
G36*
X738327Y-121259D02*
G01*
X735685Y-121513D01*
X733602Y-122377D01*
X732231Y-123952D01*
X731723Y-126339D01*
X734009Y-126339D01*
X734314Y-124764D01*
X735126Y-123748D01*
X736600Y-123189D01*
X741883Y-123037D01*
X741883Y-130149D01*
X738581Y-130149D01*
X736600Y-129895D01*
X735126Y-129184D01*
X734314Y-128016D01*
X734009Y-126339D01*
X731723Y-126339D01*
X732028Y-128371D01*
X732942Y-129844D01*
X734314Y-130962D01*
X736041Y-131673D01*
X731469Y-139801D01*
X733755Y-139801D01*
X738327Y-131673D01*
X741883Y-131673D01*
X741883Y-139801D01*
X743915Y-139801D01*
X743915Y-121259D01*
G37*
G36*
X802589Y-136753D02*
G01*
X801319Y-137261D01*
X800811Y-138531D01*
X801319Y-139700D01*
X802589Y-140055D01*
X803656Y-139700D01*
X804113Y-138531D01*
X803656Y-137261D01*
G37*
G36*
X438404Y-302717D02*
G01*
X430326Y-303936D01*
X424281Y-307289D01*
X420420Y-312470D01*
X419100Y-318973D01*
X419455Y-322173D01*
X420420Y-324967D01*
X421893Y-327304D01*
X423672Y-329133D01*
X426212Y-326847D01*
X424789Y-325221D01*
X423672Y-323392D01*
X422909Y-321310D01*
X422656Y-318973D01*
X423773Y-314096D01*
X426872Y-310337D01*
X431749Y-307898D01*
X438150Y-307035D01*
X444703Y-307848D01*
X449630Y-310235D01*
X452780Y-313994D01*
X453898Y-318973D01*
X453593Y-321462D01*
X452780Y-323748D01*
X451408Y-325780D01*
X449580Y-327609D01*
X452120Y-330149D01*
X454456Y-327761D01*
X456133Y-325069D01*
X457098Y-322072D01*
X457454Y-318719D01*
X456133Y-312369D01*
X452424Y-307289D01*
X446430Y-303936D01*
G37*
G36*
X438404Y-333451D02*
G01*
X430326Y-334670D01*
X424281Y-338023D01*
X420420Y-343204D01*
X419100Y-349707D01*
X419455Y-352907D01*
X420420Y-355650D01*
X421893Y-357936D01*
X423672Y-359867D01*
X426212Y-357581D01*
X424789Y-355955D01*
X423672Y-354126D01*
X422909Y-352044D01*
X422656Y-349707D01*
X423773Y-344830D01*
X426872Y-341071D01*
X431749Y-338632D01*
X438150Y-337769D01*
X444703Y-338582D01*
X449630Y-340969D01*
X452780Y-344728D01*
X453898Y-349707D01*
X453593Y-352196D01*
X452780Y-354482D01*
X451408Y-356514D01*
X449580Y-358343D01*
X452120Y-360629D01*
X454456Y-358343D01*
X456133Y-355803D01*
X457098Y-352806D01*
X457454Y-349453D01*
X456133Y-343103D01*
X452424Y-338023D01*
X446430Y-334670D01*
G37*
G36*
X424434Y-364693D02*
G01*
X422198Y-366979D01*
X420522Y-369417D01*
X419455Y-372160D01*
X419100Y-375361D01*
X419862Y-379780D01*
X422097Y-383133D01*
X425551Y-385267D01*
X430022Y-386029D01*
X435609Y-384962D01*
X441350Y-381965D01*
X447344Y-377240D01*
X453643Y-371043D01*
X453440Y-374192D01*
X453390Y-387807D01*
X456946Y-387807D01*
X456946Y-364947D01*
X454406Y-364947D01*
X447141Y-372618D01*
X440791Y-377901D01*
X435152Y-380949D01*
X430022Y-381965D01*
X427024Y-381558D01*
X424586Y-380339D01*
X422960Y-378206D01*
X422401Y-375107D01*
X422757Y-372770D01*
X423722Y-370636D01*
X425094Y-368757D01*
X426720Y-366979D01*
G37*
G36*
X538276Y-304139D02*
G01*
X530199Y-305409D01*
X524154Y-308864D01*
X520293Y-314147D01*
X518972Y-320649D01*
X519328Y-323748D01*
X520395Y-326491D01*
X521868Y-328777D01*
X523544Y-330555D01*
X526338Y-328269D01*
X524916Y-326796D01*
X523798Y-325069D01*
X523036Y-322986D01*
X522782Y-320649D01*
X523849Y-315671D01*
X526897Y-311810D01*
X531774Y-309321D01*
X538276Y-308457D01*
X544779Y-309321D01*
X549605Y-311658D01*
X552704Y-315417D01*
X553770Y-320395D01*
X553466Y-322935D01*
X552653Y-325221D01*
X551383Y-327355D01*
X549706Y-329285D01*
X552246Y-331571D01*
X554482Y-329285D01*
X556158Y-326644D01*
X557174Y-323596D01*
X557580Y-320141D01*
X556260Y-313791D01*
X552500Y-308711D01*
X546404Y-305358D01*
G37*
G36*
X538276Y-334873D02*
G01*
X530199Y-336092D01*
X524154Y-339496D01*
X520293Y-344627D01*
X518972Y-351129D01*
X519328Y-354380D01*
X520395Y-357174D01*
X521868Y-359511D01*
X523544Y-361289D01*
X526338Y-359003D01*
X524916Y-357378D01*
X523798Y-355600D01*
X523036Y-353568D01*
X522782Y-351383D01*
X523849Y-346405D01*
X526897Y-342544D01*
X531774Y-340055D01*
X538276Y-339191D01*
X544779Y-340055D01*
X549605Y-342392D01*
X552704Y-346151D01*
X553770Y-351129D01*
X553466Y-353669D01*
X552653Y-355955D01*
X551383Y-358089D01*
X549706Y-360019D01*
X552246Y-362305D01*
X554482Y-359918D01*
X556158Y-357276D01*
X557174Y-354279D01*
X557580Y-350875D01*
X556260Y-344525D01*
X552500Y-339445D01*
X546404Y-336092D01*
G37*
G36*
X553516Y-368655D02*
G01*
X553516Y-377037D01*
X525068Y-377037D01*
X525068Y-370433D01*
X522274Y-370433D01*
X521258Y-374751D01*
X519734Y-378053D01*
X519734Y-381101D01*
X553516Y-381101D01*
X553516Y-388721D01*
X556818Y-388721D01*
X556818Y-368655D01*
G37*
G36*
X538276Y40843D02*
G01*
X530199Y39573D01*
X524154Y36118D01*
X520293Y30886D01*
X518972Y24333D01*
X519328Y21234D01*
X520395Y18542D01*
X521868Y16205D01*
X523544Y14427D01*
X526338Y16713D01*
X524916Y18186D01*
X523798Y19964D01*
X523036Y21996D01*
X522782Y24333D01*
X523849Y29362D01*
X526897Y33172D01*
X531774Y35661D01*
X538276Y36525D01*
X544728Y35661D01*
X549605Y33324D01*
X552704Y29565D01*
X553770Y24587D01*
X553466Y22047D01*
X552653Y19761D01*
X551383Y17627D01*
X549706Y15697D01*
X552246Y13411D01*
X554482Y15697D01*
X556158Y18389D01*
X557174Y21437D01*
X557580Y24841D01*
X556260Y31191D01*
X552500Y36271D01*
X546404Y39624D01*
G37*
G36*
X538276Y10109D02*
G01*
X530199Y8890D01*
X524154Y5486D01*
X520293Y355D01*
X518972Y-6146D01*
X519328Y-9398D01*
X520395Y-12192D01*
X521868Y-14528D01*
X523544Y-16306D01*
X526338Y-14020D01*
X524916Y-12395D01*
X523798Y-10617D01*
X523036Y-8585D01*
X522782Y-6400D01*
X523849Y-1371D01*
X526897Y2438D01*
X531774Y4927D01*
X538276Y5791D01*
X544728Y4978D01*
X549605Y2590D01*
X552704Y-1168D01*
X553770Y-6146D01*
X553466Y-8686D01*
X552653Y-10972D01*
X551383Y-13055D01*
X549706Y-15036D01*
X552246Y-17322D01*
X554482Y-14935D01*
X556158Y-12293D01*
X557174Y-9296D01*
X557580Y-5892D01*
X556260Y457D01*
X552500Y5537D01*
X546404Y8890D01*
G37*
G36*
X553516Y-23672D02*
G01*
X553516Y-32054D01*
X525068Y-32054D01*
X525068Y-25450D01*
X522274Y-25450D01*
X521258Y-29718D01*
X520598Y-31495D01*
X519734Y-33070D01*
X519734Y-36118D01*
X553516Y-36118D01*
X553516Y-43738D01*
X556818Y-43738D01*
X556818Y-23672D01*
G37*
G36*
X438404Y42316D02*
G01*
X430326Y41097D01*
X424281Y37693D01*
X420420Y32562D01*
X419100Y26060D01*
X419455Y22809D01*
X420420Y20015D01*
X421893Y17678D01*
X423672Y15900D01*
X426212Y18135D01*
X424789Y19812D01*
X423672Y21640D01*
X422909Y23723D01*
X422656Y26060D01*
X423773Y30886D01*
X426872Y34696D01*
X431749Y37134D01*
X438150Y37998D01*
X444703Y37134D01*
X449630Y34798D01*
X452780Y31038D01*
X453898Y26060D01*
X453593Y23520D01*
X452780Y21234D01*
X451408Y19202D01*
X449580Y17373D01*
X452120Y14884D01*
X454456Y17272D01*
X456133Y19913D01*
X457098Y22910D01*
X457454Y26314D01*
X456133Y32664D01*
X452424Y37744D01*
X446430Y41097D01*
G37*
G36*
X438404Y11531D02*
G01*
X430326Y10312D01*
X424281Y6959D01*
X420420Y1828D01*
X419100Y-4673D01*
X419455Y-7873D01*
X420420Y-10617D01*
X421893Y-12954D01*
X423672Y-14833D01*
X426212Y-12547D01*
X424789Y-10922D01*
X423672Y-9093D01*
X422909Y-7010D01*
X422656Y-4673D01*
X423773Y152D01*
X426872Y3962D01*
X431749Y6400D01*
X438150Y7264D01*
X444703Y6400D01*
X449630Y4064D01*
X452780Y304D01*
X453898Y-4673D01*
X453593Y-7213D01*
X452780Y-9499D01*
X451408Y-11531D01*
X449580Y-13309D01*
X452120Y-15595D01*
X454456Y-13360D01*
X456133Y-10769D01*
X457098Y-7823D01*
X457454Y-4419D01*
X456133Y1930D01*
X452424Y6959D01*
X446430Y10363D01*
G37*
G36*
X424434Y-19659D02*
G01*
X422198Y-21996D01*
X420522Y-24434D01*
X419455Y-27178D01*
X419100Y-30327D01*
X419862Y-34798D01*
X422097Y-38150D01*
X425551Y-40284D01*
X430022Y-40995D01*
X435609Y-39928D01*
X441350Y-36931D01*
X447344Y-32207D01*
X453643Y-26009D01*
X453390Y-30733D01*
X453390Y-42773D01*
X456946Y-42773D01*
X456946Y-19964D01*
X454406Y-19964D01*
X447141Y-27635D01*
X440791Y-32918D01*
X435152Y-35966D01*
X430022Y-36931D01*
X427024Y-36576D01*
X424586Y-35356D01*
X422960Y-33223D01*
X422401Y-30073D01*
X422757Y-27736D01*
X423722Y-25654D01*
X425094Y-23723D01*
X426720Y-21945D01*
G37*
G36*
X780694Y225501D02*
G01*
X780694Y211277D01*
X780440Y211277D01*
X774344Y218897D01*
X772058Y218897D01*
X776630Y213309D01*
X771550Y205181D01*
X773836Y205181D01*
X777900Y212039D01*
X780694Y208737D01*
X780694Y205181D01*
X782472Y205181D01*
X782472Y225501D01*
G37*
G36*
X761644Y223977D02*
G01*
X758393Y223367D01*
X755904Y221538D01*
X754329Y218744D01*
X753770Y215087D01*
X754075Y212496D01*
X754888Y210261D01*
X756056Y208432D01*
X757326Y206959D01*
X753516Y206959D01*
X753516Y205181D01*
X759866Y205181D01*
X759866Y206705D01*
X758444Y208127D01*
X757224Y209956D01*
X756361Y212293D01*
X756056Y215087D01*
X756412Y217932D01*
X757529Y220167D01*
X759256Y221691D01*
X761644Y222199D01*
X764082Y221691D01*
X765911Y220167D01*
X767080Y217932D01*
X767486Y215087D01*
X767181Y212293D01*
X766318Y209956D01*
X765048Y208127D01*
X763422Y206705D01*
X763422Y205181D01*
X770026Y205181D01*
X770026Y206959D01*
X766216Y206959D01*
X767384Y208432D01*
X768451Y210261D01*
X769213Y212496D01*
X769518Y215087D01*
X768959Y218744D01*
X767384Y221538D01*
X764946Y223367D01*
G37*
G36*
X724052Y223977D02*
G01*
X721817Y223621D01*
X720140Y222554D01*
X719124Y220878D01*
X718718Y218643D01*
X719277Y215798D01*
X720801Y212902D01*
X723239Y209854D01*
X726338Y206705D01*
X724712Y206959D01*
X717956Y206959D01*
X717956Y205181D01*
X729386Y205181D01*
X729386Y206451D01*
X725576Y210058D01*
X722884Y213258D01*
X721309Y216103D01*
X720750Y218643D01*
X721004Y220116D01*
X721715Y221335D01*
X722782Y222148D01*
X724306Y222453D01*
X725474Y222300D01*
X727557Y221081D01*
X728370Y220167D01*
X729640Y221437D01*
X728472Y222504D01*
X725678Y223824D01*
G37*
G36*
X808126Y223723D02*
G01*
X808126Y221945D01*
X815238Y221945D01*
X815746Y216357D01*
X814324Y216916D01*
X812698Y217119D01*
X810564Y216763D01*
X808786Y215747D01*
X807567Y213918D01*
X807110Y211277D01*
X807669Y208584D01*
X809040Y206603D01*
X810971Y205384D01*
X813206Y204927D01*
X815136Y205130D01*
X816711Y205587D01*
X818032Y206349D01*
X819048Y207213D01*
X818032Y208737D01*
X816152Y207111D01*
X814882Y206654D01*
X813460Y206451D01*
X811885Y206806D01*
X810564Y207721D01*
X809752Y209245D01*
X809396Y211277D01*
X809701Y213055D01*
X810463Y214426D01*
X811682Y215290D01*
X813206Y215595D01*
X814069Y215544D01*
X816508Y214325D01*
X817524Y215087D01*
X817016Y223723D01*
G37*
G36*
X790600Y223723D02*
G01*
X790600Y206959D01*
X786790Y206959D01*
X786790Y205181D01*
X796696Y205181D01*
X796696Y206959D01*
X792632Y206959D01*
X792632Y221183D01*
X795985Y221183D01*
X795985Y222453D01*
X793648Y223012D01*
X792124Y223723D01*
G37*
G36*
X738276Y223723D02*
G01*
X735634Y223469D01*
X733552Y222605D01*
X732180Y221081D01*
X731672Y218643D01*
X733958Y218643D01*
X734263Y220268D01*
X735126Y221284D01*
X736549Y221792D01*
X741832Y221945D01*
X741832Y214833D01*
X738530Y214833D01*
X736549Y215087D01*
X735126Y215798D01*
X734263Y217017D01*
X733958Y218643D01*
X731672Y218643D01*
X731977Y216662D01*
X732891Y215138D01*
X734263Y214071D01*
X735990Y213309D01*
X731418Y205181D01*
X733704Y205181D01*
X738276Y213309D01*
X741832Y213309D01*
X741832Y205181D01*
X743864Y205181D01*
X743864Y223723D01*
G37*
G36*
X802538Y208229D02*
G01*
X801827Y208127D01*
X800912Y207162D01*
X800760Y206451D01*
X800912Y205790D01*
X801827Y205028D01*
X803097Y205028D01*
X803960Y205790D01*
X803960Y207162D01*
X803097Y208127D01*
G37*
G36*
X211886Y223012D02*
G01*
X211886Y208788D01*
X211632Y208788D01*
X205790Y216408D01*
X203250Y216408D01*
X207822Y210820D01*
X202742Y202692D01*
X205028Y202692D01*
X209092Y209550D01*
X211886Y206248D01*
X211886Y202692D01*
X213918Y202692D01*
X213918Y223012D01*
G37*
G36*
X192836Y221488D02*
G01*
X189585Y220827D01*
X187096Y219049D01*
X185521Y216255D01*
X184962Y212598D01*
X185267Y209956D01*
X186080Y207771D01*
X187198Y205943D01*
X188518Y204470D01*
X184708Y204470D01*
X184708Y202692D01*
X191058Y202692D01*
X191058Y204216D01*
X189636Y205587D01*
X188417Y207467D01*
X187553Y209804D01*
X187248Y212598D01*
X187604Y215442D01*
X188722Y217678D01*
X190449Y219151D01*
X192836Y219710D01*
X195275Y219151D01*
X197104Y217678D01*
X198272Y215442D01*
X198678Y212598D01*
X198374Y209804D01*
X197510Y207467D01*
X196240Y205587D01*
X194614Y204216D01*
X194614Y202692D01*
X201218Y202692D01*
X201218Y204470D01*
X197408Y204470D01*
X198577Y205943D01*
X199644Y207771D01*
X200406Y209956D01*
X200710Y212598D01*
X200152Y216255D01*
X198577Y219049D01*
X196088Y220827D01*
G37*
G36*
X239318Y221234D02*
G01*
X239318Y219456D01*
X246430Y219456D01*
X246938Y213867D01*
X245516Y214426D01*
X243890Y214629D01*
X241757Y214274D01*
X239979Y213207D01*
X238760Y211429D01*
X238302Y208788D01*
X238861Y206095D01*
X240233Y204063D01*
X242163Y202844D01*
X244398Y202438D01*
X246329Y202590D01*
X247904Y203098D01*
X249174Y203809D01*
X250240Y204724D01*
X249224Y206248D01*
X247345Y204622D01*
X246075Y204165D01*
X244652Y203962D01*
X243078Y204266D01*
X241757Y205232D01*
X240893Y206756D01*
X240588Y208788D01*
X240893Y210515D01*
X241655Y211886D01*
X242824Y212801D01*
X244398Y213106D01*
X246176Y212750D01*
X247700Y211836D01*
X248716Y212598D01*
X248208Y221234D01*
G37*
G36*
X221792Y221234D02*
G01*
X221792Y204470D01*
X217982Y204470D01*
X217982Y202692D01*
X227888Y202692D01*
X227888Y204470D01*
X223824Y204470D01*
X223824Y218694D01*
X227126Y218694D01*
X227126Y219964D01*
X224942Y220522D01*
X223316Y221234D01*
G37*
G36*
X169468Y221234D02*
G01*
X166878Y220979D01*
X164896Y220116D01*
X163576Y218541D01*
X163118Y216154D01*
X165150Y216154D01*
X165455Y217728D01*
X166319Y218744D01*
X167741Y219303D01*
X173024Y219456D01*
X173024Y212344D01*
X169722Y212344D01*
X167741Y212598D01*
X166319Y213309D01*
X165455Y214477D01*
X165150Y216154D01*
X163118Y216154D01*
X163423Y214121D01*
X164236Y212648D01*
X165608Y211531D01*
X167436Y210820D01*
X162610Y202692D01*
X164896Y202692D01*
X169468Y210820D01*
X173024Y210820D01*
X173024Y202692D01*
X175056Y202692D01*
X175056Y221234D01*
G37*
G36*
X153212Y221234D02*
G01*
X153212Y204470D01*
X149402Y204470D01*
X149402Y202692D01*
X159562Y202692D01*
X159562Y204470D01*
X155244Y204470D01*
X155244Y218694D01*
X158546Y218694D01*
X158546Y219964D01*
X156514Y220522D01*
X154990Y221234D01*
G37*
G36*
X233730Y205740D02*
G01*
X232460Y205232D01*
X231952Y203962D01*
X232460Y202793D01*
X233730Y202438D01*
X234797Y202793D01*
X235153Y203301D01*
X235153Y204673D01*
X234289Y205587D01*
G37*
G36*
X358241Y1625D02*
G01*
X354634Y1219D01*
X351688Y203D01*
X349351Y-1270D01*
X347573Y-2946D01*
X349859Y-5740D01*
X351332Y-4318D01*
X353161Y-3200D01*
X355346Y-2438D01*
X357987Y-2184D01*
X363270Y-3251D01*
X367284Y-6299D01*
X369824Y-11176D01*
X370687Y-17678D01*
X369824Y-24028D01*
X367385Y-28956D01*
X363423Y-32054D01*
X357987Y-33121D01*
X355904Y-33020D01*
X353974Y-32562D01*
X352247Y-31851D01*
X350875Y-30886D01*
X350875Y-20726D01*
X359003Y-20726D01*
X359003Y-17170D01*
X347065Y-17170D01*
X347065Y-32664D01*
X349097Y-34391D01*
X351739Y-35763D01*
X354888Y-36626D01*
X358495Y-36982D01*
X365150Y-35610D01*
X370382Y-31800D01*
X373786Y-25704D01*
X375005Y-17678D01*
X373735Y-9601D01*
X370230Y-3556D01*
X364947Y304D01*
G37*
G36*
X312013Y863D02*
G01*
X312013Y-36220D01*
X316331Y-36220D01*
X330301Y-12090D01*
X334365Y-4470D01*
X334619Y-4470D01*
X334111Y-15900D01*
X334111Y-36220D01*
X338175Y-36220D01*
X338175Y863D01*
X333857Y863D01*
X319633Y-23266D01*
X315569Y-30886D01*
X315315Y-30886D01*
X316077Y-19202D01*
X316077Y863D01*
G37*
G36*
X292455Y863D02*
G01*
X284937Y-355D01*
X279552Y-3860D01*
X276301Y-9601D01*
X275183Y-17424D01*
X279501Y-17424D01*
X280314Y-11125D01*
X282752Y-6400D01*
X286918Y-3454D01*
X292709Y-2438D01*
X297281Y-2438D01*
X297281Y-32918D01*
X292709Y-32918D01*
X286918Y-31851D01*
X282752Y-28752D01*
X280314Y-23926D01*
X279501Y-17424D01*
X275183Y-17424D01*
X276250Y-25298D01*
X279501Y-31191D01*
X284835Y-34899D01*
X292201Y-36220D01*
X301599Y-36220D01*
X301599Y863D01*
G37*
G36*
X663295Y-1320D02*
G01*
X663295Y-4876D01*
X677519Y-4876D01*
X678535Y-16052D01*
X675792Y-14935D01*
X672693Y-14528D01*
X668375Y-15189D01*
X664819Y-17373D01*
X662432Y-21082D01*
X661517Y-26466D01*
X662533Y-31750D01*
X665226Y-35763D01*
X669036Y-38303D01*
X673455Y-39166D01*
X677418Y-38709D01*
X680669Y-37592D01*
X683260Y-35966D01*
X685393Y-34086D01*
X683107Y-31292D01*
X681431Y-32918D01*
X679399Y-34290D01*
X676910Y-35255D01*
X673963Y-35610D01*
X670763Y-34950D01*
X668172Y-33121D01*
X666445Y-30276D01*
X665835Y-26466D01*
X666394Y-22707D01*
X667969Y-19913D01*
X670458Y-18186D01*
X673709Y-17576D01*
X675436Y-17780D01*
X676960Y-18237D01*
X680059Y-19862D01*
X682345Y-18592D01*
X681075Y-1320D01*
G37*
G36*
X630021Y-1320D02*
G01*
X641959Y-38404D01*
X646785Y-38404D01*
X658723Y-1320D01*
X654405Y-1320D01*
X644499Y-34086D01*
X644245Y-34086D01*
X634339Y-1320D01*
G37*
G36*
X538276Y385826D02*
G01*
X530199Y384556D01*
X524154Y381101D01*
X520293Y375869D01*
X518972Y369316D01*
X519379Y366268D01*
X520395Y363524D01*
X521868Y361238D01*
X523544Y359410D01*
X526338Y361696D01*
X524916Y363169D01*
X523798Y364947D01*
X523036Y366979D01*
X522782Y369316D01*
X523849Y374345D01*
X526897Y378206D01*
X531774Y380644D01*
X538276Y381508D01*
X544779Y380695D01*
X549656Y378307D01*
X552704Y374548D01*
X553770Y369570D01*
X553466Y367030D01*
X552653Y364744D01*
X551383Y362661D01*
X549706Y360680D01*
X552246Y358394D01*
X554482Y360680D01*
X556158Y363372D01*
X557174Y366420D01*
X557580Y369824D01*
X556260Y376174D01*
X552500Y381254D01*
X546404Y384606D01*
G37*
G36*
X538276Y355092D02*
G01*
X530199Y353872D01*
X524154Y350520D01*
X520293Y345338D01*
X518972Y338836D01*
X519379Y335635D01*
X520395Y332841D01*
X521868Y330504D01*
X523544Y328676D01*
X526338Y330962D01*
X524916Y332587D01*
X523798Y334416D01*
X523036Y336397D01*
X522782Y338582D01*
X523849Y343611D01*
X526897Y347472D01*
X531774Y349910D01*
X538276Y350774D01*
X544779Y349961D01*
X549656Y347573D01*
X552704Y343814D01*
X553770Y338836D01*
X553466Y336296D01*
X552653Y334010D01*
X551383Y331927D01*
X549706Y329946D01*
X552246Y327660D01*
X554482Y330047D01*
X556158Y332740D01*
X557174Y335686D01*
X557580Y339090D01*
X556260Y345490D01*
X552500Y350520D01*
X546404Y353923D01*
G37*
G36*
X553516Y321310D02*
G01*
X553516Y312928D01*
X525068Y312928D01*
X525068Y319532D01*
X522274Y319532D01*
X521258Y315264D01*
X520598Y313486D01*
X519734Y311912D01*
X519734Y308864D01*
X553516Y308864D01*
X553516Y301244D01*
X556818Y301244D01*
X556818Y321310D01*
G37*
G36*
X438404Y387299D02*
G01*
X430377Y386080D01*
X424281Y382676D01*
X420420Y377545D01*
X419100Y371043D01*
X419455Y367792D01*
X420420Y364998D01*
X421893Y362712D01*
X423672Y360883D01*
X426212Y363169D01*
X424789Y364794D01*
X423672Y366623D01*
X422909Y368706D01*
X422656Y371043D01*
X423773Y375920D01*
X426872Y379679D01*
X431749Y382117D01*
X438150Y382981D01*
X444703Y382168D01*
X449630Y379780D01*
X452780Y376021D01*
X453898Y371043D01*
X453593Y368503D01*
X452780Y366217D01*
X451459Y364236D01*
X449580Y362407D01*
X452120Y359867D01*
X454456Y362254D01*
X456133Y364896D01*
X457149Y367893D01*
X457454Y371297D01*
X456184Y377647D01*
X452424Y382727D01*
X446430Y386080D01*
G37*
G36*
X438404Y356565D02*
G01*
X430377Y355346D01*
X424281Y351942D01*
X420420Y346811D01*
X419100Y340309D01*
X419455Y337108D01*
X420420Y334365D01*
X421893Y332028D01*
X423672Y330149D01*
X426212Y332435D01*
X424789Y334060D01*
X423672Y335889D01*
X422909Y337972D01*
X422656Y340309D01*
X423773Y345186D01*
X426872Y348945D01*
X431749Y351383D01*
X438150Y352247D01*
X444703Y351434D01*
X449630Y349046D01*
X452780Y345287D01*
X453898Y340309D01*
X453593Y337769D01*
X452780Y335534D01*
X451459Y333502D01*
X449580Y331673D01*
X452120Y329387D01*
X454456Y331622D01*
X456133Y334213D01*
X457149Y337159D01*
X457454Y340563D01*
X456184Y346913D01*
X452424Y351993D01*
X446430Y355346D01*
G37*
G36*
X424434Y325323D02*
G01*
X422198Y322986D01*
X420522Y320548D01*
X419455Y317804D01*
X419100Y314655D01*
X419862Y310184D01*
X422097Y306832D01*
X425551Y304698D01*
X430022Y303987D01*
X435609Y305054D01*
X441350Y308051D01*
X447344Y312775D01*
X453643Y318973D01*
X453440Y315823D01*
X453390Y302209D01*
X456946Y302209D01*
X456946Y325069D01*
X454406Y325069D01*
X447141Y317347D01*
X440791Y312064D01*
X435152Y309016D01*
X430022Y308051D01*
X427024Y308457D01*
X424586Y309676D01*
X423011Y311810D01*
X422401Y314909D01*
X422757Y317246D01*
X423722Y319328D01*
X425094Y321259D01*
X426720Y323037D01*
G37*
G36*
X780745Y570534D02*
G01*
X780745Y556310D01*
X780491Y556310D01*
X774395Y563930D01*
X772109Y563930D01*
X776681Y558342D01*
X771601Y550214D01*
X773887Y550214D01*
X777951Y557072D01*
X780745Y553770D01*
X780745Y550214D01*
X782523Y550214D01*
X782523Y570534D01*
G37*
G36*
X761695Y569010D02*
G01*
X758444Y568350D01*
X755954Y566572D01*
X754380Y563727D01*
X753821Y560120D01*
X754126Y557479D01*
X754938Y555294D01*
X756056Y553466D01*
X757377Y551992D01*
X753567Y551992D01*
X753567Y550214D01*
X759917Y550214D01*
X759917Y551738D01*
X758444Y553110D01*
X757224Y554939D01*
X756412Y557276D01*
X756107Y560120D01*
X756462Y562914D01*
X757580Y565200D01*
X759307Y566674D01*
X761695Y567232D01*
X764082Y566674D01*
X765962Y565200D01*
X767130Y562914D01*
X767537Y560120D01*
X767232Y557276D01*
X766368Y554939D01*
X765048Y553110D01*
X763473Y551738D01*
X763473Y550214D01*
X770077Y550214D01*
X770077Y551992D01*
X766267Y551992D01*
X767435Y553466D01*
X768502Y555294D01*
X769264Y557479D01*
X769569Y560120D01*
X769010Y563727D01*
X767435Y566572D01*
X764946Y568350D01*
G37*
G36*
X724103Y569010D02*
G01*
X721868Y568604D01*
X720191Y567537D01*
X719124Y565861D01*
X718769Y563676D01*
X719328Y560781D01*
X720852Y557885D01*
X723290Y554888D01*
X726389Y551738D01*
X724001Y551992D01*
X718007Y551992D01*
X718007Y550214D01*
X729437Y550214D01*
X729437Y551484D01*
X725627Y555040D01*
X722934Y558241D01*
X721309Y561086D01*
X720801Y563676D01*
X721055Y565099D01*
X721715Y566318D01*
X722833Y567182D01*
X724357Y567486D01*
X726592Y566826D01*
X728421Y565200D01*
X729691Y566470D01*
X727202Y568299D01*
X725728Y568807D01*
G37*
G36*
X808177Y568756D02*
G01*
X808177Y566978D01*
X815289Y566978D01*
X815797Y561390D01*
X814374Y561949D01*
X812749Y562152D01*
X810615Y561797D01*
X808786Y560730D01*
X807618Y558901D01*
X807161Y556310D01*
X807669Y553567D01*
X809040Y551586D01*
X811022Y550367D01*
X813257Y549960D01*
X815187Y550113D01*
X816762Y550621D01*
X818032Y551332D01*
X819099Y552246D01*
X818083Y553770D01*
X817219Y552856D01*
X814933Y551637D01*
X813511Y551484D01*
X811885Y551789D01*
X810615Y552754D01*
X809752Y554228D01*
X809447Y556310D01*
X809701Y558038D01*
X810514Y559409D01*
X811682Y560273D01*
X813257Y560628D01*
X814882Y560273D01*
X816559Y559358D01*
X817575Y560120D01*
X817067Y568756D01*
G37*
G36*
X790651Y568756D02*
G01*
X790651Y551992D01*
X786841Y551992D01*
X786841Y550214D01*
X796747Y550214D01*
X796747Y551992D01*
X792683Y551992D01*
X792683Y566216D01*
X795985Y566216D01*
X795985Y567486D01*
X793699Y567994D01*
X792175Y568756D01*
G37*
G36*
X738327Y568756D02*
G01*
X735685Y568502D01*
X733602Y567639D01*
X732231Y566064D01*
X731723Y563676D01*
X734009Y563676D01*
X734314Y565251D01*
X735126Y566267D01*
X736600Y566826D01*
X741883Y566978D01*
X741883Y559866D01*
X736600Y560070D01*
X735177Y560781D01*
X734314Y562000D01*
X734009Y563676D01*
X731723Y563676D01*
X732028Y561644D01*
X732942Y560120D01*
X734314Y559054D01*
X736041Y558342D01*
X731469Y550214D01*
X733755Y550214D01*
X738327Y558342D01*
X741883Y558342D01*
X741883Y550214D01*
X743915Y550214D01*
X743915Y568756D01*
G37*
G36*
X802589Y553262D02*
G01*
X801319Y552754D01*
X800811Y551484D01*
X800963Y550773D01*
X801878Y550011D01*
X803148Y550011D01*
X803960Y550773D01*
X804113Y551484D01*
X803656Y552754D01*
G37*
G36*
X211886Y567994D02*
G01*
X211886Y553770D01*
X211632Y553770D01*
X205790Y561390D01*
X203250Y561390D01*
X207822Y555802D01*
X202742Y547674D01*
X205028Y547674D01*
X209092Y554532D01*
X211886Y551230D01*
X211886Y547674D01*
X213918Y547674D01*
X213918Y567994D01*
G37*
G36*
X192836Y566470D02*
G01*
X189585Y565861D01*
X187096Y564032D01*
X185521Y561238D01*
X184962Y557580D01*
X185267Y554990D01*
X186080Y552754D01*
X187248Y550926D01*
X188518Y549452D01*
X184708Y549452D01*
X184708Y547674D01*
X191058Y547674D01*
X191058Y549198D01*
X189636Y550621D01*
X188417Y552450D01*
X187553Y554786D01*
X187248Y557580D01*
X187655Y560425D01*
X188722Y562660D01*
X190500Y564184D01*
X192836Y564692D01*
X195275Y564184D01*
X197104Y562660D01*
X198272Y560425D01*
X198678Y557580D01*
X198374Y554786D01*
X197510Y552450D01*
X196240Y550621D01*
X194614Y549198D01*
X194614Y547674D01*
X201218Y547674D01*
X201218Y549452D01*
X197408Y549452D01*
X198577Y550926D01*
X199644Y552754D01*
X200406Y554990D01*
X200710Y557580D01*
X200152Y561238D01*
X198577Y564032D01*
X196138Y565861D01*
G37*
G36*
X239318Y566216D02*
G01*
X239318Y564438D01*
X246430Y564438D01*
X246938Y558850D01*
X245516Y559409D01*
X243890Y559612D01*
X241757Y559308D01*
X239979Y558241D01*
X238760Y556412D01*
X238302Y553770D01*
X238861Y551078D01*
X240233Y549097D01*
X242163Y547878D01*
X244398Y547420D01*
X246329Y547624D01*
X247904Y548081D01*
X249224Y548843D01*
X250240Y549706D01*
X249224Y551230D01*
X247345Y549605D01*
X246075Y549148D01*
X244652Y548944D01*
X243078Y549300D01*
X241757Y550214D01*
X240944Y551738D01*
X240588Y553770D01*
X240893Y555548D01*
X241655Y556920D01*
X242874Y557784D01*
X244398Y558088D01*
X245313Y558038D01*
X246938Y557377D01*
X247700Y556818D01*
X248716Y557580D01*
X248208Y566216D01*
G37*
G36*
X221792Y566216D02*
G01*
X221792Y549452D01*
X217982Y549452D01*
X217982Y547674D01*
X227888Y547674D01*
X227888Y549452D01*
X223824Y549452D01*
X223824Y563676D01*
X227126Y563676D01*
X227126Y564946D01*
X224942Y565505D01*
X223316Y566216D01*
G37*
G36*
X169468Y566216D02*
G01*
X166878Y565962D01*
X164896Y565099D01*
X163576Y563575D01*
X163118Y561136D01*
X165150Y561136D01*
X165455Y562762D01*
X166319Y563778D01*
X167741Y564286D01*
X173024Y564438D01*
X173024Y557326D01*
X169722Y557326D01*
X167741Y557580D01*
X166319Y558292D01*
X165455Y559460D01*
X165150Y561136D01*
X163118Y561136D01*
X163423Y559155D01*
X164236Y557631D01*
X165608Y556564D01*
X167436Y555802D01*
X162610Y547674D01*
X164896Y547674D01*
X169468Y555802D01*
X173024Y555802D01*
X173024Y547674D01*
X175056Y547674D01*
X175056Y566216D01*
G37*
G36*
X153212Y566216D02*
G01*
X153212Y549452D01*
X149402Y549452D01*
X149402Y547674D01*
X159562Y547674D01*
X159562Y549452D01*
X155244Y549452D01*
X155244Y563676D01*
X158546Y563676D01*
X158546Y564946D01*
X156514Y565505D01*
X154990Y566216D01*
G37*
G36*
X233730Y550722D02*
G01*
X233019Y550621D01*
X232105Y549656D01*
X231952Y548944D01*
X232105Y548284D01*
X233019Y547522D01*
X234289Y547522D01*
X235153Y548284D01*
X235153Y549656D01*
X234289Y550621D01*
G37*
G36*
X358241Y346659D02*
G01*
X354634Y346252D01*
X351688Y345236D01*
X349351Y343763D01*
X347573Y342087D01*
X349859Y339293D01*
X351332Y340664D01*
X353161Y341833D01*
X355346Y342544D01*
X357987Y342849D01*
X363321Y341782D01*
X367284Y338683D01*
X369824Y333806D01*
X370687Y327355D01*
X369874Y320954D01*
X367385Y316077D01*
X363423Y312928D01*
X357987Y311861D01*
X355904Y311962D01*
X353974Y312420D01*
X352247Y313131D01*
X350875Y314147D01*
X350875Y324307D01*
X359003Y324307D01*
X359003Y327863D01*
X347065Y327863D01*
X347065Y312369D01*
X349097Y310591D01*
X351739Y309219D01*
X354888Y308356D01*
X358495Y308051D01*
X365150Y309372D01*
X370382Y313232D01*
X373786Y319278D01*
X375005Y327355D01*
X373735Y335381D01*
X370230Y341477D01*
X364947Y345287D01*
G37*
G36*
X312013Y345897D02*
G01*
X312013Y308813D01*
X316331Y308813D01*
X330301Y332943D01*
X334365Y340563D01*
X334619Y340563D01*
X334111Y329133D01*
X334111Y308813D01*
X338175Y308813D01*
X338175Y345897D01*
X333857Y345897D01*
X319633Y321767D01*
X315569Y314147D01*
X315315Y314147D01*
X315976Y322935D01*
X316077Y345897D01*
G37*
G36*
X292455Y345897D02*
G01*
X284937Y344678D01*
X279552Y341122D01*
X276301Y335381D01*
X275183Y327609D01*
X279501Y327609D01*
X280314Y333908D01*
X282803Y338582D01*
X286918Y341579D01*
X292709Y342595D01*
X297281Y342595D01*
X297281Y312115D01*
X292709Y312115D01*
X286918Y313182D01*
X282803Y316230D01*
X280314Y321106D01*
X279501Y327609D01*
X275183Y327609D01*
X276250Y319735D01*
X279501Y313791D01*
X284835Y310083D01*
X292201Y308813D01*
X301599Y308813D01*
X301599Y345897D01*
G37*
G36*
X663295Y343662D02*
G01*
X663295Y340106D01*
X677519Y340106D01*
X678535Y328930D01*
X675843Y330098D01*
X674319Y330403D01*
X672693Y330454D01*
X668375Y329793D01*
X664819Y327660D01*
X662432Y323951D01*
X661517Y318516D01*
X662533Y313232D01*
X665226Y309219D01*
X669036Y306730D01*
X673455Y305816D01*
X677468Y306273D01*
X680669Y307390D01*
X683310Y309067D01*
X685393Y310896D01*
X683107Y313690D01*
X681431Y312064D01*
X679399Y310692D01*
X676960Y309727D01*
X673963Y309372D01*
X670763Y310032D01*
X668223Y311861D01*
X666496Y314756D01*
X665835Y318516D01*
X666394Y322275D01*
X667969Y325069D01*
X670458Y326796D01*
X673709Y327406D01*
X675487Y327253D01*
X678484Y326034D01*
X680059Y325120D01*
X682345Y326390D01*
X681075Y343662D01*
G37*
G36*
X630021Y343662D02*
G01*
X641959Y306578D01*
X646785Y306578D01*
X658723Y343662D01*
X654405Y343662D01*
X644499Y310896D01*
X644245Y310896D01*
X634339Y343662D01*
G37*
D10*
X1035270Y-44998D02*
G01*
X958908Y-44998D01*
X1024361Y-44998D02*
G01*
X1031633Y-37726D01*
X1035270Y-30452D01*
X1035270Y-19545D01*
X1031633Y-12270D01*
X1024361Y-4998D01*
X1013452Y-1361D01*
X1006180Y-1361D01*
X995271Y-4998D01*
X987999Y-12270D01*
X984361Y-19545D01*
X984361Y-30452D01*
X987999Y-37726D01*
X995271Y-44998D01*
X1060724Y22636D02*
G01*
X984361Y22636D01*
X1024361Y22636D02*
G01*
X1031633Y29911D01*
X1035270Y37183D01*
X1035270Y48092D01*
X1031633Y55364D01*
X1024361Y62636D01*
X1013452Y66273D01*
X1006180Y66273D01*
X995271Y62636D01*
X987999Y55364D01*
X984361Y48092D01*
X984361Y37183D01*
X987999Y29911D01*
X995271Y22636D01*
X1024361Y133911D02*
G01*
X1031633Y126636D01*
X1035270Y119364D01*
X1035270Y108455D01*
X1031633Y101183D01*
X1024361Y93911D01*
X1013452Y90274D01*
X1006180Y90274D01*
X995271Y93911D01*
X987999Y101183D01*
X984361Y108455D01*
X984361Y119364D01*
X987999Y126636D01*
X995271Y133911D01*
X1060724Y157909D02*
G01*
X984361Y157909D01*
X1024361Y157909D02*
G01*
X1031633Y165183D01*
X1035270Y172455D01*
X1035270Y183365D01*
X1031633Y190637D01*
X1024361Y197909D01*
X1013452Y201546D01*
X1006180Y201546D01*
X995271Y197909D01*
X987999Y190637D01*
X984361Y183365D01*
X984361Y172455D01*
X987999Y165183D01*
X995271Y157909D01*
M02*
