G04 Layer: BoardOutlineLayer*
G04 EasyEDA v6.5.22, 2023-01-17 18:22:32*
G04 d43e268b2071430ba4a1aa179fc42828,9c64b28349a745268246d024528a85f0,10*
G04 Gerber Generator version 0.2*
G04 Scale: 100 percent, Rotated: No, Reflected: No *
G04 Dimensions in millimeters *
G04 leading zeros omitted , absolute positions ,4 integer and 5 decimal *
%FSLAX45Y45*%
%MOMM*%

%ADD10C,0.0510*%
%ADD11C,0.0500*%
%ADD12C,0.2540*%
D10*
X1014597Y722497D02*
G01*
X1014597Y-514499D01*
X-35999Y722497D02*
G01*
X1013998Y722497D01*
X-38999Y722497D02*
G01*
X-38999Y-514499D01*
X-35999Y-514499D02*
G01*
X1014006Y-514474D01*
X885449Y-263174D02*
G01*
X885449Y-409475D01*
D11*
X113017Y-69072D02*
G01*
X113022Y-169062D01*
X153504Y-69054D02*
G01*
X153497Y-169080D01*
D10*
X788007Y-68999D02*
G01*
X787989Y-169080D01*
D11*
X153497Y-169080D02*
G01*
X747511Y-169049D01*
D10*
X747511Y-69054D02*
G01*
X747511Y-169080D01*
D11*
X153504Y-69054D02*
G01*
X747511Y-69054D01*
D10*
X885451Y182328D02*
G01*
X885451Y36029D01*
D11*
X113004Y376974D02*
G01*
X113009Y276989D01*
X153492Y376994D02*
G01*
X153487Y276969D01*
D10*
X787989Y377050D02*
G01*
X787986Y276971D01*
D11*
X153487Y276969D02*
G01*
X747499Y276999D01*
D10*
X747501Y376994D02*
G01*
X747499Y276969D01*
D11*
X153492Y376994D02*
G01*
X747501Y376994D01*
D10*
X885441Y628378D02*
G01*
X885441Y482079D01*
D11*
G75*
G01*
X113005Y376974D02*
G02*
X14900Y455760I-381J99999D01*
G75*
G01*
X885500Y35951D02*
G02*
X787999Y-68999I-99876J-4979D01*
G75*
G01*
X788007Y276449D02*
G02*
X885363Y182319I-2473J-99970D01*
G75*
G01*
X113017Y-69075D02*
G02*
X14912Y9710I-381J99999D01*
G75*
G01*
X15512Y-269555D02*
G02*
X113010Y-169034I99998J552D01*
G75*
G01*
X885490Y482001D02*
G02*
X787989Y377050I-99876J-4979D01*
G75*
G01*
X787997Y-169057D02*
G02*
X885360Y-263187I-2466J-99970D01*
G75*
G01*
X15507Y175951D02*
G02*
X113005Y276469I99998J549D01*
G75*
G01*
X113022Y-514579D02*
G02*
X14917Y-435795I-381J99999D01*
G75*
G01*
X15494Y622000D02*
G02*
X112992Y722518I99998J550D01*
D12*
X152999Y377499D02*
G01*
X153499Y275998D01*
X153499Y275998D02*
G01*
X747499Y277500D01*
X747499Y277500D02*
G01*
X746998Y376499D01*
X746998Y376499D02*
G01*
X152999Y377499D01*
X153012Y-68549D02*
G01*
X153512Y-170050D01*
X153512Y-170050D02*
G01*
X747511Y-168549D01*
X747511Y-168549D02*
G01*
X747008Y-69550D01*
X747008Y-69550D02*
G01*
X153012Y-68549D01*
X866498Y414500D02*
G01*
X885816Y198135D01*
X885816Y198135D02*
G01*
X883998Y204500D01*
X883998Y204500D02*
G01*
X879497Y217500D01*
X879497Y217500D02*
G01*
X872997Y229999D01*
X872997Y229999D02*
G01*
X864499Y241998D01*
X864499Y241998D02*
G01*
X857498Y249499D01*
X857498Y249499D02*
G01*
X850498Y255998D01*
X850498Y255998D02*
G01*
X839998Y263499D01*
X839998Y263499D02*
G01*
X828497Y269999D01*
X828497Y269999D02*
G01*
X818997Y273499D01*
X818997Y273499D02*
G01*
X809998Y275998D01*
X809998Y275998D02*
G01*
X799498Y278000D01*
X799498Y278000D02*
G01*
X795497Y278498D01*
X795497Y278498D02*
G01*
X789998Y278998D01*
X789998Y278998D02*
G01*
X789998Y374500D01*
X789998Y374500D02*
G01*
X799998Y375498D01*
X799998Y375498D02*
G01*
X809998Y377499D01*
X809998Y377499D02*
G01*
X813998Y378498D01*
X813998Y378498D02*
G01*
X819998Y380499D01*
X819998Y380499D02*
G01*
X829998Y384500D01*
X829998Y384500D02*
G01*
X840498Y390499D01*
X840498Y390499D02*
G01*
X850999Y398000D01*
X850999Y398000D02*
G01*
X859497Y405998D01*
X859497Y405998D02*
G01*
X862998Y409999D01*
X862998Y409999D02*
G01*
X866498Y414500D01*
X866498Y414500D02*
G01*
X866498Y414500D01*
X885997Y195498D02*
G01*
X899998Y192999D01*
X899998Y192999D02*
G01*
X899998Y415498D01*
X899998Y415498D02*
G01*
X899497Y415998D01*
X899497Y415998D02*
G01*
X867996Y415998D01*
X867996Y415998D02*
G01*
X865497Y413499D01*
X865497Y413499D02*
G01*
X865497Y245501D01*
X865497Y245501D02*
G01*
X877498Y233499D01*
X877498Y233499D02*
G01*
X877999Y233499D01*
X877999Y233499D02*
G01*
X885997Y195498D01*
X867001Y-31503D02*
G01*
X886320Y-247870D01*
X886320Y-247870D02*
G01*
X884501Y-241503D01*
X884501Y-241503D02*
G01*
X880000Y-228506D01*
X880000Y-228506D02*
G01*
X873500Y-216006D01*
X873500Y-216006D02*
G01*
X865002Y-204005D01*
X865002Y-204005D02*
G01*
X858001Y-196507D01*
X858001Y-196507D02*
G01*
X851001Y-190007D01*
X851001Y-190007D02*
G01*
X840501Y-182504D01*
X840501Y-182504D02*
G01*
X829000Y-176006D01*
X829000Y-176006D02*
G01*
X819500Y-172504D01*
X819500Y-172504D02*
G01*
X810501Y-170004D01*
X810501Y-170004D02*
G01*
X800000Y-168005D01*
X800000Y-168005D02*
G01*
X796000Y-167507D01*
X796000Y-167507D02*
G01*
X790498Y-167004D01*
X790498Y-167004D02*
G01*
X790498Y-71501D01*
X790498Y-71501D02*
G01*
X800501Y-70505D01*
X800501Y-70505D02*
G01*
X810501Y-68506D01*
X810501Y-68506D02*
G01*
X814501Y-67508D01*
X814501Y-67508D02*
G01*
X820501Y-65504D01*
X820501Y-65504D02*
G01*
X830501Y-61506D01*
X830501Y-61506D02*
G01*
X841001Y-55504D01*
X841001Y-55504D02*
G01*
X851501Y-48005D01*
X851501Y-48005D02*
G01*
X860000Y-40004D01*
X860000Y-40004D02*
G01*
X863500Y-36007D01*
X863500Y-36007D02*
G01*
X867001Y-31503D01*
X867001Y-31503D02*
G01*
X867001Y-31503D01*
X885997Y-250499D02*
G01*
X899998Y-252999D01*
X899998Y-252999D02*
G01*
X899998Y-30502D01*
X899998Y-30502D02*
G01*
X899495Y-29999D01*
X899495Y-29999D02*
G01*
X867996Y-29999D01*
X867996Y-29999D02*
G01*
X865504Y-32499D01*
X865504Y-32499D02*
G01*
X865504Y-200497D01*
X865504Y-200497D02*
G01*
X877498Y-212498D01*
X877498Y-212498D02*
G01*
X878001Y-212498D01*
X878001Y-212498D02*
G01*
X885997Y-250499D01*
X33406Y-31816D02*
G01*
X14089Y-248183D01*
X14089Y-248183D02*
G01*
X15001Y-250499D01*
X15001Y-250499D02*
G01*
X17000Y-241000D01*
X17000Y-241000D02*
G01*
X17500Y-238998D01*
X17500Y-238998D02*
G01*
X19999Y-231998D01*
X19999Y-231998D02*
G01*
X21000Y-228998D01*
X21000Y-228998D02*
G01*
X24406Y-222816D01*
X24406Y-222816D02*
G01*
X27906Y-216316D01*
X27906Y-216316D02*
G01*
X31407Y-210317D01*
X31407Y-210317D02*
G01*
X33500Y-207500D01*
X33500Y-207500D02*
G01*
X35999Y-204500D01*
X35999Y-204500D02*
G01*
X38000Y-201998D01*
X38000Y-201998D02*
G01*
X39499Y-200499D01*
X39499Y-200499D02*
G01*
X42905Y-196816D01*
X42905Y-196816D02*
G01*
X49905Y-190317D01*
X49905Y-190317D02*
G01*
X59905Y-182816D01*
X59905Y-182816D02*
G01*
X71409Y-176319D01*
X71409Y-176319D02*
G01*
X80906Y-172816D01*
X80906Y-172816D02*
G01*
X89905Y-170317D01*
X89905Y-170317D02*
G01*
X100406Y-168318D01*
X100406Y-168318D02*
G01*
X104406Y-167820D01*
X104406Y-167820D02*
G01*
X113405Y-167317D01*
X113405Y-167317D02*
G01*
X113906Y-71318D01*
X113906Y-71318D02*
G01*
X99905Y-70817D01*
X99905Y-70817D02*
G01*
X89905Y-68818D01*
X89905Y-68818D02*
G01*
X85905Y-67820D01*
X85905Y-67820D02*
G01*
X79905Y-65816D01*
X79905Y-65816D02*
G01*
X69908Y-61818D01*
X69908Y-61818D02*
G01*
X59405Y-55816D01*
X59405Y-55816D02*
G01*
X48905Y-48318D01*
X48905Y-48318D02*
G01*
X40408Y-40317D01*
X40408Y-40317D02*
G01*
X36906Y-36319D01*
X36906Y-36319D02*
G01*
X33406Y-31816D01*
X33406Y-31816D02*
G01*
X33406Y-31816D01*
X14500Y-251000D02*
G01*
X2Y-253494D01*
X2Y-253494D02*
G01*
X2Y-30998D01*
X2Y-30998D02*
G01*
X507Y-30495D01*
X507Y-30495D02*
G01*
X32004Y-30495D01*
X32004Y-30495D02*
G01*
X34495Y-32994D01*
X34495Y-32994D02*
G01*
X34495Y-200992D01*
X34495Y-200992D02*
G01*
X22501Y-212994D01*
X22501Y-212994D02*
G01*
X21998Y-212994D01*
X21998Y-212994D02*
G01*
X14500Y-251000D01*
X13009Y192496D02*
G01*
X-1488Y190004D01*
X-1488Y190004D02*
G01*
X-1000Y415498D01*
X-1000Y415498D02*
G01*
X30513Y412998D01*
X30513Y412998D02*
G01*
X33002Y410502D01*
X33002Y410502D02*
G01*
X33002Y242506D01*
X33002Y242506D02*
G01*
X21010Y230502D01*
X21010Y230502D02*
G01*
X20507Y230502D01*
X20507Y230502D02*
G01*
X13009Y192496D01*
X16593Y204815D02*
G01*
X14594Y195313D01*
X14594Y195313D02*
G01*
X13682Y197632D01*
X13682Y197632D02*
G01*
X29999Y412998D01*
X29999Y412998D02*
G01*
X31998Y413499D01*
X31998Y413499D02*
G01*
X32999Y412498D01*
X32999Y412498D02*
G01*
X35999Y408998D01*
X35999Y408998D02*
G01*
X39499Y404997D01*
X39499Y404997D02*
G01*
X48498Y396999D01*
X48498Y396999D02*
G01*
X58999Y389498D01*
X58999Y389498D02*
G01*
X69502Y383997D01*
X69502Y383997D02*
G01*
X79499Y379999D01*
X79499Y379999D02*
G01*
X85498Y377995D01*
X85498Y377995D02*
G01*
X89499Y376996D01*
X89499Y376996D02*
G01*
X99499Y374997D01*
X99499Y374997D02*
G01*
X113499Y374495D01*
X113499Y374495D02*
G01*
X112999Y278493D01*
X112999Y278493D02*
G01*
X104000Y277990D01*
X104000Y277990D02*
G01*
X99999Y277497D01*
X99999Y277497D02*
G01*
X89499Y275498D01*
X89499Y275498D02*
G01*
X80500Y272994D01*
X80500Y272994D02*
G01*
X71003Y269494D01*
X71003Y269494D02*
G01*
X59499Y262999D01*
X59499Y262999D02*
G01*
X49499Y255496D01*
X49499Y255496D02*
G01*
X42499Y248996D01*
X42499Y248996D02*
G01*
X37594Y243817D01*
X37594Y243817D02*
G01*
X31000Y235493D01*
X31000Y235493D02*
G01*
X27500Y229496D01*
X27500Y229496D02*
G01*
X20594Y216814D01*
X20594Y216814D02*
G01*
X17091Y206814D01*
X17091Y206814D02*
G01*
X16593Y204815D01*
X16593Y204815D02*
G01*
X16593Y204815D01*
X16499Y649998D02*
G01*
X15488Y646021D01*
X15488Y646021D02*
G01*
X14991Y641522D01*
X14991Y641522D02*
G01*
X9989Y641022D01*
X9989Y641022D02*
G01*
X4490Y640021D01*
X4490Y640021D02*
G01*
X1490Y639020D01*
X1490Y639020D02*
G01*
X-510Y638520D01*
X-510Y638520D02*
G01*
X-4010Y637021D01*
X-4010Y637021D02*
G01*
X-9509Y634022D01*
X-9509Y634022D02*
G01*
X-18011Y628022D01*
X-18011Y628022D02*
G01*
X-24511Y621522D01*
X-24511Y621522D02*
G01*
X-28011Y616521D01*
X-28011Y616521D02*
G01*
X-31010Y611022D01*
X-31010Y611022D02*
G01*
X-34010Y603021D01*
X-34010Y603021D02*
G01*
X-36509Y589020D01*
X-36509Y589020D02*
G01*
X-39009Y589020D01*
X-39009Y589020D02*
G01*
X-40010Y719020D01*
X-40010Y719020D02*
G01*
X-38508Y723521D01*
X-38508Y723521D02*
G01*
X112989Y725020D01*
X112989Y725020D02*
G01*
X106489Y724522D01*
X106489Y724522D02*
G01*
X101490Y724021D01*
X101490Y724021D02*
G01*
X99999Y723999D01*
X99999Y723999D02*
G01*
X97500Y723498D01*
X97500Y723498D02*
G01*
X97000Y723498D01*
X97000Y723498D02*
G01*
X94500Y722998D01*
X94500Y722998D02*
G01*
X92489Y722520D01*
X92489Y722520D02*
G01*
X88488Y721522D01*
X88488Y721522D02*
G01*
X84990Y720521D01*
X84990Y720521D02*
G01*
X80490Y719020D01*
X80490Y719020D02*
G01*
X78000Y717999D01*
X78000Y717999D02*
G01*
X74500Y716498D01*
X74500Y716498D02*
G01*
X70990Y715020D01*
X70990Y715020D02*
G01*
X67990Y713521D01*
X67990Y713521D02*
G01*
X64490Y711522D01*
X64490Y711522D02*
G01*
X61988Y710021D01*
X61988Y710021D02*
G01*
X58988Y708022D01*
X58988Y708022D02*
G01*
X55989Y706020D01*
X55989Y706020D02*
G01*
X53990Y704522D01*
X53990Y704522D02*
G01*
X51490Y702520D01*
X51490Y702520D02*
G01*
X49489Y701022D01*
X49489Y701022D02*
G01*
X45488Y697522D01*
X45488Y697522D02*
G01*
X42405Y694179D01*
X42405Y694179D02*
G01*
X37500Y689000D01*
X37500Y689000D02*
G01*
X30906Y680676D01*
X30906Y680676D02*
G01*
X27406Y674679D01*
X27406Y674679D02*
G01*
X20500Y661997D01*
X20500Y661997D02*
G01*
X16997Y651997D01*
X16997Y651997D02*
G01*
X16499Y649998D01*
X16499Y649998D02*
G01*
X16499Y649998D01*
X-39999Y-514499D02*
G01*
X-38999Y630499D01*
X-38999Y630499D02*
G01*
X0Y656498D01*
X0Y656498D02*
G01*
X9999Y-479501D01*
X9999Y-479501D02*
G01*
X12499Y-513499D01*
X12499Y-513499D02*
G01*
X9499Y-514499D01*
X9499Y-514499D02*
G01*
X-39999Y-514499D01*
X-39999Y-514499D02*
G01*
X-39999Y-514499D01*
X500Y413997D02*
G01*
X54Y414887D01*
X54Y414887D02*
G01*
X-2499Y644499D01*
X-2499Y644499D02*
G01*
X500Y413997D01*
X500Y413997D02*
G01*
X500Y413997D01*
X9499Y-479999D02*
G01*
X9499Y-478998D01*
X9499Y-478998D02*
G01*
X12499Y-479498D01*
X12499Y-479498D02*
G01*
X15400Y-479798D01*
X15400Y-479798D02*
G01*
X18199Y-479798D01*
X18199Y-479798D02*
G01*
X20299Y-479798D01*
X20299Y-479798D02*
G01*
X22999Y-479699D01*
X22999Y-479699D02*
G01*
X25798Y-479297D01*
X25798Y-479297D02*
G01*
X31000Y-478497D01*
X31000Y-478497D02*
G01*
X31998Y-478000D01*
X31998Y-478000D02*
G01*
X32499Y-478198D01*
X32499Y-478198D02*
G01*
X33299Y-479498D01*
X33299Y-479498D02*
G01*
X35001Y-481398D01*
X35001Y-481398D02*
G01*
X37299Y-483999D01*
X37299Y-483999D02*
G01*
X42100Y-488998D01*
X42100Y-488998D02*
G01*
X44500Y-490999D01*
X44500Y-490999D02*
G01*
X48999Y-495000D01*
X48999Y-495000D02*
G01*
X54000Y-498497D01*
X54000Y-498497D02*
G01*
X59999Y-502498D01*
X59999Y-502498D02*
G01*
X66499Y-505998D01*
X66499Y-505998D02*
G01*
X69499Y-507598D01*
X69499Y-507598D02*
G01*
X72798Y-508998D01*
X72798Y-508998D02*
G01*
X74000Y-509600D01*
X74000Y-509600D02*
G01*
X75498Y-510098D01*
X75498Y-510098D02*
G01*
X78000Y-510999D01*
X78000Y-510999D02*
G01*
X81399Y-512198D01*
X81399Y-512198D02*
G01*
X80500Y-515099D01*
X80500Y-515099D02*
G01*
X2301Y-514697D01*
X2301Y-514697D02*
G01*
X899Y-514098D01*
X899Y-514098D02*
G01*
X1000Y-511500D01*
X1000Y-511500D02*
G01*
X1000Y-503499D01*
X1000Y-503499D02*
G01*
X9499Y-479999D01*

%LPD*%
M02*
