G04 Layer: BottomSilkscreenLayer*
G04 EasyEDA v6.5.22, 2022-12-27 15:54:52*
G04 581f4e56cbf948ffa598ce4b045c5e28,9c64b28349a745268246d024528a85f0,10*
G04 Gerber Generator version 0.2*
G04 Scale: 100 percent, Rotated: No, Reflected: No *
G04 Dimensions in millimeters *
G04 leading zeros omitted , absolute positions ,4 integer and 5 decimal *
%FSLAX45Y45*%
%MOMM*%

%ADD10C,0.0800*%

%LPD*%
G36*
X623773Y439724D02*
G01*
X623773Y436168D01*
X637997Y436168D01*
X639013Y424992D01*
X636270Y426110D01*
X633171Y426516D01*
X628853Y425805D01*
X625297Y423672D01*
X622858Y419963D01*
X621995Y414528D01*
X623011Y409244D01*
X625652Y405231D01*
X629513Y402742D01*
X633933Y401828D01*
X637895Y402285D01*
X641146Y403453D01*
X643737Y405079D01*
X645871Y406958D01*
X643585Y409752D01*
X641908Y408076D01*
X639876Y406704D01*
X637387Y405739D01*
X634441Y405384D01*
X631240Y406044D01*
X628650Y407873D01*
X626922Y410768D01*
X626313Y414528D01*
X626872Y418287D01*
X628446Y421081D01*
X630936Y422859D01*
X634187Y423468D01*
X635914Y423265D01*
X638962Y422046D01*
X640537Y421182D01*
X642823Y422452D01*
X641553Y439724D01*
G37*
G36*
X590499Y439724D02*
G01*
X602437Y402640D01*
X607263Y402640D01*
X619201Y439724D01*
X614883Y439724D01*
X604977Y406958D01*
X604723Y406958D01*
X594817Y439724D01*
G37*
G36*
X321208Y436626D02*
G01*
X317601Y436270D01*
X314655Y435203D01*
X312318Y433730D01*
X310540Y432054D01*
X312826Y429259D01*
X314299Y430682D01*
X316128Y431800D01*
X318312Y432562D01*
X320954Y432816D01*
X326288Y431749D01*
X330250Y428701D01*
X332790Y423824D01*
X333654Y417372D01*
X332790Y410972D01*
X330352Y406044D01*
X326390Y402945D01*
X320954Y401828D01*
X318871Y401980D01*
X316941Y402437D01*
X315214Y403148D01*
X313842Y404164D01*
X313842Y414274D01*
X321970Y414274D01*
X321970Y417880D01*
X310032Y417880D01*
X310032Y402336D01*
X312064Y400608D01*
X314706Y399237D01*
X317855Y398322D01*
X321462Y398018D01*
X328117Y399338D01*
X333349Y403199D01*
X336753Y409295D01*
X337972Y417372D01*
X336702Y425399D01*
X333197Y431495D01*
X327914Y435305D01*
G37*
G36*
X274980Y435914D02*
G01*
X274980Y398830D01*
X279298Y398830D01*
X293319Y422909D01*
X297332Y430580D01*
X297586Y430580D01*
X297078Y419100D01*
X297078Y398830D01*
X301142Y398830D01*
X301142Y435914D01*
X296824Y435914D01*
X282600Y411734D01*
X278536Y404164D01*
X278282Y404164D01*
X278790Y409956D01*
X279044Y415798D01*
X279044Y435914D01*
G37*
G36*
X255422Y435914D02*
G01*
X247904Y434695D01*
X242519Y431139D01*
X239267Y425399D01*
X238150Y417576D01*
X242519Y417576D01*
X243281Y423926D01*
X245770Y428599D01*
X249885Y431546D01*
X255676Y432562D01*
X260248Y432562D01*
X260248Y402082D01*
X255676Y402082D01*
X249885Y403148D01*
X245770Y406247D01*
X243281Y411124D01*
X242519Y417576D01*
X238150Y417576D01*
X239267Y409752D01*
X242468Y403809D01*
X247802Y400100D01*
X255219Y398830D01*
X264566Y398830D01*
X264566Y435914D01*
G37*
G36*
X172415Y658012D02*
G01*
X172415Y643788D01*
X172161Y643788D01*
X166319Y651408D01*
X163779Y651408D01*
X168351Y645820D01*
X163271Y637692D01*
X165557Y637692D01*
X169621Y644550D01*
X172415Y641248D01*
X172415Y637692D01*
X174447Y637692D01*
X174447Y658012D01*
G37*
G36*
X153365Y656488D02*
G01*
X150114Y655828D01*
X147624Y653999D01*
X146050Y651205D01*
X145491Y647598D01*
X145796Y644956D01*
X146608Y642772D01*
X147726Y640943D01*
X149047Y639470D01*
X145237Y639470D01*
X145237Y637692D01*
X151587Y637692D01*
X151587Y639216D01*
X150114Y640588D01*
X148894Y642416D01*
X148082Y644753D01*
X147777Y647598D01*
X148132Y650392D01*
X149250Y652678D01*
X150977Y654151D01*
X153365Y654710D01*
X155752Y654151D01*
X157632Y652678D01*
X158800Y650392D01*
X159207Y647598D01*
X158902Y644753D01*
X158038Y642416D01*
X156768Y640588D01*
X155143Y639216D01*
X155143Y637692D01*
X161747Y637692D01*
X161747Y639470D01*
X157937Y639470D01*
X159105Y640943D01*
X160172Y642772D01*
X160934Y644956D01*
X161239Y647598D01*
X160680Y651205D01*
X159105Y653999D01*
X156616Y655828D01*
G37*
G36*
X199847Y656234D02*
G01*
X199847Y654456D01*
X206959Y654456D01*
X207467Y648868D01*
X206044Y649427D01*
X204419Y649630D01*
X202285Y649274D01*
X200456Y648208D01*
X199288Y646379D01*
X198831Y643788D01*
X199339Y641045D01*
X200761Y639064D01*
X202692Y637844D01*
X204927Y637438D01*
X206857Y637590D01*
X208432Y638098D01*
X209702Y638810D01*
X210769Y639724D01*
X209753Y641248D01*
X208889Y640334D01*
X206603Y639114D01*
X205181Y638962D01*
X203555Y639267D01*
X202285Y640232D01*
X201422Y641756D01*
X201117Y643788D01*
X201371Y645515D01*
X202184Y646887D01*
X203352Y647750D01*
X204927Y648106D01*
X206654Y647750D01*
X208229Y646836D01*
X209245Y647598D01*
X208737Y656234D01*
G37*
G36*
X182321Y656234D02*
G01*
X182321Y639470D01*
X178511Y639470D01*
X178511Y637692D01*
X188417Y637692D01*
X188417Y639470D01*
X184353Y639470D01*
X184353Y653694D01*
X187655Y653694D01*
X187655Y654964D01*
X185470Y655472D01*
X183845Y656234D01*
G37*
G36*
X129997Y656234D02*
G01*
X127406Y655980D01*
X125374Y655116D01*
X124104Y653542D01*
X123647Y651154D01*
X125679Y651154D01*
X125983Y652729D01*
X126847Y653745D01*
X128270Y654304D01*
X133553Y654456D01*
X133553Y647344D01*
X130251Y647344D01*
X128270Y647598D01*
X126847Y648309D01*
X125983Y649478D01*
X125679Y651154D01*
X123647Y651154D01*
X123952Y649122D01*
X124764Y647598D01*
X126085Y646531D01*
X127965Y645820D01*
X123139Y637692D01*
X125425Y637692D01*
X129997Y645820D01*
X133553Y645820D01*
X133553Y637692D01*
X135585Y637692D01*
X135585Y656234D01*
G37*
G36*
X113741Y656234D02*
G01*
X113741Y639470D01*
X109931Y639470D01*
X109931Y637692D01*
X120091Y637692D01*
X120091Y639470D01*
X115773Y639470D01*
X115773Y653694D01*
X119075Y653694D01*
X119075Y654964D01*
X116992Y655472D01*
X115519Y656234D01*
G37*
G36*
X194259Y640740D02*
G01*
X192989Y640232D01*
X192481Y638962D01*
X192633Y638251D01*
X193548Y637489D01*
X194818Y637489D01*
X195681Y638251D01*
X195681Y639673D01*
X194818Y640588D01*
G37*
G36*
X743712Y660501D02*
G01*
X743712Y646277D01*
X743458Y646277D01*
X737362Y653897D01*
X735076Y653897D01*
X739648Y648309D01*
X734568Y640181D01*
X736854Y640181D01*
X740918Y647039D01*
X743712Y643737D01*
X743712Y640181D01*
X745490Y640181D01*
X745490Y660501D01*
G37*
G36*
X724662Y658977D02*
G01*
X721410Y658368D01*
X718921Y656539D01*
X717346Y653745D01*
X716788Y650087D01*
X717092Y647446D01*
X717905Y645261D01*
X719023Y643432D01*
X720344Y641959D01*
X716534Y641959D01*
X716534Y640181D01*
X722884Y640181D01*
X722884Y641705D01*
X721410Y643077D01*
X720191Y644956D01*
X719378Y647293D01*
X719074Y650087D01*
X719429Y652932D01*
X720547Y655167D01*
X722274Y656691D01*
X724662Y657199D01*
X727049Y656691D01*
X728929Y655167D01*
X730097Y652932D01*
X730504Y650087D01*
X730199Y647293D01*
X729335Y644956D01*
X728014Y643077D01*
X726440Y641705D01*
X726440Y640181D01*
X733044Y640181D01*
X733044Y641959D01*
X729234Y641959D01*
X730402Y643432D01*
X731469Y645261D01*
X732231Y647446D01*
X732536Y650087D01*
X731977Y653745D01*
X730402Y656539D01*
X727913Y658368D01*
G37*
G36*
X687070Y658977D02*
G01*
X684834Y658622D01*
X683158Y657555D01*
X682091Y655878D01*
X681736Y653643D01*
X682294Y650798D01*
X683818Y647852D01*
X686206Y644855D01*
X689356Y641705D01*
X687730Y641908D01*
X680974Y641959D01*
X680974Y640181D01*
X692404Y640181D01*
X692404Y641451D01*
X688594Y645058D01*
X685901Y648208D01*
X684276Y651052D01*
X683768Y653643D01*
X683971Y655116D01*
X684682Y656336D01*
X685800Y657148D01*
X687324Y657453D01*
X688441Y657301D01*
X690524Y656082D01*
X691388Y655167D01*
X692658Y656437D01*
X691438Y657504D01*
X688695Y658825D01*
G37*
G36*
X771144Y658723D02*
G01*
X771144Y656945D01*
X778256Y656945D01*
X778764Y651357D01*
X777341Y651916D01*
X775716Y652119D01*
X773582Y651764D01*
X771753Y650748D01*
X770585Y648919D01*
X770128Y646277D01*
X770636Y643585D01*
X772007Y641604D01*
X773988Y640334D01*
X776224Y639927D01*
X778154Y640130D01*
X779729Y640588D01*
X782066Y642213D01*
X781050Y643737D01*
X779119Y642112D01*
X777900Y641654D01*
X776478Y641451D01*
X774852Y641756D01*
X773582Y642721D01*
X772718Y644245D01*
X772414Y646277D01*
X772668Y648004D01*
X773480Y649376D01*
X774649Y650290D01*
X776224Y650595D01*
X777849Y650240D01*
X779526Y649325D01*
X780542Y650087D01*
X780034Y658723D01*
G37*
G36*
X753618Y658723D02*
G01*
X753618Y641959D01*
X749808Y641959D01*
X749808Y640181D01*
X759714Y640181D01*
X759714Y641959D01*
X755650Y641959D01*
X755650Y656183D01*
X758952Y656183D01*
X758952Y657453D01*
X756666Y658012D01*
X755142Y658723D01*
G37*
G36*
X701294Y658723D02*
G01*
X698652Y658469D01*
X696569Y657606D01*
X695198Y656031D01*
X694690Y653643D01*
X696976Y653643D01*
X697230Y655218D01*
X698093Y656234D01*
X699566Y656793D01*
X704850Y656945D01*
X704850Y649833D01*
X701548Y649833D01*
X699566Y650087D01*
X698093Y650798D01*
X697230Y651967D01*
X696976Y653643D01*
X694690Y653643D01*
X694994Y651611D01*
X695909Y650138D01*
X697280Y649020D01*
X699008Y648309D01*
X694436Y640181D01*
X696722Y640181D01*
X701294Y648309D01*
X704850Y648309D01*
X704850Y640181D01*
X706882Y640181D01*
X706882Y658723D01*
G37*
G36*
X765556Y643229D02*
G01*
X764286Y642721D01*
X763778Y641451D01*
X763930Y640791D01*
X764844Y640029D01*
X766114Y640029D01*
X766927Y640791D01*
X767080Y641451D01*
X766572Y642721D01*
G37*
G36*
X398932Y477266D02*
G01*
X390855Y476046D01*
X384759Y472693D01*
X380949Y467512D01*
X379628Y461009D01*
X379984Y457809D01*
X380949Y455015D01*
X382422Y452678D01*
X384200Y450900D01*
X386740Y453135D01*
X385318Y454761D01*
X384200Y456590D01*
X383438Y458673D01*
X383184Y461009D01*
X384251Y465886D01*
X387400Y469646D01*
X392277Y472084D01*
X398678Y472948D01*
X405180Y472135D01*
X410159Y469747D01*
X413308Y465988D01*
X414375Y461009D01*
X414121Y458470D01*
X413308Y456234D01*
X411937Y454202D01*
X410108Y452374D01*
X412597Y449834D01*
X414985Y452221D01*
X416610Y454914D01*
X417626Y457911D01*
X417982Y461264D01*
X416661Y467614D01*
X412902Y472693D01*
X406908Y476097D01*
G37*
G36*
X398932Y446532D02*
G01*
X390855Y445312D01*
X384759Y441959D01*
X380949Y436778D01*
X379628Y430276D01*
X379984Y427075D01*
X380949Y424332D01*
X382422Y422046D01*
X384200Y420116D01*
X386740Y422401D01*
X385318Y424027D01*
X384200Y425856D01*
X383438Y427939D01*
X383184Y430276D01*
X384251Y435152D01*
X387400Y438912D01*
X392277Y441350D01*
X398678Y442214D01*
X405180Y441401D01*
X410159Y439013D01*
X413308Y435254D01*
X414375Y430276D01*
X414121Y427735D01*
X413308Y425500D01*
X411937Y423468D01*
X410108Y421640D01*
X412597Y419354D01*
X414985Y421589D01*
X416610Y424180D01*
X417626Y427126D01*
X417982Y430530D01*
X416661Y436880D01*
X412902Y441959D01*
X406908Y445312D01*
G37*
G36*
X384962Y415290D02*
G01*
X382727Y413004D01*
X381050Y410565D01*
X379984Y407822D01*
X379628Y404622D01*
X380390Y400202D01*
X382574Y396798D01*
X386029Y394716D01*
X390550Y393954D01*
X396138Y395020D01*
X401878Y398018D01*
X407822Y402742D01*
X414121Y408940D01*
X413867Y402844D01*
X413867Y392176D01*
X417474Y392176D01*
X417474Y415035D01*
X414934Y415035D01*
X407619Y407365D01*
X401320Y402082D01*
X395681Y399034D01*
X390550Y398018D01*
X387502Y398424D01*
X385114Y399643D01*
X383489Y401777D01*
X382930Y404876D01*
X383286Y407212D01*
X384200Y409346D01*
X385572Y411226D01*
X387197Y413004D01*
G37*
G36*
X498754Y475792D02*
G01*
X490728Y474573D01*
X484632Y471068D01*
X480771Y465835D01*
X479450Y459333D01*
X479856Y456234D01*
X480872Y453491D01*
X482346Y451205D01*
X484022Y449427D01*
X486816Y451713D01*
X485393Y453186D01*
X484276Y454914D01*
X483565Y456996D01*
X483260Y459333D01*
X484327Y464312D01*
X487426Y468172D01*
X492302Y470662D01*
X498754Y471525D01*
X505256Y470662D01*
X510133Y468325D01*
X513181Y464566D01*
X514248Y459587D01*
X513994Y457047D01*
X513181Y454761D01*
X511911Y452628D01*
X510184Y450697D01*
X512724Y448411D01*
X514959Y450697D01*
X516635Y453339D01*
X517702Y456387D01*
X518058Y459841D01*
X516788Y466191D01*
X512978Y471271D01*
X506933Y474624D01*
G37*
G36*
X498754Y445109D02*
G01*
X490728Y443890D01*
X484632Y440486D01*
X480771Y435356D01*
X479450Y428853D01*
X479856Y425602D01*
X480872Y422808D01*
X482346Y420471D01*
X484022Y418642D01*
X486816Y420979D01*
X485393Y422605D01*
X484276Y424383D01*
X483565Y426415D01*
X483260Y428599D01*
X484327Y433578D01*
X487426Y437438D01*
X492302Y439928D01*
X498754Y440791D01*
X505256Y439928D01*
X510133Y437591D01*
X513181Y433832D01*
X514248Y428853D01*
X513994Y426313D01*
X513181Y424027D01*
X511911Y421893D01*
X510184Y419963D01*
X512724Y417677D01*
X514959Y420065D01*
X516635Y422706D01*
X517702Y425704D01*
X518058Y429107D01*
X516788Y435457D01*
X512978Y440537D01*
X506933Y443890D01*
G37*
G36*
X513994Y411327D02*
G01*
X513994Y402945D01*
X485546Y402945D01*
X485546Y409549D01*
X482752Y409549D01*
X481787Y405231D01*
X480212Y401929D01*
X480212Y398830D01*
X513994Y398830D01*
X513994Y391261D01*
X517296Y391261D01*
X517296Y411327D01*
G37*
G36*
X499262Y43332D02*
G01*
X491235Y42062D01*
X485140Y38608D01*
X481279Y33375D01*
X479958Y26822D01*
X480364Y23723D01*
X481380Y21031D01*
X482854Y18694D01*
X484530Y16916D01*
X487324Y19202D01*
X485901Y20675D01*
X484784Y22453D01*
X484073Y24485D01*
X483768Y26822D01*
X484835Y31851D01*
X487934Y35661D01*
X492759Y38150D01*
X499262Y39014D01*
X505764Y38201D01*
X510641Y35814D01*
X513689Y32054D01*
X514756Y27076D01*
X514502Y24536D01*
X513689Y22250D01*
X512419Y20116D01*
X510692Y18186D01*
X513232Y15900D01*
X515467Y18186D01*
X517143Y20828D01*
X518210Y23876D01*
X518566Y27330D01*
X517245Y33680D01*
X513486Y38760D01*
X507441Y42113D01*
G37*
G36*
X499262Y12598D02*
G01*
X491235Y11379D01*
X485140Y7975D01*
X481279Y2844D01*
X479958Y-3657D01*
X480364Y-6908D01*
X481380Y-9702D01*
X482854Y-12039D01*
X484530Y-13817D01*
X487324Y-11531D01*
X485901Y-9906D01*
X484784Y-8128D01*
X484073Y-6096D01*
X483768Y-3911D01*
X484835Y1117D01*
X487934Y4927D01*
X492759Y7416D01*
X499262Y8280D01*
X505764Y7467D01*
X510641Y5080D01*
X513689Y1320D01*
X514756Y-3657D01*
X514502Y-6197D01*
X513689Y-8483D01*
X512419Y-10617D01*
X510692Y-12547D01*
X513232Y-14833D01*
X515467Y-12446D01*
X517143Y-9804D01*
X518210Y-6807D01*
X518566Y-3403D01*
X517245Y2946D01*
X513486Y8026D01*
X507441Y11379D01*
G37*
G36*
X514502Y-21183D02*
G01*
X514502Y-29565D01*
X486054Y-29565D01*
X486054Y-22961D01*
X483260Y-22961D01*
X482295Y-27279D01*
X480720Y-30581D01*
X480720Y-33629D01*
X514502Y-33629D01*
X514502Y-41249D01*
X517804Y-41249D01*
X517804Y-21183D01*
G37*
G36*
X399440Y44805D02*
G01*
X391363Y43586D01*
X385267Y40182D01*
X381457Y35052D01*
X380136Y28498D01*
X380492Y25298D01*
X381457Y22504D01*
X382930Y20167D01*
X384708Y18389D01*
X387248Y20675D01*
X385826Y22250D01*
X384708Y24130D01*
X383946Y26162D01*
X383692Y28498D01*
X384759Y33375D01*
X387908Y37134D01*
X392785Y39573D01*
X399186Y40436D01*
X405688Y39624D01*
X410667Y37236D01*
X413816Y33477D01*
X414883Y28498D01*
X414629Y26009D01*
X413816Y23723D01*
X412445Y21691D01*
X410616Y19913D01*
X413105Y17322D01*
X415493Y19761D01*
X417118Y22402D01*
X418134Y25400D01*
X418490Y28752D01*
X417169Y35153D01*
X413410Y40233D01*
X407416Y43586D01*
G37*
G36*
X399440Y14071D02*
G01*
X391363Y12852D01*
X385267Y9448D01*
X381457Y4318D01*
X380136Y-2235D01*
X380492Y-5384D01*
X381457Y-8128D01*
X382930Y-10464D01*
X384708Y-12344D01*
X387248Y-10109D01*
X385826Y-8483D01*
X384708Y-6604D01*
X383946Y-4572D01*
X383692Y-2235D01*
X384759Y2641D01*
X387908Y6400D01*
X392785Y8839D01*
X399186Y9702D01*
X405688Y8890D01*
X410667Y6502D01*
X413816Y2743D01*
X414883Y-2235D01*
X414629Y-4724D01*
X413816Y-7010D01*
X412445Y-9042D01*
X410616Y-10871D01*
X413105Y-13157D01*
X415493Y-10871D01*
X417118Y-8331D01*
X418134Y-5334D01*
X418490Y-1981D01*
X417169Y4419D01*
X413410Y9499D01*
X407416Y12852D01*
G37*
G36*
X385470Y-17221D02*
G01*
X383235Y-19507D01*
X381558Y-21945D01*
X380492Y-24688D01*
X380136Y-27889D01*
X380898Y-32308D01*
X383082Y-35661D01*
X386537Y-37795D01*
X391058Y-38557D01*
X396646Y-37490D01*
X402386Y-34493D01*
X408330Y-29768D01*
X414629Y-23571D01*
X414426Y-26670D01*
X414375Y-40335D01*
X417982Y-40335D01*
X417982Y-17424D01*
X415442Y-17424D01*
X408127Y-25146D01*
X401828Y-30429D01*
X396189Y-33477D01*
X391058Y-34493D01*
X388010Y-34086D01*
X385622Y-32867D01*
X383997Y-30733D01*
X383438Y-27635D01*
X383794Y-25247D01*
X384708Y-23164D01*
X386080Y-21234D01*
X387705Y-19507D01*
G37*
G36*
X744220Y227990D02*
G01*
X744220Y213766D01*
X743966Y213766D01*
X737870Y221386D01*
X735584Y221386D01*
X740156Y215798D01*
X735076Y207670D01*
X737362Y207670D01*
X741426Y214528D01*
X744220Y211277D01*
X744220Y207670D01*
X745998Y207670D01*
X745998Y227990D01*
G37*
G36*
X725170Y226466D02*
G01*
X721868Y225856D01*
X719429Y224028D01*
X717854Y221234D01*
X717296Y217627D01*
X717600Y214985D01*
X718413Y212750D01*
X719531Y210972D01*
X720852Y209448D01*
X717042Y209448D01*
X717042Y207670D01*
X723392Y207670D01*
X723392Y209194D01*
X721918Y210566D01*
X720699Y212445D01*
X719886Y214782D01*
X719582Y217627D01*
X719937Y220421D01*
X721055Y222656D01*
X722782Y224180D01*
X725170Y224688D01*
X727557Y224180D01*
X729437Y222656D01*
X730605Y220421D01*
X731012Y217627D01*
X730707Y214782D01*
X729843Y212445D01*
X728522Y210566D01*
X726948Y209194D01*
X726948Y207670D01*
X733552Y207670D01*
X733552Y209448D01*
X729742Y209448D01*
X731977Y212750D01*
X732739Y214985D01*
X733044Y217627D01*
X732485Y221234D01*
X730910Y224028D01*
X728421Y225856D01*
G37*
G36*
X687578Y226466D02*
G01*
X685342Y226110D01*
X683666Y225044D01*
X682599Y223367D01*
X682244Y221132D01*
X682802Y218287D01*
X684326Y215392D01*
X686714Y212344D01*
X689864Y209194D01*
X688238Y209448D01*
X681482Y209448D01*
X681482Y207670D01*
X692912Y207670D01*
X692912Y208940D01*
X689102Y212547D01*
X686409Y215747D01*
X684784Y218592D01*
X684276Y221132D01*
X684479Y222605D01*
X685190Y223824D01*
X686308Y224637D01*
X687832Y224942D01*
X688949Y224790D01*
X691032Y223570D01*
X691896Y222656D01*
X693166Y223977D01*
X690626Y225806D01*
X689203Y226314D01*
G37*
G36*
X771652Y226212D02*
G01*
X771652Y224434D01*
X778764Y224434D01*
X779272Y218846D01*
X777849Y219456D01*
X776224Y219608D01*
X774090Y219303D01*
X772261Y218236D01*
X771093Y216408D01*
X770636Y213766D01*
X771144Y211074D01*
X772515Y209092D01*
X774496Y207873D01*
X776732Y207416D01*
X778662Y207619D01*
X780237Y208076D01*
X782574Y209702D01*
X781558Y211277D01*
X779627Y209600D01*
X778408Y209143D01*
X776986Y208940D01*
X775360Y209296D01*
X774090Y210210D01*
X773226Y211734D01*
X772922Y213766D01*
X773176Y215544D01*
X773988Y216865D01*
X775157Y217779D01*
X776732Y218084D01*
X778357Y217728D01*
X780034Y216865D01*
X781050Y217627D01*
X780542Y226212D01*
G37*
G36*
X754126Y226212D02*
G01*
X754126Y209448D01*
X750316Y209448D01*
X750316Y207670D01*
X760222Y207670D01*
X760222Y209448D01*
X756158Y209448D01*
X756158Y223672D01*
X759460Y223672D01*
X759460Y224942D01*
X757174Y225501D01*
X755650Y226212D01*
G37*
G36*
X701802Y226212D02*
G01*
X699160Y225958D01*
X697077Y225145D01*
X695706Y223570D01*
X695198Y221132D01*
X697484Y221132D01*
X697738Y222707D01*
X698601Y223723D01*
X700074Y224282D01*
X705358Y224434D01*
X705358Y217322D01*
X702056Y217322D01*
X700074Y217576D01*
X698601Y218287D01*
X697738Y219506D01*
X697484Y221132D01*
X695198Y221132D01*
X695502Y219151D01*
X696417Y217627D01*
X697788Y216560D01*
X699516Y215798D01*
X694944Y207670D01*
X697230Y207670D01*
X701802Y215798D01*
X705358Y215798D01*
X705358Y207670D01*
X707390Y207670D01*
X707390Y226212D01*
G37*
G36*
X766064Y210718D02*
G01*
X765352Y210616D01*
X764438Y209651D01*
X764286Y208940D01*
X764438Y208279D01*
X765352Y207517D01*
X766622Y207517D01*
X767435Y208279D01*
X767588Y208940D01*
X767080Y210210D01*
X766622Y210616D01*
G37*
G36*
X172923Y225501D02*
G01*
X172923Y211277D01*
X172669Y211277D01*
X166827Y218897D01*
X164287Y218897D01*
X168859Y213309D01*
X163779Y205181D01*
X166065Y205181D01*
X170129Y212039D01*
X172923Y208737D01*
X172923Y205181D01*
X174955Y205181D01*
X174955Y225501D01*
G37*
G36*
X153873Y223977D02*
G01*
X150622Y223316D01*
X148132Y221538D01*
X146558Y218694D01*
X145999Y215087D01*
X146304Y212445D01*
X147116Y210261D01*
X148234Y208432D01*
X149555Y206959D01*
X145745Y206959D01*
X145745Y205181D01*
X152095Y205181D01*
X152095Y206705D01*
X150622Y208076D01*
X149402Y209956D01*
X148590Y212293D01*
X148285Y215087D01*
X148640Y217881D01*
X149758Y220167D01*
X151485Y221640D01*
X153873Y222199D01*
X156260Y221640D01*
X158140Y220167D01*
X159308Y217881D01*
X159715Y215087D01*
X159410Y212293D01*
X158546Y209956D01*
X157276Y208076D01*
X155651Y206705D01*
X155651Y205181D01*
X162255Y205181D01*
X162255Y206959D01*
X158445Y206959D01*
X159613Y208432D01*
X160680Y210261D01*
X161442Y212445D01*
X161747Y215087D01*
X161188Y218694D01*
X159613Y221538D01*
X157124Y223316D01*
G37*
G36*
X200355Y223723D02*
G01*
X200355Y221945D01*
X207467Y221945D01*
X207975Y216357D01*
X206552Y216916D01*
X204927Y217119D01*
X202793Y216763D01*
X200964Y215696D01*
X199796Y213918D01*
X199339Y211277D01*
X199847Y208584D01*
X201269Y206552D01*
X203200Y205333D01*
X205435Y204927D01*
X207365Y205079D01*
X208940Y205587D01*
X210210Y206298D01*
X211277Y207213D01*
X210261Y208737D01*
X209397Y207822D01*
X207111Y206603D01*
X205689Y206451D01*
X204063Y206756D01*
X202793Y207721D01*
X201930Y209245D01*
X201625Y211277D01*
X201879Y213004D01*
X202692Y214375D01*
X203860Y215290D01*
X205435Y215595D01*
X207162Y215239D01*
X208737Y214325D01*
X209753Y215087D01*
X209245Y223723D01*
G37*
G36*
X182829Y223723D02*
G01*
X182829Y206959D01*
X179019Y206959D01*
X179019Y205181D01*
X188925Y205181D01*
X188925Y206959D01*
X184861Y206959D01*
X184861Y221183D01*
X188163Y221183D01*
X188163Y222453D01*
X185978Y222961D01*
X184353Y223723D01*
G37*
G36*
X130505Y223723D02*
G01*
X127914Y223469D01*
X125882Y222605D01*
X124612Y221030D01*
X124155Y218643D01*
X126187Y218643D01*
X126492Y220217D01*
X127355Y221234D01*
X128778Y221792D01*
X134061Y221945D01*
X134061Y214833D01*
X130759Y214833D01*
X128778Y215087D01*
X127355Y215798D01*
X126492Y216966D01*
X126187Y218643D01*
X124155Y218643D01*
X124460Y216611D01*
X125272Y215087D01*
X126593Y214020D01*
X128473Y213309D01*
X123647Y205181D01*
X125933Y205181D01*
X130505Y213309D01*
X134061Y213309D01*
X134061Y205181D01*
X136093Y205181D01*
X136093Y223723D01*
G37*
G36*
X114249Y223723D02*
G01*
X114249Y206959D01*
X110439Y206959D01*
X110439Y205181D01*
X120599Y205181D01*
X120599Y206959D01*
X116281Y206959D01*
X116281Y221183D01*
X119583Y221183D01*
X119583Y222453D01*
X117500Y222961D01*
X116027Y223723D01*
G37*
G36*
X194767Y208229D02*
G01*
X193497Y207721D01*
X192989Y206451D01*
X193497Y205282D01*
X194767Y204927D01*
X195834Y205282D01*
X196189Y205790D01*
X196189Y207162D01*
X195326Y208076D01*
G37*
G36*
X321716Y4165D02*
G01*
X318109Y3759D01*
X315163Y2692D01*
X312826Y1270D01*
X311048Y-406D01*
X313334Y-3200D01*
X314807Y-1828D01*
X316636Y-660D01*
X318820Y50D01*
X321462Y304D01*
X326796Y-711D01*
X330758Y-3810D01*
X333298Y-8686D01*
X334162Y-15138D01*
X333349Y-21539D01*
X330860Y-26416D01*
X326898Y-29565D01*
X321462Y-30632D01*
X319379Y-30530D01*
X317449Y-30073D01*
X315722Y-29362D01*
X314350Y-28346D01*
X314350Y-18237D01*
X322478Y-18237D01*
X322478Y-14630D01*
X310540Y-14630D01*
X310540Y-30124D01*
X312623Y-31902D01*
X315214Y-33274D01*
X318363Y-34137D01*
X321970Y-34493D01*
X328625Y-33121D01*
X333857Y-29311D01*
X337261Y-23215D01*
X338480Y-15138D01*
X337210Y-7112D01*
X333756Y-1016D01*
X328422Y2794D01*
G37*
G36*
X275488Y3403D02*
G01*
X275488Y-33680D01*
X279806Y-33680D01*
X293827Y-9550D01*
X297840Y-1930D01*
X298094Y-1930D01*
X297586Y-13360D01*
X297586Y-33680D01*
X301650Y-33680D01*
X301650Y3403D01*
X297332Y3403D01*
X283108Y-20726D01*
X279044Y-28346D01*
X278790Y-28346D01*
X279552Y-16713D01*
X279552Y3403D01*
G37*
G36*
X255930Y3403D02*
G01*
X248412Y2184D01*
X243027Y-1371D01*
X239775Y-7112D01*
X238658Y-14884D01*
X243027Y-14884D01*
X243840Y-8585D01*
X246278Y-3911D01*
X250393Y-965D01*
X256184Y101D01*
X260756Y101D01*
X260756Y-30429D01*
X256184Y-30429D01*
X250393Y-29362D01*
X246278Y-26263D01*
X243840Y-21386D01*
X243027Y-14884D01*
X238658Y-14884D01*
X239775Y-22758D01*
X242976Y-28702D01*
X248310Y-32410D01*
X255727Y-33680D01*
X265074Y-33680D01*
X265074Y3403D01*
G37*
G36*
X624281Y6197D02*
G01*
X624281Y2641D01*
X638505Y2641D01*
X639521Y-8534D01*
X636778Y-7366D01*
X633679Y-7010D01*
X629361Y-7670D01*
X625805Y-9804D01*
X623366Y-13563D01*
X622503Y-18948D01*
X623468Y-24231D01*
X626160Y-28244D01*
X629970Y-30784D01*
X634441Y-31648D01*
X638403Y-31191D01*
X641654Y-30073D01*
X644245Y-28448D01*
X646379Y-26568D01*
X644093Y-23774D01*
X642416Y-25400D01*
X640384Y-26771D01*
X637895Y-27736D01*
X634949Y-28092D01*
X631748Y-27432D01*
X629158Y-25603D01*
X627430Y-22707D01*
X626821Y-18948D01*
X627380Y-15189D01*
X628954Y-12395D01*
X631444Y-10668D01*
X634695Y-10058D01*
X636422Y-10210D01*
X639419Y-11430D01*
X641045Y-12344D01*
X643331Y-11074D01*
X642061Y6197D01*
G37*
G36*
X591007Y6197D02*
G01*
X602945Y-30886D01*
X607771Y-30886D01*
X619709Y6197D01*
X615391Y6197D01*
X605485Y-26568D01*
X605231Y-26568D01*
X595325Y6197D01*
G37*
G36*
X499262Y-386130D02*
G01*
X491185Y-387400D01*
X485140Y-390855D01*
X481279Y-396087D01*
X479958Y-402640D01*
X480314Y-405739D01*
X481380Y-408482D01*
X482854Y-410768D01*
X484530Y-412546D01*
X487324Y-410260D01*
X485901Y-408787D01*
X484784Y-407009D01*
X484022Y-404977D01*
X483768Y-402640D01*
X484835Y-397611D01*
X487883Y-393801D01*
X492759Y-391312D01*
X499262Y-390448D01*
X505764Y-391261D01*
X510641Y-393649D01*
X513689Y-397408D01*
X514756Y-402386D01*
X514451Y-404926D01*
X513638Y-407212D01*
X512368Y-409346D01*
X510692Y-411276D01*
X513181Y-413562D01*
X515416Y-411276D01*
X517143Y-408635D01*
X518159Y-405587D01*
X518566Y-402132D01*
X517245Y-395782D01*
X513486Y-390702D01*
X507390Y-387350D01*
G37*
G36*
X499262Y-416864D02*
G01*
X491185Y-418084D01*
X485140Y-421487D01*
X481279Y-426618D01*
X479958Y-433120D01*
X480314Y-436372D01*
X481380Y-439166D01*
X482854Y-441502D01*
X484530Y-443280D01*
X487324Y-440994D01*
X485901Y-439369D01*
X484784Y-437591D01*
X484022Y-435559D01*
X483768Y-433374D01*
X484835Y-428396D01*
X487883Y-424535D01*
X492759Y-422046D01*
X499262Y-421182D01*
X505764Y-421995D01*
X510641Y-424383D01*
X513689Y-428142D01*
X514756Y-433120D01*
X514451Y-435660D01*
X513638Y-437946D01*
X512368Y-440080D01*
X510692Y-442010D01*
X513181Y-444296D01*
X515416Y-441909D01*
X517143Y-439267D01*
X518159Y-436270D01*
X518566Y-432866D01*
X517245Y-426516D01*
X513486Y-421436D01*
X507390Y-418084D01*
G37*
G36*
X514502Y-450646D02*
G01*
X514502Y-459028D01*
X486054Y-459028D01*
X486054Y-452424D01*
X483260Y-452424D01*
X482295Y-456742D01*
X480720Y-460044D01*
X480720Y-463092D01*
X514502Y-463092D01*
X514502Y-470712D01*
X517804Y-470712D01*
X517804Y-450646D01*
G37*
G36*
X399389Y-384657D02*
G01*
X391363Y-385876D01*
X385267Y-389280D01*
X381406Y-394462D01*
X380085Y-400964D01*
X380441Y-404164D01*
X381406Y-406958D01*
X382879Y-409295D01*
X384657Y-411073D01*
X387197Y-408787D01*
X385775Y-407212D01*
X384657Y-405384D01*
X383946Y-403301D01*
X383641Y-400964D01*
X384759Y-396087D01*
X387858Y-392328D01*
X392785Y-389890D01*
X399135Y-389026D01*
X405688Y-389839D01*
X410616Y-392226D01*
X413766Y-395986D01*
X414883Y-400964D01*
X414578Y-403453D01*
X413766Y-405739D01*
X412445Y-407771D01*
X410565Y-409549D01*
X413105Y-412140D01*
X415442Y-409701D01*
X417118Y-407060D01*
X418134Y-404063D01*
X418439Y-400710D01*
X417118Y-394309D01*
X413410Y-389280D01*
X407416Y-385876D01*
G37*
G36*
X399389Y-415391D02*
G01*
X391363Y-416610D01*
X385267Y-420014D01*
X381406Y-425145D01*
X380085Y-431698D01*
X380441Y-434898D01*
X381406Y-437591D01*
X382879Y-439928D01*
X384657Y-441807D01*
X387197Y-439572D01*
X385775Y-437946D01*
X384657Y-436067D01*
X383946Y-434035D01*
X383641Y-431698D01*
X384759Y-426821D01*
X387858Y-423062D01*
X392785Y-420624D01*
X399135Y-419760D01*
X405688Y-420573D01*
X410616Y-422960D01*
X413766Y-426720D01*
X414883Y-431698D01*
X414578Y-434187D01*
X413766Y-436473D01*
X412445Y-438505D01*
X410565Y-440334D01*
X413105Y-442620D01*
X415442Y-440334D01*
X417118Y-437794D01*
X418134Y-434797D01*
X418439Y-431444D01*
X417118Y-425043D01*
X413410Y-419963D01*
X407416Y-416610D01*
G37*
G36*
X385419Y-446684D02*
G01*
X383184Y-448970D01*
X381508Y-451408D01*
X380441Y-454151D01*
X380085Y-457352D01*
X380847Y-461772D01*
X383082Y-465124D01*
X386537Y-467258D01*
X391007Y-468020D01*
X396595Y-466953D01*
X402336Y-463956D01*
X408330Y-459232D01*
X414629Y-453034D01*
X414375Y-457708D01*
X414375Y-469798D01*
X417931Y-469798D01*
X417931Y-446887D01*
X415391Y-446887D01*
X408127Y-454609D01*
X401777Y-459892D01*
X396138Y-462940D01*
X391007Y-463956D01*
X388010Y-463550D01*
X385572Y-462330D01*
X383997Y-460197D01*
X383387Y-457098D01*
X383743Y-454710D01*
X384708Y-452628D01*
X386080Y-450697D01*
X387705Y-448970D01*
G37*
G36*
X744169Y-201472D02*
G01*
X744169Y-215696D01*
X743966Y-215696D01*
X737819Y-208076D01*
X735533Y-208076D01*
X740156Y-213664D01*
X735025Y-221792D01*
X737362Y-221792D01*
X741375Y-214934D01*
X744169Y-218236D01*
X744169Y-221792D01*
X745947Y-221792D01*
X745947Y-201472D01*
G37*
G36*
X725119Y-202996D02*
G01*
X721868Y-203606D01*
X719378Y-205435D01*
X717804Y-208229D01*
X717245Y-211886D01*
X717550Y-214477D01*
X718362Y-216712D01*
X719531Y-218490D01*
X720852Y-220014D01*
X716991Y-220014D01*
X716991Y-221792D01*
X723341Y-221792D01*
X723341Y-220268D01*
X721918Y-218897D01*
X720699Y-217017D01*
X719886Y-214680D01*
X719582Y-211886D01*
X719937Y-209042D01*
X721004Y-206806D01*
X722782Y-205282D01*
X725119Y-204774D01*
X727557Y-205282D01*
X729386Y-206806D01*
X730554Y-209042D01*
X731012Y-211886D01*
X730656Y-214680D01*
X729792Y-217017D01*
X728522Y-218897D01*
X726897Y-220268D01*
X726897Y-221792D01*
X733552Y-221792D01*
X733552Y-220014D01*
X729691Y-220014D01*
X731926Y-216712D01*
X732739Y-214477D01*
X733044Y-211886D01*
X732485Y-208229D01*
X730859Y-205435D01*
X728421Y-203606D01*
G37*
G36*
X687578Y-202996D02*
G01*
X685342Y-203352D01*
X683666Y-204419D01*
X682599Y-206095D01*
X682244Y-208330D01*
X682752Y-211175D01*
X684326Y-214121D01*
X686714Y-217119D01*
X689813Y-220268D01*
X688238Y-220014D01*
X681431Y-220014D01*
X681431Y-221792D01*
X692912Y-221792D01*
X692912Y-220522D01*
X689051Y-216916D01*
X686358Y-213766D01*
X684784Y-210921D01*
X684225Y-208330D01*
X684479Y-206857D01*
X685190Y-205638D01*
X686308Y-204825D01*
X687832Y-204520D01*
X688949Y-204673D01*
X691032Y-205892D01*
X691845Y-206806D01*
X693115Y-205536D01*
X691946Y-204470D01*
X690626Y-203657D01*
X689152Y-203149D01*
G37*
G36*
X771652Y-203250D02*
G01*
X771652Y-205028D01*
X778713Y-205028D01*
X779272Y-210616D01*
X777798Y-210007D01*
X776224Y-209854D01*
X774039Y-210159D01*
X772261Y-211226D01*
X771042Y-213055D01*
X770636Y-215696D01*
X771144Y-218389D01*
X772515Y-220370D01*
X774446Y-221589D01*
X776732Y-222046D01*
X778611Y-221843D01*
X780186Y-221386D01*
X782574Y-219760D01*
X781558Y-218236D01*
X779627Y-219862D01*
X778357Y-220319D01*
X776986Y-220522D01*
X775360Y-220167D01*
X774090Y-219252D01*
X773226Y-217728D01*
X772922Y-215696D01*
X773176Y-213918D01*
X773938Y-212598D01*
X775157Y-211683D01*
X776732Y-211378D01*
X778357Y-211734D01*
X779983Y-212648D01*
X780999Y-211886D01*
X780491Y-203250D01*
G37*
G36*
X754075Y-203250D02*
G01*
X754075Y-220014D01*
X750316Y-220014D01*
X750316Y-221792D01*
X760222Y-221792D01*
X760222Y-220014D01*
X756158Y-220014D01*
X756158Y-205790D01*
X759409Y-205790D01*
X759409Y-204520D01*
X757174Y-203962D01*
X755599Y-203250D01*
G37*
G36*
X701802Y-203250D02*
G01*
X699109Y-203504D01*
X697026Y-204368D01*
X695655Y-205892D01*
X695147Y-208330D01*
X697433Y-208330D01*
X697738Y-206756D01*
X698601Y-205740D01*
X700024Y-205181D01*
X705358Y-205028D01*
X705358Y-212140D01*
X702056Y-212140D01*
X700024Y-211886D01*
X698601Y-211175D01*
X697738Y-210007D01*
X697433Y-208330D01*
X695147Y-208330D01*
X695502Y-210312D01*
X696366Y-211836D01*
X697738Y-212902D01*
X699465Y-213664D01*
X694944Y-221792D01*
X697179Y-221792D01*
X701802Y-213664D01*
X705358Y-213664D01*
X705358Y-221792D01*
X707339Y-221792D01*
X707339Y-203250D01*
G37*
G36*
X766013Y-218744D02*
G01*
X765352Y-218846D01*
X764387Y-219811D01*
X764387Y-221183D01*
X765352Y-221945D01*
X766572Y-221945D01*
X767435Y-221183D01*
X767435Y-219811D01*
X766572Y-218846D01*
G37*
G36*
X172872Y-203962D02*
G01*
X172872Y-218186D01*
X172618Y-218186D01*
X166827Y-210566D01*
X164287Y-210566D01*
X168808Y-216154D01*
X163728Y-224282D01*
X166065Y-224282D01*
X170078Y-217424D01*
X172872Y-220725D01*
X172872Y-224282D01*
X174904Y-224282D01*
X174904Y-203962D01*
G37*
G36*
X153822Y-205486D02*
G01*
X150571Y-206146D01*
X148082Y-207924D01*
X146507Y-210769D01*
X145948Y-214375D01*
X146253Y-217017D01*
X147066Y-219202D01*
X148234Y-221030D01*
X149504Y-222504D01*
X145694Y-222504D01*
X145694Y-224282D01*
X152044Y-224282D01*
X152044Y-222758D01*
X150622Y-221386D01*
X149402Y-219506D01*
X148590Y-217220D01*
X148234Y-214375D01*
X148640Y-211582D01*
X149707Y-209296D01*
X151485Y-207822D01*
X153822Y-207264D01*
X156260Y-207822D01*
X158089Y-209296D01*
X159258Y-211582D01*
X159715Y-214375D01*
X159359Y-217220D01*
X158496Y-219506D01*
X157226Y-221386D01*
X155600Y-222758D01*
X155600Y-224282D01*
X162204Y-224282D01*
X162204Y-222504D01*
X158394Y-222504D01*
X159562Y-221030D01*
X160629Y-219202D01*
X161391Y-217017D01*
X161696Y-214375D01*
X161188Y-210769D01*
X159613Y-207924D01*
X157124Y-206146D01*
G37*
G36*
X200304Y-205740D02*
G01*
X200304Y-207517D01*
X207416Y-207517D01*
X207924Y-213106D01*
X206502Y-212547D01*
X204927Y-212344D01*
X202742Y-212699D01*
X200964Y-213766D01*
X199745Y-215544D01*
X199288Y-218186D01*
X199847Y-220929D01*
X201218Y-222910D01*
X203200Y-224129D01*
X205384Y-224536D01*
X207314Y-224383D01*
X208889Y-223875D01*
X210210Y-223164D01*
X211277Y-222250D01*
X210261Y-220725D01*
X209397Y-221640D01*
X207111Y-222859D01*
X205638Y-223012D01*
X204063Y-222707D01*
X202793Y-221742D01*
X201930Y-220217D01*
X201574Y-218186D01*
X201879Y-216458D01*
X202641Y-215087D01*
X203860Y-214172D01*
X205384Y-213867D01*
X207162Y-214223D01*
X208737Y-215138D01*
X209702Y-214375D01*
X209194Y-205740D01*
G37*
G36*
X182778Y-205740D02*
G01*
X182778Y-222504D01*
X178968Y-222504D01*
X178968Y-224282D01*
X188874Y-224282D01*
X188874Y-222504D01*
X184861Y-222504D01*
X184861Y-208279D01*
X188112Y-208279D01*
X188112Y-207010D01*
X185928Y-206502D01*
X184302Y-205740D01*
G37*
G36*
X130454Y-205740D02*
G01*
X127863Y-205994D01*
X125882Y-206857D01*
X124561Y-208432D01*
X124104Y-210820D01*
X126187Y-210820D01*
X126441Y-209245D01*
X127304Y-208229D01*
X128727Y-207670D01*
X134061Y-207517D01*
X134061Y-214629D01*
X130708Y-214629D01*
X128727Y-214375D01*
X127304Y-213664D01*
X126441Y-212496D01*
X126187Y-210820D01*
X124104Y-210820D01*
X124409Y-212852D01*
X125222Y-214375D01*
X126593Y-215442D01*
X128422Y-216154D01*
X123596Y-224282D01*
X125933Y-224282D01*
X130454Y-216154D01*
X134061Y-216154D01*
X134061Y-224282D01*
X136042Y-224282D01*
X136042Y-205740D01*
G37*
G36*
X114198Y-205740D02*
G01*
X114198Y-222504D01*
X110388Y-222504D01*
X110388Y-224282D01*
X120548Y-224282D01*
X120548Y-222504D01*
X116281Y-222504D01*
X116281Y-208279D01*
X119583Y-208279D01*
X119583Y-207010D01*
X117500Y-206502D01*
X116027Y-205740D01*
G37*
G36*
X194716Y-221234D02*
G01*
X193446Y-221742D01*
X192938Y-223012D01*
X193446Y-224180D01*
X194716Y-224536D01*
X195783Y-224180D01*
X196291Y-223012D01*
X195783Y-221742D01*
G37*
G36*
X321716Y-425297D02*
G01*
X318058Y-425704D01*
X315112Y-426770D01*
X312826Y-428193D01*
X311048Y-429869D01*
X313334Y-432714D01*
X314807Y-431292D01*
X316636Y-430123D01*
X318820Y-429412D01*
X321462Y-429158D01*
X326745Y-430174D01*
X330758Y-433273D01*
X333248Y-438150D01*
X334111Y-444601D01*
X333298Y-451002D01*
X330860Y-455879D01*
X326847Y-459028D01*
X321462Y-460146D01*
X319379Y-459993D01*
X317398Y-459536D01*
X315722Y-458825D01*
X314350Y-457809D01*
X314350Y-447700D01*
X322478Y-447700D01*
X322478Y-444093D01*
X310540Y-444093D01*
X310540Y-459638D01*
X312572Y-461365D01*
X315214Y-462737D01*
X318363Y-463600D01*
X321970Y-463956D01*
X328625Y-462584D01*
X333806Y-458774D01*
X337261Y-452678D01*
X338480Y-444601D01*
X337210Y-436575D01*
X333705Y-430479D01*
X328371Y-426669D01*
G37*
G36*
X275488Y-426059D02*
G01*
X275488Y-463143D01*
X279755Y-463143D01*
X293776Y-439064D01*
X297840Y-431393D01*
X298094Y-431393D01*
X297586Y-439978D01*
X297586Y-463143D01*
X301650Y-463143D01*
X301650Y-426059D01*
X297281Y-426059D01*
X283108Y-450189D01*
X279044Y-457809D01*
X278790Y-457809D01*
X279552Y-446176D01*
X279552Y-426059D01*
G37*
G36*
X255930Y-426059D02*
G01*
X248412Y-427278D01*
X242976Y-430834D01*
X239725Y-436575D01*
X238658Y-444347D01*
X242976Y-444347D01*
X243789Y-438048D01*
X246227Y-433374D01*
X250342Y-430428D01*
X256184Y-429412D01*
X260705Y-429412D01*
X260705Y-459892D01*
X256184Y-459892D01*
X250342Y-458825D01*
X246227Y-455726D01*
X243789Y-450850D01*
X242976Y-444347D01*
X238658Y-444347D01*
X239725Y-452221D01*
X242976Y-458165D01*
X248310Y-461873D01*
X255676Y-463143D01*
X265074Y-463143D01*
X265074Y-426059D01*
G37*
G36*
X624281Y-422300D02*
G01*
X624281Y-425856D01*
X638505Y-425856D01*
X639521Y-437032D01*
X636778Y-435864D01*
X633679Y-435508D01*
X629361Y-436168D01*
X625805Y-438302D01*
X623366Y-442061D01*
X622503Y-447446D01*
X623468Y-452729D01*
X626160Y-456742D01*
X629970Y-459282D01*
X634441Y-460146D01*
X638403Y-459689D01*
X641654Y-458571D01*
X644245Y-456946D01*
X646379Y-455066D01*
X644093Y-452272D01*
X642416Y-453898D01*
X640384Y-455269D01*
X637895Y-456234D01*
X634949Y-456590D01*
X631748Y-455930D01*
X629158Y-454101D01*
X627430Y-451205D01*
X626821Y-447446D01*
X627380Y-443687D01*
X628954Y-440893D01*
X631444Y-439166D01*
X634695Y-438556D01*
X636422Y-438708D01*
X639419Y-439928D01*
X641045Y-440842D01*
X643331Y-439572D01*
X642061Y-422300D01*
G37*
G36*
X591007Y-422300D02*
G01*
X602945Y-459384D01*
X607771Y-459384D01*
X619709Y-422300D01*
X615391Y-422300D01*
X605485Y-455066D01*
X605231Y-455066D01*
X595325Y-422300D01*
G37*
D10*
X537999Y770953D02*
G01*
X537999Y713679D01*
X537999Y762769D02*
G01*
X532546Y768225D01*
X527090Y770953D01*
X518909Y770953D01*
X513453Y768225D01*
X508000Y762769D01*
X505272Y754588D01*
X505272Y749134D01*
X508000Y740953D01*
X513453Y735497D01*
X518909Y732769D01*
X527090Y732769D01*
X532546Y735497D01*
X537999Y740953D01*
X487273Y790044D02*
G01*
X487273Y732769D01*
X487273Y762769D02*
G01*
X481817Y768225D01*
X476364Y770953D01*
X468182Y770953D01*
X462727Y768225D01*
X457273Y762769D01*
X454545Y754588D01*
X454545Y749134D01*
X457273Y740953D01*
X462727Y735497D01*
X468182Y732769D01*
X476364Y732769D01*
X481817Y735497D01*
X487273Y740953D01*
X403819Y762769D02*
G01*
X409272Y768225D01*
X414728Y770953D01*
X422910Y770953D01*
X428363Y768225D01*
X433819Y762769D01*
X436544Y754588D01*
X436544Y749134D01*
X433819Y740953D01*
X428363Y735497D01*
X422910Y732769D01*
X414728Y732769D01*
X409272Y735497D01*
X403819Y740953D01*
X385818Y790044D02*
G01*
X385818Y732769D01*
X385818Y762769D02*
G01*
X380364Y768225D01*
X374909Y770953D01*
X366727Y770953D01*
X361271Y768225D01*
X355818Y762769D01*
X353090Y754588D01*
X353090Y749134D01*
X355818Y740953D01*
X361271Y735497D01*
X366727Y732769D01*
X374909Y732769D01*
X380364Y735497D01*
X385818Y740953D01*
M02*
