G04 Layer: BottomLayer*
G04 EasyEDA v6.5.22, 2023-01-17 18:22:32*
G04 d43e268b2071430ba4a1aa179fc42828,9c64b28349a745268246d024528a85f0,10*
G04 Gerber Generator version 0.2*
G04 Scale: 100 percent, Rotated: No, Reflected: No *
G04 Dimensions in millimeters *
G04 leading zeros omitted , absolute positions ,4 integer and 5 decimal *
%FSLAX45Y45*%
%MOMM*%

%ADD10R,1.2000X0.7500*%
%ADD11O,0.7500112X1.0999978000000001*%
%ADD12O,0.850011X1.0999978000000001*%
%ADD13O,0.6999986X1.0999978000000001*%
%ADD14O,0.9999979999999999X2.1999956000000003*%
%ADD15C,0.6000*%

%LPD*%
G36*
X113436Y402894D02*
G01*
X102158Y403707D01*
X92354Y405841D01*
X82854Y409244D01*
X73964Y413867D01*
X65735Y419709D01*
X58419Y426618D01*
X52069Y434441D01*
X48869Y439623D01*
X47548Y443077D01*
X23418Y569163D01*
X23063Y590702D01*
X23774Y594461D01*
X25755Y597662D01*
X32410Y602437D01*
X36677Y607314D01*
X37896Y609396D01*
X40436Y615391D01*
X41402Y620928D01*
X42265Y633272D01*
X44500Y643432D01*
X48158Y653186D01*
X53136Y662381D01*
X59334Y670712D01*
X66700Y678129D01*
X74980Y684479D01*
X84074Y689559D01*
X93827Y693267D01*
X102057Y695248D01*
X104394Y695553D01*
X227329Y695858D01*
X231241Y695096D01*
X234543Y692912D01*
X236728Y689610D01*
X237540Y685749D01*
X237693Y592836D01*
X237388Y590296D01*
X235356Y582371D01*
X234492Y572058D01*
X234492Y537921D01*
X235356Y527608D01*
X237490Y519125D01*
X237794Y516635D01*
X237998Y413054D01*
X237236Y409194D01*
X235000Y405892D01*
X231698Y403656D01*
X227838Y402894D01*
G37*

%LPD*%
G36*
X570636Y402894D02*
G01*
X566775Y403656D01*
X563473Y405892D01*
X561289Y409194D01*
X560476Y413054D01*
X560476Y514146D01*
X561289Y518058D01*
X563524Y521411D01*
X566928Y523595D01*
X570839Y524306D01*
X635406Y522985D01*
X656945Y522985D01*
X660755Y522274D01*
X664057Y520141D01*
X666242Y516940D01*
X669747Y508914D01*
X675182Y500634D01*
X681888Y493369D01*
X689711Y487273D01*
X698398Y482549D01*
X700125Y481990D01*
X703732Y479856D01*
X706120Y476453D01*
X706983Y472338D01*
X706983Y413054D01*
X706221Y409194D01*
X704037Y405892D01*
X700735Y403656D01*
X696823Y402894D01*
G37*

%LPD*%
G36*
X570687Y-43129D02*
G01*
X566775Y-42367D01*
X563473Y-40182D01*
X561289Y-36880D01*
X560527Y-32969D01*
X560527Y68072D01*
X561289Y72034D01*
X563575Y75336D01*
X566928Y77520D01*
X570890Y78232D01*
X635406Y76962D01*
X656945Y76962D01*
X660806Y76200D01*
X664057Y74066D01*
X666292Y70866D01*
X669747Y62890D01*
X675182Y54610D01*
X681888Y47294D01*
X689711Y41249D01*
X698398Y36525D01*
X700125Y35915D01*
X703732Y33782D01*
X706170Y30378D01*
X706983Y26314D01*
X706983Y-32969D01*
X706221Y-36880D01*
X704037Y-40182D01*
X700735Y-42367D01*
X696823Y-43129D01*
G37*

%LPD*%
G36*
X113487Y-43129D02*
G01*
X102209Y-42316D01*
X92354Y-40233D01*
X82905Y-36830D01*
X73964Y-32156D01*
X65786Y-26314D01*
X58419Y-19456D01*
X52120Y-11633D01*
X48310Y-5486D01*
X46990Y-2082D01*
X27584Y99466D01*
X27381Y101295D01*
X26974Y147167D01*
X27432Y150266D01*
X28803Y153060D01*
X32410Y156413D01*
X36677Y161290D01*
X37947Y163372D01*
X40436Y169316D01*
X41402Y174904D01*
X42316Y187198D01*
X44551Y197408D01*
X48158Y207162D01*
X53136Y216306D01*
X59385Y224688D01*
X66700Y232105D01*
X74980Y238404D01*
X84074Y243484D01*
X93827Y247243D01*
X102260Y249275D01*
X104648Y249580D01*
X226923Y249885D01*
X230835Y249123D01*
X234137Y246938D01*
X236321Y243636D01*
X237134Y239725D01*
X237286Y145186D01*
X236982Y142646D01*
X235356Y136296D01*
X234492Y125983D01*
X234492Y91846D01*
X235356Y81534D01*
X237083Y74726D01*
X237388Y72237D01*
X237591Y-32969D01*
X236829Y-36880D01*
X234594Y-40182D01*
X231292Y-42367D01*
X227431Y-43129D01*
G37*

%LPD*%
G36*
X570687Y-488594D02*
G01*
X566775Y-487781D01*
X563473Y-485597D01*
X561289Y-482295D01*
X560527Y-478434D01*
X560527Y-377444D01*
X561289Y-373481D01*
X563575Y-370179D01*
X566928Y-367995D01*
X570890Y-367284D01*
X635406Y-368554D01*
X656945Y-368554D01*
X660806Y-369316D01*
X664057Y-371449D01*
X666242Y-374650D01*
X669747Y-382625D01*
X675182Y-390906D01*
X681888Y-398170D01*
X689711Y-404266D01*
X698398Y-408990D01*
X700125Y-409600D01*
X703732Y-411734D01*
X706120Y-415086D01*
X706983Y-419201D01*
X706983Y-478434D01*
X706221Y-482295D01*
X704037Y-485597D01*
X700735Y-487781D01*
X696823Y-488594D01*
G37*

%LPD*%
G36*
X112877Y-488594D02*
G01*
X102209Y-487832D01*
X92354Y-485749D01*
X82905Y-482346D01*
X73964Y-477672D01*
X65786Y-471830D01*
X58419Y-464972D01*
X52120Y-457149D01*
X48310Y-451002D01*
X46990Y-447548D01*
X31699Y-367588D01*
X31495Y-365760D01*
X30886Y-294741D01*
X31495Y-291134D01*
X33375Y-287985D01*
X36677Y-284226D01*
X37947Y-282143D01*
X40436Y-276199D01*
X41402Y-270611D01*
X42316Y-258317D01*
X44551Y-248107D01*
X48158Y-238353D01*
X53136Y-229209D01*
X59385Y-220827D01*
X66700Y-213410D01*
X74980Y-207111D01*
X84124Y-202031D01*
X93827Y-198272D01*
X102311Y-196240D01*
X104648Y-195935D01*
X226923Y-195630D01*
X230835Y-196392D01*
X234137Y-198577D01*
X236321Y-201879D01*
X237134Y-205790D01*
X237286Y-300380D01*
X236982Y-302869D01*
X235356Y-309219D01*
X234492Y-319481D01*
X234492Y-353669D01*
X235356Y-363931D01*
X237083Y-370789D01*
X237388Y-373227D01*
X237591Y-478383D01*
X236829Y-482295D01*
X234594Y-485597D01*
X231292Y-487832D01*
X227431Y-488594D01*
G37*

%LPD*%
D10*
G01*
X172511Y445498D03*
G01*
X639998Y443999D03*
G01*
X640008Y-2049D03*
G01*
X172524Y-551D03*
G01*
X640013Y-447553D03*
G01*
X172529Y-446057D03*
D11*
G01*
X722510Y108948D03*
D12*
G01*
X172499Y108948D03*
D13*
G01*
X498533Y108948D03*
D14*
G01*
X18524Y80703D03*
G01*
X882505Y80703D03*
D11*
G01*
X600489Y108948D03*
D13*
G01*
X398508Y108948D03*
D11*
G01*
X294520Y108948D03*
G01*
X722508Y-336555D03*
D12*
G01*
X172501Y-336555D03*
D13*
G01*
X498538Y-336555D03*
D14*
G01*
X18526Y-364802D03*
G01*
X882502Y-364802D03*
D11*
G01*
X600494Y-336555D03*
D13*
G01*
X398510Y-336555D03*
D11*
G01*
X294523Y-336555D03*
G01*
X722497Y554997D03*
D12*
G01*
X172486Y554997D03*
D13*
G01*
X498520Y554997D03*
D14*
G01*
X18511Y526752D03*
G01*
X882492Y526752D03*
D11*
G01*
X600476Y554997D03*
D13*
G01*
X398495Y554997D03*
D11*
G01*
X294507Y554997D03*
D15*
G01*
X172486Y445498D03*
G01*
X639998Y443999D03*
G01*
X640006Y-2049D03*
G01*
X172493Y-551D03*
G01*
X640006Y-447547D03*
G01*
X172493Y-446049D03*
M02*
